<?xml version="1.0" encoding="utf-8"?>
<!-- Generator: Adobe Illustrator 21.1.0, SVG Export Plug-In . SVG Version: 6.00 Build 0)  -->
<svg version="1.1" id="Layer_1" xmlns="http://www.w3.org/2000/svg" xmlns:xlink="http://www.w3.org/1999/xlink" x="0px" y="0px"
	 viewBox="0 0 30 30" style="enable-background:new 0 0 30 30;" xml:space="preserve">
<style type="text/css">
	.st0{fill:#EAC468;}
	.st1{fill:#E92C81;}
	.st2{fill:#16FEAF;}
	.st3{fill:#1F88FF;}
	.st4{fill:#FFFFFF;}
</style>
<g id="XMLID_1_">
	<g>
		<path class="st0" d="M15.1,20.6c-2.2-0.5-4.1-2.6-4.1-4s1.2-2.6,2.6-2.6s2.6,1.2,2.6,2.6s0.7,2.7,1.3,3.6c0.2,0.3,0.4,0.6,0.4,0.8
			C17.7,21,16.9,21,15.1,20.6z"/>
		<circle class="st1" cx="24.5" cy="19.5" r="1.5"/>
		<circle class="st2" cx="23.5" cy="13.5" r="1.5"/>
		<circle class="st3" cx="19.5" cy="9.5" r="1.5"/>
		<path class="st4" d="M24.5,21c0.8,0,1.5-0.7,1.5-1.5S25.3,18,24.5,18S23,18.7,23,19.5S23.7,21,24.5,21z M24.5,22
			c-1.4,0-2.5-1.1-2.5-2.5s1.1-2.5,2.5-2.5s2.5,1.1,2.5,2.5S25.9,22,24.5,22z"/>
		<path class="st4" d="M23.5,16c-1.4,0-2.5-1.1-2.5-2.5s1.1-2.5,2.5-2.5s2.5,1.1,2.5,2.5S24.9,16,23.5,16z M22,13.5
			c0,0.8,0.7,1.5,1.5,1.5s1.5-0.7,1.5-1.5S24.3,12,23.5,12S22,12.7,22,13.5z"/>
		<path class="st4" d="M17,9.5C17,8.1,18.1,7,19.5,7S22,8.1,22,9.5S20.9,12,19.5,12S17,10.9,17,9.5z M18,9.5c0,0.8,0.7,1.5,1.5,1.5
			S21,10.3,21,9.5S20.3,8,19.5,8S18,8.7,18,9.5z"/>
		<path class="st4" d="M6.4,16.5c0.1-0.2,0.3-0.4,0.6-0.3h0.1c0.2,0.1,0.4,0.4,0.3,0.7C7.2,17.2,7.1,17.6,7,18
			c-0.1,1,0.9,4.5,3.4,7.3c1.5,1.7,4,3.7,7.6,3.7c6.9,0,10.8-3.5,11-9.8c0.1-3.8-1.5-8-4.1-10.7c-2.2-2.3-5-3.5-8.2-3.5
			c-1.8-0.1-3,1.1-3.8,3.3c-0.1,0.3-0.4,0.4-0.6,0.3c-0.1,0-0.2-0.1-0.2-0.2C12,8.3,11.9,8.1,12,8c1.1-3.3,3.2-4,4.7-4
			c3.5,0.1,6.5,1.4,8.9,3.8c2.8,2.9,4.5,7.4,4.4,11.4c-0.2,7-4.5,10.8-12,10.8c-3.9,0-6.7-2.2-8.3-4C7,23,5.8,19.3,6,17.9
			C6.1,17.4,6.2,16.9,6.4,16.5z"/>
		<path class="st4" d="M11,16.6c0,1.4,1.8,3.5,4.1,4C16.9,21,17.7,21,18,21c-0.1-0.2-0.3-0.5-0.4-0.8c-0.5-0.9-1.3-2.1-1.3-3.6
			c0-1.4-1.2-2.6-2.6-2.6S11,15.2,11,16.6z M3,0.6l7.8,8.9l2.1,2.4c0.3,0.3,0.5,0.7,0.6,1.1h0.1c2,0,3.6,1.6,3.6,3.6
			c0,1.2,0.6,2.2,1.1,3.1c0.5,0.8,0.8,1.4,0.5,1.9c-0.2,0.3-0.5,0.4-1.1,0.4s-1.5-0.1-2.9-0.5C12.3,21,10,18.6,10,16.6
			c0-0.1,0-0.2,0-0.2c-0.7-0.2-1.2-0.6-1.6-1.1l0,0L0.3,2.6C-0.2,2-0.1,1.1,0.5,0.5C0.8,0.2,1.3,0,1.8,0S2.7,0.2,3,0.6z M12.2,12.5
			L2.2,1.2C2.1,1.1,1.9,1,1.7,1S1.4,1.1,1.2,1.2C1,1.4,0.9,1.8,1.1,2.1l8.2,12.6c0.2,0.4,0.6,0.6,0.9,0.7c0.4-1.1,1.2-1.9,2.3-2.2
			C12.5,12.9,12.4,12.7,12.2,12.5z"/>
	</g>
</g>
</svg>
