<?xml version="1.0" encoding="utf-8"?>
<!-- Generator: Adobe Illustrator 22.0.1, SVG Export Plug-In . SVG Version: 6.00 Build 0)  -->
<svg version="1.1" id="Layer_1" xmlns="http://www.w3.org/2000/svg" xmlns:xlink="http://www.w3.org/1999/xlink" x="0px" y="0px"
	 viewBox="0 0 96 96" style="enable-background:new 0 0 96 96;" xml:space="preserve">
<style type="text/css">
	.st0{fill:#FFFFFF;}
</style>
<path class="st0" d="M90.5,76h-1.4c1.2-0.3,1.9-1.1,1.8-2.7c0-1.8-0.1-7.7-0.1-7.7c-0.7-5.8-4.5-7.7-7.8-8.3V23.4h3.3V5.2H83V0h-4
	v5.2h-3.3v5.5c-0.7-1.7-1.6-2.9-2.6-2.9H22.8c-1,0-1.8,1.2-2.5,2.9V5.4H17V0.2h-4v5.2H9.6v18.2H13v33.7c-3.4,0.6-7.1,2.4-7.8,8.3
	c0,0-0.1,5.9-0.1,7.7C5,74.9,6,75.7,7.2,76H5.5c-1.4,0-1.9,0.5-1.9,1.8v7.5c0,1.3,0.5,1.8,1.9,1.8l2,0.1v7.1c0,0.9,0.7,1.7,1.7,1.7
	h12.4c0.9,0,1.7-0.7,1.7-1.7V88h49.6v6.3c0,0.9,0.7,1.7,1.7,1.7h12.4c0.9,0,1.7-0.7,1.7-1.7v-7.1l2-0.1c1.4,0,1.9-0.5,1.9-1.8v-7.5
	C92.4,76.5,91.9,76,90.5,76z M12.1,73.7c-2.2,0-4-1.8-4-4c0-2.2,1.8-4,4-4c2.2,0,4,1.8,4,4C16,72,14.2,73.7,12.1,73.7z M17,23.6h1.9
	v15.2h0c0,0.1,0,0.2,0,0.3v18H17V23.6z M20.3,73.7c-1.3,0-2.4-1.1-2.4-2.4c0-1.3,1.1-2.4,2.4-2.4c1.3,0,2.4,1.1,2.4,2.4
	C22.7,72.7,21.7,73.7,20.3,73.7z M57.1,86.5H38.9v-6.1h18.2V86.5z M66.8,72c0,1.1-0.9,1.9-1.9,1.9H31.1c-1.1,0-1.9-0.9-1.9-1.9V49.5
	c0-1.5,1.2-2.4,1.9-2.5c7.6-1.2,27.1-1,33.8,0c0.9,0.1,1.9,1.3,1.9,2.5V72z M21.1,36.7C19.6,36.4,20.4,23,20.4,23
	c0-0.1,0.1-0.1,0.1-0.2h55.1c0,0.1,0,0.1,0,0.2c0,0,0.3,13.4-0.7,13.8C70.8,38.4,24.9,37.7,21.1,36.7z M75.6,73.3
	c-1.3,0-2.4-1.1-2.4-2.4c0-1.3,1.1-2.4,2.4-2.4c1.3,0,2.4,1.1,2.4,2.4C78,72.3,76.9,73.3,75.6,73.3z M79,57h-1.9v-18
	c0-0.2,0-0.3-0.1-0.4V23.6c0,0,0-0.1,0-0.1h2V57z M84.1,73.3c-2.2,0-4-1.8-4-4c0-2.2,1.8-4,4-4c2.2,0,4,1.8,4,4
	C88,71.6,86.3,73.3,84.1,73.3z M29.7,55.8h36.4v-1H29.7V55.8z M29.7,58.5h36.4v-1H29.7V58.5z M29.7,53.1h36.4v-1H29.7V53.1z
	 M64.3,48.2c-6.4-1-25.3-1.2-32.7,0c-0.7,0.1-1.9,1-1.9,2.4v0.6h36.4v-0.6C66.2,49.4,65.2,48.3,64.3,48.2z M29.7,64h36.4v-1H29.7V64
	z M29.7,69.4h36.4v-1H29.7V69.4z M29.7,72.1h36.4v-1H29.7V72.1z M29.7,61.2h36.4v-1H29.7V61.2z M29.7,66.7h36.4v-1H29.7V66.7z"/>
</svg>
