<svg id="Layer_1" data-name="Layer 1" xmlns="http://www.w3.org/2000/svg" viewBox="0 0 200 54">
  <title>Truck_On_Time</title>
  <g>
    <path d="M108.3,39.2a7.4,7.4,0,0,0,0,14.8,7.4,7.4,0,0,0,0-14.8Zm0,12.3a4.9,4.9,0,0,1,0-9.8,4.9,4.9,0,0,1,0,9.8Zm15.5-11.8H112.9a8.3,8.3,0,0,1,3.6,6.8,6.8,6.8,0,0,1-.2,1.4h4.1a6.6,6.6,0,0,1-.1-1.4A8.2,8.2,0,0,1,123.8,39.7Zm4.4-.5a7.4,7.4,0,1,0,7.2,7.4A7.3,7.3,0,0,0,128.2,39.2Zm0,12.3a4.9,4.9,0,0,1,0-9.8,4.9,4.9,0,0,1,0,9.8Zm71.5-8.4c0-.2-.1-5.7-.1-5.7s-.3-4-1.1-5.1c-4.9-2.3-16.9-5.4-19.2-5.6a30.5,30.5,0,0,1-2.2-5c-1.9-5.1-.5-5.3.4-5.4s.1-.6-.1-.8-2.8-2.1-4.2-2.8c-8.4-7.1-19.4-9.3-23.6-9.8-2.4-1-8.3-2.2-9.2-1.8h-.2c-.7.7-1.2,7.9-1.6,16.1h0c-.5,10.6-.7,22.4-.7,22.4h-5.1a8.1,8.1,0,0,1,3.6,6.8c0,.5-.1.9-.1,1.4H175V46.2a8.4,8.4,0,1,1,16.8,0v1.7h7.5a.6.6,0,0,0,.6-.5s.1-3.8.1-4S199.7,43.2,199.7,43.1ZM151.3,9.9a1.6,1.6,0,0,1-1.7,1.7h-6.2a1.6,1.6,0,0,1-1.7-1.7l.4-2.3a1.5,1.5,0,0,1,1.6-1.4l5.9.3a1.6,1.6,0,0,1,1.7,1.7Zm24.4,17-11.1-1.4a1.1,1.1,0,0,1-1.1-1.2V18a1.1,1.1,0,0,1,1.1-1.1h8.3A1.1,1.1,0,0,1,174,18l2.8,7.8A1.1,1.1,0,0,1,175.7,26.9Zm18.2,11.2c-.1-2.4-2.3-5.3-2.3-5.5a.1.1,0,0,1,.1-.1c5.2,1.4,5.9,5.6,5.9,5.6Zm-90,1.6H98.6v8.2h1.8c0-.5-.1-.9-.1-1.4A8.1,8.1,0,0,1,103.9,39.7Zm79.4-.5a7.4,7.4,0,1,0,7.2,7.4A7.3,7.3,0,0,0,183.3,39.2Zm0,12.3a4.9,4.9,0,1,1,4.8-4.9A4.9,4.9,0,0,1,183.3,51.5Z" style="fill: #0b7e57"/>
    <path d="M10,46.6A7.4,7.4,0,0,0,17.3,54a7.4,7.4,0,0,0,0-14.8A7.4,7.4,0,0,0,10,46.6Zm2.5,0a4.8,4.8,0,1,1,4.8,4.9A4.8,4.8,0,0,1,12.5,46.6Z" style="fill: #0b7e57"/>
    <path d="M30,46.6a7.2,7.2,0,1,0,7.2-7.4A7.3,7.3,0,0,0,30,46.6Zm2.4,0a4.8,4.8,0,1,1,4.8,4.9A4.9,4.9,0,0,1,32.4,46.6Z" style="fill: #0b7e57"/>
    <path d="M1.1,0H131.5a1.1,1.1,0,0,1,1.1,1.1v35a1.1,1.1,0,0,1-1.1,1.1H92.2v5.4H71.4V37.2H48.9v5.1H45.1a8.4,8.4,0,0,0-15.5,0H25a8.6,8.6,0,0,0-7.7-5.1,8.6,8.6,0,0,0-7.8,5.1H5.3V37.2H1.1A1.1,1.1,0,0,1,0,36.1V1.1A1.1,1.1,0,0,1,1.1,0Z" style="fill: #0b7e57"/>
  </g>
</svg>
