<?xml version="1.0" encoding="UTF-8"?>
<svg width="18px" height="18px" viewBox="0 0 18 18" version="1.1" xmlns="http://www.w3.org/2000/svg" xmlns:xlink="http://www.w3.org/1999/xlink">
    <!-- Generator: Sketch 48.2 (47327) - http://www.bohemiancoding.com/sketch -->
    <title>add-chat</title>
    <desc>Created with Sketch.</desc>
    <defs></defs>
    <g id="cards/Driver_Location_Card_pop-up" stroke="none" stroke-width="1" fill="none" fill-rule="evenodd" transform="translate(-285.000000, -137.000000)">
        <g id="Group-6" transform="translate(13.000000, 134.000000)" fill="#FFFFFF" fill-rule="nonzero">
            <g id="Group-2" transform="translate(258.000000, 0.000000)">
                <g id="add-chat" transform="translate(14.000000, 3.000000)">
                    <path d="M13.875,9.75 C11.601,9.75 9.75,11.60025 9.75,13.875 C9.75,16.14975 11.601,18 13.875,18 C16.149,18 18,16.14975 18,13.875 C18,11.60025 16.149,9.75 13.875,9.75 Z M13.875,17.25 C12.01425,17.25 10.5,15.73575 10.5,13.875 C10.5,12.01425 12.01425,10.5 13.875,10.5 C15.73575,10.5 17.25,12.01425 17.25,13.875 C17.25,15.73575 15.73575,17.25 13.875,17.25 Z" id="Shape"></path>
                    <path d="M15.375,13.5 L14.25,13.5 L14.25,12.375 C14.25,12.168 14.082,12 13.875,12 C13.668,12 13.5,12.168 13.5,12.375 L13.5,13.5 L12.375,13.5 C12.168,13.5 12,13.668 12,13.875 C12,14.082 12.168,14.25 12.375,14.25 L13.5,14.25 L13.5,15.375 C13.5,15.582 13.668,15.75 13.875,15.75 C14.082,15.75 14.25,15.582 14.25,15.375 L14.25,14.25 L15.375,14.25 C15.582,14.25 15.75,14.082 15.75,13.875 C15.75,13.668 15.582,13.5 15.375,13.5 Z" id="Shape"></path>
                    <path d="M8.625,12.75 L4.125,12.75 C4.01325,12.75 3.90825,12.7995 3.837,12.885 L0.75,16.58925 L0.75,3.375 C0.75,1.9275 1.9275,0.75 3.375,0.75 L13.875,0.75 C15.3225,0.75 16.5,1.9275 16.5,3.375 L16.5,9.375 C16.5,9.582 16.668,9.75 16.875,9.75 C17.082,9.75 17.25,9.582 17.25,9.375 L17.25,3.375 C17.25,1.51425 15.73575,0 13.875,0 L3.375,0 C1.51425,0 0,1.51425 0,3.375 L0,17.625 C0,17.7825 0.099,17.9235 0.2475,17.9775 C0.2895,17.9925 0.33225,18 0.375,18 C0.4845,18 0.59025,17.95275 0.66225,17.865 L4.3005,13.5 L8.625,13.5 C8.832,13.5 9,13.332 9,13.125 C9,12.918 8.832,12.75 8.625,12.75 Z" id="Shape"></path>
                    <path d="M3.75,7.125 C3.75,7.74525 4.25475,8.25 4.875,8.25 C5.49525,8.25 6,7.74525 6,7.125 C6,6.50475 5.49525,6 4.875,6 C4.25475,6 3.75,6.50475 3.75,7.125 Z M5.25,7.125 C5.25,7.332 5.08125,7.5 4.875,7.5 C4.66875,7.5 4.5,7.332 4.5,7.125 C4.5,6.918 4.66875,6.75 4.875,6.75 C5.08125,6.75 5.25,6.918 5.25,7.125 Z" id="Shape"></path>
                    <path d="M8.625,6 C8.00475,6 7.5,6.50475 7.5,7.125 C7.5,7.74525 8.00475,8.25 8.625,8.25 C9.24525,8.25 9.75,7.74525 9.75,7.125 C9.75,6.50475 9.24525,6 8.625,6 Z M8.625,7.5 C8.41875,7.5 8.25,7.332 8.25,7.125 C8.25,6.918 8.41875,6.75 8.625,6.75 C8.83125,6.75 9,6.918 9,7.125 C9,7.332 8.83125,7.5 8.625,7.5 Z" id="Shape"></path>
                    <path d="M11.25,7.125 C11.25,7.74525 11.75475,8.25 12.375,8.25 C12.99525,8.25 13.5,7.74525 13.5,7.125 C13.5,6.50475 12.99525,6 12.375,6 C11.75475,6 11.25,6.50475 11.25,7.125 Z M12.75,7.125 C12.75,7.332 12.58125,7.5 12.375,7.5 C12.16875,7.5 12,7.332 12,7.125 C12,6.918 12.16875,6.75 12.375,6.75 C12.58125,6.75 12.75,6.918 12.75,7.125 Z" id="Shape"></path>
                </g>
            </g>
        </g>
    </g>
</svg>