<?xml version="1.0" encoding="UTF-8"?>
<svg width="20px" height="20px" viewBox="0 0 20 20" version="1.1" xmlns="http://www.w3.org/2000/svg" xmlns:xlink="http://www.w3.org/1999/xlink">
    <!-- Generator: Sketch 48.2 (47327) - http://www.bohemiancoding.com/sketch -->
    <title>fuel_pump2</title>
    <desc>Created with Sketch.</desc>
    <defs></defs>
    <g id="cards/Driver_Location_Card_pop-up" stroke="none" stroke-width="1" fill="none" fill-rule="evenodd" transform="translate(-147.000000, -80.000000)">
        <g id="Group-4" transform="translate(147.000000, 80.000000)" fill="#4A90E2" fill-rule="nonzero">
            <g id="fuel_pump2">
                <path d="M10.26,1.66533454e-17 L0.14,1.66533454e-17 C0.061086174,0.00527245522 -0.000175937674,0.070910432 -3.99680119e-16,0.15 L-3.99680119e-16,19.85 C-0.000175937674,19.9290896 0.061086174,19.9947275 0.14,20 L10.26,20 C10.3389138,19.9947275 10.4001759,19.9290896 10.4,19.85 L10.4,0.15 C10.4001759,0.070910432 10.3389138,0.00527245522 10.26,0 Z M9,10.6 L1.4,10.6 C1.1790861,10.6 1,10.4209139 1,10.2 L1,1.4 C1,1.1790861 1.1790861,1 1.4,1 L9,1 C9.2209139,1 9.4,1.1790861 9.4,1.4 L9.4,10.2 C9.4,10.4209139 9.2209139,10.6 9,10.6 Z" id="Shape"></path>
                <path d="M14.37,19.4 C13.46,19.4 12.72,19.06 12.18,18.38 C10.44,16.23 11.22,11.1 11.84,8.23 C11.863072,8.12140247 11.837498,8.00814623 11.77,7.92 C11.7178313,7.83988806 11.6343455,7.78544085 11.54,7.77 L11.53,7.77 L9.76,7.7 L9.81,6.5 L11.66,6.57 C12.0992918,6.63004931 12.4939703,6.86969192 12.7498816,7.23175905 C13.005793,7.59382618 13.0999896,8.0458513 13.01,8.48 C12.06,12.87 12.1,16.38 13.11,17.63 C13.43,18.02 13.83,18.2 14.37,18.2 C14.91,18.2 15.31,18.02 15.61,17.61 C16.3,16.71 16.49,14.74 16.15,12.05 C16.06,11.35 15.94,10.72 15.83,10.11 C15.58,8.85 15.33,7.54 15.4,5.69 C15.45,4.37 15.67,3.56 16.12,3.05 L18.37,0.67 L19.23,1.52 L17.48,3.38 L17.6,3.44 C17.9833703,3.65117994 18.2405685,4.03511345 18.29,4.47 L18.59,6.75 C18.6499325,7.1724793 18.5270943,7.60048814 18.2522357,7.92688271 C17.9773771,8.25327728 17.5765159,8.44716144 17.15,8.46 L17.09,8.46 C17.0004627,8.45919279 16.9155735,8.49979198 16.86,8.57 C16.7973148,8.63692276 16.7745163,8.73191671 16.8,8.82 C18.19,15.01 17.25,17.44 16.57,18.34 C16.03,19.04 15.29,19.4 14.37,19.4 Z M16.59,6.93 C16.5852244,7.03388013 16.629693,7.13393436 16.71,7.2 C16.7661827,7.23798559 16.8321912,7.25883038 16.9,7.26 L17.29,7.26 C17.3994413,7.2636521 17.5051384,7.21991537 17.58,7.14 C17.6409001,7.06003347 17.6694611,6.96006973 17.66,6.86 L17.5,4.51 C17.4947447,4.43661047 17.4335772,4.37981208 17.36,4.38 L17.03,4.42 C16.7923378,4.44992205 16.6131142,4.65048188 16.61,4.89 L16.59,6.93 Z" id="Shape"></path>
            </g>
        </g>
    </g>
</svg>