<?xml version="1.0" encoding="UTF-8"?>
<svg width="24px" height="24px" viewBox="0 0 24 24" version="1.1" xmlns="http://www.w3.org/2000/svg" xmlns:xlink="http://www.w3.org/1999/xlink">
    <!-- Generator: Sketch 48.2 (47327) - http://www.bohemiancoding.com/sketch -->
    <title>locationicon</title>
    <desc>Created with Sketch.</desc>
    <defs></defs>
    <g id="cards/Driver_Location_Card_pop-up" stroke="none" stroke-width="1" fill="none" fill-rule="evenodd" transform="translate(-13.000000, -105.000000)">
        <g id="Group-5" transform="translate(13.000000, 105.000000)">
            <g id="locationicon">
                <circle id="Oval-2" stroke="#3DBD7D" cx="12" cy="12" r="11.5"></circle>
                <g id="gps-fixed" transform="translate(5.000000, 5.000000)" fill="#3DBD7D" fill-rule="nonzero">
                    <path d="M7,9.625 C5.55275,9.625 4.375,8.44725 4.375,7 C4.375,5.55275 5.55275,4.375 7,4.375 C8.44725,4.375 9.625,5.55275 9.625,7 C9.625,8.44725 8.44725,9.625 7,9.625 Z M7,4.95833333 C5.87416667,4.95833333 4.95833333,5.87416667 4.95833333,7 C4.95833333,8.12583333 5.87416667,9.04166667 7,9.04166667 C8.12583333,9.04166667 9.04166667,8.12583333 9.04166667,7 C9.04166667,5.87416667 8.12583333,4.95833333 7,4.95833333 Z" id="Shape"></path>
                    <path d="M7,12.5416667 C3.9445,12.5416667 1.45833333,10.0555 1.45833333,7 C1.45833333,3.9445 3.9445,1.45833333 7,1.45833333 C10.0555,1.45833333 12.5416667,3.9445 12.5416667,7 C12.5416667,10.0555 10.0555,12.5416667 7,12.5416667 Z M7,2.04166667 C4.26591667,2.04166667 2.04166667,4.26591667 2.04166667,7 C2.04166667,9.73408333 4.26591667,11.9583333 7,11.9583333 C9.73408333,11.9583333 11.9583333,9.73408333 11.9583333,7 C11.9583333,4.26591667 9.73408333,2.04166667 7,2.04166667 Z" id="Shape"></path>
                    <path d="M7,2.04166667 C6.839,2.04166667 6.70833333,1.911 6.70833333,1.75 L6.70833333,0.583333333 C6.70833333,0.422333333 6.839,0.291666667 7,0.291666667 C7.161,0.291666667 7.29166667,0.422333333 7.29166667,0.583333333 L7.29166667,1.75 C7.29166667,1.911 7.161,2.04166667 7,2.04166667 Z" id="Shape"></path>
                    <path d="M13.4166667,7.29166667 L12.25,7.29166667 C12.089,7.29166667 11.9583333,7.161 11.9583333,7 C11.9583333,6.839 12.089,6.70833333 12.25,6.70833333 L13.4166667,6.70833333 C13.5776667,6.70833333 13.7083333,6.839 13.7083333,7 C13.7083333,7.161 13.5776667,7.29166667 13.4166667,7.29166667 Z" id="Shape"></path>
                    <path d="M1.75,7.29166667 L0.583333333,7.29166667 C0.422333333,7.29166667 0.291666667,7.161 0.291666667,7 C0.291666667,6.839 0.422333333,6.70833333 0.583333333,6.70833333 L1.75,6.70833333 C1.911,6.70833333 2.04166667,6.839 2.04166667,7 C2.04166667,7.161 1.911,7.29166667 1.75,7.29166667 Z" id="Shape"></path>
                    <path d="M7,13.7083333 C6.839,13.7083333 6.70833333,13.5776667 6.70833333,13.4166667 L6.70833333,12.25 C6.70833333,12.089 6.839,11.9583333 7,11.9583333 C7.161,11.9583333 7.29166667,12.089 7.29166667,12.25 L7.29166667,13.4166667 C7.29166667,13.5776667 7.161,13.7083333 7,13.7083333 Z" id="Shape"></path>
                </g>
            </g>
        </g>
    </g>
</svg>