<?xml version="1.0" encoding="UTF-8"?>
<svg width="28px" height="20px" viewBox="0 0 28 20" version="1.1" xmlns="http://www.w3.org/2000/svg" xmlns:xlink="http://www.w3.org/1999/xlink">
    <!-- Generator: Sketch 48.2 (47327) - http://www.bohemiancoding.com/sketch -->
    <title>speedometer</title>
    <desc>Created with Sketch.</desc>
    <defs></defs>
    <g id="cards/Driver_Location_Card_pop-up" stroke="none" stroke-width="1" fill="none" fill-rule="evenodd" transform="translate(-227.000000, -80.000000)">
        <g id="Group-4" transform="translate(147.000000, 80.000000)" fill="#4A90E2" fill-rule="nonzero">
            <g id="speedometer" transform="translate(80.000000, 0.000000)">
                <path d="M19.5,10 L14.225,14.0125 C14.15,14.00625 14.075,14 14,14 C12.89375,14 12,14.89375 12,16 C12,17.10625 12.89375,18 14,18 C15.10625,18 16,17.10625 16,16 C16,15.925 15.99375,15.85 15.9875,15.775 L20,10.5 L19.5,10 Z" id="Shape"></path>
                <path d="M14,0 C6.26875,0 0,6.26875 0,14 C0,16.15 0.4875,18.18125 1.35,20 L3.60625,20 C2.64375,18.3375 2.09375,16.4625 2.0125,14.5 L4,14.5 L4,13.5 L2.0125,13.5 C2.0875,11.7 2.55625,9.96875 3.375,8.4125 L5.09375,9.40625 L5.59375,8.5375 L3.875,7.55 C4.3375,6.825 4.8875,6.1375 5.5125,5.5125 C6.15,4.88125 6.84375,4.325 7.58125,3.85625 L8.56875,5.5625 L9.4375,5.0625 L8.45,3.35625 C10,2.54375 11.7125,2.0875 13.5,2.0125 L13.5,4 L14.5,4 L14.5,2.0125 C16.2875,2.0875 18,2.55 19.55,3.35625 L18.56875,5.0625 L19.4375,5.5625 L20.425,3.85625 C21.1625,4.325 21.85625,4.88125 22.49375,5.5125 C23.11875,6.1375 23.6625,6.81875 24.13125,7.55 L22.41875,8.5375 L22.91875,9.40625 L24.6375,8.4125 C25.45625,9.96875 25.925,11.7 26,13.5 L24,13.5 L24,14.5 L25.9875,14.5 C25.90625,16.4625 25.35625,18.3375 24.39375,20 L26.65,20 C27.5125,18.18125 28,16.15 28,14 C28,6.26875 21.73125,0 14,0 Z" id="Shape"></path>
            </g>
        </g>
    </g>
</svg>