<?xml version="1.0" encoding="utf-8"?>
<!-- Generator: Adobe Illustrator 22.0.1, SVG Export Plug-In . SVG Version: 6.00 Build 0)  -->
<svg version="1.1" id="Layer_1" xmlns="http://www.w3.org/2000/svg" xmlns:xlink="http://www.w3.org/1999/xlink" x="0px" y="0px"
	 viewBox="0 0 24 24" style="enable-background:new 0 0 24 24;" xml:space="preserve">
<style type="text/css">
	.st0{display:none;}
	.st1{fill:#FFFFFF;}
	.st2{display:inline;}
	.st3{fill:#010002;}
</style>
<path class="st0" d="M22.9,21c-0.3-1.1-1.1-2.1-2.3-2.4l-4.2-1.4c-0.9-0.4-1.4-1.9-1.5-2.5c0.7-0.6,1.4-1.6,1.4-2.6
	c0-0.3,0.1-0.4,0-0.4c0.2,0,0.3-0.2,0.4-0.4c0.1-0.1,0.5-1.3,0.5-2.1V9.1c-0.1-0.3-0.2-0.5-0.5-0.7V5.9c0-1.5-0.5-2.2-1-2.6
	C15.8,2.5,14.9,1,12,1C9,1,7.1,3.8,7.1,5.9v2.4C6.9,8.5,6.7,8.8,6.7,9v0.1c0,0.8,0.5,2,0.5,2.1c0.1,0.2,0.2,0.3,0.3,0.3
	c0,0,0.1,0.1,0.1,0.4c0,1,0.7,2,1.4,2.6c-0.1,0.6-0.6,2.1-1.5,2.5l-4.2,1.4c-1.1,0.4-2,1.3-2.3,2.4l-0.6,2.3c0,0.2,0,0.4,0.1,0.5
	C0.7,23.9,0.9,24,1.1,24h21.8c0.2,0,0.4-0.1,0.5-0.2s0.2-0.3,0.1-0.5L22.9,21z"/>
<path class="st1" d="M17.9,4.6l-0.6-0.2c-0.2-0.9-1.9-3.7-4.8-4c0.1,0,0.1-0.1,0.1-0.1C12.5,0.1,12.3,0,12,0s-0.5,0.1-0.5,0.2
	s0.1,0.1,0.1,0.1C9,0.6,7.3,2.6,6.8,4.4L6.1,4.6C5.8,4.7,5.6,5,5.7,5.2c0.1,0.3,0.4,0.2,0.7,0.2h0.5V4.3c1-0.3,3.8-0.9,5-0.9
	C13,3.4,16,4.1,17,4.3v1.1h0.5c0.3,0,0.6,0,0.7-0.2C18.3,4.9,18.2,4.6,17.9,4.6z"/>
<g class="st0">
	<g class="st2">
		<g>
			<path class="st3" d="M12.1,27.3c-0.5,0-1,0.4-1,1c0,0.5,0.4,1,1,1c0.5,0,1-0.4,1-1C13.1,27.7,12.6,27.3,12.1,27.3z"/>
		</g>
		<g>
			<path class="st3" d="M14.5,28.7c1.1-1.3,2.8-2,5.1-2c0-0.7-0.1-1.5-0.4-2.1c-2.4,1.6-4.8,2.2-6.9,2.2c-3.7,0-6.5-1.7-7.3-2.2
				c-0.2,0.6-0.3,1.3-0.4,2.1c2.3,0,4.1,0.7,5.2,2c1.8,2.1,1.5,5.1,1.5,5.6c0.2,0,0.5,0,0.7,0c0.3,0,0.6,0,0.9-0.1
				C12.9,33.5,12.7,30.7,14.5,28.7z M18.7,25.5l0.1,0.3l-2.4,1l-0.1-0.3L18.7,25.5z M7.9,26.8l-2.4-1l0.1-0.3l2.4,1L7.9,26.8z
				 M10.8,28.2c0-0.7,0.6-1.3,1.3-1.3s1.3,0.6,1.3,1.3c0,0.7-0.6,1.3-1.3,1.3C11.4,29.5,10.8,29,10.8,28.2z"/>
		</g>
		<g>
			<path class="st3" d="M12.1,17.7c-5,0-9,4-9,9s4,9,9,9s9-4,9-9S17.1,17.7,12.1,17.7z M12.1,34.6c-4.3,0-7.7-3.5-7.7-7.7
				s3.5-7.7,7.7-7.7c4.3,0,7.7,3.5,7.7,7.7S16.4,34.6,12.1,34.6z"/>
		</g>
	</g>
</g>
<path class="st1" d="M24,23.2l-0.6-2.3c-0.3-1.2-1.2-2.1-2.4-2.5L16.7,17c-1-0.4-1.4-1.9-1.6-2.6c0.7-0.7,1.5-1.7,1.5-2.7
	c0-0.3,0.1-0.4,0-0.4c0.2,0,0.4-0.2,0.4-0.4c0.1-0.1,0.5-1.4,0.5-2.2c0-0.1,0-0.1,0-0.2c-0.1-0.3-0.2-0.6-0.5-0.7V5.4
	c-0.7,0-9.5,0-10.2,0v2.4C6.7,8,6.5,8.3,6.4,8.6c0,0,0,0.1,0,0.2c0,0.8,0.5,2,0.5,2.2c0.1,0.2,0.2,0.3,0.4,0.3c0,0,0.1,0.1,0.1,0.4
	c0,1,0.7,2,1.5,2.7c-0.1,0.7-0.6,2.2-1.5,2.6L3,18.4c-1.2,0.4-2.1,1.3-2.4,2.5L0,23.2c0,0.2,0,0.4,0.1,0.5C0.2,23.9,0.4,24,0.6,24
	h2.5c1.2-3.8,4.8-6.5,9-6.5s7.8,2.7,9,6.5h2.3c0.2,0,0.4-0.1,0.5-0.2C24,23.6,24,23.4,24,23.2z"/>
<g>
	<path class="st1" d="M19.6,24c-0.3-0.8-0.8-1.6-1.4-2.3L16.1,24H19.6z"/>
	<path class="st1" d="M6,21.7c-0.6,0.7-1.1,1.4-1.4,2.3h3.5L6,21.7z"/>
	<path class="st1" d="M9.5,24h5.2l2.6-3.1c-1.4-1.2-3.2-1.9-5.2-1.9s-3.8,0.7-5.2,1.9L9.5,24z"/>
</g>
</svg>
