<?xml version="1.0" encoding="UTF-8"?>
<svg width="25px" height="24px" viewBox="0 0 25 24" version="1.1" xmlns="http://www.w3.org/2000/svg" xmlns:xlink="http://www.w3.org/1999/xlink">
    <!-- Generator: Sketch 48.2 (47327) - http://www.bohemiancoding.com/sketch -->
    <title>icon/add_chat_filled</title>
    <desc>Created with Sketch.</desc>
    <defs></defs>
    <g id="cards/Driver_Location_Card_expanded" stroke="none" stroke-width="1" fill="none" fill-rule="evenodd" transform="translate(-279.000000, -511.000000)">
        <g id="Group-6" transform="translate(266.000000, 507.000000)" fill="#FFFFFF">
            <g id="Group-2-Copy-4">
                <g id="button/small_icon_button_active">
                    <g id="icon/add_chat_filled" transform="translate(13.333333, 4.000000)">
                        <g id="add_chat_filled">
                            <path d="M19.5,0 L3.5,0 C1.57,0 0,1.57 0,3.5 L0,13.5 C0,15.43 1.57,17 3.5,17 L5.691,17 L3.053,22.276 C2.949,22.484 3.002,22.735 3.18,22.883 C3.272,22.961 3.386,23 3.5,23 C3.605,23 3.711,22.967 3.8,22.9 L11.667,17 L11.795,17 C12.016,17 12.211,16.855 12.274,16.643 C13.091,13.909 15.651,12 18.5,12 C19.832,12 21.116,12.406 22.213,13.173 C22.365,13.28 22.566,13.294 22.731,13.207 C22.896,13.121 23,12.95 23,12.764 L23,3.5 C23,1.57 21.43,0 19.5,0 Z M6.5,10 C5.673,10 5,9.327 5,8.5 C5,7.673 5.673,7 6.5,7 C7.327,7 8,7.673 8,8.5 C8,9.327 7.327,10 6.5,10 Z M11.5,10 C10.673,10 10,9.327 10,8.5 C10,7.673 10.673,7 11.5,7 C12.327,7 13,7.673 13,8.5 C13,9.327 12.327,10 11.5,10 Z M16.5,10 C15.673,10 15,9.327 15,8.5 C15,7.673 15.673,7 16.5,7 C17.327,7 18,7.673 18,8.5 C18,9.327 17.327,10 16.5,10 Z" id="Shape" fill-rule="nonzero"></path>
                            <path d="M18.5,13 C15.467,13 13,15.467 13,18.5 C13,21.533 15.467,24 18.5,24 C21.533,24 24,21.533 24,18.5 C24,15.467 21.533,13 18.5,13 Z M20.5,19 L19,19 L19,20.5 C19,20.776 18.776,21 18.5,21 C18.224,21 18,20.776 18,20.5 L18,19 L16.5,19 C16.224,19 16,18.776 16,18.5 C16,18.224 16.224,18 16.5,18 L18,18 L18,16.5 C18,16.224 18.224,16 18.5,16 C18.776,16 19,16.224 19,16.5 L19,18 L20.5,18 C20.776,18 21,18.224 21,18.5 C21,18.776 20.776,19 20.5,19 Z" id="Shape" fill-rule="nonzero"></path>
                        </g>
                    </g>
                </g>
            </g>
        </g>
    </g>
</svg>