<?xml version="1.0" encoding="UTF-8"?>
<svg width="24px" height="24px" viewBox="0 0 24 24" version="1.1" xmlns="http://www.w3.org/2000/svg" xmlns:xlink="http://www.w3.org/1999/xlink">
    <!-- Generator: Sketch 48.2 (47327) - http://www.bohemiancoding.com/sketch -->
    <title>icon/destinationicon</title>
    <desc>Created with Sketch.</desc>
    <defs></defs>
    <g id="cards/Driver_Location_Card_expanded" stroke="none" stroke-width="1" fill="none" fill-rule="evenodd" transform="translate(-13.000000, -160.000000)">
        <g id="Group-8" transform="translate(13.000000, 160.000000)">
            <g id="icon/destinationicon">
                <g id="destinationicon">
                    <g id="map-pin" transform="translate(7.000000, 5.000000)" fill="#4A90E2" fill-rule="nonzero">
                        <path d="M5.13333333,7.93333333 C3.45333333,7.93333333 2.1,6.58 2.1,4.9 C2.1,3.22 3.45333333,1.86666667 5.13333333,1.86666667 C6.81333333,1.86666667 8.16666667,3.22 8.16666667,4.9 C8.16666667,6.58 6.81333333,7.93333333 5.13333333,7.93333333 Z M5.13333333,2.33333333 C3.73333333,2.33333333 2.56666667,3.5 2.56666667,4.9 C2.56666667,6.3 3.73333333,7.46666667 5.13333333,7.46666667 C6.53333333,7.46666667 7.7,6.3 7.7,4.9 C7.7,3.5 6.53333333,2.33333333 5.13333333,2.33333333 Z" id="Shape"></path>
                        <path d="M5.13333333,7.93333333 C3.45333333,7.93333333 2.1,6.58 2.1,4.9 C2.1,3.22 3.45333333,1.86666667 5.13333333,1.86666667 C6.81333333,1.86666667 8.16666667,3.22 8.16666667,4.9 C8.16666667,6.58 6.81333333,7.93333333 5.13333333,7.93333333 Z M5.13333333,2.33333333 C3.73333333,2.33333333 2.56666667,3.5 2.56666667,4.9 C2.56666667,6.3 3.73333333,7.46666667 5.13333333,7.46666667 C6.53333333,7.46666667 7.7,6.3 7.7,4.9 C7.7,3.5 6.53333333,2.33333333 5.13333333,2.33333333 Z" id="Shape"></path>
                        <path d="M5.13333333,14 C5.08666667,14 5.04,14 4.99333333,13.9533333 C4.80666667,13.7666667 0.233333333,9.66 0.233333333,4.9 C0.233333333,2.19333333 2.42666667,0 5.13333333,0 C7.84,0 10.0333333,2.19333333 10.0333333,4.9 C10.0333333,9.66 5.46,13.7666667 5.27333333,13.9533333 C5.22666667,14 5.18,14 5.13333333,14 Z M5.13333333,0.466666667 C2.70666667,0.466666667 0.7,2.47333333 0.7,4.9 C0.7,8.96 4.34,12.6933333 5.13333333,13.44 C5.92666667,12.6933333 9.56666667,8.96 9.56666667,4.9 C9.56666667,2.47333333 7.56,0.466666667 5.13333333,0.466666667 Z" id="Shape"></path>
                    </g>
                    <circle id="Oval-2-Copy" stroke="#4A90E2" cx="12" cy="12" r="11.5"></circle>
                </g>
            </g>
        </g>
    </g>
</svg>