<?xml version="1.0" encoding="UTF-8"?>
<svg width="29px" height="24px" viewBox="0 0 29 24" version="1.1" xmlns="http://www.w3.org/2000/svg" xmlns:xlink="http://www.w3.org/1999/xlink">
    <!-- Generator: Sketch 48.2 (47327) - http://www.bohemiancoding.com/sketch -->
    <title>icon/DVIR</title>
    <desc>Created with Sketch.</desc>
    <defs></defs>
    <g id="cards/Driver_Location_Card_expanded" stroke="none" stroke-width="1" fill="none" fill-rule="evenodd" transform="translate(-24.000000, -511.000000)">
        <g id="Group-6-Copy-3" transform="translate(13.000000, 507.000000)" fill="#F6F6F6">
            <g id="Group-2-Copy-4">
                <g id="button/small_icon_button_active">
                    <g id="icon/DVIR" transform="translate(11.000000, 4.000000)">
                        <g id="DVIR">
                            <g id="wrench-tool" transform="translate(13.784539, 0.000000)" fill-rule="nonzero">
                                <path d="M7.29769737,2.925 L9.48700658,2.925 C9.62128421,2.925 9.73026316,2.8242 9.73026316,2.7 L9.73026316,0.45 C9.73026316,0.37665 9.69182862,0.30825 9.62712237,0.26595 C9.56241612,0.22365 9.47970888,0.21375 9.40478586,0.23805 C8.32278059,0.59535 7.46992303,1.4679 7.06563059,2.63115 C7.04179145,2.69955 7.0549273,2.77425 7.10065954,2.8323 C7.14687829,2.8908 7.21985526,2.925 7.29769737,2.925 Z M12.5286868,0.4806 C12.4532773,0.43965 12.3603533,0.4392 12.2849438,0.4797 C12.2095342,0.51975 12.1628289,0.594 12.1628289,0.675 L12.1628289,2.7 C12.1628289,3.2094 11.7288592,3.825 11.1898026,3.825 L7.05444079,3.825 C6.92016316,3.825 6.81118421,3.9258 6.81118421,4.05 C6.81118421,4.3794 6.81702237,4.61475 6.88902632,4.8897 L0.451484211,10.81755 C0.160549342,11.08935 0,11.4507 0,11.835 C0,12.6288 0.692794737,13.275 1.54467928,13.275 C1.95772895,13.275 2.34547993,13.12515 2.63933388,12.85065 L7.52392599,8.1972 C8.05763092,7.6995 8.76648059,7.425 9.52008947,7.425 L10.7032895,7.425 C12.8857875,7.425 14.5953947,5.8707 14.5953947,3.8862 C14.5953947,2.5605 13.7259957,1.12815 12.5286868,0.4806 Z M1.45953947,12.375 C1.19147072,12.375 0.973026316,12.17295 0.973026316,11.925 C0.973026316,11.67705 1.19147072,11.475 1.45953947,11.475 C1.72760822,11.475 1.94605263,11.67705 1.94605263,11.925 C1.94605263,12.17295 1.72760822,12.375 1.45953947,12.375 Z M9.70447796,5.0508 L8.97470822,6.4008 C8.93189507,6.47955 8.84626875,6.525 8.75675033,6.525 C8.72026184,6.525 8.68328684,6.51735 8.64825789,6.50115 C8.52808914,6.44535 8.47943783,6.31035 8.53927895,6.1992 L9.26904868,4.8492 C9.32986283,4.7376 9.47533026,4.69305 9.59549901,4.7484 C9.71615428,4.8042 9.76480559,4.93965 9.70447796,5.0508 Z M10.9207609,5.0508 L10.1909911,6.4008 C10.148178,6.47955 10.0625516,6.525 9.97303322,6.525 C9.93654474,6.525 9.89956974,6.51735 9.86454079,6.50115 C9.74437204,6.44535 9.69572072,6.31035 9.75556184,6.1992 L10.4853316,4.8492 C10.5456592,4.7376 10.6916132,4.69305 10.8117819,4.7484 C10.9324372,4.8042 10.9810885,4.93965 10.9207609,5.0508 Z M12.1370437,5.0508 L11.407274,6.4008 C11.3644609,6.47955 11.2788345,6.525 11.1893161,6.525 C11.1528276,6.525 11.1158526,6.51735 11.0808237,6.50115 C10.9606549,6.44535 10.9120036,6.31035 10.9718447,6.1992 L11.7016145,4.8492 C11.7619421,4.7376 11.9074095,4.69305 12.0280648,4.7484 C12.1487201,4.8042 12.1973714,4.93965 12.1370437,5.0508 Z" id="Shape"></path>
                            </g>
                            <path d="M4.45970395,5.25 L13.3791118,5.25 C13.6029079,5.25 13.7845395,5.082 13.7845395,4.875 L13.7845395,4.125 C13.7845395,3.0915 12.8747599,2.25 11.7574013,2.25 L10.3189441,2.25 C10.0327122,1.79325 9.50241283,1.5 8.91940789,1.5 C8.33721382,1.5 7.80610362,1.7925 7.51987171,2.25 L6.08141447,2.25 C4.96405592,2.25 4.05427632,3.0915 4.05427632,4.125 L4.05427632,4.875 C4.05427632,5.082 4.23590789,5.25 4.45970395,5.25 Z M17.8388158,5.99555577 L12.9153026,10.52925 C12.4304112,10.98225 12.1628289,11.5845 12.1628289,12.225 C12.1628289,13.548 13.3174868,14.625 14.7372944,14.625 C15.4257105,14.625 16.0719622,14.37525 16.5617188,13.91775 L17.8388158,12.701086 L17.8388158,22.69575 C17.8388158,23.41425 17.2071595,24 16.4311711,24 L1.40683388,24 C0.63165625,24 0,23.41425 0,22.6965 L0,5.05425 C0,4.33575 0.63165625,3.75 1.40683388,3.75 L2.83799342,3.75 C3.06178947,3.75 3.24342105,3.918 3.24342105,4.125 L3.24342105,4.875 C3.24342105,5.496 3.7899375,6 4.45970395,6 L13.3791118,6 C14.0505,6 14.5953947,5.496 14.5953947,4.875 L14.5953947,4.125 C14.5953947,3.918 14.7770263,3.75 15.0008224,3.75 L16.4327928,3.75 C17.2079704,3.75 17.8388158,4.33575 17.8388158,5.05425 L17.8388158,5.99555577 Z" id="Combined-Shape" fill-rule="nonzero"></path>
                        </g>
                    </g>
                </g>
            </g>
        </g>
    </g>
</svg>