<?xml version="1.0" encoding="UTF-8"?>
<svg width="20px" height="24px" viewBox="0 0 20 24" version="1.1" xmlns="http://www.w3.org/2000/svg" xmlns:xlink="http://www.w3.org/1999/xlink">
    <!-- Generator: Sketch 48.2 (47327) - http://www.bohemiancoding.com/sketch -->
    <title>icon/files_icon</title>
    <desc>Created with Sketch.</desc>
    <defs></defs>
    <g id="cards/Driver_Location_Card_expanded" stroke="none" stroke-width="1" fill="none" fill-rule="evenodd" transform="translate(-112.000000, -511.000000)">
        <g id="Group-6-Copy-2" transform="translate(97.000000, 507.000000)" fill="#FFFFFF">
            <g id="Group-2-Copy-4">
                <g id="button/small_icon_button_active">
                    <g id="icon/files_icon" transform="translate(15.000000, 4.000000)">
                        <g id="files_icon">
                            <path d="M16,0 L7,0 C6.977,0 6.958,0.01 6.936,0.013 C6.914,0.016 6.894,0.02 6.873,0.026 C6.787,0.049 6.707,0.086 6.646,0.147 L0.647,6.146 C0.586,6.207 0.549,6.286 0.526,6.372 C0.52,6.394 0.516,6.414 0.513,6.436 C0.51,6.458 0.5,6.477 0.5,6.5 L0.5,20.5 C0.5,20.776 0.724,21 1,21 L16,21 C16.276,21 16.5,20.776 16.5,20.5 L16.5,0.5 C16.5,0.224 16.276,0 16,0 Z M6.5,1.707 L6.5,5.5 C6.5,5.776 6.276,6 6,6 L2.207,6 L6.5,1.707 Z" id="Shape" fill-rule="nonzero"></path>
                            <path d="M19,3 L17.5,3 L17.5,21.5 C17.5,21.776 17.276,22 17,22 L3.5,22 L3.5,23.5 C3.5,23.776 3.724,24 4,24 L19,24 C19.276,24 19.5,23.776 19.5,23.5 L19.5,3.5 C19.5,3.224 19.276,3 19,3 Z" id="Shape" fill-rule="nonzero"></path>
                        </g>
                    </g>
                </g>
            </g>
        </g>
    </g>
</svg>