<svg id="230fc5b5-4e43-4c9b-8a3c-618006bfaba8" data-name="Layer 1" xmlns="http://www.w3.org/2000/svg" xmlns:xlink="http://www.w3.org/1999/xlink" viewBox="0 0 400 100">
  <defs>
    <linearGradient id="1054b17d-c144-4556-b4db-cea3ac13de05" x1="222.99" y1="47.15" x2="234.99" y2="47.15" gradientUnits="userSpaceOnUse">
      <stop offset="0" stop-color="#2bace2"/>
      <stop offset="1" stop-color="#2075bc"/>
    </linearGradient>
    <linearGradient id="c4df8b2b-5b9f-402d-b002-0f8deaa9c7ba" x1="200.67" y1="36.9" x2="236.62" y2="53.15" xlink:href="#1054b17d-c144-4556-b4db-cea3ac13de05"/>
  </defs>
  <title>Logo-DarkBG-notag white</title>
  <path d="M3.2,72.3V17.9H23.4c7.5,0,13.5,2.7,18,7.9s6.8,11.7,6.8,19.4-2.4,14.2-7,19.3-11.3,7.8-20,7.8Zm10.1-8h8.3a14.7,14.7,0,0,0,11.2-4.9c3.1-3.3,4.6-8.2,4.6-14.7a22.3,22.3,0,0,0-4-13.5,12.5,12.5,0,0,0-10.7-5.5H13.3Z" style="fill: #fff"/>
  <path d="M102.3,28.3v6H99.5a10.4,10.4,0,0,0-3.2.4,5.9,5.9,0,0,0-2.7,2.4q4.8,3.4,4.8,7.5c0,3.1-1.5,5.6-4.5,7.7s-7,3-12,3a37.8,37.8,0,0,1-7.5-.9c-1.9.7-2.8,1.8-2.8,3.4A3.1,3.1,0,0,0,73,60.1a6.7,6.7,0,0,0,4.1,1.1H89.2c4.1,0,7.3.9,9.7,2.7a8.4,8.4,0,0,1,3.5,6.8c0,3.3-1.8,6-5.3,8.1s-8.8,3.3-15.8,3.3c-13.1,0-19.7-3.2-19.7-9.4,0-3.1,2-5.5,6-7.1-2.6-1.8-3.8-3.7-3.8-5.7s2.1-5.4,6.4-7.2c-3.7-1.9-5.6-4.6-5.6-8s1.4-5.4,4.2-7.4,6.9-3.1,12.5-3.1a53.9,53.9,0,0,1,7.9.7c1.2-4.4,4.4-6.6,9.7-6.6ZM71.5,67.7c-1.3,1.1-2,2.1-2,3s1.1,3,3.3,4.2,5.7,1.8,10.5,1.8c7,0,10.6-1.5,10.6-4.6A2.9,2.9,0,0,0,92,69.5a9.3,9.3,0,0,0-4.2-.9H78.1A28.7,28.7,0,0,1,71.5,67.7Zm10-17.1q7.5,0,7.5-6a4.9,4.9,0,0,0-1.9-3.9,8.3,8.3,0,0,0-5.4-1.5,8.5,8.5,0,0,0-5.6,1.6,5.3,5.3,0,0,0,0,8.3A8.7,8.7,0,0,0,81.5,50.6Z" style="fill: #fff"/>
  <path d="M141.3,64.1v7.3a31.2,31.2,0,0,1-6.3.9,12.9,12.9,0,0,1-6.4-1.5,9.4,9.4,0,0,1-3.8-4.1c-.9-1.8-1.3-4.4-1.3-8.1V37.1h-5V29.8H124l.9-10.9,7.5-.7V29.8h8.2v7.3h-8.2V57.4c0,2.6.5,4.4,1.4,5.3s2.7,1.5,5.2,1.5Z" style="fill: #fff"/>
  <path d="M181.2,71.6h-8.7a24.9,24.9,0,0,1-1.4-7.4c-2.5,5.4-7,8.1-13.8,8.1a14.5,14.5,0,0,1-9.7-3.2,10.4,10.4,0,0,1-3.7-8.1q0-12.6,24.6-12.6h2.6V45.7c0-3.8-2.9-5.7-8.6-5.7s-8.7,1.9-9.5,5.7l-7.8-1.1c.4-3,2.2-5.5,5.2-7.5s7.5-2.9,13.3-2.9a33.1,33.1,0,0,1,7.7.7,11.1,11.1,0,0,1,5,2.4,9.3,9.3,0,0,1,2.8,3.6,20.7,20.7,0,0,1,.8,6.7V64.2A25.4,25.4,0,0,0,181.2,71.6ZM171.1,52.9c-11.9,0-17.8,2.6-17.8,7.7a5.1,5.1,0,0,0,1.8,3.9,8.3,8.3,0,0,0,5.4,1.6c3.5,0,6.1-1,7.9-3a10,10,0,0,0,2.7-6.8Z" style="fill: #fff"/>
  <path d="M193,72.3h-9.2V17.9H193Z" style="fill: #fff"/>
  <path d="M269.6,72.2h-9.2V35.8h8.3v8.7a16.3,16.3,0,0,1,4.8-7.5,10.9,10.9,0,0,1,6.4-2.3h1.2v8.9c-4.7,0-7.8,1.3-9.3,4a15.3,15.3,0,0,0-2.2,7.7Z" style="fill: #fff"/>
  <path d="M331.2,34.8,317.4,72.3h-7.6L295.7,34.8h9.6l9.5,25.4L324,34.8Z" style="fill: #fff"/>
  <path d="M356.8,59.9l8.3,1a16.2,16.2,0,0,1-6.3,8.2,20.4,20.4,0,0,1-11.7,3.2c-5.6,0-10.1-1.7-13.6-5.1s-5.1-8-5.1-13.7a18.9,18.9,0,0,1,5.2-13.7c3.4-3.6,8.1-5.4,14-5.4s10.3,1.8,13.4,5.4,4.8,8.1,4.8,13.6v1H337.9a19.1,19.1,0,0,0,.8,5.9,7.6,7.6,0,0,0,3.1,3.9,9.9,9.9,0,0,0,5.8,1.6C352.1,65.8,355.2,63.9,356.8,59.9Zm-.6-10.8a8.5,8.5,0,0,0-2.6-6.4,8.7,8.7,0,0,0-6.4-2.5,9.2,9.2,0,0,0-6.3,2.3,10.2,10.2,0,0,0-3,6.6Z" style="fill: #fff"/>
  <path d="M377.3,72.2h-9.2V35.9h8.3v8.7c1.2-3.4,2.8-5.9,4.9-7.4a9.9,9.9,0,0,1,6.3-2.4h1.2v8.8c-4.6,0-7.7,1.3-9.2,4a14.6,14.6,0,0,0-2.3,7.7Z" style="fill: #fff"/>
  <path d="M50.5,23.1a4.5,4.5,0,0,1,.4-2A4.2,4.2,0,0,1,52,19.6a4.6,4.6,0,0,1,1.6-1.1,6.3,6.3,0,0,1,1.9-.3,4.6,4.6,0,0,1,2.1.4,3.3,3.3,0,0,1,1.5,1.1,2.9,2.9,0,0,1,1,1.6,4.1,4.1,0,0,1,.4,1.9,4.3,4.3,0,0,1-.4,1.9,3.9,3.9,0,0,1-1,1.6,5.8,5.8,0,0,1-1.5,1.1,4.6,4.6,0,0,1-2.1.4,4.3,4.3,0,0,1-1.9-.4A4.8,4.8,0,0,1,52,26.6,4.6,4.6,0,0,1,50.9,25,4.1,4.1,0,0,1,50.5,23.1ZM51,34.8h9V72.3H51Z" style="fill: #fff"/>
  <path d="M105.9,23.1a4.5,4.5,0,0,1,.4-2,4.2,4.2,0,0,1,1.1-1.5,4.6,4.6,0,0,1,1.6-1.1,5.8,5.8,0,0,1,1.9-.3,4.2,4.2,0,0,1,2,.4,3.6,3.6,0,0,1,1.6,1.1,3.7,3.7,0,0,1,1,1.6,5.8,5.8,0,0,1,.4,1.9,6.5,6.5,0,0,1-.4,1.9,5.4,5.4,0,0,1-1,1.6,6.4,6.4,0,0,1-1.6,1.1,4.2,4.2,0,0,1-2,.4,4.1,4.1,0,0,1-1.9-.4,4.8,4.8,0,0,1-1.6-1.2,4.6,4.6,0,0,1-1.1-1.6A4.1,4.1,0,0,1,105.9,23.1Zm.4,11.7h9.1V72.3h-9.1Z" style="fill: #fff"/>
  <path d="M283.4,23a6.5,6.5,0,0,1,.4-2,5.8,5.8,0,0,1,1.1-1.5,3.9,3.9,0,0,1,1.6-1,5.2,5.2,0,0,1,4,0,4.2,4.2,0,0,1,1.5,1.1,4.6,4.6,0,0,1,1.1,1.6,6.2,6.2,0,0,1,0,3.8,5.7,5.7,0,0,1-1.1,1.6,4.2,4.2,0,0,1-1.5,1.1,5.2,5.2,0,0,1-4,0,6.1,6.1,0,0,1-1.6-1.2,6.4,6.4,0,0,1-1.1-1.6A5.8,5.8,0,0,1,283.4,23Zm.5,11.7h9V72.2h-9Z" style="fill: #fff"/>
  <g>
    <path d="M390.8,30.8c0,.2,0,.3.1.4a.8.8,0,0,0,.6.2h.5c.2-.1.3-.2.3-.4l-.2-.2a.6.6,0,0,0-.5-.2h-.3l-.8-.3a.8.8,0,0,1-.4-.7,1.2,1.2,0,0,1,.4-.8,1.5,1.5,0,0,1,1-.3,1.2,1.2,0,0,1,.9.3,1.4,1.4,0,0,1,.5.8h-.7c-.1-.2-.1-.3-.3-.4H391c-.1.1-.2.2-.2.3s.1.3.2.3l.4.2h.7l.6.3a.8.8,0,0,1,.3.7c0,.3-.2.5-.4.8a1.5,1.5,0,0,1-1,.3,1.6,1.6,0,0,1-1.1-.3,1,1,0,0,1-.4-.9Z" style="fill: #fff"/>
    <path d="M395.8,28.4h1v3.5h-.7V29l-.6,2.9h-.7l-.7-2.9v2.9h-.6V28.4h1l.6,2.7Z" style="fill: #fff"/>
  </g>
  <g>
    <path d="M229,41.1a6,6,0,0,0-6,6,6,6,0,1,0,12,0A6,6,0,0,0,229,41.1Z" style="fill: url(#1054b17d-c144-4556-b4db-cea3ac13de05)"/>
    <path d="M249.4,26.1c-5.5-5.3-12.7-7.9-21.7-7.9H203.2V72.6H225c10.5,0,18.5-2.6,24.2-7.8a25.2,25.2,0,0,0,8.4-19.3A25.6,25.6,0,0,0,249.4,26.1Zm-33.9-.2h11.4a16.5,16.5,0,0,1,12.9,5.6,17.9,17.9,0,0,1,3.6,6.1,1,1,0,0,1-1.1,1.4c-12.8-3.3-14.7-3.2-25.6,0-.6.2-1.2-.5-1.2-1.1ZM224,66.4h-7.4a1.1,1.1,0,0,1-1.1-1.1V51.2a1.1,1.1,0,0,1,1.9-.8c3.5,3.2,7.1,9.9,7.7,14.8A1.1,1.1,0,0,1,224,66.4Zm-3-19.3a8,8,0,1,1,8,8A8,8,0,0,1,221,47.1Zm18.3,16.3c-.4.5-1.7,2.1-5.9,2.7-1,.1-1.6-.6-1.5-1.2.5-4.8,6.4-12.6,10.7-15.1h.1a1.2,1.2,0,0,1,1.7,1.2A16.6,16.6,0,0,1,239.3,63.4Z" style="fill: url(#c4df8b2b-5b9f-402d-b002-0f8deaa9c7ba)"/>
  </g>
</svg>
