<svg id="dc9194ef-43de-4afa-b27e-6a045f758ea6" data-name="Layer 1" xmlns="http://www.w3.org/2000/svg" xmlns:xlink="http://www.w3.org/1999/xlink" viewBox="0 0 400 100">
  <defs>
    <linearGradient id="918ce223-2878-4d9e-907d-2e1337668dfc" x1="222.99" y1="39.66" x2="234.99" y2="39.66" gradientUnits="userSpaceOnUse">
      <stop offset="0" stop-color="#2bace2"/>
      <stop offset="1" stop-color="#2075bc"/>
    </linearGradient>
    <linearGradient id="64219e69-559d-41e0-87e6-8acdea0069d8" x1="200.67" y1="29.41" x2="236.62" y2="45.66" xlink:href="#918ce223-2878-4d9e-907d-2e1337668dfc"/>
  </defs>
  <title>Logo-DarkBG-tag</title>
  <path d="M2.8,64.4V10H23c7.4,0,13.4,2.6,18,7.9s6.7,11.7,6.7,19.4-2.3,14.1-6.9,19.3-11.4,7.8-20,7.8Zm10.1-8h8.3a14.8,14.8,0,0,0,11.2-5c3.1-3.3,4.6-8.2,4.6-14.7a22.3,22.3,0,0,0-4-13.5,12.9,12.9,0,0,0-10.7-5.5H12.9Z" style="fill: #f1f1f3"/>
  <path d="M101.9,20.4v6H99.1a10.4,10.4,0,0,0-3.2.4,4.3,4.3,0,0,0-2.7,2.4Q98,32.5,98,36.7c0,3.1-1.5,5.6-4.5,7.6s-7,3-12,3a37.8,37.8,0,0,1-7.5-.9c-1.9.8-2.8,1.9-2.8,3.4a2.8,2.8,0,0,0,1.4,2.4,6.5,6.5,0,0,0,4.1,1h12c4.2,0,7.4,1,9.7,2.8a8.2,8.2,0,0,1,3.6,6.8q0,4.8-5.4,8.1c-3.5,2.2-8.8,3.2-15.7,3.2-13.1,0-19.7-3.1-19.7-9.3,0-3.1,2-5.5,5.9-7.1-2.5-1.8-3.7-3.7-3.7-5.7s2.1-5.5,6.4-7.2c-3.7-2-5.6-4.7-5.6-8.1s1.4-5.3,4.1-7.4,7-3,12.6-3a41.1,41.1,0,0,1,7.8.7c1.3-4.4,4.5-6.6,9.8-6.6ZM71.1,59.8c-1.3,1-2,2-2,3s1.1,3,3.3,4.2,5.7,1.8,10.5,1.8c7,0,10.5-1.6,10.5-4.7a2.9,2.9,0,0,0-1.8-2.6,10.8,10.8,0,0,0-4.2-.8H77.7A28.7,28.7,0,0,1,71.1,59.8Zm10-17.1q7.5,0,7.5-6a4.9,4.9,0,0,0-1.9-3.9,8.3,8.3,0,0,0-5.4-1.6,8.5,8.5,0,0,0-5.6,1.7,5,5,0,0,0-2,4.1,4.9,4.9,0,0,0,1.9,4.1A8.6,8.6,0,0,0,81.1,42.7Z" style="fill: #f1f1f3"/>
  <path d="M140.9,56.1v7.4a32,32,0,0,1-6.4.9,12.8,12.8,0,0,1-6.3-1.5,9.1,9.1,0,0,1-3.9-4.1,20.9,20.9,0,0,1-1.2-8.1V29.1H118V21.8h5.6l.9-10.8,7.5-.7V21.8h8.1v7.3H132V49.5c0,2.6.4,4.3,1.4,5.3s2.6,1.4,5.2,1.4Z" style="fill: #f1f1f3"/>
  <path d="M180.8,63.6h-8.7a24.3,24.3,0,0,1-1.4-7.4c-2.5,5.5-7.1,8.2-13.8,8.2a14.4,14.4,0,0,1-9.7-3.2,10.3,10.3,0,0,1-3.7-8.1c0-8.4,8.2-12.6,24.5-12.6h2.7V37.8c0-3.8-2.9-5.7-8.6-5.7s-8.8,1.9-9.5,5.7l-7.8-1.1c.4-3,2.2-5.5,5.2-7.5s7.5-3,13.3-3a37.8,37.8,0,0,1,7.6.7,13.4,13.4,0,0,1,5.1,2.4,10.4,10.4,0,0,1,2.8,3.7,20.3,20.3,0,0,1,.8,6.7V56.2A24.3,24.3,0,0,0,180.8,63.6ZM170.7,45c-11.9,0-17.8,2.5-17.8,7.6a4.8,4.8,0,0,0,1.8,3.9c1.2,1.1,3,1.6,5.4,1.6s6.1-1,7.9-2.9a10,10,0,0,0,2.7-6.8Z" style="fill: #f1f1f3"/>
  <path d="M192.5,64.4h-9.1V10h9.1Z" style="fill: #f1f1f3"/>
  <path d="M269.1,64.3H260V27.8h8.3v8.7a15.2,15.2,0,0,1,4.8-7.4,10.4,10.4,0,0,1,6.4-2.4h1.2v8.8c-4.7,0-7.8,1.4-9.3,4a16.2,16.2,0,0,0-2.3,7.8Z" style="fill: #f1f1f3"/>
  <path d="M330.8,26.9,317,64.4h-7.6L295.3,26.9h9.6l9.5,25.4,9.2-25.4Z" style="fill: #f1f1f3"/>
  <path d="M356.4,52l8.2,1a14.9,14.9,0,0,1-6.2,8.1c-3.1,2.2-7,3.2-11.7,3.2s-10.2-1.6-13.6-5-5.1-8-5.1-13.8a19,19,0,0,1,5.1-13.6q5.3-5.4,14.1-5.4c5.8,0,10.3,1.8,13.4,5.3s4.8,8.1,4.8,13.7v.9H337.5a16.7,16.7,0,0,0,.8,6,8.1,8.1,0,0,0,3.1,3.9,9.7,9.7,0,0,0,5.8,1.6C351.7,57.9,354.8,55.9,356.4,52Zm-.6-10.9a8.7,8.7,0,0,0-2.6-6.4,9.3,9.3,0,0,0-6.4-2.4,8.5,8.5,0,0,0-6.3,2.3,9.7,9.7,0,0,0-3,6.5Z" style="fill: #f1f1f3"/>
  <path d="M376.9,64.3h-9.2V28H376v8.6a16.4,16.4,0,0,1,4.8-7.4,10.9,10.9,0,0,1,6.4-2.3h1.2v8.8c-4.7,0-7.8,1.4-9.3,4a16,16,0,0,0-2.2,7.8Z" style="fill: #f1f1f3"/>
  <path d="M50.1,15.2a4.5,4.5,0,0,1,.4-2,5.7,5.7,0,0,1,1.1-1.6,4.9,4.9,0,0,1,1.6-1,5.8,5.8,0,0,1,1.9-.4,5.9,5.9,0,0,1,2,.4,6.4,6.4,0,0,1,1.6,1.1,5.4,5.4,0,0,1,1,1.6,6.5,6.5,0,0,1,.4,1.9,7.1,7.1,0,0,1-.4,2,4,4,0,0,1-1,1.5,4.8,4.8,0,0,1-1.6,1.2,5.9,5.9,0,0,1-2,.4,4.1,4.1,0,0,1-1.9-.5,3.1,3.1,0,0,1-1.6-1.1,5.7,5.7,0,0,1-1.1-1.6A4.3,4.3,0,0,1,50.1,15.2Zm.4,11.7h9.1V64.4H50.5Z" style="fill: #f1f1f3"/>
  <path d="M105.5,15.2a4.5,4.5,0,0,1,.4-2,5.4,5.4,0,0,1,1-1.6l1.6-1a7.1,7.1,0,0,1,2-.4,6.5,6.5,0,0,1,2,.4,9.1,9.1,0,0,1,1.6,1.1,5.4,5.4,0,0,1,1,1.6,6.3,6.3,0,0,1,.3,1.9,6.9,6.9,0,0,1-.3,2,4,4,0,0,1-1,1.5,6.1,6.1,0,0,1-1.6,1.2,6.5,6.5,0,0,1-2,.4,4.9,4.9,0,0,1-2-.5,4.2,4.2,0,0,1-1.6-1.1,5.4,5.4,0,0,1-1-1.6A4.3,4.3,0,0,1,105.5,15.2Zm.4,11.7h9V64.4h-9Z" style="fill: #f1f1f3"/>
  <path d="M283,15.1a4.5,4.5,0,0,1,.4-2,5.7,5.7,0,0,1,1.1-1.6,6.2,6.2,0,0,1,1.6-1,6.3,6.3,0,0,1,1.9-.3,4.6,4.6,0,0,1,2.1.4,4,4,0,0,1,1.5,1,3.9,3.9,0,0,1,1,1.6,4.5,4.5,0,0,1,.4,2,4.3,4.3,0,0,1-.4,1.9,3.9,3.9,0,0,1-1,1.6,5.8,5.8,0,0,1-1.5,1.1,6.5,6.5,0,0,1-2.1.4,6.5,6.5,0,0,1-1.9-.4,4.8,4.8,0,0,1-1.6-1.2,5.7,5.7,0,0,1-1.1-1.6A4.3,4.3,0,0,1,283,15.1Zm.5,11.7h9V64.3h-9Z" style="fill: #f1f1f3"/>
  <g>
    <path d="M390.4,22.9a.4.4,0,0,0,.1.3c.1.2.3.2.6.2h.4c.2-.1.3-.2.3-.4a.4.4,0,0,0-.1-.3h-.9l-.7-.3a.8.8,0,0,1-.4-.7.8.8,0,0,1,.4-.8,1.3,1.3,0,0,1,1-.3,1.4,1.4,0,0,1,.9.3.8.8,0,0,1,.4.8h-.7a.5.5,0,0,0-.2-.4h-.9l-.2.3c0,.1.1.2.2.3h.4l.6.2.6.2a.9.9,0,0,1,.3.7,1.1,1.1,0,0,1-.3.8,1.8,1.8,0,0,1-1.1.3,1.5,1.5,0,0,1-1-.3.9.9,0,0,1-.4-.8Z" style="fill: #f1f1f3"/>
    <path d="M395.3,20.5h1.1v3.4h-.7V21l-.6,2.9h-.7l-.7-2.9v2.9H393V20.5h1.1l.6,2.7Z" style="fill: #f1f1f3"/>
  </g>
  <g>
    <circle cx="269.9" cy="78.2" r="1.3" style="fill: #f1f1f3"/>
    <circle cx="361.7" cy="78.2" r="1.3" style="fill: #f1f1f3"/>
    <path d="M244.7,89.8l-1-3.1h-4.9l-1,3.1h-2L240.1,77h2.8l4.3,12.8Zm-3.5-10.6-1.8,5.7h3.7Z" style="fill: #f1f1f3"/>
    <path d="M258.6,89.8V87.9a2.8,2.8,0,0,1-2.8,2.1,3,3,0,0,1-2.5-1.2,7.5,7.5,0,0,1-1.1-3.9,5.6,5.6,0,0,1,1.4-3.9,3,3,0,0,1,2.4-1.1,2.6,2.6,0,0,1,2.5,1.7V77h2.1V89.8Zm-.1-5.6a2.2,2.2,0,0,0-.5-1.7,1.8,1.8,0,0,0-1.5-.7c-1.3,0-2,1.1-2,3.2s.7,3.2,2,3.2a2.2,2.2,0,0,0,2-2.4Z" style="fill: #f1f1f3"/>
    <path d="M262.9,89.8V80.3h1.9v2.3c.5-1.7,1.6-2.6,2.9-2.5v2.3h-.5c-1.3,0-2.2,1.2-2.2,3v4.4Z" style="fill: #f1f1f3"/>
    <rect x="268.8" y="80.3" width="2.1" height="9.46" style="fill: #f1f1f3"/>
    <path d="M277.1,89.8h-1.8l-3.2-9.5h2.2l2.2,6.4,2.2-6.4h1.6Z" style="fill: #f1f1f3"/>
    <path d="M289.2,87a4.2,4.2,0,0,1-4.2,3c-2.7,0-4.4-1.9-4.4-4.9s1.8-5,4.5-5,4.2,1.9,4.2,5.2h-6.5v.3c.1,1.7.9,2.7,2.3,2.7a1.9,1.9,0,0,0,2.1-1.5Zm-2.1-3.1a1.6,1.6,0,0,0-.5-1.4,1.8,1.8,0,0,0-1.6-.9c-1.2,0-2,.8-2.2,2.3Z" style="fill: #f1f1f3"/>
    <path d="M291,89.8V80.3h1.9v2.3c.5-1.7,1.6-2.6,2.9-2.5v2.3h-.5c-1.3,0-2.1,1.2-2.2,3v4.4Z" style="fill: #f1f1f3"/>
    <path d="M298.1,87.2c.4.9.9,1.2,2.1,1.2s1.9-.4,1.9-1.2a1.1,1.1,0,0,0-1-.9l-1.7-.4c-2-.3-2.9-1.2-2.9-2.7a3.2,3.2,0,0,1,.7-2,3.8,3.8,0,0,1,2.9-1.1c2,0,3.2.8,3.7,2.2l-1.9.4c-.3-.7-.8-1-1.8-1s-1.6.4-1.6,1,.4.9,1.3,1l2.1.5a2.5,2.5,0,0,1,2.3,2.7c0,1.9-1.6,3.1-4.1,3.1a4.9,4.9,0,0,1-3-.9,2.7,2.7,0,0,1-1-1.5Z" style="fill: #f1f1f3"/>
    <path d="M310.2,89.8V77h2.1v4.6c.8-1.3,1.4-1.7,2.7-1.7s3.6,2,3.6,5a6.2,6.2,0,0,1-1.1,3.7,3.3,3.3,0,0,1-2.9,1.4c-1.3,0-2-.5-2.9-1.8l-.5,1.6Zm2.1-4.1c0,1.6.7,2.5,2,2.5a1.6,1.6,0,0,0,1.5-.8,4.2,4.2,0,0,0,.5-2.6,3.9,3.9,0,0,0-.5-2.3,1.8,1.8,0,0,0-1.5-.8c-1.2,0-2,1-2,2.6Z" style="fill: #f1f1f3"/>
    <path d="M328.2,87a4.2,4.2,0,0,1-4.2,3c-2.7,0-4.4-1.9-4.4-4.9s1.8-5,4.5-5,4.2,1.9,4.2,5.2h-6.5v.3c.1,1.7.9,2.7,2.3,2.7a1.9,1.9,0,0,0,2.1-1.5Zm-2.1-3.1a1.6,1.6,0,0,0-.5-1.4,1.8,1.8,0,0,0-1.6-.9c-1.2,0-2,.8-2.2,2.3Z" style="fill: #f1f1f3"/>
    <path d="M330.9,87.2c.4.9.9,1.2,2.1,1.2s1.9-.4,1.9-1.2a1.1,1.1,0,0,0-1-.9l-1.8-.4c-1.9-.3-2.8-1.2-2.8-2.7a3.2,3.2,0,0,1,.7-2,3.8,3.8,0,0,1,2.9-1.1c2,0,3.2.8,3.7,2.2l-1.9.4c-.3-.7-.8-1-1.8-1s-1.6.4-1.6,1,.4.9,1.3,1l2.1.5a2.5,2.5,0,0,1,2.3,2.7c0,1.9-1.6,3.1-4.1,3.1a4.9,4.9,0,0,1-3-.9,2.7,2.7,0,0,1-1-1.5Z" style="fill: #f1f1f3"/>
    <path d="M342.8,89.8l-1.5.2a3.2,3.2,0,0,1-2-.7c-.5-.5-.6-1.1-.6-2.4V82h-1.2V80.3h1.3l.2-2.4,1.7-.2v2.6h2V82h-2v4.6c0,1.2.4,1.5,1.6,1.5h.5Z" style="fill: #f1f1f3"/>
    <path d="M349.2,89.8V82h-1.4V80.3h1.4c0-1.5.1-2.1.7-2.7a3.4,3.4,0,0,1,2.7-.8h.8v1.7h-.6a1.4,1.4,0,0,0-1.3.5c-.2.2-.3.3-.3,1.4h2.2V82h-2.2v7.8Z" style="fill: #f1f1f3"/>
    <path d="M354.6,89.8V80.3h2v2.3c.4-1.7,1.5-2.6,2.9-2.5v2.3H359c-1.3,0-2.2,1.2-2.2,3v4.4Z" style="fill: #f1f1f3"/>
    <rect x="360.6" y="80.3" width="2.1" height="9.46" style="fill: #f1f1f3"/>
    <path d="M373,87a4.2,4.2,0,0,1-4.2,3c-2.7,0-4.4-1.9-4.4-4.9s1.8-5,4.5-5,4.2,1.9,4.2,5.2h-6.5v.3c0,1.7.9,2.7,2.3,2.7a1.9,1.9,0,0,0,2.1-1.5Zm-2.1-3.1a1.6,1.6,0,0,0-.5-1.4,1.8,1.8,0,0,0-1.6-.9c-1.2,0-2,.8-2.2,2.3Z" style="fill: #f1f1f3"/>
    <path d="M380.5,89.8V83.9c0-1.2-.6-1.9-1.5-1.9a1.9,1.9,0,0,0-1.7,1.2,2.9,2.9,0,0,0-.4,1.7v4.9h-2.1V80.3h1.9v2.2c.8-1.7,1.6-2.4,2.9-2.4a3,3,0,0,1,2.6,1.4,4.6,4.6,0,0,1,.4,2.2v6.1Z" style="fill: #f1f1f3"/>
    <path d="M390.7,89.8V87.9a2.9,2.9,0,0,1-2.8,2.1,3.1,3.1,0,0,1-2.6-1.2,7.5,7.5,0,0,1-1-3.9,5.6,5.6,0,0,1,1.3-3.9,3,3,0,0,1,2.4-1.1,2.6,2.6,0,0,1,2.5,1.7V77h2.1V89.8Zm-.2-5.6a2.2,2.2,0,0,0-.5-1.7,1.7,1.7,0,0,0-1.4-.7c-1.3,0-2.1,1.1-2.1,3.2s.7,3.2,2,3.2a2.2,2.2,0,0,0,2-2.4Z" style="fill: #f1f1f3"/>
    <circle cx="396" cy="88.5" r="1.3" style="fill: #f1f1f3"/>
  </g>
  <g>
    <path d="M229,33.7a6,6,0,0,0-6,6,6,6,0,0,0,12,0A6,6,0,0,0,229,33.7Z" style="fill: url(#918ce223-2878-4d9e-907d-2e1337668dfc)"/>
    <path d="M249.4,18.6c-5.5-5.3-12.7-7.9-21.7-7.9H203.2V65.1H225c10.5,0,18.5-2.6,24.2-7.8A25.1,25.1,0,0,0,257.6,38,25.6,25.6,0,0,0,249.4,18.6Zm-33.9-.2h11.4A16.5,16.5,0,0,1,239.8,24a17.9,17.9,0,0,1,3.6,6.1c.3.7-.3,1.7-1.1,1.5-12.8-3.4-14.7-3.3-25.6-.1-.6.2-1.2-.5-1.2-1.1ZM224,58.9h-7.4a1.1,1.1,0,0,1-1.1-1.1V43.7a1.1,1.1,0,0,1,1.9-.8c3.5,3.2,7.1,9.9,7.7,14.8A1.1,1.1,0,0,1,224,58.9Zm-3-19.2a8,8,0,1,1,8,8A8,8,0,0,1,221,39.7ZM239.3,56c-.4.4-1.7,2-5.9,2.6-1,.1-1.6-.6-1.5-1.2.5-4.8,6.4-12.6,10.7-15.1h.1a1.2,1.2,0,0,1,1.7,1.2A17,17,0,0,1,239.3,56Z" style="fill: url(#64219e69-559d-41e0-87e6-8acdea0069d8)"/>
  </g>
</svg>
