<?xml version="1.0" encoding="UTF-8"?>
<svg width="23px" height="24px" viewBox="0 0 23 24" version="1.1" xmlns="http://www.w3.org/2000/svg" xmlns:xlink="http://www.w3.org/1999/xlink">
    <!-- Generator: Sketch 48.2 (47327) - http://www.bohemiancoding.com/sketch -->
    <title>icon/truck_front_icon</title>
    <desc>Created with Sketch.</desc>
    <defs></defs>
    <g id="cards/Driver_Location_Card_expanded" stroke="none" stroke-width="1" fill="none" fill-rule="evenodd" transform="translate(-13.000000, -310.000000)">
        <g id="Group-3" transform="translate(13.000000, 310.000000)" fill="#4A90E2">
            <g id="icon/truck_front_icon">
                <g id="truck_front_icon">
                    <path d="M21.875,19 L21.525,19 C21.825,18.925 22,18.725 21.975,18.325 C21.975,17.875 21.95,16.4 21.95,16.4 C21.775,14.95 20.825,14.475 20,14.325 L20,5.85 L20.825,5.85 L20.825,1.3 L20,1.3 L20,0 L19,0 L19,1.3 L18.175,1.3 L18.175,2.675 C18,2.25 17.775,1.95 17.525,1.95 L4.95,1.95 C4.7,1.95 4.5,2.25 4.325,2.675 L4.325,1.35 L3.5,1.35 L3.5,0.05 L2.5,0.05 L2.5,1.35 L1.65,1.35 L1.65,5.9 L2.5,5.9 L2.5,14.325 C1.65,14.475 0.725,14.925 0.55,16.4 C0.55,16.4 0.525,17.875 0.525,18.325 C0.5,18.725 0.75,18.925 1.05,19 L0.625,19 C0.275,19 0.15,19.125 0.15,19.45 L0.15,21.325 C0.15,21.65 0.275,21.775 0.625,21.775 L1.125,21.8 L1.125,23.575 C1.125,23.8 1.3,24 1.55,24 L4.65,24 C4.875,24 5.075,23.825 5.075,23.575 L5.075,22 L17.475,22 L17.475,23.575 C17.475,23.8 17.65,24 17.9,24 L21,24 C21.225,24 21.425,23.825 21.425,23.575 L21.425,21.8 L21.925,21.775 C22.275,21.775 22.4,21.65 22.4,21.325 L22.4,19.45 C22.35,19.125 22.225,19 21.875,19 Z M2.275,18.425 C1.725,18.425 1.275,17.975 1.275,17.425 C1.275,16.875 1.725,16.425 2.275,16.425 C2.825,16.425 3.275,16.875 3.275,17.425 C3.25,18 2.8,18.425 2.275,18.425 Z M3.5,5.9 L3.975,5.9 L3.975,9.7 C3.975,9.725 3.975,9.75 3.975,9.775 L3.975,14.275 L3.5,14.275 L3.5,5.9 Z M4.325,18.425 C4,18.425 3.725,18.15 3.725,17.825 C3.725,17.5 4,17.225 4.325,17.225 C4.65,17.225 4.925,17.5 4.925,17.825 C4.925,18.175 4.675,18.425 4.325,18.425 Z M13.525,21.625 L8.975,21.625 L8.975,20.1 L13.525,20.1 L13.525,21.625 Z M15.95,18 C15.95,18.275 15.725,18.475 15.475,18.475 L7.025,18.475 C6.75,18.475 6.55,18.25 6.55,18 L6.55,12.375 C6.55,12 6.85,11.775 7.025,11.75 C8.925,11.45 13.8,11.5 15.475,11.75 C15.7,11.775 15.95,12.075 15.95,12.375 L15.95,18 Z M4.525,9.175 C4.15,9.1 4.35,5.75 4.35,5.75 C4.35,5.725 4.375,5.725 4.375,5.7 L18.15,5.7 C18.15,5.725 18.15,5.725 18.15,5.75 C18.15,5.75 18.225,9.1 17.975,9.2 C16.95,9.6 5.475,9.425 4.525,9.175 Z M18.15,18.325 C17.825,18.325 17.55,18.05 17.55,17.725 C17.55,17.4 17.825,17.125 18.15,17.125 C18.475,17.125 18.75,17.4 18.75,17.725 C18.75,18.075 18.475,18.325 18.15,18.325 Z M19,14.25 L18.525,14.25 L18.525,9.75 C18.525,9.7 18.525,9.675 18.5,9.65 L18.5,5.9 C18.5,5.9 18.5,5.875 18.5,5.875 L19,5.875 L19,14.25 Z M20.275,18.325 C19.725,18.325 19.275,17.875 19.275,17.325 C19.275,16.775 19.725,16.325 20.275,16.325 C20.825,16.325 21.275,16.775 21.275,17.325 C21.25,17.9 20.825,18.325 20.275,18.325 Z M6.675,13.95 L15.775,13.95 L15.775,13.7 L6.675,13.7 L6.675,13.95 Z M6.675,14.625 L15.775,14.625 L15.775,14.375 L6.675,14.375 L6.675,14.625 Z M6.675,13.275 L15.775,13.275 L15.775,13.025 L6.675,13.025 L6.675,13.275 Z M15.325,12.05 C13.725,11.8 9,11.75 7.15,12.05 C6.975,12.075 6.675,12.3 6.675,12.65 L6.675,12.8 L15.775,12.8 L15.775,12.65 C15.8,12.35 15.55,12.075 15.325,12.05 Z M6.675,16 L15.775,16 L15.775,15.75 L6.675,15.75 L6.675,16 Z M6.675,17.35 L15.775,17.35 L15.775,17.1 L6.675,17.1 L6.675,17.35 Z M6.675,18.025 L15.775,18.025 L15.775,17.775 L6.675,17.775 L6.675,18.025 Z M6.675,15.3 L15.775,15.3 L15.775,15.05 L6.675,15.05 L6.675,15.3 Z M6.675,16.675 L15.775,16.675 L15.775,16.425 L6.675,16.425 L6.675,16.675 Z" id="Shape" fill-rule="nonzero"></path>
                </g>
            </g>
        </g>
    </g>
</svg>