<?xml version="1.0" encoding="utf-8"?>
<!-- Generator: Adobe Illustrator 21.1.0, SVG Export Plug-In . SVG Version: 6.00 Build 0)  -->
<svg version="1.1" id="Layer_1" xmlns="http://www.w3.org/2000/svg" xmlns:xlink="http://www.w3.org/1999/xlink" x="0px" y="0px"
	 viewBox="0 0 128 128" style="enable-background:new 0 0 128 128;" xml:space="preserve">
<path d="M114.9,29.9c-3.5,0-6.8,1.4-9.3,3.8l-5.8,5.6L118.6,58l5.5-5.7c2.5-2.5,3.8-5.8,3.8-9.3C128,35.8,122.1,29.9,114.9,29.9z"/>
<path d="M23.5,21.3h46.9c1.2,0,2.1-1,2.1-2.1v-4.3c0-5.9-4.8-10.7-10.7-10.7h-7.6C52.8,1.7,50,0,46.9,0c-3.1,0-5.9,1.7-7.4,4.3H32
	c-5.9,0-10.7,4.8-10.7,10.7v4.3C21.3,20.4,22.3,21.3,23.5,21.3z"/>
<path d="M58.5,79.4c3,0.7,8,2.5,12.7,7.3c4.8,4.8,6.6,9.7,7.3,12.7l37.2-38.3L96.8,42.2L58.5,79.4z"/>
<path d="M51.3,82c0.3-1.3,0.9-2.4,1.8-3.3l40.1-38.8c0.4-0.4,0.6-1,0.6-1.5v-18c0-4.1-3.3-7.4-7.4-7.4h-7.5c-1.2,0-2.1,1-2.1,2.1
	v4.3c0,3.5-2.9,6.4-6.4,6.4H23.5c-3.5,0-6.4-2.9-6.4-6.4v-4.3c0-1.2-1-2.1-2.1-2.1H7.4c-4.1,0-7.4,3.3-7.4,7.4v100.4
	c0,4.1,3.3,7.4,7.4,7.4h79.1c4.1,0,7.4-3.3,7.4-7.4V94.9c0-0.9-0.5-1.7-1.3-2c-0.8-0.3-1.7-0.1-2.3,0.5l-10.9,11.3
	c-0.9,0.9-2.1,1.6-3.3,1.8l-21.3,4.3c-2.1,0.4-4.3-0.3-5.8-1.7c-1.5-1.5-2.2-3.7-1.7-5.8L51.3,82z M14.9,110.9
	c-3.5,0-6.4-2.9-6.4-6.4c0-3.5,2.9-6.4,6.4-6.4c3.5,0,6.4,2.9,6.4,6.4C21.3,108.1,18.5,110.9,14.9,110.9z M14.9,89.6
	c-3.5,0-6.4-2.9-6.4-6.4c0-3.5,2.9-6.4,6.4-6.4c3.5,0,6.4,2.9,6.4,6.4C21.3,86.7,18.5,89.6,14.9,89.6z M14.9,68.3
	c-3.5,0-6.4-2.9-6.4-6.4c0-3.5,2.9-6.4,6.4-6.4c3.5,0,6.4,2.9,6.4,6.4C21.3,65.4,18.5,68.3,14.9,68.3z M14.9,46.9
	c-3.5,0-6.4-2.9-6.4-6.4c0-3.5,2.9-6.4,6.4-6.4c3.5,0,6.4,2.9,6.4,6.4C21.3,44.1,18.5,46.9,14.9,46.9z M32,38.4h51.2
	c1.2,0,2.1,1,2.1,2.1s-1,2.1-2.1,2.1H32c-1.2,0-2.1-1-2.1-2.1S30.8,38.4,32,38.4z M38.4,106.7H32c-1.2,0-2.1-1-2.1-2.1
	s1-2.1,2.1-2.1h6.4c1.2,0,2.1,1,2.1,2.1S39.6,106.7,38.4,106.7z M44.8,85.3H32c-1.2,0-2.1-1-2.1-2.1c0-1.2,1-2.1,2.1-2.1h12.8
	c1.2,0,2.1,1,2.1,2.1C46.9,84.4,46,85.3,44.8,85.3z M32,64c-1.2,0-2.1-1-2.1-2.1c0-1.2,1-2.1,2.1-2.1h27.7c1.2,0,2.1,1,2.1,2.1
	c0,1.2-1,2.1-2.1,2.1H32z"/>
<path d="M51.8,106c0.4,0.4,1,0.6,1.5,0.6c0.1,0,0.3,0,0.4,0l20.9-4.2c0-0.2-0.4-6.7-6.5-12.8c-6.1-6.1-12.5-6.5-12.8-6.5l-4.2,20.9
	C51.1,104.8,51.3,105.5,51.8,106z"/>
</svg>
