<svg xmlns="http://www.w3.org/2000/svg" xmlns:xlink="http://www.w3.org/1999/xlink" viewBox="0 0 21.67 30"><defs><style>.cls-1{fill:none;}.cls-2{opacity:0.8;isolation:isolate;}.cls-3{clip-path:url(#clip-path);}.cls-4{clip-path:url(#clip-path-2);}.cls-5{fill:#f1f2f3;}.cls-6{clip-path:url(#clip-path-4);}.cls-7{clip-path:url(#clip-path-6);}.cls-8{clip-path:url(#clip-path-8);}.cls-9{clip-path:url(#clip-path-10);}.cls-10{clip-path:url(#clip-path-12);}</style><clipPath id="clip-path"><rect class="cls-1" x="5" y="5" width="12" height="20"/></clipPath><clipPath id="clip-path-2"><path class="cls-1" d="M15.42,22.5H6.25a1.25,1.25,0,0,0,0,2.5h9.17a1.25,1.25,0,1,0,0-2.5Z"/></clipPath><clipPath id="clip-path-4"><path class="cls-1" d="M6.25,23.33a.42.42,0,0,1-.42-.42V19.43a3.75,3.75,0,0,1,1.28-2.82l1.48-1.29a.42.42,0,0,0,0-.63L7.11,13.39a3.75,3.75,0,0,1-1.28-2.82V7.08a.42.42,0,0,1,.83,0v3.49a2.92,2.92,0,0,0,1,2.19l1.48,1.29a1.25,1.25,0,0,1,0,1.88L7.66,17.23a2.92,2.92,0,0,0-1,2.19v3.49A.42.42,0,0,1,6.25,23.33Z"/></clipPath><clipPath id="clip-path-6"><path class="cls-1" d="M15.42,23.33a.42.42,0,0,1-.42-.42V19.43a2.92,2.92,0,0,0-1-2.19l-1.48-1.29a1.25,1.25,0,0,1,0-1.88L14,12.77a2.92,2.92,0,0,0,1-2.19V7.08a.42.42,0,0,1,.83,0v3.49a3.75,3.75,0,0,1-1.28,2.82l-1.48,1.29a.42.42,0,0,0,0,.63l1.48,1.29a3.75,3.75,0,0,1,1.28,2.82v3.49A.42.42,0,0,1,15.42,23.33Z"/></clipPath><clipPath id="clip-path-8"><path class="cls-1" d="M15.42,5H6.25a1.25,1.25,0,0,0,0,2.5h9.17a1.25,1.25,0,1,0,0-2.5Z"/></clipPath><clipPath id="clip-path-10"><path class="cls-1" d="M10.83,14.58a.42.42,0,0,0,.3-.12l2.08-2.08a.42.42,0,0,0-.3-.71H8.75a.42.42,0,0,0-.3.71l2.08,2.08A.42.42,0,0,0,10.83,14.58Z"/></clipPath><clipPath id="clip-path-12"><path class="cls-1" d="M11.11,18a.42.42,0,0,0-.58,0L6.37,22.21A.42.42,0,1,0,7,22.8l.29-.3H14.8l.34.31a.42.42,0,0,0,.56-.62Z"/></clipPath></defs><title>driver_scorecard_idle_icon</title><g id="Layer_2" data-name="Layer 2"><g id="driver_scorecard_idle_icon"><rect class="cls-1" x="1" y="5" width="20" height="20"/><g class="cls-2"><g class="cls-3"><g class="cls-4"><g class="cls-3"><rect class="cls-5" y="17.5" width="21.67" height="12.5"/></g></g><g class="cls-6"><g class="cls-3"><rect class="cls-5" x="0.83" y="1.67" width="13.73" height="26.67"/></g></g><g class="cls-7"><g class="cls-3"><rect class="cls-5" x="7.1" y="1.67" width="13.73" height="26.67"/></g></g><g class="cls-8"><g class="cls-3"><rect class="cls-5" width="21.67" height="12.5"/></g></g><g class="cls-9"><g class="cls-3"><rect class="cls-5" x="3.33" y="6.67" width="15" height="12.92"/></g></g><g class="cls-10"><g class="cls-3"><rect class="cls-5" x="1.25" y="12.92" width="19.58" height="15"/></g></g></g></g></g></g></svg>