<?xml version="1.0" encoding="utf-8"?>
<!-- Generator: Adobe Illustrator 21.1.0, SVG Export Plug-In . SVG Version: 6.00 Build 0)  -->
<svg version="1.1" id="Layer_1" xmlns="http://www.w3.org/2000/svg" xmlns:xlink="http://www.w3.org/1999/xlink" x="0px" y="0px"
	 viewBox="0 0 128 128" style="enable-background:new 0 0 128 128;" xml:space="preserve">
<path d="M64,0L0,64l64,64l64-64L64,0z M9,64L64,9l55,55l-55,55L9,64z"/>
<path d="M64,11.5L11.5,64L64,116.5L116.5,64L64,11.5z M62,92c-2.7,0-4.9-2.1-4.9-4.9s2.2-4.9,4.9-4.9c2.7,0,5,2.2,5,4.9
	S64.7,92,62,92z M66.3,76.5h-8c0-16.8,12.2-15.3,12.2-25.3c0-3.9-2.5-6.9-6.7-6.9c-4.3,0-7.1,3.4-7.1,7.8l-8.2-1.3
	c0-9,6.6-14.8,15.6-14.8c10.9,0,15.4,7.1,15.4,14.7C79.5,64,66.3,63.5,66.3,76.5z"/>
</svg>
