<svg id="Layer_1" data-name="Layer 1" xmlns="http://www.w3.org/2000/svg" viewBox="0 0 2160 576"><defs><style>.cls-1{fill:#010101;}.cls-2{fill:#58c7f3;}.cls-3{fill:#231f20;}</style></defs><title>Logo-LightBG-tag</title><path class="cls-1" d="M77.72,367.22V85H182.57q58.16,0,93.39,40.84t35.23,100.8q0,60-36.27,100.28T171.11,367.22Zm52.74-41.56h42.73q34.39,0,58.37-25.64t24-76.3q0-41.35-20.95-70T179.24,125.1H130.46Z"/><path class="cls-1" d="M592.32,138.83V170H577.73a64.16,64.16,0,0,0-16.78,2q-7.19,2-14.07,12.66,25,17.47,25,38.86,0,23.89-23.45,39.58t-62,15.69q-16.68,0-39-4.64-14.59,5.71-14.59,17.65,0,6.6,7.09,12.12t21.47,5.53h62.54q32.1,0,50.34,14.17t18.24,35.21q0,25.49-27.62,42.25t-81.82,16.76q-101.93,0-101.93-48.67,0-24.07,30.64-36.55-19.6-14.26-19.59-29.77,0-23.53,33.56-37.44-29.19-15.15-29.18-41.72,0-22.46,21.47-38.33t65.25-15.87a227.41,227.41,0,0,1,40.65,3.74q9.59-34.4,50.65-34.41ZM432.23,343.49Q422,351.51,422,359q0,12.3,17.09,21.66T493.51,390q54.82,0,54.82-24.07,0-8.92-9.59-13.46a50.51,50.51,0,0,0-21.89-4.55H466.41Q452,347.94,432.23,343.49Zm52.11-88.78q38.77,0,38.77-31.2,0-11.94-9.69-20.15t-28.25-8.2q-18.76,0-29.08,8.56t-10.32,21.39A26.13,26.13,0,0,0,456,246.51Q466.2,254.71,484.34,254.71Z"/><path class="cls-1" d="M794.64,324.42v38.1q-21.26,4.71-32.94,4.71-19.18,0-32.94-7.81A47.28,47.28,0,0,1,708.65,338q-6.36-13.59-6.36-41.84V184.23H676V146.35h29l4.38-56.29,39-3.64v59.93h42.32v37.88H748.36V289.75q0,20.34,7.19,27.72t27.2,7.38Q788.39,324.85,794.64,324.42Z"/><path class="cls-1" d="M1001.62,363.27H956.38a141.51,141.51,0,0,1-7.3-38.4q-19,42.35-71.29,42.35-31.48,0-50.55-16.66t-19.07-41.88q0-65.5,127.37-65.5,5,0,13.55.19v-14.3q0-29.55-44.61-29.55-43.36,0-49.2,29.55l-40.44-5.46q3.33-23.71,27.1-39.05t68.79-15.34q24.39,0,39.81,3.67t26.06,12.42q10.63,8.75,14.7,19t4.06,34.73v85.82A127,127,0,0,0,1001.62,363.27Zm-52.53-96.74q-92.14,0-92.14,39.71,0,11.86,9.28,20.23t28,8.38q27.1,0,41-15.53T949.09,284Z"/><path class="cls-1" d="M1062.68,367.22h-47.53V85h47.53Z"/><path class="cls-1" d="M1425.91,366.62h-47.53V177.52h42.94v45.12q9.17-26.4,25.22-38.57t32.94-12.17q2.29,0,6.25.19V218q-36.27,0-48,20.78T1425.91,279Z"/><path class="cls-1" d="M1745.86,172.7l-71.5,194.4H1635l-73.17-194.4h49.61l49.2,131.85,47.94-131.85Z"/><path class="cls-1" d="M1878.56,303l42.94,5.23q-8.34,25.57-32.52,42.18T1828.33,367q-43.78,0-70.46-26.31t-26.68-71.29q0-42.73,26.89-70.73t73-28q45,0,69.62,27.62t24.6,70.91l-.21,4.85H1780.59q0,19.22,4.06,30.79T1800.81,325q12.09,8.59,30.23,8.58Q1866.26,333.61,1878.56,303Zm-2.92-56.36q-.21-20.34-13.65-33.22t-33.25-12.88q-19.6,0-32.73,12t-15.43,34.06Z"/><path class="cls-1" d="M1985,366.78h-47.53V178.3h42.94v45q9.17-26.31,25.22-38.44t32.94-12.13q2.29,0,6.25.19V218.6q-36.27,0-48,20.71T1985,279.44Z"/><path class="cls-2" d="M1323.26,125.82Q1280.33,85,1209.45,85H1081.66V367.22h113.81q82.31,0,126.52-40.32t44.2-100.28Q1366.2,166.66,1323.26,125.82Zm-177.33-.72h59.45q41.92,0,67.45,28.64A97.87,97.87,0,0,1,1292,185.51a5.71,5.71,0,0,1-5.74,7.61c-40-2.3-93-2.41-134.25-.33a5.72,5.72,0,0,1-6-5.69Zm0,194.86V251.69a5.76,5.76,0,0,1,9.67-4.17c18.38,16.82,27.69,46.66,30.67,71.8a5.71,5.71,0,0,1-5.71,6.35h-28.88A5.73,5.73,0,0,1,1145.93,320ZM1216,266a31.36,31.36,0,1,1,31.62-31.36A31.49,31.49,0,0,1,1216,266Zm53.12,34a103.88,103.88,0,0,1-12.81,9.62,5.75,5.75,0,0,1-8.75-6c5.18-24.67,17.74-51.29,40.29-64.18l.52-.29a5.75,5.75,0,0,1,8.53,5.77Q1291.88,280.07,1269.15,300Z"/><ellipse class="cls-2" cx="1216.02" cy="234.66" rx="26.59" ry="26.37"/><path class="cls-1" d="M323.37,111.83a25.11,25.11,0,0,1,2.07-10.27,25.68,25.68,0,0,1,5.58-8.1,24.85,24.85,0,0,1,8.29-5.31,27.36,27.36,0,0,1,10.18-1.89A25.31,25.31,0,0,1,368,93.91a23.77,23.77,0,0,1,5.22,8.29,28.12,28.12,0,0,1,1.8,10,27.38,27.38,0,0,1-1.8,9.91,24.88,24.88,0,0,1-5.22,8.29,26.19,26.19,0,0,1-8.1,5.76,24.65,24.65,0,0,1-10.45,2.16,23.52,23.52,0,0,1-10.18-2.25,27.47,27.47,0,0,1-8.29-5.94,28.75,28.75,0,0,1-5.58-8.47A24.41,24.41,0,0,1,323.37,111.83Zm2.34,60.88h46.83V367.22H325.71Z"/><path class="cls-1" d="M610.8,111.83a25.11,25.11,0,0,1,2.07-10.27,25.68,25.68,0,0,1,5.58-8.1,24.85,24.85,0,0,1,8.29-5.31,27.36,27.36,0,0,1,10.18-1.89,25.31,25.31,0,0,1,18.55,7.65,23.77,23.77,0,0,1,5.22,8.29,28.12,28.12,0,0,1,1.8,10,27.38,27.38,0,0,1-1.8,9.91,24.88,24.88,0,0,1-5.22,8.29,26.19,26.19,0,0,1-8.1,5.76,24.65,24.65,0,0,1-10.45,2.16,23.52,23.52,0,0,1-10.18-2.25,27.47,27.47,0,0,1-8.29-5.94,28.75,28.75,0,0,1-5.58-8.47A24.41,24.41,0,0,1,610.8,111.83Zm2.34,60.88H660V367.22H613.14Z"/><path class="cls-1" d="M1497.92,111.38a25.11,25.11,0,0,1,2.07-10.27,25.68,25.68,0,0,1,5.58-8.1,24.85,24.85,0,0,1,8.29-5.31A27.36,27.36,0,0,1,1524,85.8a25.31,25.31,0,0,1,18.55,7.65,23.77,23.77,0,0,1,5.22,8.29,28.12,28.12,0,0,1,1.8,10,27.38,27.38,0,0,1-1.8,9.91,24.88,24.88,0,0,1-5.22,8.29,26.19,26.19,0,0,1-8.1,5.76,24.65,24.65,0,0,1-10.45,2.16,23.52,23.52,0,0,1-10.18-2.25,27.47,27.47,0,0,1-8.29-5.94,28.75,28.75,0,0,1-5.58-8.47A24.41,24.41,0,0,1,1497.92,111.38Zm2.34,60.88h46.83V366.77h-46.83Z"/><path class="cls-3" d="M2055,151.79a3.64,3.64,0,0,0,.69,1.84,4,4,0,0,0,3.2,1.11,6.89,6.89,0,0,0,2.21-.29,2.09,2.09,0,0,0,1.61-2.09,1.54,1.54,0,0,0-.79-1.38,8.55,8.55,0,0,0-2.5-.84l-1.95-.43a12.14,12.14,0,0,1-3.95-1.38,4.39,4.39,0,0,1-1.82-3.89,5.17,5.17,0,0,1,1.78-4,7.59,7.59,0,0,1,5.23-1.6,8,8,0,0,1,4.91,1.51,5.36,5.36,0,0,1,2.13,4.38h-3.61a2.58,2.58,0,0,0-1.45-2.31,5,5,0,0,0-2.24-.45,4.26,4.26,0,0,0-2.38.59,1.86,1.86,0,0,0-.89,1.64,1.54,1.54,0,0,0,.88,1.44,10.86,10.86,0,0,0,2.39.74l3.16.74a8,8,0,0,1,3.11,1.31,4.4,4.4,0,0,1,1.61,3.67,5.16,5.16,0,0,1-1.91,4.1,8,8,0,0,1-5.39,1.63,8.8,8.8,0,0,1-5.59-1.61,5.31,5.31,0,0,1-2-4.41Z"/><path class="cls-3" d="M2080.93,139.35h5.41v18h-3.5V145.18q0-.52,0-1.47t0-1.46l-3.41,15.1h-3.65l-3.39-15.1q0,.51,0,1.46t0,1.47v12.17h-3.5v-18h5.47l3.28,14.15Z"/><circle class="cls-3" cx="1379.91" cy="429.66" r="6.66"/><circle class="cls-3" cx="1856.12" cy="429.66" r="6.66"/><path class="cls-3" d="M1249.2,489.92l-5.28-15.83h-25.49l-5.28,15.83H1203l22-66.42h14.74L1262,489.92Zm-18.12-55.07-9.66,29.67h19.32Z"/><path class="cls-3" d="M1321.3,489.92v-9.86c-3.09,7.47-7.47,10.85-14.44,10.85a16.15,16.15,0,0,1-13.14-6.27c-3.29-4.38-5.58-12.35-5.58-19.92,0-8.07,2.49-15.53,6.87-20.51a15.64,15.64,0,0,1,12.45-5.38c6.27,0,10.46,2.79,13.14,8.66v-24h11.05v66.42Zm-.7-29c0-4.28-.7-6.67-2.59-9a9.77,9.77,0,0,0-7.57-3.68c-6.77,0-10.56,6.07-10.56,17,0,10.75,3.58,16.53,10.26,16.53,5.88,0,10.46-5.48,10.46-12.55Z"/><path class="cls-3" d="M1343.41,489.92V440.83h10.06v11.75c2.29-8.56,8.06-13.64,14.94-13.14v11.95h-.7l-1.89.1c-6.57.3-11.15,6.57-11.35,15.73v22.7Z"/><rect class="cls-3" x="1374.38" y="440.83" width="11.05" height="49.09"/><path class="cls-3" d="M1417.3,489.92H1408l-17-49.09h11.55L1414,474.09l11.25-33.26h8.66Z"/><path class="cls-3" d="M1479.84,475.58c-3.29,10-10.85,15.33-21.81,15.33-13.74,0-22.61-10-22.61-25.39s9.26-25.69,23.1-25.69c14.14,0,22,9.56,22.11,26.89H1447v1.39c.1,9,4.38,14,11.75,14,5.68,0,8.76-2.29,11.05-8Zm-10.65-16c-.2-3.68-.8-5.38-2.49-7.67a10.25,10.25,0,0,0-8.56-4.28c-6.27,0-10.26,4.18-11.15,12Z"/><path class="cls-3" d="M1489.3,489.92V440.83h10.06v11.75c2.29-8.56,8.07-13.64,14.94-13.14v11.95h-.7l-1.89.1c-6.57.3-11.15,6.57-11.35,15.73v22.7Z"/><path class="cls-3" d="M1526.25,476.68c2.09,4.38,4.88,6,10.85,6,6.27,0,10-2.19,10-6.07,0-2.39-2.09-4.28-5.38-4.88l-9-1.79c-10.16-1.89-14.84-6.47-14.84-14.44a15.08,15.08,0,0,1,3.88-10.26c3.38-3.68,8.17-5.38,15-5.38,10.16,0,16.63,3.88,18.92,11.35l-10,2.09c-1.29-4-3.88-5.58-9-5.58-5.28,0-8.66,2.09-8.66,5.28,0,2.89,2.09,4.58,7.07,5.58l10.56,2.19c8.17,1.59,12.35,6.47,12.35,14.24,0,9.76-8.37,15.93-21.41,15.93-6.27,0-11.65-1.59-15.73-4.58-2.59-2-3.88-3.88-5.08-7.67Z"/><path class="cls-3" d="M1589,489.92V423.5H1600v24c4.08-6.87,7.37-9,13.64-9,11.25,0,18.72,10.26,18.72,25.89,0,7.77-1.89,14.14-5.68,19.32-3.78,5-8.17,7.17-14.74,7.17-6.77,0-10.66-2.39-15-9.06l-3,8.07Zm11.05-21c0,8.26,3.68,12.95,10.16,12.95a8.71,8.71,0,0,0,7.87-4.38c1.89-3.19,2.59-6.27,2.69-13.44-.3-6.57-1-9.36-2.89-12.15a8.8,8.8,0,0,0-7.37-3.78c-6.37,0-10.46,5.28-10.46,13.54Z"/><path class="cls-3" d="M1682.29,475.58c-3.29,10-10.85,15.33-21.81,15.33-13.74,0-22.6-10-22.6-25.39s9.26-25.69,23.1-25.69c14.14,0,22,9.56,22.11,26.89h-33.66v1.39c.1,9,4.38,14,11.75,14,5.68,0,8.76-2.29,11.05-8Zm-10.65-16c-.2-3.68-.8-5.38-2.49-7.67a10.26,10.26,0,0,0-8.56-4.28c-6.27,0-10.26,4.18-11.15,12Z"/><path class="cls-3" d="M1696.43,476.68c2.09,4.38,4.88,6,10.85,6,6.27,0,10-2.19,10-6.07,0-2.39-2.09-4.28-5.38-4.88l-9-1.79c-10.16-1.89-14.84-6.47-14.84-14.44a15.08,15.08,0,0,1,3.88-10.26c3.38-3.68,8.16-5.38,15-5.38,10.16,0,16.63,3.88,18.92,11.35l-10,2.09c-1.29-4-3.88-5.58-9-5.58-5.28,0-8.66,2.09-8.66,5.28,0,2.89,2.09,4.58,7.07,5.58l10.55,2.19c8.17,1.59,12.35,6.47,12.35,14.24,0,9.76-8.37,15.93-21.41,15.93-6.27,0-11.65-1.59-15.73-4.58-2.59-2-3.88-3.88-5.08-7.67Z"/><path class="cls-3" d="M1758.38,489.92a41.69,41.69,0,0,1-7.77,1.1,15,15,0,0,1-10.46-3.88c-2.59-2.59-3.38-5.58-3.38-12.25V449.49h-6.08v-8.66h6.77l1-12.75,9.06-.8v13.54h10v8.66h-10v23.9c0,6.17,1.79,8,8.07,8,.4,0,1.59,0,2.79-.1Z"/><path class="cls-3" d="M1791.34,489.92V449.49h-7.27v-8.66h7.27c-.1-7.77.8-11,3.69-14.14s6.57-4.28,13.94-4.28c1.49,0,2.09,0,4,.1v8.76a17.19,17.19,0,0,0-3-.2q-5.23,0-6.87,2.09c-1,1.29-1.1,2-1.1,7.67h11v8.66h-11v40.43Z"/><path class="cls-3" d="M1819.62,489.92V440.83h10.06v11.75c2.29-8.56,8.07-13.64,14.94-13.14v11.95h-.7l-1.89.1c-6.57.3-11.15,6.57-11.35,15.73v22.7Z"/><rect class="cls-3" x="1850.59" y="440.83" width="11.05" height="49.09"/><path class="cls-3" d="M1914.72,475.58c-3.29,10-10.85,15.33-21.81,15.33-13.74,0-22.61-10-22.61-25.39s9.26-25.69,23.1-25.69c14.14,0,22,9.56,22.11,26.89h-33.66v1.39c.1,9,4.38,14,11.75,14,5.68,0,8.76-2.29,11.05-8Zm-10.65-16c-.2-3.68-.8-5.38-2.49-7.67a10.25,10.25,0,0,0-8.56-4.28c-6.27,0-10.26,4.18-11.15,12Z"/><path class="cls-3" d="M1953.76,489.92V459.25c0-6-3-9.76-7.67-9.76a10.52,10.52,0,0,0-9.06,6.07,20.26,20.26,0,0,0-1.79,9.16v25.19h-11.05V440.83h10.06v11.35c4.08-8.86,8.37-12.35,15-12.35,5.68,0,11.25,3,13.44,7.27,1.49,2.89,2.09,6.08,2.09,11.15v31.67Z"/><path class="cls-3" d="M2006.54,489.92v-9.86c-3.09,7.47-7.47,10.85-14.44,10.85a16.15,16.15,0,0,1-13.14-6.27c-3.29-4.38-5.58-12.35-5.58-19.92,0-8.07,2.49-15.53,6.87-20.51a15.64,15.64,0,0,1,12.45-5.38c6.27,0,10.46,2.79,13.14,8.66v-24h11.05v66.42Zm-.7-29c0-4.28-.7-6.67-2.59-9a9.77,9.77,0,0,0-7.57-3.68c-6.77,0-10.56,6.07-10.56,17,0,10.75,3.59,16.53,10.26,16.53,5.88,0,10.46-5.48,10.46-12.55Z"/><circle class="cls-3" cx="2034.07" cy="483.26" r="6.66"/></svg>