<svg id="Layer_1" data-name="Layer 1" xmlns="http://www.w3.org/2000/svg" viewBox="0 0 1100 300"><defs><style>.cls-1{fill:#f1f1f3;}.cls-2{fill:#58c7f3;}</style></defs><title>Logo-DarkBG-tag</title><path class="cls-1" d="M52,189.44V48.93h52.2q29,0,46.49,20.33t17.54,50.18q0,29.85-18.06,49.93T98.52,189.44Zm26.26-20.69H99.56q17.12,0,29.06-12.76t11.93-38q0-20.59-10.43-34.85T102.57,68.9H78.29Z"/><path class="cls-1" d="M308.23,75.73V91.27H301a31.94,31.94,0,0,0-8.35,1q-3.58,1-7,6.3,12.45,8.7,12.45,19.35,0,11.89-11.68,19.7t-30.87,7.81a97,97,0,0,1-19.41-2.31q-7.27,2.84-7.26,8.79,0,3.28,3.53,6t10.69,2.75h31.13q16,0,25.06,7.06t9.08,17.53q0,12.69-13.75,21t-40.73,8.34q-50.75,0-50.75-24.23,0-12,15.26-18.19-9.76-7.1-9.76-14.82,0-11.72,16.71-18.64-14.53-7.54-14.53-20.77,0-11.18,10.69-19.08T253.95,91a113.22,113.22,0,0,1,20.24,1.86Q279,75.74,299.4,75.73Zm-79.7,101.89q-5.09,4-5.09,7.72,0,6.12,8.51,10.78T259,200.79q27.29,0,27.29-12,0-4.44-4.77-6.7a25.15,25.15,0,0,0-10.9-2.26H245.54A79.17,79.17,0,0,1,228.52,177.62Zm25.94-44.2q19.3,0,19.3-15.53a12.65,12.65,0,0,0-4.83-10q-4.83-4.08-14.06-4.08T240.41,108a13.28,13.28,0,0,0-5.14,10.65,13,13,0,0,0,5.09,10.65Q245.44,133.43,254.47,133.43Z"/><path class="cls-1" d="M409,168.13v19q-10.59,2.34-16.4,2.34a32.69,32.69,0,0,1-16.4-3.89,23.54,23.54,0,0,1-10-10.66Q363,168.13,363,154.07V98.34H349.9V79.48h14.43l2.18-28,19.41-1.81V79.48H407V98.34H385.91v52.53q0,10.12,3.58,13.8T403,168.34Q405.84,168.34,409,168.13Z"/><path class="cls-1" d="M512,187.47H489.48a70.45,70.45,0,0,1-3.63-19.12q-9.44,21.08-35.49,21.08-15.67,0-25.17-8.29a26.51,26.51,0,0,1-9.5-20.85q0-32.61,63.41-32.61,2.49,0,6.75.09v-7.12q0-14.71-22.21-14.71-21.59,0-24.49,14.71L419,117.95q1.66-11.81,13.49-19.44t34.25-7.64a88.15,88.15,0,0,1,19.82,1.83,31.56,31.56,0,0,1,13,6.18,23.8,23.8,0,0,1,7.32,9.46q2,5.11,2,17.29v42.73A63.21,63.21,0,0,0,512,187.47Zm-26.15-48.16q-45.87,0-45.87,19.77a13.09,13.09,0,0,0,4.62,10.07q4.62,4.17,14,4.17,13.49,0,20.39-7.73a25.66,25.66,0,0,0,6.9-17.57Z"/><path class="cls-1" d="M542.4,189.44H518.74V48.93H542.4Z"/><path class="cls-1" d="M723.23,189.14H699.57V95h21.38v22.46q4.57-13.14,12.56-19.2t16.4-6.06q1.14,0,3.11.09v22.84q-18.06,0-23.92,10.35t-5.86,20Z"/><path class="cls-1" d="M882.52,92.6l-35.6,96.78H827.31L790.88,92.6h24.7l24.49,65.64L863.94,92.6Z"/><path class="cls-1" d="M948.59,157.47l21.38,2.6q-4.15,12.73-16.19,21t-30.2,8.27q-21.79,0-35.08-13.1t-13.28-35.49q0-21.27,13.39-35.21T924.93,91.6q22.42,0,34.66,13.75t12.25,35.31l-.1,2.42H899.81q0,9.57,2,15.33a20.87,20.87,0,0,0,8,10q6,4.27,15,4.27Q942.46,172.71,948.59,157.47Zm-1.45-28.06q-.1-10.13-6.8-16.54a24.85,24.85,0,0,0-32.85-.42q-6.54,6-7.68,17Z"/><path class="cls-1" d="M1001.56,189.22H977.9V95.38h21.38v22.39q4.57-13.1,12.56-19.14t16.4-6q1.14,0,3.11.09v22.76q-18.06,0-23.92,10.31t-5.86,20Z"/><path class="cls-2" d="M672.13,69.26q-21.38-20.33-56.66-20.33H551.85V189.44h56.66q41,0,63-20.07t22-49.93Q693.5,89.59,672.13,69.26Zm-88.28-.36h29.6q20.87,0,33.58,14.26A48.72,48.72,0,0,1,656.55,99a2.84,2.84,0,0,1-2.86,3.79c-19.94-1.14-46.29-1.2-66.84-.16a2.85,2.85,0,0,1-3-2.84Zm0,97v-34a2.87,2.87,0,0,1,4.82-2.08c9.15,8.37,13.79,23.23,15.27,35.75a2.84,2.84,0,0,1-2.85,3.16H586.71A2.85,2.85,0,0,1,583.85,165.91Zm34.89-26.86a15.61,15.61,0,1,1,15.74-15.61A15.68,15.68,0,0,1,618.74,139.06ZM645.19,156a51.72,51.72,0,0,1-6.38,4.79,2.86,2.86,0,0,1-4.36-3c2.58-12.28,8.83-25.53,20.06-32l.26-.15a2.86,2.86,0,0,1,4.25,2.87Q656.51,146.05,645.19,156Z"/><ellipse class="cls-2" cx="618.74" cy="123.44" rx="13.24" ry="13.13"/><path class="cls-1" d="M174.33,62.29a12.5,12.5,0,0,1,1-5.11,12.79,12.79,0,0,1,2.78-4,12.37,12.37,0,0,1,4.12-2.65,13.62,13.62,0,0,1,5.07-.94,12.6,12.6,0,0,1,9.24,3.81,11.84,11.84,0,0,1,2.6,4.12,14,14,0,0,1,.9,5,13.63,13.63,0,0,1-.9,4.93,12.39,12.39,0,0,1-2.6,4.12,13,13,0,0,1-4,2.87,12.27,12.27,0,0,1-5.2,1.08,11.71,11.71,0,0,1-5.07-1.12,13.67,13.67,0,0,1-4.12-3,14.31,14.31,0,0,1-2.78-4.21A12.15,12.15,0,0,1,174.33,62.29Zm1.16,30.31h23.31v96.84H175.49Z"/><path class="cls-1" d="M317.43,62.29a12.5,12.5,0,0,1,1-5.11,12.79,12.79,0,0,1,2.78-4,12.37,12.37,0,0,1,4.12-2.65,13.62,13.62,0,0,1,5.07-.94,12.6,12.6,0,0,1,9.24,3.81,11.84,11.84,0,0,1,2.6,4.12,14,14,0,0,1,.9,5,13.63,13.63,0,0,1-.9,4.93,12.39,12.39,0,0,1-2.6,4.12,13,13,0,0,1-4,2.87,12.27,12.27,0,0,1-5.2,1.08,11.71,11.71,0,0,1-5.07-1.12,13.67,13.67,0,0,1-4.12-3,14.31,14.31,0,0,1-2.78-4.21A12.15,12.15,0,0,1,317.43,62.29Zm1.16,30.31h23.31v96.84H318.59Z"/><path class="cls-1" d="M759.08,62.07a12.5,12.5,0,0,1,1-5.11,12.79,12.79,0,0,1,2.78-4A12.37,12.37,0,0,1,767,50.28a13.62,13.62,0,0,1,5.07-.94,12.6,12.6,0,0,1,9.24,3.81,11.84,11.84,0,0,1,2.6,4.12,14,14,0,0,1,.9,5,13.63,13.63,0,0,1-.9,4.93,12.39,12.39,0,0,1-2.6,4.12,13,13,0,0,1-4,2.87,12.27,12.27,0,0,1-5.2,1.08A11.71,11.71,0,0,1,767,74.13a13.67,13.67,0,0,1-4.12-3A14.31,14.31,0,0,1,760.11,67,12.15,12.15,0,0,1,759.08,62.07Zm1.16,30.31h23.31v96.84H760.25Z"/><path class="cls-1" d="M1036.44,82.19a1.81,1.81,0,0,0,.34.92,2,2,0,0,0,1.59.55,3.43,3.43,0,0,0,1.1-.15,1,1,0,0,0,.8-1,.77.77,0,0,0-.39-.69,4.26,4.26,0,0,0-1.24-.42l-1-.21a6,6,0,0,1-2-.69,2.18,2.18,0,0,1-.91-1.94,2.57,2.57,0,0,1,.89-2,3.78,3.78,0,0,1,2.6-.8,4,4,0,0,1,2.45.75,2.67,2.67,0,0,1,1.06,2.18H1040a1.28,1.28,0,0,0-.72-1.15,2.48,2.48,0,0,0-1.12-.22,2.12,2.12,0,0,0-1.18.29.92.92,0,0,0-.44.81.77.77,0,0,0,.44.72,5.4,5.4,0,0,0,1.19.37l1.57.37a4,4,0,0,1,1.55.65,2.19,2.19,0,0,1,.8,1.83,2.57,2.57,0,0,1-.95,2,4,4,0,0,1-2.68.81,4.38,4.38,0,0,1-2.78-.8,2.64,2.64,0,0,1-1-2.2Z"/><path class="cls-1" d="M1049.34,76H1052v9h-1.74V78.89q0-.26,0-.73t0-.73L1048.6,85h-1.82l-1.69-7.52q0,.26,0,.73t0,.73V85h-1.74V76h2.72l1.63,7Z"/><circle class="cls-1" cx="700.33" cy="220.53" r="3.32"/><circle class="cls-1" cx="937.41" cy="220.52" r="3.32"/><path class="cls-1" d="M635.26,250.53l-2.63-7.88H619.94l-2.63,7.88h-5.06l11-33.07h7.34l11.1,33.07Zm-9-27.42-4.81,14.77H631Z"/><path class="cls-1" d="M671.15,250.53v-4.91c-1.54,3.72-3.72,5.4-7.19,5.4a8,8,0,0,1-6.54-3.12c-1.64-2.18-2.78-6.15-2.78-9.92a15.57,15.57,0,0,1,3.42-10.21,7.79,7.79,0,0,1,6.2-2.68,6.62,6.62,0,0,1,6.54,4.31V217.46h5.5v33.07Zm-.35-14.43c0-2.13-.35-3.32-1.29-4.46a4.86,4.86,0,0,0-3.77-1.83c-3.37,0-5.26,3-5.26,8.48s1.78,8.23,5.11,8.23c2.92,0,5.21-2.73,5.21-6.25Z"/><path class="cls-1" d="M682.16,250.53V226.09h5v5.85c1.14-4.26,4-6.79,7.44-6.54v5.95h-.35l-.94,0c-3.27.15-5.55,3.27-5.65,7.83v11.3Z"/><rect class="cls-1" x="697.58" y="226.09" width="5.5" height="24.44"/><path class="cls-1" d="M718.95,250.53h-4.61l-8.48-24.44h5.75l5.7,16.56,5.6-16.56h4.31Z"/><path class="cls-1" d="M750.08,243.39c-1.64,5-5.4,7.63-10.86,7.63-6.84,0-11.25-5-11.25-12.64s4.61-12.79,11.5-12.79,11,4.76,11,13.39H733.72v.69c0,4.46,2.18,7,5.85,7,2.83,0,4.36-1.14,5.5-4Zm-5.3-8a6,6,0,0,0-1.24-3.82,5.11,5.11,0,0,0-4.26-2.13c-3.12,0-5.11,2.08-5.55,5.95Z"/><path class="cls-1" d="M754.79,250.53V226.09h5v5.85c1.14-4.26,4-6.79,7.44-6.54v5.95h-.35l-.94,0c-3.27.15-5.55,3.27-5.65,7.83v11.3Z"/><path class="cls-1" d="M773.19,243.93c1,2.18,2.43,3,5.4,3s5-1.09,5-3c0-1.19-1-2.13-2.68-2.43l-4.46-.89c-5.06-.94-7.39-3.22-7.39-7.19a7.51,7.51,0,0,1,1.93-5.11c1.69-1.83,4.07-2.68,7.49-2.68,5.06,0,8.28,1.93,9.42,5.65l-5,1c-.64-2-1.93-2.78-4.46-2.78s-4.31,1-4.31,2.63,1,2.28,3.52,2.78L782.9,236c4.07.79,6.15,3.22,6.15,7.09,0,4.86-4.16,7.93-10.66,7.93a13.08,13.08,0,0,1-7.83-2.28,6.7,6.7,0,0,1-2.53-3.82Z"/><path class="cls-1" d="M804.42,250.53V217.46h5.5v11.95c2-3.42,3.67-4.46,6.79-4.46,5.6,0,9.32,5.11,9.32,12.89a15.79,15.79,0,0,1-2.83,9.62,8.35,8.35,0,0,1-7.34,3.57c-3.37,0-5.3-1.19-7.49-4.51l-1.49,4Zm5.5-10.46c0,4.11,1.83,6.44,5.06,6.44a4.33,4.33,0,0,0,3.92-2.18c.94-1.59,1.29-3.12,1.34-6.69-.15-3.27-.5-4.66-1.44-6a4.38,4.38,0,0,0-3.67-1.88c-3.17,0-5.21,2.63-5.21,6.74Z"/><path class="cls-1" d="M850.87,243.39c-1.64,5-5.4,7.63-10.86,7.63-6.84,0-11.25-5-11.25-12.64s4.61-12.79,11.5-12.79,11,4.76,11,13.39H834.51v.69c0,4.46,2.18,7,5.85,7,2.83,0,4.36-1.14,5.5-4Zm-5.3-8a6,6,0,0,0-1.24-3.82,5.11,5.11,0,0,0-4.26-2.13c-3.12,0-5.11,2.08-5.55,5.95Z"/><path class="cls-1" d="M857.91,243.93c1,2.18,2.43,3,5.4,3s5-1.09,5-3c0-1.19-1-2.13-2.68-2.43l-4.46-.89c-5.06-.94-7.39-3.22-7.39-7.19a7.51,7.51,0,0,1,1.93-5.11c1.69-1.83,4.06-2.68,7.49-2.68,5.06,0,8.28,1.93,9.42,5.65l-5,1c-.64-2-1.93-2.78-4.46-2.78s-4.31,1-4.31,2.63,1,2.28,3.52,2.78l5.25,1.09c4.07.79,6.15,3.22,6.15,7.09,0,4.86-4.16,7.93-10.66,7.93a13.08,13.08,0,0,1-7.83-2.28,6.7,6.7,0,0,1-2.53-3.82Z"/><path class="cls-1" d="M888.75,250.53a20.75,20.75,0,0,1-3.87.55,7.45,7.45,0,0,1-5.21-1.93c-1.29-1.29-1.69-2.78-1.69-6.1V230.4h-3v-4.31h3.37l.5-6.35,4.51-.4v6.74h5v4.31h-5v11.9c0,3.07.89,4,4,4,.2,0,.79,0,1.39,0Z"/><path class="cls-1" d="M905.16,250.53V230.4h-3.62v-4.31h3.62c0-3.87.4-5.45,1.83-7s3.27-2.13,6.94-2.13c.74,0,1,0,2,0v4.36a8.56,8.56,0,0,0-1.49-.1q-2.6,0-3.42,1c-.5.64-.55,1-.55,3.82h5.45v4.31h-5.45v20.13Z"/><path class="cls-1" d="M919.24,250.53V226.09h5v5.85c1.14-4.26,4-6.79,7.44-6.54v5.95h-.35l-.94,0c-3.27.15-5.55,3.27-5.65,7.83v11.3Z"/><rect class="cls-1" x="934.66" y="226.09" width="5.5" height="24.44"/><path class="cls-1" d="M966.59,243.39c-1.64,5-5.4,7.63-10.86,7.63-6.84,0-11.25-5-11.25-12.64s4.61-12.79,11.5-12.79,11,4.76,11,13.39H950.23v.69c0,4.46,2.18,7,5.85,7,2.83,0,4.36-1.14,5.5-4Zm-5.3-8a6,6,0,0,0-1.24-3.82,5.11,5.11,0,0,0-4.26-2.13c-3.12,0-5.11,2.08-5.55,5.95Z"/><path class="cls-1" d="M986,250.53V235.26c0-3-1.49-4.86-3.82-4.86a5.24,5.24,0,0,0-4.51,3,10.09,10.09,0,0,0-.89,4.56v12.54h-5.5V226.09h5v5.65c2-4.41,4.16-6.15,7.49-6.15,2.83,0,5.6,1.49,6.69,3.62a11.43,11.43,0,0,1,1,5.55v15.77Z"/><path class="cls-1" d="M1012.3,250.53v-4.91c-1.54,3.72-3.72,5.4-7.19,5.4a8,8,0,0,1-6.54-3.12c-1.64-2.18-2.78-6.15-2.78-9.92a15.57,15.57,0,0,1,3.42-10.21,7.79,7.79,0,0,1,6.2-2.68,6.62,6.62,0,0,1,6.54,4.31V217.46h5.5v33.07ZM1012,236.1c0-2.13-.35-3.32-1.29-4.46a4.86,4.86,0,0,0-3.77-1.83c-3.37,0-5.26,3-5.26,8.48s1.79,8.23,5.11,8.23c2.92,0,5.21-2.73,5.21-6.25Z"/><circle class="cls-1" cx="1026.01" cy="247.21" r="3.32"/></svg>