<svg id="Layer_1" data-name="Layer 1" xmlns="http://www.w3.org/2000/svg" viewBox="0 0 1100 300"><defs><style>.cls-1{fill:#010101;}.cls-2{fill:#58c7f3;}.cls-3{fill:#231f20;}</style></defs><title>Logo-LightBG-notag</title><path class="cls-1" d="M52,207.66V67.15h52.2q29,0,46.49,20.33t17.54,50.18q0,29.85-18.06,49.93T98.52,207.66ZM78.29,187H99.56q17.12,0,29.06-12.76t11.93-38q0-20.59-10.43-34.85T102.57,87.12H78.29Z"/><path class="cls-1" d="M308.23,94v15.53H301a31.94,31.94,0,0,0-8.35,1q-3.58,1-7,6.3,12.45,8.7,12.45,19.35,0,11.89-11.68,19.7t-30.87,7.81a97,97,0,0,1-19.41-2.31q-7.27,2.84-7.26,8.79,0,3.28,3.53,6t10.69,2.75h31.13q16,0,25.06,7.06t9.08,17.53q0,12.69-13.75,21t-40.73,8.34q-50.75,0-50.75-24.23,0-12,15.26-18.19-9.76-7.1-9.76-14.82,0-11.72,16.71-18.64-14.53-7.54-14.53-20.77,0-11.18,10.69-19.08t32.48-7.9a113.22,113.22,0,0,1,20.24,1.86Q279,94,299.4,94Zm-79.7,101.89q-5.09,4-5.09,7.72,0,6.12,8.51,10.78T259,219q27.29,0,27.29-12,0-4.44-4.77-6.7a25.15,25.15,0,0,0-10.9-2.26H245.54A79.17,79.17,0,0,1,228.52,195.84Zm25.94-44.2q19.3,0,19.3-15.53a12.65,12.65,0,0,0-4.83-10Q264.12,122,254.88,122t-14.48,4.26a13.28,13.28,0,0,0-5.14,10.65,13,13,0,0,0,5.09,10.65Q245.44,151.64,254.47,151.64Z"/><path class="cls-1" d="M409,186.35v19q-10.59,2.34-16.4,2.34a32.69,32.69,0,0,1-16.4-3.89,23.54,23.54,0,0,1-10-10.66Q363,186.35,363,172.28V116.56H349.9V97.7h14.43l2.18-28,19.41-1.81V97.7H407v18.86H385.91v52.53q0,10.12,3.58,13.8T403,186.56Q405.84,186.56,409,186.35Z"/><path class="cls-1" d="M512,205.69H489.48a70.45,70.45,0,0,1-3.63-19.12q-9.44,21.08-35.49,21.08-15.67,0-25.17-8.29a26.51,26.51,0,0,1-9.5-20.85q0-32.61,63.41-32.61,2.49,0,6.75.09v-7.12q0-14.71-22.21-14.71-21.59,0-24.49,14.71L419,136.17q1.66-11.81,13.49-19.44t34.25-7.64a88.15,88.15,0,0,1,19.82,1.83,31.56,31.56,0,0,1,13,6.18,23.8,23.8,0,0,1,7.32,9.46q2,5.11,2,17.29v42.73A63.21,63.21,0,0,0,512,205.69Zm-26.15-48.16Q440,157.53,440,177.3a13.09,13.09,0,0,0,4.62,10.07q4.62,4.17,14,4.17,13.49,0,20.39-7.73a25.66,25.66,0,0,0,6.9-17.57Z"/><path class="cls-1" d="M542.4,207.66H518.74V67.15H542.4Z"/><path class="cls-1" d="M723.23,207.36H699.57V113.22h21.38v22.46q4.57-13.14,12.56-19.2t16.4-6.06q1.14,0,3.11.09v22.84q-18.06,0-23.92,10.35t-5.86,20Z"/><path class="cls-1" d="M882.52,110.81l-35.6,96.78H827.31l-36.43-96.78h24.7l24.49,65.64,23.87-65.64Z"/><path class="cls-1" d="M948.59,175.69l21.38,2.6q-4.15,12.73-16.19,21t-30.2,8.27q-21.79,0-35.08-13.1T875.22,159q0-21.27,13.39-35.21t36.32-13.94q22.42,0,34.66,13.75t12.25,35.31l-.1,2.42H899.81q0,9.57,2,15.33a20.87,20.87,0,0,0,8,10q6,4.27,15,4.27Q942.46,190.93,948.59,175.69Zm-1.45-28.06q-.1-10.13-6.8-16.54a24.85,24.85,0,0,0-32.85-.42q-6.54,6-7.68,17Z"/><path class="cls-1" d="M1001.56,207.44H977.9V113.6h21.38V136q4.57-13.1,12.56-19.14t16.4-6q1.14,0,3.11.09v22.76q-18.06,0-23.92,10.31t-5.86,20Z"/><path class="cls-2" d="M672.13,87.48q-21.38-20.33-56.66-20.33H551.85V207.66h56.66q41,0,63-20.07t22-49.93Q693.5,107.81,672.13,87.48Zm-88.28-.36h29.6q20.87,0,33.58,14.26a48.72,48.72,0,0,1,9.52,15.82,2.84,2.84,0,0,1-2.86,3.79c-19.94-1.14-46.29-1.2-66.84-.16a2.85,2.85,0,0,1-3-2.84Zm0,97v-34a2.87,2.87,0,0,1,4.82-2.08c9.15,8.37,13.79,23.23,15.27,35.75a2.84,2.84,0,0,1-2.85,3.16H586.71A2.85,2.85,0,0,1,583.85,184.13Zm34.89-26.86a15.61,15.61,0,1,1,15.74-15.61A15.68,15.68,0,0,1,618.74,157.27Zm26.45,16.93a51.72,51.72,0,0,1-6.38,4.79,2.86,2.86,0,0,1-4.36-3c2.58-12.28,8.83-25.53,20.06-32l.26-.15a2.86,2.86,0,0,1,4.25,2.87Q656.51,164.27,645.19,174.2Z"/><ellipse class="cls-2" cx="618.74" cy="141.66" rx="13.24" ry="13.13"/><path class="cls-1" d="M174.33,80.51a12.5,12.5,0,0,1,1-5.11,12.79,12.79,0,0,1,2.78-4,12.37,12.37,0,0,1,4.12-2.65,13.62,13.62,0,0,1,5.07-.94,12.6,12.6,0,0,1,9.24,3.81,11.84,11.84,0,0,1,2.6,4.12,14,14,0,0,1,.9,5,13.63,13.63,0,0,1-.9,4.93,12.39,12.39,0,0,1-2.6,4.12,13,13,0,0,1-4,2.87,12.27,12.27,0,0,1-5.2,1.08,11.71,11.71,0,0,1-5.07-1.12,13.67,13.67,0,0,1-4.12-3,14.31,14.31,0,0,1-2.78-4.21A12.15,12.15,0,0,1,174.33,80.51Zm1.16,30.31h23.31v96.84H175.49Z"/><path class="cls-1" d="M317.43,80.51a12.5,12.5,0,0,1,1-5.11,12.79,12.79,0,0,1,2.78-4,12.37,12.37,0,0,1,4.12-2.65,13.62,13.62,0,0,1,5.07-.94,12.6,12.6,0,0,1,9.24,3.81,11.84,11.84,0,0,1,2.6,4.12,14,14,0,0,1,.9,5,13.63,13.63,0,0,1-.9,4.93,12.39,12.39,0,0,1-2.6,4.12,13,13,0,0,1-4,2.87,12.27,12.27,0,0,1-5.2,1.08,11.71,11.71,0,0,1-5.07-1.12,13.67,13.67,0,0,1-4.12-3,14.31,14.31,0,0,1-2.78-4.21A12.15,12.15,0,0,1,317.43,80.51Zm1.16,30.31h23.31v96.84H318.59Z"/><path class="cls-1" d="M759.08,80.29a12.5,12.5,0,0,1,1-5.11,12.79,12.79,0,0,1,2.78-4A12.37,12.37,0,0,1,767,68.49a13.62,13.62,0,0,1,5.07-.94,12.6,12.6,0,0,1,9.24,3.81,11.84,11.84,0,0,1,2.6,4.12,14,14,0,0,1,.9,5,13.63,13.63,0,0,1-.9,4.93,12.39,12.39,0,0,1-2.6,4.12,13,13,0,0,1-4,2.87,12.27,12.27,0,0,1-5.2,1.08A11.71,11.71,0,0,1,767,92.35a13.67,13.67,0,0,1-4.12-3,14.31,14.31,0,0,1-2.78-4.21A12.15,12.15,0,0,1,759.08,80.29Zm1.16,30.31h23.31v96.84H760.25Z"/><path class="cls-3" d="M1036.44,100.41a1.81,1.81,0,0,0,.34.92,2,2,0,0,0,1.59.55,3.43,3.43,0,0,0,1.1-.15,1,1,0,0,0,.8-1,.77.77,0,0,0-.39-.69,4.26,4.26,0,0,0-1.24-.42l-1-.21a6,6,0,0,1-2-.69,2.18,2.18,0,0,1-.91-1.94,2.57,2.57,0,0,1,.89-2,3.78,3.78,0,0,1,2.6-.8,4,4,0,0,1,2.45.75,2.67,2.67,0,0,1,1.06,2.18H1040a1.28,1.28,0,0,0-.72-1.15,2.48,2.48,0,0,0-1.12-.22,2.12,2.12,0,0,0-1.18.29.92.92,0,0,0-.44.81.77.77,0,0,0,.44.72,5.4,5.4,0,0,0,1.19.37l1.57.37a4,4,0,0,1,1.55.65,2.19,2.19,0,0,1,.8,1.83,2.57,2.57,0,0,1-.95,2,4,4,0,0,1-2.68.81,4.38,4.38,0,0,1-2.78-.8,2.64,2.64,0,0,1-1-2.2Z"/><path class="cls-3" d="M1049.34,94.21H1052v9h-1.74V97.11q0-.26,0-.73t0-.73l-1.7,7.52h-1.82l-1.69-7.52q0,.26,0,.73t0,.73v6.06h-1.74v-9h2.72l1.63,7Z"/></svg>