<?xml version="1.0" encoding="utf-8"?>
<!-- Generator: Adobe Illustrator 21.1.0, SVG Export Plug-In . SVG Version: 6.00 Build 0)  -->
<svg version="1.1" id="Layer_1" xmlns="http://www.w3.org/2000/svg" xmlns:xlink="http://www.w3.org/1999/xlink" x="0px" y="0px"
	 viewBox="0 0 800 800" style="enable-background:new 0 0 800 800;" xml:space="preserve">
<style type="text/css">
	.st0{clip-path:url(#SVGID_2_);fill:#CB1D23;}
	.st1{clip-path:url(#SVGID_2_);fill:#F7DE29;}
</style>
<g id="CHINA_3_">
	<g>
		<g>
			<defs>
				<rect id="SVGID_1_" y="166.7" width="800" height="466.6"/>
			</defs>
			<clipPath id="SVGID_2_">
				<use xlink:href="#SVGID_1_"  style="overflow:visible;"/>
			</clipPath>
			<rect y="166.7" class="st0" width="800" height="466.6"/>
			<polygon class="st1" points="76.9,335.6 91.9,289.1 52.5,260.1 101.4,260 116.7,213.5 131.9,260 180.8,260.2 141.3,289.1 
				156.2,335.6 116.6,306.8 			"/>
			<polygon class="st1" points="213.3,360.8 229.9,367.5 241.4,353.8 240.1,371.6 256.7,378.3 239.4,382.6 238.1,400.2 228.6,385.2 
				211.4,389.4 222.7,375.8 			"/>
			<polygon class="st1" points="302.8,271.3 285.2,268.2 276.8,283.9 274.3,266.3 256.8,263.1 272.8,255.4 270.3,237.7 282.8,250.4 
				298.7,242.7 290.4,258.4 			"/>
			<polygon class="st1" points="265.6,351 271,334 256.6,323.5 274.4,323.5 279.9,306.6 285.5,323.5 303.3,323.5 288.9,334 
				294.3,351 279.9,340.6 			"/>
			<polygon class="st1" points="214.2,196.3 230.4,203.9 242.6,190.8 240.4,208.5 256.5,216.2 239.1,219.5 236.9,237.2 228.2,221.6 
				210.7,224.9 222.8,211.9 			"/>
		</g>
	</g>
</g>
</svg>
