<?xml version="1.0" encoding="utf-8"?>
<!-- Generator: Adobe Illustrator 21.1.0, SVG Export Plug-In . SVG Version: 6.00 Build 0)  -->
<svg version="1.1" id="Layer_1" xmlns="http://www.w3.org/2000/svg" xmlns:xlink="http://www.w3.org/1999/xlink" x="0px" y="0px"
	 viewBox="0 0 800 800" style="enable-background:new 0 0 800 800;" xml:space="preserve">
<style type="text/css">
	.st0{clip-path:url(#SVGID_2_);fill:#FFFFFF;}
	.st1{clip-path:url(#SVGID_2_);fill:#BD0034;}
	.st2{clip-path:url(#SVGID_2_);fill:#1A237B;}
</style>
<g id="UNITED_KINGDOM_2_">
	<g>
		<g>
			<defs>
				<rect id="SVGID_1_" y="166.7" width="800" height="466.6"/>
			</defs>
			<clipPath id="SVGID_2_">
				<use xlink:href="#SVGID_1_"  style="overflow:visible;"/>
			</clipPath>
			<rect y="166.7" class="st0" width="800" height="466.6"/>
			<polygon class="st1" points="535.7,335.4 800,187.4 800,166.7 781.8,166.7 480.4,335.4 			"/>
			<polygon class="st1" points="523.2,474 800,628.9 800,597.9 578.5,474 			"/>
			<polygon class="st1" points="0,202.2 236.8,335.4 292.1,335.4 0,171.2 			"/>
			<polygon class="st1" points="279.6,474 0,630.6 0,633.3 50.5,633.3 334.9,474 			"/>
			<polygon class="st2" points="745.3,166.7 465.2,166.7 465.2,323.5 			"/>
			<polygon class="st2" points="341.5,166.7 62.5,166.7 341.5,323.5 			"/>
			<polygon class="st2" points="800,335.4 800,228.3 610,335.4 			"/>
			<polygon class="st2" points="800,579.9 800,474 610,474 			"/>
			<polygon class="st2" points="78.3,633.3 341.5,633.3 341.5,485.9 			"/>
			<polygon class="st2" points="465.2,633.3 729.1,633.3 465.2,485.9 			"/>
			<polygon class="st2" points="0,474 0,584.6 196.6,474 			"/>
			<polygon class="st2" points="0,335.4 196.6,335.4 0,224.5 			"/>
			<polygon class="st1" points="366.2,166.7 366.2,363.1 0,363.1 0,446.3 366.2,446.3 366.2,633.3 440.4,633.3 440.4,446.3 
				800,446.3 800,363.1 440.4,363.1 440.4,166.7 			"/>
		</g>
	</g>
</g>
</svg>
