<?xml version="1.0" encoding="utf-8"?>
<!-- Generator: Adobe Illustrator 21.1.0, SVG Export Plug-In . SVG Version: 6.00 Build 0)  -->
<svg version="1.1" id="Layer_1" xmlns="http://www.w3.org/2000/svg" xmlns:xlink="http://www.w3.org/1999/xlink" x="0px" y="0px"
	 viewBox="0 0 800 800" style="enable-background:new 0 0 800 800;" xml:space="preserve">
<style type="text/css">
	.st0{clip-path:url(#SVGID_2_);fill:#FFFFFF;}
	.st1{clip-path:url(#SVGID_2_);fill:#CB001C;}
	.st2{clip-path:url(#SVGID_2_);fill:#2A3560;}
	.st3{clip-path:url(#SVGID_2_);}
	.st4{fill:#FFFFFF;}
</style>
<g id="USA_4_">
	<g>
		<g>
			<defs>
				<rect id="SVGID_1_" y="167.2" width="800" height="465.5"/>
			</defs>
			<clipPath id="SVGID_2_">
				<use xlink:href="#SVGID_1_"  style="overflow:visible;"/>
			</clipPath>
			<rect x="1" y="167" class="st0" width="800" height="466"/>
			<rect x="1" y="599" class="st1" width="800" height="36.2"/>
			<rect x="1" y="525" class="st1" width="800" height="36.2"/>
			<rect x="1" y="451" class="st1" width="800" height="36.2"/>
			<rect x="1" y="379" class="st1" width="800" height="36.2"/>
			<rect x="1" y="309.3" class="st1" width="800" height="36.2"/>
			<rect x="1" y="237" class="st1" width="800" height="36.2"/>
			<rect x="1" y="165" class="st1" width="800" height="36.2"/>
			<rect x="1" y="165" class="st2" width="368" height="250"/>
			<g class="st3">
				<polygon class="st4" points="60.2,202.3 63.3,212.4 74.1,212.4 65.5,218.7 68.7,228.8 60.2,222.6 51.6,228.8 54.8,218.7 
					46.2,212.4 56.9,212.4 				"/>
				<polygon class="st4" points="122.9,202.3 126.2,212.4 137,212.4 128.3,218.7 131.6,228.8 122.9,222.6 114.3,228.8 117.7,218.7 
					109,212.4 119.7,212.4 				"/>
				<polygon class="st4" points="185.8,202.3 189.1,212.4 199.8,212.4 191.2,218.7 194.4,228.8 185.8,222.6 177.2,228.8 
					180.4,218.7 171.8,212.4 182.5,212.4 				"/>
				<polygon class="st4" points="248.6,202.3 251.9,212.4 262.6,212.4 254,218.7 257.3,228.8 248.6,222.6 240,228.8 243.3,218.7 
					234.7,212.4 245.4,212.4 				"/>
				<polygon class="st4" points="311.5,202.3 314.7,212.4 325.4,212.4 316.9,218.7 320,228.8 311.5,222.6 302.8,228.8 306.1,218.7 
					297.6,212.4 308.1,212.4 				"/>
			</g>
			<g class="st3">
				<polygon class="st4" points="60.2,252.8 63.3,262.9 74.1,262.9 65.5,269.2 68.7,279.3 60.2,273.1 51.6,279.3 54.8,269.2 
					46.2,262.9 56.9,262.9 				"/>
				<polygon class="st4" points="122.9,252.8 126.2,262.9 137,262.9 128.3,269.2 131.6,279.3 122.9,273.1 114.3,279.3 117.7,269.2 
					109,262.9 119.7,262.9 				"/>
				<polygon class="st4" points="185.8,252.8 189.1,262.9 199.8,262.9 191.2,269.2 194.4,279.3 185.8,273.1 177.2,279.3 
					180.4,269.2 171.8,262.9 182.5,262.9 				"/>
				<polygon class="st4" points="248.6,252.8 251.9,262.9 262.6,262.9 254,269.2 257.3,279.3 248.6,273.1 240,279.3 243.3,269.2 
					234.7,262.9 245.4,262.9 				"/>
				<polygon class="st4" points="311.5,252.8 314.7,262.9 325.4,262.9 316.9,269.2 320,279.3 311.5,273.1 302.8,279.3 306.1,269.2 
					297.6,262.9 308.1,262.9 				"/>
			</g>
			<g class="st3">
				<polygon class="st4" points="60.2,303.3 63.3,313.4 74.1,313.4 65.5,319.7 68.7,329.8 60.2,323.6 51.6,329.8 54.8,319.7 
					46.2,313.4 56.9,313.4 				"/>
				<polygon class="st4" points="122.9,303.3 126.2,313.4 137,313.4 128.3,319.7 131.6,329.8 122.9,323.6 114.3,329.8 117.7,319.7 
					109,313.4 119.7,313.4 				"/>
				<polygon class="st4" points="185.8,303.3 189.1,313.4 199.8,313.4 191.2,319.7 194.4,329.8 185.8,323.6 177.2,329.8 
					180.4,319.7 171.8,313.4 182.5,313.4 				"/>
				<polygon class="st4" points="248.6,303.3 251.9,313.4 262.6,313.4 254,319.7 257.3,329.8 248.6,323.6 240,329.8 243.3,319.7 
					234.7,313.4 245.4,313.4 				"/>
				<polygon class="st4" points="311.5,303.3 314.7,313.4 325.4,313.4 316.9,319.7 320,329.8 311.5,323.6 302.8,329.8 306.1,319.7 
					297.6,313.4 308.1,313.4 				"/>
			</g>
			<g class="st3">
				<polygon class="st4" points="60.2,353.8 63.3,363.9 74.1,363.9 65.5,370.2 68.7,380.3 60.2,374 51.6,380.3 54.8,370.2 
					46.2,363.9 56.9,363.9 				"/>
				<polygon class="st4" points="122.9,353.8 126.2,363.9 137,363.9 128.3,370.2 131.6,380.3 122.9,374 114.3,380.3 117.7,370.2 
					109,363.9 119.7,363.9 				"/>
				<polygon class="st4" points="185.8,353.8 189.1,363.9 199.8,363.9 191.2,370.2 194.4,380.3 185.8,374 177.2,380.3 180.4,370.2 
					171.8,363.9 182.5,363.9 				"/>
				<polygon class="st4" points="248.6,353.8 251.9,363.9 262.6,363.9 254,370.2 257.3,380.3 248.6,374 240,380.3 243.3,370.2 
					234.7,363.9 245.4,363.9 				"/>
				<polygon class="st4" points="311.5,353.8 314.7,363.9 325.4,363.9 316.9,370.2 320,380.3 311.5,374 302.8,380.3 306.1,370.2 
					297.6,363.9 308.1,363.9 				"/>
			</g>
			<g class="st3">
				<polygon class="st4" points="28.9,177 32.3,187.2 43,187.2 34.3,193.5 37.6,203.6 28.9,197.4 20.3,203.6 23.7,193.5 15,187.2 
					25.6,187.2 				"/>
				<polygon class="st4" points="91.7,177 95,187.2 105.7,187.2 97.1,193.5 100.4,203.6 91.7,197.4 83.1,203.6 86.4,193.5 
					77.8,187.2 88.4,187.2 				"/>
				<polygon class="st4" points="154.6,177 157.9,187.2 168.5,187.2 159.9,193.5 163.3,203.6 154.6,197.4 145.9,203.6 149.2,193.5 
					140.6,187.2 151.3,187.2 				"/>
				<polygon class="st4" points="217.4,177 220.7,187.2 231.3,187.2 222.7,193.5 226.1,203.6 217.4,197.4 208.8,203.6 212,193.5 
					203.4,187.2 214.1,187.2 				"/>
				<polygon class="st4" points="280.2,177 283.6,187.2 294.2,187.2 285.6,193.5 288.9,203.6 280.2,197.4 271.7,203.6 274.9,193.5 
					266.3,187.2 276.9,187.2 				"/>
				<polygon class="st4" points="343,177 346.4,187.2 357,187.2 348.4,193.5 351.7,203.6 343,197.4 334.5,203.6 337.7,193.5 
					329.1,187.2 339.7,187.2 				"/>
			</g>
			<g class="st3">
				<polygon class="st4" points="28.9,227.5 32.3,237.7 43,237.7 34.3,243.9 37.6,254.1 28.9,247.8 20.3,254.1 23.7,243.9 15,237.7 
					25.6,237.7 				"/>
				<polygon class="st4" points="91.7,227.5 95,237.7 105.7,237.7 97.1,243.9 100.4,254.1 91.7,247.8 83.1,254.1 86.4,243.9 
					77.8,237.7 88.4,237.7 				"/>
				<polygon class="st4" points="154.6,227.5 157.9,237.7 168.5,237.7 159.9,243.9 163.3,254.1 154.6,247.8 145.9,254.1 
					149.2,243.9 140.6,237.7 151.3,237.7 				"/>
				<polygon class="st4" points="217.4,227.5 220.7,237.7 231.3,237.7 222.7,243.9 226.1,254.1 217.4,247.8 208.8,254.1 212,243.9 
					203.4,237.7 214.1,237.7 				"/>
				<polygon class="st4" points="280.2,227.5 283.6,237.7 294.2,237.7 285.6,243.9 288.9,254.1 280.2,247.8 271.7,254.1 
					274.9,243.9 266.3,237.7 276.9,237.7 				"/>
				<polygon class="st4" points="343,227.5 346.4,237.7 357,237.7 348.4,243.9 351.7,254.1 343,247.8 334.5,254.1 337.7,243.9 
					329.1,237.7 339.7,237.7 				"/>
			</g>
			<g class="st3">
				<polygon class="st4" points="28.9,278 32.3,288.1 43,288.1 34.3,294.4 37.6,304.6 28.9,298.3 20.3,304.6 23.7,294.4 15,288.1 
					25.6,288.1 				"/>
				<polygon class="st4" points="91.7,278 95,288.1 105.7,288.1 97.1,294.4 100.4,304.6 91.7,298.3 83.1,304.6 86.4,294.4 
					77.8,288.1 88.4,288.1 				"/>
				<polygon class="st4" points="154.6,278 157.9,288.1 168.5,288.1 159.9,294.4 163.3,304.6 154.6,298.3 145.9,304.6 149.2,294.4 
					140.6,288.1 151.3,288.1 				"/>
				<polygon class="st4" points="217.4,278 220.7,288.1 231.3,288.1 222.7,294.4 226.1,304.6 217.4,298.3 208.8,304.6 212,294.4 
					203.4,288.1 214.1,288.1 				"/>
				<polygon class="st4" points="280.2,278 283.6,288.1 294.2,288.1 285.6,294.4 288.9,304.6 280.2,298.3 271.7,304.6 274.9,294.4 
					266.3,288.1 276.9,288.1 				"/>
				<polygon class="st4" points="343,278 346.4,288.1 357,288.1 348.4,294.4 351.7,304.6 343,298.3 334.5,304.6 337.7,294.4 
					329.1,288.1 339.7,288.1 				"/>
			</g>
			<g class="st3">
				<polygon class="st4" points="28.9,328.5 32.3,338.7 43,338.7 34.3,344.9 37.6,355.1 28.9,348.8 20.3,355.1 23.7,344.9 15,338.7 
					25.6,338.7 				"/>
				<polygon class="st4" points="91.7,328.5 95,338.7 105.7,338.7 97.1,344.9 100.4,355.1 91.7,348.8 83.1,355.1 86.4,344.9 
					77.8,338.7 88.4,338.7 				"/>
				<polygon class="st4" points="154.6,328.5 157.9,338.7 168.5,338.7 159.9,344.9 163.3,355.1 154.6,348.8 145.9,355.1 
					149.2,344.9 140.6,338.7 151.3,338.7 				"/>
				<polygon class="st4" points="217.4,328.5 220.7,338.7 231.3,338.7 222.7,344.9 226.1,355.1 217.4,348.8 208.8,355.1 212,344.9 
					203.4,338.7 214.1,338.7 				"/>
				<polygon class="st4" points="280.2,328.5 283.6,338.7 294.2,338.7 285.6,344.9 288.9,355.1 280.2,348.8 271.7,355.1 
					274.9,344.9 266.3,338.7 276.9,338.7 				"/>
				<polygon class="st4" points="343,328.5 346.4,338.7 357,338.7 348.4,344.9 351.7,355.1 343,348.8 334.5,355.1 337.7,344.9 
					329.1,338.7 339.7,338.7 				"/>
			</g>
			<g class="st3">
				<polygon class="st4" points="28.9,379 32.3,389.2 43,389.2 34.3,395.4 37.6,405.6 28.9,399.3 20.3,405.6 23.7,395.4 15,389.2 
					25.6,389.2 				"/>
				<polygon class="st4" points="91.7,379 95,389.2 105.7,389.2 97.1,395.4 100.4,405.6 91.7,399.3 83.1,405.6 86.4,395.4 
					77.8,389.2 88.4,389.2 				"/>
				<polygon class="st4" points="154.6,379 157.9,389.2 168.5,389.2 159.9,395.4 163.3,405.6 154.6,399.3 145.9,405.6 149.2,395.4 
					140.6,389.2 151.3,389.2 				"/>
				<polygon class="st4" points="217.4,379 220.7,389.2 231.3,389.2 222.7,395.4 226.1,405.6 217.4,399.3 208.8,405.6 212,395.4 
					203.4,389.2 214.1,389.2 				"/>
				<polygon class="st4" points="280.2,379 283.6,389.2 294.2,389.2 285.6,395.4 288.9,405.6 280.2,399.3 271.7,405.6 274.9,395.4 
					266.3,389.2 276.9,389.2 				"/>
				<polygon class="st4" points="343,379 346.4,389.2 357,389.2 348.4,395.4 351.7,405.6 343,399.3 334.5,405.6 337.7,395.4 
					329.1,389.2 339.7,389.2 				"/>
			</g>
		</g>
	</g>
</g>
</svg>
