<?xml version="1.0" encoding="UTF-8"?>
<svg width="31px" height="31px" viewBox="0 0 31 31" version="1.1" xmlns="http://www.w3.org/2000/svg" xmlns:xlink="http://www.w3.org/1999/xlink">
    <!-- Generator: Sketch 46.2 (44496) - http://www.bohemiancoding.com/sketch -->
    <title>@1xCompass Group</title>
    <desc>Created with Sketch.</desc>
    <defs></defs>
    <g id="Symbols" stroke="none" stroke-width="1" fill="none" fill-rule="evenodd">
        <g id="Compass-Group">
            <g id="Maps_Compass_icon">
                <circle id="Oval-2" fill="#F1F2F3" cx="15.5" cy="15.5" r="15.5"></circle>
                <polygon id="Triangle-3" fill="#CB7626" points="15.5 4 18 12 13 12"></polygon>
                <g id="compass-b" transform="translate(3.000000, 3.000000)" fill-rule="nonzero">
                    <polygon id="Shape" fill="#E8E5FE" points="15.183 7.786 18.954 6.045 17.287 9.658 15.5 9 15.125 7.876"></polygon>
                    <polygon id="Shape" fill="#E8E5FE" points="6.045 6.045 9.816 7.786 9.874 7.876 9.5 9 7.713 9.658"></polygon>
                    <polygon id="Shape" fill="#E8E5FE" points="9.816 17.214 6.045 18.955 7.713 15.342 9.5 16 9.874 17.124"></polygon>
                    <polygon id="Shape" fill="#E8E5FE" points="15.125 17.124 15.5 16 17.287 15.342 18.954 18.955 15.183 17.214"></polygon>
                    <path d="M12.5,10 C11.1192881,10 10,11.1192881 10,12.5 C10,13.8807119 11.1192881,15 12.5,15 C13.8807119,15 15,13.8807119 15,12.5 C15,11.1192881 13.8807119,10 12.5,10 Z M12.5,14 C11.6715729,14 11,13.3284271 11,12.5 C11,11.6715729 11.6715729,11 12.5,11 C13.3284271,11 14,11.6715729 14,12.5 C13.9991181,13.3280616 13.3280616,13.9991181 12.5,14 L12.5,14 Z" id="Shape" fill="#8075F2"></path>
                    <path d="M18.2281,14.9949 L25,12.5 L18.2283,10.0051 L21,4 L14.7887,6.8667 L12.5,0 L10.211,6.8667 L4,4 L6.7717,10.0051 L0,12.5 L6.7717,14.9949 L4,21 L10.2112,18.1333 L12.5,25 L14.7888,18.1333 L21,21 L18.2281,14.9949 Z M15.1834,7.7859 L18.9544,6.0459 L17.2869,9.6589 L15.5,9 L15.1255,7.8762 L15.1834,7.7859 Z M6.0452,6.0459 L9.8162,7.7859 L9.8743,7.8759 L9.5,9 L7.7129,9.6584 L6.0452,6.0459 Z M9.8162,17.2146 L6.0452,18.9546 L7.7127,15.3416 L9.5,16 L9.8745,17.1235 L9.8162,17.2146 Z M10.4485,15.6846 C10.3524265,15.3964066 10.1305584,15.1675108 9.8455,15.0625 L2.8924,12.5 L9.8455,9.9382 C10.1305584,9.83318917 10.3524265,9.60429343 10.4485,9.3161 L12.5,3.1624 L14.5513,9.3162 C14.6473735,9.60439343 14.8692416,9.83328917 15.1543,9.9383 L22.1073,12.5 L15.1542,15.0618 C14.8691416,15.1668108 14.6472735,15.3957066 14.5512,15.6839 L12.5,21.8376 L10.4485,15.6846 Z M15.1253,17.1246 L15.5,16 L17.2871,15.3416 L18.9546,18.9546 L15.1836,17.2146 L15.1253,17.1246 Z" id="Shape" fill="#8075F2"></path>
                </g>
            </g>
        </g>
    </g>
</svg>