<?xml version="1.0" encoding="UTF-8"?>
<svg width="18px" height="18px" viewBox="0 0 18 18" version="1.1" xmlns="http://www.w3.org/2000/svg" xmlns:xlink="http://www.w3.org/1999/xlink">
    <!-- Generator: Sketch 46.2 (44496) - http://www.bohemiancoding.com/sketch -->
    <title>@1xcheck-1</title>
    <desc>Created with Sketch.</desc>
    <defs></defs>
    <g id="Symbols" stroke="none" stroke-width="1" fill="none" fill-rule="evenodd">
        <g id="check-1" fill-rule="nonzero" fill="#0FC185">
            <g id="Shape">
                <path d="M9,18 C4.03747826,18 0,13.9625217 0,9 C0,4.03747826 4.03747826,0 9,0 C13.9625217,0 18,4.03747826 18,9 C18,13.9625217 13.9625217,18 9,18 Z M9,0.782608696 C4.46869565,0.782608696 0.782608696,4.46869565 0.782608696,9 C0.782608696,13.5313043 4.46869565,17.2173913 9,17.2173913 C13.5313043,17.2173913 17.2173913,13.5313043 17.2173913,9 C17.2173913,4.46869565 13.5313043,0.782608696 9,0.782608696 Z"></path>
                <path d="M8.30454348,13.0428913 C8.20436957,13.0428913 8.10419565,13.0045435 8.0275,12.9286304 L4.11445652,9.01558696 C3.96184783,8.86297826 3.96184783,8.6148913 4.11445652,8.46228261 C4.26706522,8.30967391 4.51515217,8.30967391 4.66776087,8.46228261 L8.30454348,12.0982826 L14.2883696,6.11445652 C14.4409783,5.96184783 14.6890652,5.96184783 14.8416739,6.11445652 C14.9942826,6.26706522 14.9942826,6.51515217 14.8416739,6.66776087 L8.58080435,12.9286304 C8.5048913,13.0045435 8.40471739,13.0428913 8.30454348,13.0428913 Z"></path>
            </g>
        </g>
    </g>
</svg>