<?xml version="1.0" encoding="UTF-8"?>
<svg width="320px" height="25px" viewBox="0 0 320 25" version="1.1" xmlns="http://www.w3.org/2000/svg" xmlns:xlink="http://www.w3.org/1999/xlink">
    <!-- Generator: Sketch 46.2 (44496) - http://www.bohemiancoding.com/sketch -->
    <title>@1xDocumentScanNav</title>
    <desc>Created with Sketch.</desc>
    <defs></defs>
    <g id="Symbols" stroke="none" stroke-width="1" fill="none" fill-rule="evenodd">
        <g id="DocumentScanNav" fill-rule="nonzero" fill="#F1F2F3">
            <g id="insert-image">
                <path d="M11,9 C12.654,9 14,7.654 14,6 C14,4.346 12.654,3 11,3 C9.346,3 8,4.346 8,6 C8,7.654 9.346,9 11,9 Z M11,4 C12.103,4 13,4.897 13,6 C13,7.103 12.103,8 11,8 C9.897,8 9,7.103 9,6 C9,4.897 9.897,4 11,4 Z M29.5,0 L0.5,0 C0.224,0 0,0.224 0,0.5 L0,23.5 C0,23.515 0.007,23.528 0.009,23.543 C0.012,23.576 0.019,23.608 0.029,23.64 C0.039,23.672 0.049,23.702 0.065,23.731 C0.078,23.757 0.095,23.779 0.113,23.802 C0.136,23.832 0.161,23.858 0.191,23.882 C0.201,23.89 0.207,23.902 0.218,23.91 C0.23,23.919 0.245,23.92 0.258,23.927 C0.29,23.945 0.322,23.96 0.358,23.971 C0.388,23.98 0.417,23.986 0.448,23.989 C0.465,23.991 0.481,24 0.5,24 L29.5,24 C29.586,24 29.662,23.973 29.733,23.935 C29.742,23.93 29.752,23.932 29.761,23.927 C29.778,23.916 29.788,23.899 29.804,23.887 C29.831,23.866 29.855,23.845 29.877,23.819 C29.898,23.794 29.914,23.769 29.93,23.741 C29.946,23.713 29.959,23.686 29.969,23.655 C29.98,23.622 29.985,23.589 29.989,23.554 C29.991,23.536 30,23.519 30,23.5 L30,0.5 C30,0.224 29.776,0 29.5,0 Z M1.454,23 L9.57,11.277 L13.146,14.853 C13.257,14.964 13.412,15.016 13.569,14.995 C13.724,14.974 13.861,14.88 13.937,14.743 L18.52,6.493 L28.608,23 L1.454,23 Z M29,21.722 L18.927,5.239 C18.834,5.088 18.711,4.991 18.489,5 C18.311,5.004 18.149,5.101 18.062,5.257 L13.384,13.677 L9.853,10.146 C9.75,10.041 9.604,9.986 9.455,10.001 C9.308,10.014 9.173,10.092 9.089,10.214 L1,21.898 L1,1 L29,1 L29,21.722 Z" id="Shape"></path>
            </g>
            <g id="crop-image" transform="translate(125.000000, 0.000000)">
                <path d="M23.6,18.4 L19.2,18.4 L19.2,5.2 C19.2,4.9792 19.0208,4.8 18.8,4.8 L5.6,4.8 L5.6,0.4 C5.6,0.1792 5.4208,0 5.2,0 C4.9792,0 4.8,0.1792 4.8,0.4 L4.8,4.8 L0.4,4.8 C0.1792,4.8 0,4.9792 0,5.2 C0,5.4208 0.1792,5.6 0.4,5.6 L4.8,5.6 L4.8,18.8 C4.8,19.0208 4.9792,19.2 5.2,19.2 L18.4,19.2 L18.4,23.6 C18.4,23.8208 18.5792,24 18.8,24 C19.0208,24 19.2,23.8208 19.2,23.6 L19.2,19.2 L23.6,19.2 C23.8208,19.2 24,19.0208 24,18.8 C24,18.5792 23.8208,18.4 23.6,18.4 Z M18.4,18.4 L5.6,18.4 L5.6,5.6 L18.4,5.6 L18.4,18.4 Z" id="Shape"></path>
            </g>
            <g id="magic-wand" transform="translate(243.000000, 0.000000)">
                <path d="M20.98725,23.25525 C20.65425,23.25525 20.31825,23.09025 19.9875,22.7595 L9.4875,12.2595 C9.34125,12.11325 9.34125,11.8755 9.4875,11.72925 C9.63375,11.583 9.8715,11.583 10.01775,11.72925 L20.51775,22.22925 C20.69925,22.41075 20.856,22.50225 20.98275,22.50225 C20.98425,22.50225 20.98575,22.50225 20.988,22.50225 C21.11775,22.5 21.2805,22.4025 21.471,22.212 C21.7395,21.98625 21.74625,21.864 21.74775,21.8235 C21.7605,21.5685 21.39,21.16425 21.111,20.88225 L9.1125,8.8845 C8.96625,8.73825 8.96625,8.5005 9.1125,8.35425 C9.25875,8.208 9.4965,8.208 9.64275,8.35425 L21.64275,20.35425 C22.17375,20.8905 22.52175,21.351 22.497,21.861 C22.48125,22.19175 22.31025,22.488 21.97575,22.76625 C21.651,23.09175 21.32025,23.25525 20.98725,23.25525 Z" id="Shape"></path>
                <path d="M10.12725,12.74475 C10.044,12.74475 9.96075,12.717 9.8925,12.663 L6.3765,9.8505 L2.8605,12.663 C2.7375,12.762 2.56575,12.7725 2.4315,12.69075 C2.2965,12.609 2.2275,12.4515 2.259,12.297 L2.9625,8.77875 L0.15225,6.66975 C0.04875,6.59175 -0.00825,6.46575 0.00375,6.336 C0.01575,6.207 0.09375,6.09225 0.20925,6.0345 L2.95275,4.66275 L2.25975,1.19325 C2.22825,1.03875 2.298,0.88125 2.43225,0.7995 C2.5665,0.7185 2.73825,0.729 2.86125,0.82725 L6.37725,3.63975 L9.89325,0.82725 C10.017,0.72975 10.18875,0.7185 10.32225,0.7995 C10.45725,0.88125 10.52625,1.03875 10.49475,1.19325 L9.801,4.662 L12.5445,6.03375 C12.66075,6.09225 12.73875,6.20625 12.75,6.33525 C12.762,6.465 12.705,6.591 12.6015,6.669 L9.7905,8.77725 L10.494,12.2955 C10.5255,12.45 10.45575,12.6075 10.3215,12.68925 C10.26225,12.72675 10.19475,12.74475 10.12725,12.74475 Z M6.37725,8.99475 C6.45975,8.99475 6.543,9.0225 6.612,9.0765 L9.558,11.43375 L9.00975,8.69325 C8.98125,8.5515 9.03675,8.406 9.15225,8.31975 L11.667,6.4335 L9.20925,5.205 C9.05775,5.12925 8.976,4.962 9.009,4.79625 L9.55725,2.05575 L6.61125,4.413 C6.474,4.5225 6.27975,4.5225 6.1425,4.413 L3.1965,2.05575 L3.74475,4.79625 C3.7785,4.962 3.696,5.12925 3.54525,5.205 L1.0875,6.4335 L3.60225,8.31975 C3.71775,8.406 3.77325,8.5515 3.74475,8.69325 L3.1965,11.43375 L6.1425,9.0765 C6.2115,9.02175 6.29475,8.99475 6.37725,8.99475 Z" id="Shape"></path>
                <path d="M6.39225,1.49475 C6.18525,1.49475 6.0135,1.32675 6.0135,1.11975 C6.0135,0.91275 6.17775,0.74475 6.38475,0.74475 L6.39225,0.74475 C6.59925,0.74475 6.76725,0.91275 6.76725,1.11975 C6.76725,1.32675 6.59925,1.49475 6.39225,1.49475 Z" id="Shape"></path>
                <path d="M11.64225,4.49475 C11.43525,4.49475 11.2635,4.32675 11.2635,4.11975 C11.2635,3.91275 11.42775,3.74475 11.63475,3.74475 L11.64225,3.74475 C11.84925,3.74475 12.01725,3.91275 12.01725,4.11975 C12.01725,4.32675 11.84925,4.49475 11.64225,4.49475 Z" id="Shape"></path>
                <path d="M0.39225,4.49475 C0.18525,4.49475 0.0135,4.32675 0.0135,4.11975 C0.0135,3.91275 0.17775,3.74475 0.38475,3.74475 L0.39225,3.74475 C0.59925,3.74475 0.76725,3.91275 0.76725,4.11975 C0.76725,4.32675 0.59925,4.49475 0.39225,4.49475 Z" id="Shape"></path>
                <path d="M6.39225,12.74475 C6.18525,12.74475 6.0135,12.57675 6.0135,12.36975 C6.0135,12.16275 6.17775,11.99475 6.38475,11.99475 L6.39225,11.99475 C6.59925,11.99475 6.76725,12.16275 6.76725,12.36975 C6.76725,12.57675 6.59925,12.74475 6.39225,12.74475 Z" id="Shape"></path>
                <path d="M0.39225,9.74475 C0.18525,9.74475 0.0135,9.57675 0.0135,9.36975 C0.0135,9.16275 0.17775,8.99475 0.38475,8.99475 L0.39225,8.99475 C0.59925,8.99475 0.76725,9.16275 0.76725,9.36975 C0.76725,9.57675 0.59925,9.74475 0.39225,9.74475 Z" id="Shape"></path>
                <path d="M15.37725,17.99475 C15.28125,17.99475 15.18525,17.958 15.11175,17.88525 C14.9655,17.739 14.9655,17.50125 15.11175,17.355 L16.61175,15.855 C16.758,15.70875 16.99575,15.70875 17.142,15.855 C17.28825,16.00125 17.28825,16.239 17.142,16.38525 L15.642,17.88525 C15.56925,17.958 15.47325,17.99475 15.37725,17.99475 Z" id="Shape"></path>
            </g>
            <g id="trashcan" transform="translate(301.000000, 0.000000)">
                <path d="M14.48,24 L4.72,24 C2.8,24 1.2,22.48 1.2,20.56 L1.2,5.2 C1.2,4.96 1.36,4.8 1.6,4.8 L17.6,4.8 C17.84,4.8 18,4.96 18,5.2 L18,20.56 C18,22.48 16.4,24 14.48,24 Z M2,5.6 L2,20.56 C2,22 3.2,23.2 4.72,23.2 L14.48,23.2 C16,23.2 17.2,22 17.2,20.56 L17.2,5.6 L2,5.6 Z" id="Shape"></path>
                <path d="M8,20.8 C7.76,20.8 7.6,20.64 7.6,20.4 L7.6,8.4 C7.6,8.16 7.76,8 8,8 C8.24,8 8.4,8.16 8.4,8.4 L8.4,20.4 C8.4,20.64 8.24,20.8 8,20.8 Z" id="Shape"></path>
                <path d="M11.2,20.8 C10.96,20.8 10.8,20.64 10.8,20.4 L10.8,8.4 C10.8,8.16 10.96,8 11.2,8 C11.44,8 11.6,8.16 11.6,8.4 L11.6,20.4 C11.6,20.64 11.44,20.8 11.2,20.8 Z" id="Shape"></path>
                <path d="M18.4,5.6 L0.8,5.6 C0.56,5.6 0.4,5.44 0.4,5.2 L0.4,4.4 C0.4,2.88 1.68,1.6 3.2,1.6 L5.44,1.6 L6.24,0.8 C6.8,0.24 7.52,0 8.24,0 L11.04,0 C11.76,0 12.48,0.32 13.04,0.8 L13.84,1.6 L16,1.6 C17.52,1.6 18.8,2.88 18.8,4.4 L18.8,5.2 C18.8,5.44 18.64,5.6 18.4,5.6 Z M1.2,4.8 L18,4.8 L18,4.4 C18,3.28 17.12,2.4 16,2.4 L13.6,2.4 C13.52,2.4 13.36,2.32 13.28,2.32 L12.4,1.44 C12.08,1.04 11.52,0.8 11.04,0.8 L8.24,0.8 C7.68,0.8 7.2,1.04 6.8,1.36 L5.92,2.24 C5.84,2.32 5.68,2.4 5.6,2.4 L3.2,2.4 C2.08,2.4 1.2,3.28 1.2,4.4 L1.2,4.8 Z" id="Shape"></path>
                <path d="M4.8,20.8 C4.56,20.8 4.4,20.64 4.4,20.4 L4.4,8.4 C4.4,8.16 4.56,8 4.8,8 C5.04,8 5.2,8.16 5.2,8.4 L5.2,20.4 C5.2,20.64 5.04,20.8 4.8,20.8 Z" id="Shape"></path>
                <path d="M14.4,20.8 C14.16,20.8 14,20.64 14,20.4 L14,8.4 C14,8.16 14.16,8 14.4,8 C14.64,8 14.8,8.16 14.8,8.4 L14.8,20.4 C14.8,20.64 14.64,20.8 14.4,20.8 Z" id="Shape"></path>
            </g>
            <g id="rotate-image" transform="translate(184.000000, 0.000000)">
                <path d="M8.64,7.68 C8.10980664,7.68 7.68,8.10980664 7.68,8.64 L7.68,15.36 C7.68,15.8901934 8.10980664,16.32 8.64,16.32 L15.36,16.32 C15.8901934,16.32 16.32,15.8901934 16.32,15.36 L16.32,8.64 C16.32,8.10980664 15.8901934,7.68 15.36,7.68 L8.64,7.68 Z M15.36,15.36 L8.64,15.36 L8.64,8.64 L15.36,8.64 L15.36,15.36 Z M5.76,16.8 L5.76,21.6 C5.76,21.8650967 5.54509668,22.08 5.28,22.08 L0.48,22.08 C0.21490332,22.08 3.24649801e-17,21.8650967 0,21.6 C-3.24649801e-17,21.3349033 0.21490332,21.12 0.48,21.12 L4.267104,21.12 C1.56311225,18.8628671 8.86358191e-05,15.5222465 1.31896627e-15,12 C0.00745962364,5.37567534 5.37567534,0.00745962364 12,-2.03724129e-16 C13.7267521,-0.00180004501 15.4331784,0.372506477 17.00064,1.096896 C17.2354891,1.2110752 17.3359755,1.49205054 17.2267969,1.72926573 C17.1176184,1.96648093 16.8388348,2.07289689 16.59936,1.968768 C15.1577153,1.30241639 13.5881942,0.958176612 12,0.96 C5.90564935,0.966930425 0.966930425,5.90564935 0.96,12 C0.960720772,15.1998343 2.36425591,18.2384878 4.8,20.3136 L4.8,16.8 C4.8,16.5349033 5.01490332,16.32 5.28,16.32 C5.54509668,16.32 5.76,16.5349033 5.76,16.8 Z M24,12 C23.9925404,18.6243247 18.6243247,23.9925404 12,24 C10.2732479,24.0018 8.56682161,23.6274935 6.99936,22.903104 C6.76451087,22.7889248 6.66402453,22.5079495 6.77320307,22.2707343 C6.88238162,22.0335191 7.1611652,21.9271031 7.40064,22.031232 C8.84228475,22.6975836 10.4118058,23.0418234 12,23.04 C18.0943507,23.0330696 23.0330696,18.0943507 23.04,12 C23.0392792,8.80016574 21.6357441,5.76151217 19.2,3.6864 L19.2,7.2 C19.2,7.46509668 18.9850967,7.68 18.72,7.68 C18.4549033,7.68 18.24,7.46509668 18.24,7.2 L18.24,2.4 C18.24,2.13490332 18.4549033,1.92 18.72,1.92 L23.52,1.92 C23.7850967,1.92 24,2.13490332 24,2.4 C24,2.66509668 23.7850967,2.88 23.52,2.88 L19.732896,2.88 C22.4368878,5.13713293 23.9999114,8.47775349 24,12 L24,12 Z" id="Shape"></path>
            </g>
            <g id="change-order" transform="translate(65.000000, 1.000000)">
                <path d="M25.0434783,22.4347826 C25.0434783,22.7229312 24.8098877,22.9565217 24.5217391,22.9565217 L12,22.9565217 C11.7118514,22.9565217 11.4782609,22.7229312 11.4782609,22.4347826 C11.4782609,22.146634 11.7118514,21.9130435 12,21.9130435 L24.5217391,21.9130435 C24.8098877,21.9130435 25.0434783,22.146634 25.0434783,22.4347826 Z M24.5217391,16.6956522 L13.0434783,16.6956522 C12.7553297,16.6956522 12.5217391,16.9292427 12.5217391,17.2173913 C12.5217391,17.5055399 12.7553297,17.7391304 13.0434783,17.7391304 L24.5217391,17.7391304 C24.8098877,17.7391304 25.0434783,17.5055399 25.0434783,17.2173913 C25.0434783,16.9292427 24.8098877,16.6956522 24.5217391,16.6956522 Z M24.5217391,11.4782609 L13.0434783,11.4782609 C12.7553297,11.4782609 12.5217391,11.7118514 12.5217391,12 C12.5217391,12.2881486 12.7553297,12.5217391 13.0434783,12.5217391 L24.5217391,12.5217391 C24.8098877,12.5217391 25.0434783,12.2881486 25.0434783,12 C25.0434783,11.7118514 24.8098877,11.4782609 24.5217391,11.4782609 Z M24.5217391,6.26086957 L13.0434783,6.26086957 C12.7553297,6.26086957 12.5217391,6.49446013 12.5217391,6.7826087 C12.5217391,7.07075726 12.7553297,7.30434783 13.0434783,7.30434783 L24.5217391,7.30434783 C24.8098877,7.30434783 25.0434783,7.07075726 25.0434783,6.7826087 C25.0434783,6.49446013 24.8098877,6.26086957 24.5217391,6.26086957 Z M12,2.08695652 L24.5217391,2.08695652 C24.8098877,2.08695652 25.0434783,1.85336596 25.0434783,1.56521739 C25.0434783,1.27706883 24.8098877,1.04347826 24.5217391,1.04347826 L12,1.04347826 C11.7118514,1.04347826 11.4782609,1.27706883 11.4782609,1.56521739 C11.4782609,1.85336596 11.7118514,2.08695652 12,2.08695652 Z M8.50069565,5.06452174 C8.70541507,5.26224637 9.03082684,5.25941863 9.23207926,5.05816621 C9.43333167,4.8569138 9.43615941,4.53150203 9.23843478,4.32678261 L5.06452174,0.152869565 C4.86078269,-0.0508079678 4.53052166,-0.0508079678 4.32678261,0.152869565 L0.152869565,4.32678261 C-0.0448550658,4.53150203 -0.0420273255,4.8569138 0.159225091,5.05816621 C0.360477508,5.25941863 0.685889276,5.26224637 0.890608696,5.06452174 L4.17391304,1.78121739 L4.17391304,22.2187826 L0.890608696,18.9354783 C0.685889276,18.7377536 0.360477508,18.7405814 0.159225091,18.9418338 C-0.0420273255,19.1430862 -0.0448550658,19.468498 0.152869565,19.6732174 L4.32678261,23.8471304 C4.53052166,24.050808 4.86078269,24.050808 5.06452174,23.8471304 L9.23843478,19.6732174 C9.43615941,19.468498 9.43333167,19.1430862 9.23207926,18.9418338 C9.03082684,18.7405814 8.70541507,18.7377536 8.50069565,18.9354783 L5.2173913,22.2187826 L5.2173913,1.78121739 L8.50069565,5.06452174 Z" id="Shape"></path>
            </g>
        </g>
    </g>
</svg>