<?xml version="1.0" encoding="UTF-8"?>
<svg width="20px" height="20px" viewBox="0 0 20 20" version="1.1" xmlns="http://www.w3.org/2000/svg" xmlns:xlink="http://www.w3.org/1999/xlink">
    <!-- Generator: Sketch 46.2 (44496) - http://www.bohemiancoding.com/sketch -->
    <title>@1xdriver_scorecard_idle_icon</title>
    <desc>Created with Sketch.</desc>
    <defs></defs>
    <g id="Symbols" stroke="none" stroke-width="1" fill="none" fill-rule="evenodd" opacity="0.8">
        <g id="driver_scorecard_idle_icon">
            <g id="Group-21">
                <g>
                    <rect id="Rectangle-2" x="0" y="0" width="20" height="20"></rect>
                    <path d="M14.4166667,17.5 L5.25,17.5 C4.56083333,17.5 4,18.0608333 4,18.75 C4,19.4391667 4.56083333,20 5.25,20 L14.4166667,20 C15.1058333,20 15.6666667,19.4391667 15.6666667,18.75 C15.6666667,18.0608333 15.1058333,17.5 14.4166667,17.5 Z" id="Shape" fill="#F1F2F3" fill-rule="nonzero"></path>
                    <path d="M5.25,18.3333333 C5.02,18.3333333 4.83333333,18.1466667 4.83333333,17.9166667 L4.83333333,14.4291667 C4.83333333,13.3483333 5.3,12.3191667 6.11416667,11.6066667 L7.5925,10.3133333 C7.68416667,10.2333333 7.73416667,10.1225 7.73416667,10 C7.73416667,9.8775 7.68333333,9.76666667 7.59166667,9.68666667 L6.11416667,8.39333333 C5.3,7.68083333 4.83333333,6.65166667 4.83333333,5.57083333 L4.83333333,2.08333333 C4.83333333,1.85333333 5.02,1.66666667 5.25,1.66666667 C5.48,1.66666667 5.66666667,1.85333333 5.66666667,2.08333333 L5.66666667,5.57083333 C5.66666667,6.41166667 6.03,7.21166667 6.6625,7.76583333 L8.14083333,9.05916667 C8.4125,9.29666667 8.5675,9.63916667 8.5675,10 C8.5675,10.3608333 8.41166667,10.7033333 8.14083333,10.94 L6.6625,12.2341667 C6.03,12.7883333 5.66666667,13.5883333 5.66666667,14.4291667 L5.66666667,17.9166667 C5.66666667,18.1466667 5.48,18.3333333 5.25,18.3333333 Z" id="Shape" fill="#F1F2F3" fill-rule="nonzero"></path>
                    <path d="M14.4166667,18.3333333 C14.1866667,18.3333333 14,18.1466667 14,17.9166667 L14,14.4291667 C14,13.5883333 13.6366667,12.7883333 13.0041667,12.2341667 L11.5258333,10.9408333 C11.2541667,10.7033333 11.0991667,10.3608333 11.0991667,10 C11.0991667,9.63916667 11.255,9.29666667 11.5258333,9.06 L13.0041667,7.76583333 C13.6366667,7.21166667 14,6.41166667 14,5.57083333 L14,2.08333333 C14,1.85333333 14.1866667,1.66666667 14.4166667,1.66666667 C14.6466667,1.66666667 14.8333333,1.85333333 14.8333333,2.08333333 L14.8333333,5.57083333 C14.8333333,6.65166667 14.3666667,7.68083333 13.5525,8.39333333 L12.0741667,9.68666667 C11.9825,9.76666667 11.9325,9.8775 11.9325,10 C11.9325,10.1225 11.9833333,10.2333333 12.075,10.3133333 L13.5525,11.6066667 C14.3666667,12.3191667 14.8333333,13.3483333 14.8333333,14.4291667 L14.8333333,17.9166667 C14.8333333,18.1466667 14.6466667,18.3333333 14.4166667,18.3333333 Z" id="Shape" fill="#F1F2F3" fill-rule="nonzero"></path>
                    <g id="Group" transform="translate(4.000000, 0.000000)" fill-rule="nonzero" fill="#F1F2F3">
                        <path d="M10.4166667,0 L1.25,0 C0.560833333,0 0,0.560833333 0,1.25 C0,1.93916667 0.560833333,2.5 1.25,2.5 L10.4166667,2.5 C11.1058333,2.5 11.6666667,1.93916667 11.6666667,1.25 C11.6666667,0.560833333 11.1058333,0 10.4166667,0 Z" id="Shape"></path>
                        <path d="M5.83333333,9.58333333 C5.94,9.58333333 6.04666667,9.5425 6.12833333,9.46166667 L8.21166667,7.37833333 C8.33083333,7.25916667 8.36666667,7.08 8.30166667,6.92416667 C8.2375,6.76833333 8.085,6.66666667 7.91666667,6.66666667 L3.75,6.66666667 C3.58166667,6.66666667 3.42916667,6.76833333 3.365,6.92416667 C3.3,7.08 3.33583333,7.25833333 3.455,7.37833333 L5.53833333,9.46166667 C5.62,9.5425 5.72666667,9.58333333 5.83333333,9.58333333 Z" id="Shape"></path>
                        <path d="M6.11333333,13.025 C5.94833333,12.8758333 5.695,12.8808333 5.53833333,13.0391667 L1.37166667,17.2058333 C1.20916667,17.3683333 1.20916667,17.6325 1.37166667,17.795 C1.53416667,17.9575 1.79833333,17.9575 1.96083333,17.795 L2.25583333,17.5 L9.79666667,17.5 L10.1358333,17.8083333 C10.2158333,17.8808333 10.3158333,17.9166667 10.4158333,17.9166667 C10.5291667,17.9166667 10.6416667,17.8708333 10.7241667,17.78 C10.8791667,17.6091667 10.8658333,17.3458333 10.6958333,17.1908333 L6.11333333,13.025 Z" id="Shape"></path>
                    </g>
                </g>
            </g>
        </g>
    </g>
</svg>