<?xml version="1.0" encoding="UTF-8"?>
<svg width="18px" height="18px" viewBox="0 0 18 18" version="1.1" xmlns="http://www.w3.org/2000/svg" xmlns:xlink="http://www.w3.org/1999/xlink">
    <!-- Generator: Sketch 46.2 (44496) - http://www.bohemiancoding.com/sketch -->
    <title>@1xerror</title>
    <desc>Created with Sketch.</desc>
    <defs></defs>
    <g id="Symbols" stroke="none" stroke-width="1" fill="none" fill-rule="evenodd">
        <g id="error" fill-rule="nonzero" fill="#D0021B">
            <g id="Shape">
                <path d="M9,18 C4.03747826,18 0,13.9625217 0,9 C0,4.03747826 4.03747826,0 9,0 C13.9625217,0 18,4.03747826 18,9 C18,13.9625217 13.9625217,18 9,18 Z M9,0.782608696 C4.46869565,0.782608696 0.782608696,4.46869565 0.782608696,9 C0.782608696,13.5313043 4.46869565,17.2173913 9,17.2173913 C13.5313043,17.2173913 17.2173913,13.5313043 17.2173913,9 C17.2173913,4.46869565 13.5313043,0.782608696 9,0.782608696 Z"></path>
                <path d="M12.5217391,12.9130435 C12.4215652,12.9130435 12.3213913,12.8746957 12.2446957,12.7987826 L5.20121739,5.75530435 C5.0486087,5.60269565 5.0486087,5.3546087 5.20121739,5.202 C5.35382609,5.0493913 5.60191304,5.0493913 5.75452174,5.202 L12.798,12.2454783 C12.9506087,12.398087 12.9506087,12.6461739 12.798,12.7987826 C12.722087,12.8746957 12.621913,12.9130435 12.5217391,12.9130435 Z"></path>
                <path d="M5.47826087,12.9130435 C5.37808696,12.9130435 5.27791304,12.8746957 5.20121739,12.7987826 C5.0486087,12.6461739 5.0486087,12.398087 5.20121739,12.2454783 L12.2446957,5.202 C12.3973043,5.0493913 12.6453913,5.0493913 12.798,5.202 C12.9506087,5.3546087 12.9506087,5.60269565 12.798,5.75530435 L5.75452174,12.7987826 C5.6786087,12.8746957 5.57843478,12.9130435 5.47826087,12.9130435 Z"></path>
            </g>
        </g>
    </g>
</svg>