<?xml version="1.0" encoding="UTF-8"?>
<svg width="26px" height="24px" viewBox="0 0 26 24" version="1.1" xmlns="http://www.w3.org/2000/svg" xmlns:xlink="http://www.w3.org/1999/xlink">
    <!-- Generator: Sketch 46.2 (44496) - http://www.bohemiancoding.com/sketch -->
    <title>@1xHours_of_Service_DriveTime_icon</title>
    <desc>Created with Sketch.</desc>
    <defs></defs>
    <g id="Symbols" stroke="none" stroke-width="1" fill="none" fill-rule="evenodd">
        <g id="Hours_of_Service_DriveTime_icon" fill-rule="nonzero" fill="#56B2BA">
            <g id="DriveTime">
                <g id="truck.2">
                    <path d="M11.1238095,19.2 L1.21904762,19.2 C1.1047619,19.2 1.02857143,19.0628571 1.02857143,18.8571429 L1.02857143,16.8 C1.02857143,16.5942857 1.1047619,16.4571429 1.21904762,16.4571429 L11.1238095,16.4571429 C11.2380952,16.4571429 11.3142857,16.5942857 11.3142857,16.8 L11.3142857,18.8571429 C11.3142857,19.0628571 11.2380952,19.2 11.1238095,19.2 Z M1.40952381,18.5142857 L10.9333333,18.5142857 L10.9333333,17.1428571 L1.40952381,17.1428571 L1.40952381,18.5142857 Z" id="Shape"></path>
                    <path d="M4.11428571,14.4 C3.90857143,14.4 3.77142857,14.2628571 3.77142857,14.0571429 L3.77142857,6.17142857 C3.77142857,5.00571429 4.73142857,4.11428571 5.82857143,4.11428571 L14.6742857,4.11428571 C15.84,4.11428571 16.7314286,5.07428571 16.7314286,6.17142857 L16.7314286,10.9714286 C16.7314286,11.1771429 16.5942857,11.3142857 16.3885714,11.3142857 C16.1828571,11.3142857 16.0457143,11.1771429 16.0457143,10.9714286 L16.0457143,6.17142857 C16.0457143,5.41714286 15.4285714,4.8 14.6742857,4.8 L5.82857143,4.8 C5.07428571,4.8 4.45714286,5.41714286 4.45714286,6.17142857 L4.45714286,14.0571429 C4.45714286,14.2628571 4.32,14.4 4.11428571,14.4 Z" id="Shape"></path>
                    <path d="M10.2857143,10.2171429 C10.08,10.2171429 9.94285714,10.08 9.94285714,9.87428571 L9.94285714,6.85714286 C9.94285714,6.65142857 10.08,6.51428571 10.2857143,6.51428571 C10.4914286,6.51428571 10.6285714,6.65142857 10.6285714,6.85714286 L10.6285714,9.87428571 C10.6285714,10.0114286 10.4914286,10.2171429 10.2857143,10.2171429 Z" id="Shape"></path>
                    <polygon id="Shape" points="5.82857143 15.0857143 12.6857143 15.0857143 14.7428571 12.3428571 5.82857143 12.3428571"></polygon>
                    <path d="M18.5142857,9.6 C18.3085714,9.6 18.1714286,9.46285714 18.1714286,9.25714286 L18.1714286,1.23428571 C18.1714286,0.96 17.9657143,0.685714286 17.6228571,0.685714286 L2.94857143,0.685714286 C2.60571429,0.685714286 2.4,0.891428571 2.4,1.23428571 L2.4,16.8 C2.4,17.0057143 2.26285714,17.1428571 2.05714286,17.1428571 C1.85142857,17.1428571 1.71428571,17.0057143 1.71428571,16.8 L1.71428571,1.23428571 C1.71428571,0.548571429 2.26285714,0 2.94857143,0 L17.6914286,0 C18.3771429,0 18.9257143,0.548571429 18.9257143,1.23428571 L18.9257143,9.25714286 C18.8571429,9.46285714 18.72,9.6 18.5142857,9.6 Z" id="Shape"></path>
                    <path d="M1.37142857,7.54285714 C1.16571429,7.54285714 1.02857143,7.40571429 1.02857143,7.2 L1.02857143,6.72 C1.02857143,6.03428571 1.57714286,5.48571429 2.26285714,5.48571429 L4.11428571,5.48571429 C4.32,5.48571429 4.45714286,5.62285714 4.45714286,5.82857143 C4.45714286,6.03428571 4.32,6.17142857 4.11428571,6.17142857 L2.26285714,6.17142857 C1.92,6.17142857 1.71428571,6.37714286 1.71428571,6.72 L1.71428571,7.2 C1.71428571,7.40571429 1.57714286,7.54285714 1.37142857,7.54285714 Z" id="Shape"></path>
                    <path d="M2.05714286,10.9714286 L0.685714286,10.9714286 C0.48,10.9714286 0.342857143,10.8342857 0.342857143,10.6285714 L0.342857143,7.2 C0.342857143,6.99428571 0.48,6.85714286 0.685714286,6.85714286 L2.05714286,6.85714286 C2.26285714,6.85714286 2.4,6.99428571 2.4,7.2 L2.4,10.6285714 C2.4,10.8342857 2.26285714,10.9714286 2.05714286,10.9714286 Z M1.02857143,10.2857143 L1.71428571,10.2857143 L1.71428571,7.54285714 L1.02857143,7.54285714 L1.02857143,10.2857143 Z" id="Shape"></path>
                    <path d="M19.2,7.54285714 C18.9942857,7.54285714 18.8571429,7.40571429 18.8571429,7.2 L18.8571429,6.72 C18.8571429,6.44571429 18.6514286,6.17142857 18.3085714,6.17142857 L16.4571429,6.17142857 C16.2514286,6.17142857 16.1142857,6.03428571 16.1142857,5.82857143 C16.1142857,5.62285714 16.2514286,5.48571429 16.4571429,5.48571429 L18.3085714,5.48571429 C18.9942857,5.48571429 19.5428571,6.03428571 19.5428571,6.72 L19.5428571,7.2 C19.5428571,7.40571429 19.4057143,7.54285714 19.2,7.54285714 Z" id="Shape"></path>
                    <path d="M19.8857143,10.9714286 L18.5142857,10.9714286 C18.3085714,10.9714286 18.1714286,10.8342857 18.1714286,10.6285714 L18.1714286,7.2 C18.1714286,6.99428571 18.3085714,6.85714286 18.5142857,6.85714286 L19.8857143,6.85714286 C20.0914286,6.85714286 20.2285714,6.99428571 20.2285714,7.2 L20.2285714,10.6285714 C20.2285714,10.8342857 20.0914286,10.9714286 19.8857143,10.9714286 Z M18.8571429,10.2857143 L19.5428571,10.2857143 L19.5428571,7.54285714 L18.8571429,7.54285714 L18.8571429,10.2857143 Z" id="Shape"></path>
                    <path d="M5.48571429,20.5714286 L2.05714286,20.5714286 C1.85142857,20.5714286 1.71428571,20.4342857 1.71428571,20.2285714 L1.71428571,18.8571429 C1.71428571,18.6514286 1.85142857,18.5142857 2.05714286,18.5142857 C2.26285714,18.5142857 2.4,18.6514286 2.4,18.8571429 L2.4,19.8857143 L5.14285714,19.8857143 L5.14285714,18.8571429 C5.14285714,18.6514286 5.28,18.5142857 5.48571429,18.5142857 C5.69142857,18.5142857 5.82857143,18.6514286 5.82857143,18.8571429 L5.82857143,20.2285714 C5.82857143,20.4342857 5.69142857,20.5714286 5.48571429,20.5714286 Z" id="Shape"></path>
                    <path d="M4.11428571,17.1428571 C3.15428571,17.1428571 2.4,16.3885714 2.4,15.4285714 C2.4,14.4685714 3.15428571,13.7142857 4.11428571,13.7142857 C5.07428571,13.7142857 5.82857143,14.4685714 5.82857143,15.4285714 C5.82857143,16.3885714 5.07428571,17.1428571 4.11428571,17.1428571 Z M4.11428571,14.4 C3.56571429,14.4 3.08571429,14.88 3.08571429,15.4285714 C3.08571429,15.9771429 3.56571429,16.4571429 4.11428571,16.4571429 C4.66285714,16.4571429 5.14285714,15.9771429 5.14285714,15.4285714 C5.14285714,14.88 4.66285714,14.4 4.11428571,14.4 Z" id="Shape"></path>
                    <path d="M15.0857143,10.2857143 L5.48571429,10.2857143 C5.28,10.2857143 5.14285714,10.1485714 5.14285714,9.94285714 L5.14285714,7.88571429 C5.14285714,6.92571429 5.89714286,6.17142857 6.85714286,6.17142857 L13.7142857,6.17142857 C14.6742857,6.17142857 15.4285714,6.92571429 15.4285714,7.88571429 L15.4285714,9.94285714 C15.4285714,10.1485714 15.2914286,10.2857143 15.0857143,10.2857143 Z M5.82857143,9.6 L14.7428571,9.6 L14.7428571,7.88571429 C14.7428571,7.33714286 14.2628571,6.85714286 13.7142857,6.85714286 L6.85714286,6.85714286 C6.30857143,6.85714286 5.82857143,7.33714286 5.82857143,7.88571429 L5.82857143,9.6 Z" id="Shape"></path>
                    <path d="M6.85714286,4.8 C6.30857143,4.8 5.82857143,4.32 5.82857143,3.77142857 C5.82857143,3.22285714 6.30857143,2.74285714 6.85714286,2.74285714 C7.40571429,2.74285714 7.88571429,3.22285714 7.88571429,3.77142857 C7.88571429,4.32 7.40571429,4.8 6.85714286,4.8 Z M6.85714286,3.42857143 C6.65142857,3.42857143 6.51428571,3.56571429 6.51428571,3.77142857 C6.51428571,3.97714286 6.65142857,4.11428571 6.85714286,4.11428571 C7.06285714,4.11428571 7.2,3.97714286 7.2,3.77142857 C7.2,3.56571429 7.06285714,3.42857143 6.85714286,3.42857143 Z" id="Shape"></path>
                    <path d="M13.7142857,4.8 C13.1657143,4.8 12.6857143,4.32 12.6857143,3.77142857 C12.6857143,3.22285714 13.1657143,2.74285714 13.7142857,2.74285714 C14.2628571,2.74285714 14.7428571,3.22285714 14.7428571,3.77142857 C14.7428571,4.32 14.2628571,4.8 13.7142857,4.8 Z M13.7142857,3.42857143 C13.5085714,3.42857143 13.3714286,3.56571429 13.3714286,3.77142857 C13.3714286,3.97714286 13.5085714,4.11428571 13.7142857,4.11428571 C13.92,4.11428571 14.0571429,3.97714286 14.0571429,3.77142857 C14.0571429,3.56571429 13.92,3.42857143 13.7142857,3.42857143 Z" id="Shape"></path>
                </g>
                <g id="time" transform="translate(13.028571, 11.657143)">
                    <path d="M6.17142857,12.3428571 C2.76855652,12.3428571 0,9.57430062 0,6.17142857 C0,2.76855652 2.76855652,0 6.17142857,0 C9.57430062,0 12.3428571,2.76855652 12.3428571,6.17142857 C12.3428571,9.57430062 9.57430062,12.3428571 6.17142857,12.3428571 Z M6.17142857,0.536645963 C3.06424845,0.536645963 0.536645963,3.06424845 0.536645963,6.17142857 C0.536645963,9.2786087 3.06424845,11.8062112 6.17142857,11.8062112 C9.2786087,11.8062112 11.8062112,9.2786087 11.8062112,6.17142857 C11.8062112,3.06424845 9.2786087,0.536645963 6.17142857,0.536645963 Z" id="Shape"></path>
                    <path d="M8.5863354,8.85465839 C8.51764472,8.85465839 8.44895404,8.82836273 8.39636273,8.77630807 L5.9814559,6.36140124 C5.93154783,6.31095652 5.90310559,6.24280248 5.90310559,6.17142857 L5.90310559,1.87826087 C5.90310559,1.73014658 6.02331429,1.60993789 6.17142857,1.60993789 C6.31954286,1.60993789 6.43975155,1.73014658 6.43975155,1.87826087 L6.43975155,6.06034286 L8.77630807,8.39689938 C8.88095404,8.50154534 8.88095404,8.67166211 8.77630807,8.77630807 C8.72371677,8.82836273 8.65502609,8.85465839 8.5863354,8.85465839 Z" id="Shape"></path>
                </g>
            </g>
        </g>
    </g>
</svg>