<?xml version="1.0" encoding="UTF-8"?>
<svg width="334px" height="200px" viewBox="0 0 334 200" version="1.1" xmlns="http://www.w3.org/2000/svg" xmlns:xlink="http://www.w3.org/1999/xlink">
    <!-- Generator: Sketch 46.2 (44496) - http://www.bohemiancoding.com/sketch -->
    <title>@1xHours of Service Graphs</title>
    <desc>Created with Sketch.</desc>
    <defs>
        <rect id="path-1" x="0" y="0" width="334" height="200" rx="4"></rect>
        <filter x="-2.2%" y="-2.8%" width="105.7%" height="109.5%" filterUnits="objectBoundingBox" id="filter-2">
            <feOffset dx="2" dy="4" in="SourceAlpha" result="shadowOffsetOuter1"></feOffset>
            <feGaussianBlur stdDeviation="2.5" in="shadowOffsetOuter1" result="shadowBlurOuter1"></feGaussianBlur>
            <feComposite in="shadowBlurOuter1" in2="SourceAlpha" operator="out" result="shadowBlurOuter1"></feComposite>
            <feColorMatrix values="0 0 0 0 0   0 0 0 0 0   0 0 0 0 0  0 0 0 0.5 0" type="matrix" in="shadowBlurOuter1"></feColorMatrix>
        </filter>
    </defs>
    <g id="Symbols" stroke="none" stroke-width="1" fill="none" fill-rule="evenodd">
        <g id="Hours-of-Service-Graphs">
            <g id="Background">
                <use fill="black" fill-opacity="1" filter="url(#filter-2)" xlink:href="#path-1"></use>
                <use fill-opacity="0.1" fill="#FFFFFF" fill-rule="evenodd" xlink:href="#path-1"></use>
            </g>
            <g id="Drive" transform="translate(12.000000, 75.000000)">
                <text font-family="Roboto-Regular, Roboto" font-size="12" font-weight="normal" fill="#D1D1D1">
                    <tspan x="17.0322266" y="81">Drive</tspan>
                </text>
                <g id="Shart#3" fill="#FACE15">
                    <path d="M29.5833333,3.33333333 C15.1091667,3.33333333 3.33333333,15.1091667 3.33333333,29.5833333 C3.33333333,44.0575 15.1091667,55.8333333 29.5833333,55.8333333 C44.0575,55.8333333 55.8333333,44.0575 55.8333333,29.5833333 C55.8333333,15.1091667 44.0575,3.33333333 29.5833333,3.33333333 M29.5833333,59.1666667 C13.2708333,59.1666667 0,45.8958333 0,29.5833333 C0,13.2708333 13.2708333,0 29.5833333,0 C45.8958333,0 59.1666667,13.2708333 59.1666667,29.5833333 C59.1666667,45.8958333 45.8958333,59.1666667 29.5833333,59.1666667" id="Shape" opacity="0.3"></path>
                    <path d="M29.7749431,59.1666667 C23.8474431,59.1666667 18.1266097,57.4191667 13.2332764,54.1133333 C12.4707764,53.5975 12.2707764,52.5616667 12.7857764,51.7983333 C13.3007764,51.0366667 14.3366097,50.8366667 15.0999431,51.3508333 C19.4399431,54.2833333 24.5149431,55.8333333 29.7749431,55.8333333 C44.2491097,55.8333333 56.0249431,44.0575 56.0249431,29.5833333 C56.0249431,15.1091667 44.2491097,3.33333333 29.7749431,3.33333333 C28.8549431,3.33333333 28.1082764,2.58666667 28.1082764,1.66666667 C28.1082764,0.746666667 28.8549431,0 29.7749431,0 C46.0874431,0 59.3582764,13.2708333 59.3582764,29.5833333 C59.3582764,45.8958333 46.0874431,59.1666667 29.7749431,59.1666667" id="Shape"></path>
                </g>
                <text id="7-hrs" font-family="Roboto-Regular, Roboto" font-size="10" font-weight="normal" fill="#F1F2F3">
                    <tspan x="19.4306641" y="49">7 hrs</tspan>
                </text>
                <g id="Hours_of_Service_DriveTime_icon" transform="translate(17.000000, 12.000000)" fill="#56B2BA">
                    <g id="DriveTime">
                        <g id="truck.2" fill-rule="nonzero">
                            <path d="M11.1238095,19.2 L1.21904762,19.2 C1.1047619,19.2 1.02857143,19.0628571 1.02857143,18.8571429 L1.02857143,16.8 C1.02857143,16.5942857 1.1047619,16.4571429 1.21904762,16.4571429 L11.1238095,16.4571429 C11.2380952,16.4571429 11.3142857,16.5942857 11.3142857,16.8 L11.3142857,18.8571429 C11.3142857,19.0628571 11.2380952,19.2 11.1238095,19.2 Z M1.40952381,18.5142857 L10.9333333,18.5142857 L10.9333333,17.1428571 L1.40952381,17.1428571 L1.40952381,18.5142857 Z" id="Shape"></path>
                            <path d="M4.11428571,14.4 C3.90857143,14.4 3.77142857,14.2628571 3.77142857,14.0571429 L3.77142857,6.17142857 C3.77142857,5.00571429 4.73142857,4.11428571 5.82857143,4.11428571 L14.6742857,4.11428571 C15.84,4.11428571 16.7314286,5.07428571 16.7314286,6.17142857 L16.7314286,10.9714286 C16.7314286,11.1771429 16.5942857,11.3142857 16.3885714,11.3142857 C16.1828571,11.3142857 16.0457143,11.1771429 16.0457143,10.9714286 L16.0457143,6.17142857 C16.0457143,5.41714286 15.4285714,4.8 14.6742857,4.8 L5.82857143,4.8 C5.07428571,4.8 4.45714286,5.41714286 4.45714286,6.17142857 L4.45714286,14.0571429 C4.45714286,14.2628571 4.32,14.4 4.11428571,14.4 Z" id="Shape"></path>
                            <path d="M10.2857143,10.2171429 C10.08,10.2171429 9.94285714,10.08 9.94285714,9.87428571 L9.94285714,6.85714286 C9.94285714,6.65142857 10.08,6.51428571 10.2857143,6.51428571 C10.4914286,6.51428571 10.6285714,6.65142857 10.6285714,6.85714286 L10.6285714,9.87428571 C10.6285714,10.0114286 10.4914286,10.2171429 10.2857143,10.2171429 Z" id="Shape"></path>
                            <polygon id="Shape" points="5.82857143 15.0857143 12.6857143 15.0857143 14.7428571 12.3428571 5.82857143 12.3428571"></polygon>
                            <path d="M18.5142857,9.6 C18.3085714,9.6 18.1714286,9.46285714 18.1714286,9.25714286 L18.1714286,1.23428571 C18.1714286,0.96 17.9657143,0.685714286 17.6228571,0.685714286 L2.94857143,0.685714286 C2.60571429,0.685714286 2.4,0.891428571 2.4,1.23428571 L2.4,16.8 C2.4,17.0057143 2.26285714,17.1428571 2.05714286,17.1428571 C1.85142857,17.1428571 1.71428571,17.0057143 1.71428571,16.8 L1.71428571,1.23428571 C1.71428571,0.548571429 2.26285714,0 2.94857143,0 L17.6914286,0 C18.3771429,0 18.9257143,0.548571429 18.9257143,1.23428571 L18.9257143,9.25714286 C18.8571429,9.46285714 18.72,9.6 18.5142857,9.6 Z" id="Shape"></path>
                            <path d="M1.37142857,7.54285714 C1.16571429,7.54285714 1.02857143,7.40571429 1.02857143,7.2 L1.02857143,6.72 C1.02857143,6.03428571 1.57714286,5.48571429 2.26285714,5.48571429 L4.11428571,5.48571429 C4.32,5.48571429 4.45714286,5.62285714 4.45714286,5.82857143 C4.45714286,6.03428571 4.32,6.17142857 4.11428571,6.17142857 L2.26285714,6.17142857 C1.92,6.17142857 1.71428571,6.37714286 1.71428571,6.72 L1.71428571,7.2 C1.71428571,7.40571429 1.57714286,7.54285714 1.37142857,7.54285714 Z" id="Shape"></path>
                            <path d="M2.05714286,10.9714286 L0.685714286,10.9714286 C0.48,10.9714286 0.342857143,10.8342857 0.342857143,10.6285714 L0.342857143,7.2 C0.342857143,6.99428571 0.48,6.85714286 0.685714286,6.85714286 L2.05714286,6.85714286 C2.26285714,6.85714286 2.4,6.99428571 2.4,7.2 L2.4,10.6285714 C2.4,10.8342857 2.26285714,10.9714286 2.05714286,10.9714286 Z M1.02857143,10.2857143 L1.71428571,10.2857143 L1.71428571,7.54285714 L1.02857143,7.54285714 L1.02857143,10.2857143 Z" id="Shape"></path>
                            <path d="M19.2,7.54285714 C18.9942857,7.54285714 18.8571429,7.40571429 18.8571429,7.2 L18.8571429,6.72 C18.8571429,6.44571429 18.6514286,6.17142857 18.3085714,6.17142857 L16.4571429,6.17142857 C16.2514286,6.17142857 16.1142857,6.03428571 16.1142857,5.82857143 C16.1142857,5.62285714 16.2514286,5.48571429 16.4571429,5.48571429 L18.3085714,5.48571429 C18.9942857,5.48571429 19.5428571,6.03428571 19.5428571,6.72 L19.5428571,7.2 C19.5428571,7.40571429 19.4057143,7.54285714 19.2,7.54285714 Z" id="Shape"></path>
                            <path d="M19.8857143,10.9714286 L18.5142857,10.9714286 C18.3085714,10.9714286 18.1714286,10.8342857 18.1714286,10.6285714 L18.1714286,7.2 C18.1714286,6.99428571 18.3085714,6.85714286 18.5142857,6.85714286 L19.8857143,6.85714286 C20.0914286,6.85714286 20.2285714,6.99428571 20.2285714,7.2 L20.2285714,10.6285714 C20.2285714,10.8342857 20.0914286,10.9714286 19.8857143,10.9714286 Z M18.8571429,10.2857143 L19.5428571,10.2857143 L19.5428571,7.54285714 L18.8571429,7.54285714 L18.8571429,10.2857143 Z" id="Shape"></path>
                            <path d="M5.48571429,20.5714286 L2.05714286,20.5714286 C1.85142857,20.5714286 1.71428571,20.4342857 1.71428571,20.2285714 L1.71428571,18.8571429 C1.71428571,18.6514286 1.85142857,18.5142857 2.05714286,18.5142857 C2.26285714,18.5142857 2.4,18.6514286 2.4,18.8571429 L2.4,19.8857143 L5.14285714,19.8857143 L5.14285714,18.8571429 C5.14285714,18.6514286 5.28,18.5142857 5.48571429,18.5142857 C5.69142857,18.5142857 5.82857143,18.6514286 5.82857143,18.8571429 L5.82857143,20.2285714 C5.82857143,20.4342857 5.69142857,20.5714286 5.48571429,20.5714286 Z" id="Shape"></path>
                            <path d="M4.11428571,17.1428571 C3.15428571,17.1428571 2.4,16.3885714 2.4,15.4285714 C2.4,14.4685714 3.15428571,13.7142857 4.11428571,13.7142857 C5.07428571,13.7142857 5.82857143,14.4685714 5.82857143,15.4285714 C5.82857143,16.3885714 5.07428571,17.1428571 4.11428571,17.1428571 Z M4.11428571,14.4 C3.56571429,14.4 3.08571429,14.88 3.08571429,15.4285714 C3.08571429,15.9771429 3.56571429,16.4571429 4.11428571,16.4571429 C4.66285714,16.4571429 5.14285714,15.9771429 5.14285714,15.4285714 C5.14285714,14.88 4.66285714,14.4 4.11428571,14.4 Z" id="Shape"></path>
                            <path d="M15.0857143,10.2857143 L5.48571429,10.2857143 C5.28,10.2857143 5.14285714,10.1485714 5.14285714,9.94285714 L5.14285714,7.88571429 C5.14285714,6.92571429 5.89714286,6.17142857 6.85714286,6.17142857 L13.7142857,6.17142857 C14.6742857,6.17142857 15.4285714,6.92571429 15.4285714,7.88571429 L15.4285714,9.94285714 C15.4285714,10.1485714 15.2914286,10.2857143 15.0857143,10.2857143 Z M5.82857143,9.6 L14.7428571,9.6 L14.7428571,7.88571429 C14.7428571,7.33714286 14.2628571,6.85714286 13.7142857,6.85714286 L6.85714286,6.85714286 C6.30857143,6.85714286 5.82857143,7.33714286 5.82857143,7.88571429 L5.82857143,9.6 Z" id="Shape"></path>
                            <path d="M6.85714286,4.8 C6.30857143,4.8 5.82857143,4.32 5.82857143,3.77142857 C5.82857143,3.22285714 6.30857143,2.74285714 6.85714286,2.74285714 C7.40571429,2.74285714 7.88571429,3.22285714 7.88571429,3.77142857 C7.88571429,4.32 7.40571429,4.8 6.85714286,4.8 Z M6.85714286,3.42857143 C6.65142857,3.42857143 6.51428571,3.56571429 6.51428571,3.77142857 C6.51428571,3.97714286 6.65142857,4.11428571 6.85714286,4.11428571 C7.06285714,4.11428571 7.2,3.97714286 7.2,3.77142857 C7.2,3.56571429 7.06285714,3.42857143 6.85714286,3.42857143 Z" id="Shape"></path>
                            <path d="M13.7142857,4.8 C13.1657143,4.8 12.6857143,4.32 12.6857143,3.77142857 C12.6857143,3.22285714 13.1657143,2.74285714 13.7142857,2.74285714 C14.2628571,2.74285714 14.7428571,3.22285714 14.7428571,3.77142857 C14.7428571,4.32 14.2628571,4.8 13.7142857,4.8 Z M13.7142857,3.42857143 C13.5085714,3.42857143 13.3714286,3.56571429 13.3714286,3.77142857 C13.3714286,3.97714286 13.5085714,4.11428571 13.7142857,4.11428571 C13.92,4.11428571 14.0571429,3.97714286 14.0571429,3.77142857 C14.0571429,3.56571429 13.92,3.42857143 13.7142857,3.42857143 Z" id="Shape"></path>
                        </g>
                        <g id="time" transform="translate(13.028571, 11.657143)" fill-rule="nonzero">
                            <path d="M6.17142857,12.3428571 C2.76855652,12.3428571 0,9.57430062 0,6.17142857 C0,2.76855652 2.76855652,0 6.17142857,0 C9.57430062,0 12.3428571,2.76855652 12.3428571,6.17142857 C12.3428571,9.57430062 9.57430062,12.3428571 6.17142857,12.3428571 Z M6.17142857,0.536645963 C3.06424845,0.536645963 0.536645963,3.06424845 0.536645963,6.17142857 C0.536645963,9.2786087 3.06424845,11.8062112 6.17142857,11.8062112 C9.2786087,11.8062112 11.8062112,9.2786087 11.8062112,6.17142857 C11.8062112,3.06424845 9.2786087,0.536645963 6.17142857,0.536645963 Z" id="Shape"></path>
                            <path d="M8.5863354,8.85465839 C8.51764472,8.85465839 8.44895404,8.82836273 8.39636273,8.77630807 L5.9814559,6.36140124 C5.93154783,6.31095652 5.90310559,6.24280248 5.90310559,6.17142857 L5.90310559,1.87826087 C5.90310559,1.73014658 6.02331429,1.60993789 6.17142857,1.60993789 C6.31954286,1.60993789 6.43975155,1.73014658 6.43975155,1.87826087 L6.43975155,6.06034286 L8.77630807,8.39689938 C8.88095404,8.50154534 8.88095404,8.67166211 8.77630807,8.77630807 C8.72371677,8.82836273 8.65502609,8.85465839 8.5863354,8.85465839 Z" id="Shape"></path>
                        </g>
                    </g>
                </g>
            </g>
            <g id="Break" transform="translate(95.000000, 75.000000)">
                <text font-family="Roboto-Regular, Roboto" font-size="12" font-weight="normal" fill="#D1D1D1">
                    <tspan x="15.3066406" y="81">Break</tspan>
                </text>
                <g id="Shart#3" fill="#7ED321">
                    <path d="M29.5833333,3.33333333 C15.1091667,3.33333333 3.33333333,15.1091667 3.33333333,29.5833333 C3.33333333,44.0575 15.1091667,55.8333333 29.5833333,55.8333333 C44.0575,55.8333333 55.8333333,44.0575 55.8333333,29.5833333 C55.8333333,15.1091667 44.0575,3.33333333 29.5833333,3.33333333 M29.5833333,59.1666667 C13.2708333,59.1666667 0,45.8958333 0,29.5833333 C0,13.2708333 13.2708333,0 29.5833333,0 C45.8958333,0 59.1666667,13.2708333 59.1666667,29.5833333 C59.1666667,45.8958333 45.8958333,59.1666667 29.5833333,59.1666667" id="Shape" opacity="0.3"></path>
                    <path d="M29.7749431,59.1666667 C23.8474431,59.1666667 18.1266097,57.4191667 13.2332764,54.1133333 C12.4707764,53.5975 12.2707764,52.5616667 12.7857764,51.7983333 C13.3007764,51.0366667 14.3366097,50.8366667 15.0999431,51.3508333 C19.4399431,54.2833333 24.5149431,55.8333333 29.7749431,55.8333333 C44.2491097,55.8333333 56.0249431,44.0575 56.0249431,29.5833333 C56.0249431,15.1091667 44.2491097,3.33333333 29.7749431,3.33333333 C28.8549431,3.33333333 28.1082764,2.58666667 28.1082764,1.66666667 C28.1082764,0.746666667 28.8549431,0 29.7749431,0 C46.0874431,0 59.3582764,13.2708333 59.3582764,29.5833333 C59.3582764,45.8958333 46.0874431,59.1666667 29.7749431,59.1666667" id="Shape"></path>
                </g>
                <text id="1-hrs" font-family="Roboto-Regular, Roboto" font-size="10" font-weight="normal" fill="#F1F2F3">
                    <tspan x="19.4306641" y="49">1 hrs</tspan>
                </text>
                <g id="caffe-mug" transform="translate(19.000000, 11.000000)" fill-rule="nonzero" fill="#80D1F4">
                    <path d="M5.13333333,19.4333333 C4.91333333,19.4333333 4.76666667,19.2866667 4.76666667,19.0666667 C4.76666667,16.5733333 3.81333333,15.3266667 2.86,14.08 C1.98,12.9066667 1.1,11.66 1.1,9.53333333 C1.1,9.31333333 1.24666667,9.16666667 1.46666667,9.16666667 L18.3333333,9.16666667 C19.7266667,9.16666667 21.6333333,9.16666667 21.6333333,11 C21.6333333,13.9333333 15.5466667,18.7733333 15.2533333,18.9933333 C15.1066667,19.14 14.8866667,19.0666667 14.74,18.92 C14.5933333,18.7733333 14.6666667,18.5533333 14.8133333,18.4066667 C16.5,17.0866667 20.9,13.1266667 20.9,11 C20.9,10.12 20.3133333,9.9 18.3333333,9.9 L1.83333333,9.9 C1.90666667,11.5866667 2.71333333,12.6133333 3.44666667,13.64 C4.4,14.8866667 5.5,16.3533333 5.5,19.0666667 C5.5,19.2866667 5.35333333,19.4333333 5.13333333,19.4333333 Z" id="Shape"></path>
                    <path d="M14.6666667,19.4333333 C14.4466667,19.4333333 14.3,19.2866667 14.3,19.0666667 C14.3,16.3533333 15.4,14.8866667 16.3533333,13.64 C17.2333333,12.54 17.9666667,11.44 17.9666667,9.53333333 C17.9666667,9.31333333 18.1133333,9.16666667 18.3333333,9.16666667 C18.5533333,9.16666667 18.7,9.31333333 18.7,9.53333333 C18.7,11.66 17.82,12.9066667 16.94,14.08 C15.9866667,15.3266667 15.0333333,16.5733333 15.0333333,19.0666667 C15.0333333,19.2866667 14.8866667,19.4333333 14.6666667,19.4333333 Z" id="Shape"></path>
                    <path d="M5.86666667,6.96666667 C5.79333333,6.96666667 5.64666667,6.96666667 5.57333333,6.89333333 C5.42666667,6.74666667 5.42666667,6.52666667 5.57333333,6.38 C6.52666667,5.42666667 6.23333333,4.69333333 5.86666667,3.81333333 C5.5,2.86 5.06,1.76 6.30666667,0.44 C6.45333333,0.293333333 6.67333333,0.293333333 6.82,0.44 C6.96666667,0.586666667 6.96666667,0.806666667 6.82,0.953333333 C5.94,1.90666667 6.23333333,2.64 6.6,3.52 C6.96666667,4.47333333 7.40666667,5.57333333 6.16,6.82 C6.08666667,6.96666667 5.94,6.96666667 5.86666667,6.96666667 Z" id="Shape"></path>
                    <path d="M9.53333333,6.96666667 C9.46,6.96666667 9.31333333,6.96666667 9.24,6.89333333 C9.09333333,6.74666667 9.09333333,6.52666667 9.24,6.38 C10.1933333,5.42666667 9.9,4.76666667 9.53333333,3.81333333 C9.16666667,2.86 8.72666667,1.76 9.97333333,0.513333333 C10.12,0.366666667 10.34,0.366666667 10.4866667,0.513333333 C10.6333333,0.66 10.6333333,0.88 10.4866667,1.02666667 C9.53333333,1.98 9.82666667,2.64 10.1933333,3.59333333 C10.56,4.54666667 11,5.64666667 9.75333333,6.89333333 C9.75333333,6.96666667 9.60666667,6.96666667 9.53333333,6.96666667 Z" id="Shape"></path>
                    <path d="M13.2,6.96666667 C13.1266667,6.96666667 12.98,6.96666667 12.9066667,6.89333333 C12.76,6.74666667 12.76,6.52666667 12.9066667,6.38 C13.86,5.42666667 13.5666667,4.76666667 13.2,3.81333333 C12.8333333,2.86 12.3933333,1.76 13.64,0.513333333 C13.7866667,0.366666667 14.0066667,0.366666667 14.1533333,0.513333333 C14.3,0.66 14.3,0.88 14.1533333,1.02666667 C13.2,1.98 13.4933333,2.64 13.86,3.59333333 C14.2266667,4.54666667 14.6666667,5.64666667 13.42,6.89333333 C13.42,6.96666667 13.2733333,6.96666667 13.2,6.96666667 Z" id="Shape"></path>
                    <path d="M18.5533333,21.6333333 L2.71333333,21.6333333 C1.39333333,21.6333333 0.366666667,20.46 0.366666667,19.0666667 C0.366666667,18.8466667 0.513333333,18.7 0.733333333,18.7 L20.5333333,18.7 C20.7533333,18.7 20.9,18.8466667 20.9,19.0666667 C20.9,20.46 19.8733333,21.6333333 18.5533333,21.6333333 Z M1.1,19.4333333 C1.24666667,20.24 1.90666667,20.9 2.71333333,20.9 L18.5533333,20.9 C19.36,20.9 20.02,20.24 20.1666667,19.4333333 L1.1,19.4333333 Z" id="Shape"></path>
                </g>
            </g>
            <g id="Cycle" transform="translate(261.000000, 75.000000)">
                <text font-family="Roboto-Regular, Roboto" font-size="12" font-weight="normal" fill="#D1D1D1">
                    <tspan x="16.0185547" y="81">Cycle</tspan>
                </text>
                <g id="Shart#2" fill="#56B2BA">
                    <path d="M30,3.38028169 C15.3219718,3.38028169 3.38028169,15.3219718 3.38028169,30 C3.38028169,44.6780282 15.3219718,56.6197183 30,56.6197183 C44.6780282,56.6197183 56.6197183,44.6780282 56.6197183,30 C56.6197183,15.3219718 44.6780282,3.38028169 30,3.38028169 M30,60 C13.4577465,60 0,46.5422535 0,30 C0,13.4577465 13.4577465,0 30,0 C46.5422535,0 60,13.4577465 60,30 C60,46.5422535 46.5422535,60 30,60" id="Shape" opacity="0.3"></path>
                    <path d="M30,60 C13.4577465,60 0,46.5422535 0,30 C0,29.0670423 0.757183099,28.3098592 1.69014085,28.3098592 C2.62309859,28.3098592 3.38028169,29.0670423 3.38028169,30 C3.38028169,44.6780282 15.3219718,56.6197183 30,56.6197183 C44.6780282,56.6197183 56.6197183,44.6780282 56.6197183,30 C56.6197183,15.3219718 44.6780282,3.38028169 30,3.38028169 C29.0670423,3.38028169 28.3098592,2.62309859 28.3098592,1.69014085 C28.3098592,0.757183099 29.0670423,0 30,0 C46.5422535,0 60,13.4577465 60,30 C60,46.5422535 46.5422535,60 30,60" id="Shape"></path>
                </g>
                <text id="6-hrs" font-family="Roboto-Regular, Roboto" font-size="10" font-weight="normal" fill="#F1F2F3">
                    <tspan x="19.4306641" y="49">6 hrs</tspan>
                </text>
                <g id="update-time" transform="translate(16.000000, 12.000000)" fill-rule="nonzero" fill="#80D1F4">
                    <path d="M17.5485105,14.6666667 C17.4586428,14.6666667 17.3687752,14.6666667 17.2789075,14.575 L13.6841997,11.825 C13.594332,11.7333333 13.5044643,11.6416667 13.5044643,11.4583333 L13.5044643,3.20833333 C13.5044643,2.93333333 13.6841997,2.75 13.9538028,2.75 C14.2234058,2.75 14.4031412,2.93333333 14.4031412,3.20833333 L14.4031412,11.275 L17.8181136,13.8416667 C17.997849,14.025 18.0877167,14.3 17.9079813,14.4833333 C17.8181136,14.575 17.7282459,14.6666667 17.5485105,14.6666667 Z" id="Shape"></path>
                    <g id="Group" transform="translate(2.700893, 0.000000)">
                        <path d="M10.8035714,22 C6.30208333,22 2.25074405,19.0666667 0.720238095,14.7583333 C0.630208333,14.4833333 0.720238095,14.3 0.990327381,14.2083333 C1.26041667,14.1166667 1.44047619,14.2083333 1.53050595,14.4833333 C2.97098214,18.425 6.66220238,21.0833333 10.8035714,21.0833333 C16.2053571,21.0833333 20.7068452,16.5916667 20.7068452,11 C20.7068452,10.725 20.8869048,10.5416667 21.156994,10.5416667 C21.4270833,10.5416667 21.6071429,10.725 21.6071429,11 C21.6071429,17.05 16.7455357,22 10.8035714,22 Z" id="Shape"></path>
                        <path d="M0.45014881,11.4583333 C0.270089286,11.4583333 0,11.275 0,11 C0,4.95 4.86160714,0 10.8035714,0 C15.3050595,0 19.3563988,2.93333333 20.8869048,7.24166667 C20.9769345,7.51666667 20.8869048,7.7 20.6168155,7.79166667 C20.3467262,7.88333333 20.1666667,7.79166667 20.0766369,7.51666667 C18.6361607,3.575 14.9449405,0.916666667 10.8035714,0.916666667 C5.40178571,0.916666667 0.900297619,5.40833333 0.900297619,11 C0.900297619,11.275 0.720238095,11.4583333 0.45014881,11.4583333 Z" id="Shape"></path>
                    </g>
                    <path d="M2.79244855,11.9166667 C2.70089286,11.9166667 2.51778148,11.9166667 2.42622579,11.8369565 L0.137333535,9.8442029 C-0.045777845,9.68478261 -0.045777845,9.44565217 0.137333535,9.28623188 C0.320444915,9.12681159 0.595111985,9.12681159 0.778223366,9.28623188 L2.70089286,10.9601449 L4.62356235,9.28623188 C4.80667373,9.12681159 5.0813408,9.12681159 5.26445218,9.28623188 C5.44756356,9.44565217 5.44756356,9.68478261 5.26445218,9.8442029 L2.97555993,11.8369565 C3.06711562,11.9166667 2.88400424,11.9166667 2.79244855,11.9166667 Z" id="Shape"></path>
                    <path d="M26.5137649,12.7940476 C26.4237351,12.7940476 26.2436756,12.7940476 26.1536458,12.7154762 L24.2630208,11.0654762 L22.3723958,12.7154762 C22.1923363,12.872619 21.922247,12.872619 21.7421875,12.7154762 C21.562128,12.5583333 21.562128,12.322619 21.7421875,12.1654762 L23.9929315,10.2011905 C24.1729911,10.0440476 24.4430804,10.0440476 24.6231399,10.2011905 L26.8738839,12.1654762 C27.0539435,12.322619 27.0539435,12.5583333 26.8738839,12.7154762 C26.7838542,12.7940476 26.6037946,12.7940476 26.5137649,12.7940476 Z" id="Shape"></path>
                </g>
            </g>
            <g id="Duty" transform="translate(178.000000, 75.000000)">
                <text font-family="Roboto-Regular, Roboto" font-size="12" font-weight="normal" fill="#D1D1D1">
                    <tspan x="18.4589844" y="81">Duty</tspan>
                </text>
                <g id="Shart#1" fill="#E92C81">
                    <path d="M30,3.38028169 C15.3219718,3.38028169 3.38028169,15.3219718 3.38028169,30 C3.38028169,44.6780282 15.3219718,56.6197183 30,56.6197183 C44.6780282,56.6197183 56.6197183,44.6780282 56.6197183,30 C56.6197183,15.3219718 44.6780282,3.38028169 30,3.38028169 M30,60 C13.4577465,60 0,46.5422535 0,30 C0,13.4577465 13.4577465,0 30,0 C46.5422535,0 60,13.4577465 60,30 C60,46.5422535 46.5422535,60 30,60" id="Shape" opacity="0.3"></path>
                    <path d="M0,30 C0,24.4411268 1.53211268,19.0115493 4.4315493,14.2994366 C4.92084507,13.5033803 5.96197183,13.2566197 6.7571831,13.7459155 C7.55239437,14.2343662 7.8,15.275493 7.31070423,16.0707042 C4.73915493,20.2495775 3.38028169,25.0664789 3.38028169,30 C3.38028169,44.6780282 15.3219718,56.6197183 30,56.6197183 C44.6780282,56.6197183 56.6197183,44.6780282 56.6197183,30 C56.6197183,15.3219718 44.6780282,3.38028169 30,3.38028169 C29.0670423,3.38028169 28.3098592,2.62309859 28.3098592,1.69014085 C28.3098592,0.757183099 29.0670423,0 30,0 C46.5422535,0 60,13.4577465 60,30 C60,46.5422535 46.5422535,60 30,60 C13.4577465,60 0,46.5422535 0,30 Z" id="Shape"></path>
                </g>
                <text id="7-hrs" font-family="Roboto-Regular, Roboto" font-size="10" font-weight="normal" fill="#F1F2F3">
                    <tspan x="19.4306641" y="49">7 hrs</tspan>
                </text>
                <g id="clipboard" transform="translate(21.000000, 11.000000)" fill-rule="nonzero" fill="#80D1F4">
                    <path d="M7.95061728,20.2993 L1.19190123,20.2993 C0.916049383,20.2993 0.692049383,20.0676 0.692049383,19.7827 L0.692049383,4.0166 C0.691358025,3.7317 0.916740741,3.5 1.19190123,3.5 L3.45679012,3.5 L3.45679012,3.85 C3.45679012,4.0432 3.61165432,4.2 3.80246914,4.2 L11.4074074,4.2 C11.5982222,4.2 11.7530864,4.0432 11.7530864,3.85 L11.7530864,3.5 L14,3.5 C14.2855309,3.5 14.5185185,3.7275 14.5185185,4.0061 L14.5185185,10.15 C14.5185185,10.3432 14.6733827,10.5 14.8641975,10.5 C15.0550123,10.5 15.2098765,10.3432 15.2098765,10.15 L15.2098765,4.0061 C15.2098765,3.3404 14.6678519,2.8 14,2.8 L11.7530864,2.8 L11.7530864,2.45 C11.7530864,1.8711 11.2884938,1.4 10.7160494,1.4 L8.98765432,1.4 C8.98765432,0.6279 8.36750617,0 7.60493827,0 C6.84237037,0 6.22222222,0.6279 6.22222222,1.4 L4.49382716,1.4 C3.92276543,1.4 3.45679012,1.8711 3.45679012,2.45 L3.45679012,2.8 L1.19190123,2.8 C0.534419753,2.8 0,3.346 0,4.0166 L0,19.7834 C0,20.454 0.534419753,21 1.19190123,21 L7.95061728,21 C8.1414321,21 8.2962963,20.8425 8.2962963,20.6493 C8.2962963,20.4561 8.1414321,20.2993 7.95061728,20.2993 Z M4.14814815,2.45 C4.14814815,2.2575 4.30439506,2.1 4.49382716,2.1 L6.56790123,2.1 C6.75871605,2.1 6.91358025,1.9432 6.91358025,1.75 L6.91358025,1.4 C6.91358025,1.0136 7.22330864,0.7 7.60493827,0.7 C7.9865679,0.7 8.2962963,1.0136 8.2962963,1.4 L8.2962963,1.75 C8.2962963,1.841 8.3308642,1.932 8.39308642,1.995 C8.45461728,2.065 8.54449383,2.1 8.64197531,2.1 L10.7160494,2.1 C10.9061728,2.1 11.0617284,2.2575 11.0617284,2.45 L11.0617284,3.5 L4.14814815,3.5 L4.14814815,2.45 Z M17.0060247,18.4954 L15.7207901,18.1699 L15.6495802,17.8815 C15.9855802,17.5168 16.2213333,17.0436 16.3119012,16.5536 C16.529679,16.4521 16.6886914,16.2435 16.7198025,15.9915 L16.8103704,15.26 C16.8345679,15.0584 16.773037,14.8554 16.641679,14.7028 C16.5925926,14.6454 16.5345185,14.5971 16.4709136,14.5586 L16.4958025,14.0462 L16.5905185,13.9503 C16.7889383,13.7354 17.0592593,13.2748 16.6271605,12.6056 C16.417679,12.2836 15.9876543,11.9 15.1213827,11.9 C14.8614321,11.9 14.2710123,11.9 13.702716,12.2668 C12.0579753,12.3179 11.842963,13.1593 11.842963,13.8929 C11.842963,14.0378 11.8706173,14.3234 11.8948148,14.5453 C11.8249877,14.5845 11.7613827,14.6356 11.7074568,14.6979 C11.5733333,14.8512 11.5104198,15.0556 11.5353086,15.2607 L11.6258765,15.9908 C11.657679,16.2512 11.8263704,16.4647 12.076642,16.562 C12.1658272,17.0331 12.3884444,17.4902 12.7043951,17.8472 L12.6248889,18.1699 L11.3396543,18.4954 C10.3627654,18.7425 9.67901235,19.6287 9.67901235,20.65 C9.67901235,20.7431 9.71496296,20.8327 9.77995062,20.8978 C9.84493827,20.9629 9.93274074,21 10.0246914,21 L18.3209877,20.9993 C18.5118025,20.9993 18.6666667,20.8425 18.6666667,20.6493 C18.6666667,19.628 17.9842963,18.7432 17.0060247,18.4954 Z M10.4104691,20.2993 C10.5362963,19.7554 10.9531852,19.3151 11.506963,19.1751 L12.9933827,18.7985 C13.1171358,18.767 13.2139259,18.6697 13.245037,18.5437 L13.4220247,17.8283 C13.4524444,17.7058 13.4144198,17.5756 13.3224691,17.4888 C12.9878519,17.1703 12.7659259,16.7034 12.729284,16.2407 C12.7154568,16.0587 12.5654321,15.9187 12.3849877,15.9187 L12.3117037,15.9047 L12.273679,15.1578 C12.3732346,15.1578 12.4672593,15.1144 12.5329383,15.0395 C12.5986173,14.9632 12.629037,14.8638 12.6165926,14.7637 C12.5847901,14.5082 12.534321,14.0455 12.534321,13.8943 C12.534321,13.4449 12.534321,12.9794 13.8154074,12.9661 C13.8859259,12.9654 13.9550617,12.943 14.0131358,12.9003 C14.4272593,12.6007 14.896,12.6007 15.1213827,12.6007 C15.5749136,12.6007 15.8784198,12.7281 16.0478025,12.9899 C16.2469136,13.2986 16.1494321,13.4029 16.0934321,13.4638 L15.9122963,13.6465 C15.8514568,13.7081 15.8155062,13.7907 15.811358,13.8775 L15.7678025,14.7917 C15.762963,14.8869 15.8044444,14.987 15.8687407,15.0563 C15.933037,15.1263 16.0298272,15.1739 16.1238519,15.1746 L16.0007901,15.9187 C15.8203457,15.9187 15.6710123,16.0587 15.6564938,16.2414 C15.6198519,16.7104 15.3820247,17.1976 15.034963,17.5133 C14.9402469,17.6001 14.8994568,17.7324 14.9305679,17.8584 L15.0999506,18.5437 C15.1310617,18.669 15.2271605,18.767 15.3516049,18.7985 L16.8380247,19.1751 C17.3924938,19.3151 17.8086914,19.7554 17.9352099,20.3 L10.4104691,20.2993 Z" id="Shape"></path>
                </g>
            </g>
            <rect id="Line" fill="#000000" x="2" y="30" width="330" height="1"></rect>
            <text id="Clock-started-8:00-a" font-family="Roboto-Regular, Roboto" font-size="8" font-weight="normal" line-spacing="12" fill="#7ED321">
                <tspan x="198.582031" y="192">Clock started 8:00 am, July 10, 2017</tspan>
            </text>
            <text id="Hours-of-Service" font-family="Roboto-Regular, Roboto" font-size="18" font-weight="normal" fill="#F1F2F3">
                <tspan x="12" y="22">Hours of Service</tspan>
            </text>
            <text id="Hours-remaining" font-family="Roboto-Regular, Roboto" font-size="12" font-weight="normal" fill="#D1D1D1">
                <tspan x="12" y="51">Hours remaining</tspan>
            </text>
        </g>
    </g>
</svg>