<?xml version="1.0" encoding="UTF-8"?>
<svg width="60px" height="40px" viewBox="0 0 60 40" version="1.1" xmlns="http://www.w3.org/2000/svg" xmlns:xlink="http://www.w3.org/1999/xlink">
    <!-- Generator: Sketch 46.2 (44496) - http://www.bohemiancoding.com/sketch -->
    <title>@1xHazard Icon</title>
    <desc>Created with Sketch.</desc>
    <defs></defs>
    <g id="Symbols" stroke="none" stroke-width="1" fill="none" fill-rule="evenodd">
        <g id="Hazard-Icon" stroke-width="2" stroke="#FACE15" fill-rule="nonzero">
            <g id="Hazard">
                <path d="M14.0395859,14.0395859 L14.0395859,24.9871562 L24.9871562,24.9871562 L24.9871562,14.0395859 L14.0395859,14.0395859 Z" id="Shape" transform="translate(19.513371, 19.513371) rotate(45.000000) translate(-19.513371, -19.513371) "></path>
                <path d="M24.3976421,3.68152962 L24.3976421,14.6290999 L35.3452125,14.6290999 L35.3452125,3.68152962 L24.3976421,3.68152962 Z" id="Shape" transform="translate(29.871427, 9.155315) rotate(45.000000) translate(-29.871427, -9.155315) "></path>
                <path d="M45.1137547,24.3976421 L45.1137547,35.3452125 L56.061325,35.3452125 L56.061325,24.3976421 L45.1137547,24.3976421 Z" id="Shape" transform="translate(50.587540, 29.871427) rotate(45.000000) translate(-50.587540, -29.871427) "></path>
                <path d="M34.7556984,14.0395859 L34.7556984,24.9871562 L45.7032687,24.9871562 L45.7032687,14.0395859 L34.7556984,14.0395859 Z" id="Shape" transform="translate(40.229484, 19.513371) rotate(45.000000) translate(-40.229484, -19.513371) "></path>
                <path d="M3.68152962,24.3976421 L3.68152962,35.3452125 L14.6290999,35.3452125 L14.6290999,24.3976421 L3.68152962,24.3976421 Z" id="Shape" transform="translate(9.155315, 29.871427) rotate(45.000000) translate(-9.155315, -29.871427) "></path>
                <path d="M24.3976421,24.3976421 L24.3976421,35.3452125 L35.3452125,35.3452125 L35.3452125,24.3976421 L24.3976421,24.3976421 Z" id="Shape" transform="translate(29.871427, 29.871427) rotate(45.000000) translate(-29.871427, -29.871427) "></path>
            </g>
        </g>
    </g>
</svg>