<?xml version="1.0" encoding="UTF-8"?>
<svg width="60px" height="40px" viewBox="0 0 60 40" version="1.1" xmlns="http://www.w3.org/2000/svg" xmlns:xlink="http://www.w3.org/1999/xlink">
    <!-- Generator: Sketch 46.2 (44496) - http://www.bohemiancoding.com/sketch -->
    <title>@1xHazard Navigation Icon</title>
    <desc>Created with Sketch.</desc>
    <defs>
        <polygon id="path-1" points="13.0395859 13.0395859 25.9871562 13.0395859 25.9871562 25.9871562 13.0395859 25.9871562"></polygon>
        <polygon id="path-2" points="23.3976421 2.68152962 36.3452125 2.68152962 36.3452125 15.6290999 23.3976421 15.6290999"></polygon>
        <polygon id="path-3" points="44.1137547 23.3976421 57.061325 23.3976421 57.061325 36.3452125 44.1137547 36.3452125"></polygon>
        <polygon id="path-4" points="33.7556984 13.0395859 46.7032687 13.0395859 46.7032687 25.9871562 33.7556984 25.9871562"></polygon>
        <polygon id="path-5" points="2.68152962 23.3976421 15.6290999 23.3976421 15.6290999 36.3452125 2.68152962 36.3452125"></polygon>
        <polygon id="path-6" points="23.3976421 23.3976421 36.3452125 23.3976421 36.3452125 36.3452125 23.3976421 36.3452125"></polygon>
    </defs>
    <g id="Symbols" stroke="none" stroke-width="1" fill="none" fill-rule="evenodd" opacity="0.8">
        <g id="Hazard-Navigation-Icon" fill-rule="nonzero">
            <g id="Hazard">
                <g id="Shape" transform="translate(19.513371, 19.513371) rotate(45.000000) translate(-19.513371, -19.513371) ">
                    <use fill="#F1F2F3" fill-rule="evenodd" xlink:href="#path-1"></use>
                    <path stroke-opacity="0.8" stroke="#8075F2" stroke-width="1" d="M13.5395859,13.5395859 L13.5395859,25.4871562 L25.4871562,25.4871562 L25.4871562,13.5395859 L13.5395859,13.5395859 Z"></path>
                </g>
                <g id="Shape" transform="translate(29.871427, 9.155315) rotate(45.000000) translate(-29.871427, -9.155315) ">
                    <use fill="#F1F2F3" fill-rule="evenodd" xlink:href="#path-2"></use>
                    <path stroke-opacity="0.8" stroke="#8075F2" stroke-width="1" d="M23.8976421,3.18152962 L23.8976421,15.1290999 L35.8452125,15.1290999 L35.8452125,3.18152962 L23.8976421,3.18152962 Z"></path>
                </g>
                <g id="Shape" transform="translate(50.587540, 29.871427) rotate(45.000000) translate(-50.587540, -29.871427) ">
                    <use fill="#F1F2F3" fill-rule="evenodd" xlink:href="#path-3"></use>
                    <path stroke-opacity="0.8" stroke="#8075F2" stroke-width="1" d="M44.6137547,23.8976421 L44.6137547,35.8452125 L56.561325,35.8452125 L56.561325,23.8976421 L44.6137547,23.8976421 Z"></path>
                </g>
                <g id="Shape" transform="translate(40.229484, 19.513371) rotate(45.000000) translate(-40.229484, -19.513371) ">
                    <use fill="#F1F2F3" fill-rule="evenodd" xlink:href="#path-4"></use>
                    <path stroke-opacity="0.8" stroke="#8075F2" stroke-width="1" d="M34.2556984,13.5395859 L34.2556984,25.4871562 L46.2032687,25.4871562 L46.2032687,13.5395859 L34.2556984,13.5395859 Z"></path>
                </g>
                <g id="Shape" transform="translate(9.155315, 29.871427) rotate(45.000000) translate(-9.155315, -29.871427) ">
                    <use fill="#F1F2F3" fill-rule="evenodd" xlink:href="#path-5"></use>
                    <path stroke-opacity="0.8" stroke="#8075F2" stroke-width="1" d="M3.18152962,23.8976421 L3.18152962,35.8452125 L15.1290999,35.8452125 L15.1290999,23.8976421 L3.18152962,23.8976421 Z"></path>
                </g>
                <g id="Shape" transform="translate(29.871427, 29.871427) rotate(45.000000) translate(-29.871427, -29.871427) ">
                    <use fill="#F1F2F3" fill-rule="evenodd" xlink:href="#path-6"></use>
                    <path stroke-opacity="0.8" stroke="#8075F2" stroke-width="1" d="M23.8976421,23.8976421 L23.8976421,35.8452125 L35.8452125,35.8452125 L35.8452125,23.8976421 L23.8976421,23.8976421 Z"></path>
                </g>
            </g>
        </g>
    </g>
</svg>