<?xml version="1.0" encoding="UTF-8"?>
<svg width="24px" height="28px" viewBox="0 0 24 28" version="1.1" xmlns="http://www.w3.org/2000/svg" xmlns:xlink="http://www.w3.org/1999/xlink">
    <!-- Generator: Sketch 46.2 (44496) - http://www.bohemiancoding.com/sketch -->
    <title>@1xlocal-truck_parking_icon</title>
    <desc>Created with Sketch.</desc>
    <defs></defs>
    <g id="Symbols" stroke="none" stroke-width="1" fill="none" fill-rule="evenodd">
        <g id="local-truck_parking_icon" fill-rule="nonzero">
            <g id="Navigation_Button_Parking_icon">
                <path d="M12,28 C11.8857143,28 11.7714286,28 11.6571429,27.9066667 C11.2,27.5333333 0,19.32 0,9.8 C0,4.38666667 5.37142857,0 12,0 C18.6285714,0 24,4.38666667 24,9.8 C24,19.32 12.8,27.5333333 12.3428571,27.9066667 C12.2285714,28 12.1142857,28 12,28 Z M12,0.933333333 C6.05714286,0.933333333 1.14285714,4.94666667 1.14285714,9.8 C1.14285714,17.92 10.0571429,25.3866667 12,26.88 C13.9428571,25.3866667 22.8571429,17.92 22.8571429,9.8 C22.8571429,4.94666667 17.9428571,0.933333333 12,0.933333333 Z" id="Shape" fill="#F1F2F3"></path>
                <g id="truck.2" opacity="0.8" transform="translate(5.000000, 4.000000)" fill="#8075F2">
                    <path d="M1.4,3.26666667 L1.44666667,3.26666667 C1.44666667,3.26666667 1.49333333,3.26666667 1.49333333,3.26666667 L2.19333333,3.26666667 C2.28666667,3.26666667 2.33333333,3.22 2.38,3.17333333 C2.61333333,2.84666667 2.94,2.56666667 3.36,2.42666667 C3.45333333,2.42666667 3.5,2.33333333 3.54666667,2.28666667 C3.68666667,1.77333333 4.15333333,1.4 4.66666667,1.4 C5.13333333,1.4 5.6,1.72666667 5.74,2.19333333 C5.78666667,2.28666667 5.88,2.33333333 5.97333333,2.33333333 L8.02666667,2.33333333 C8.12,2.33333333 8.21333333,2.28666667 8.26,2.19333333 C8.4,1.72666667 8.86666667,1.4 9.33333333,1.4 C9.84666667,1.4 10.3133333,1.77333333 10.4533333,2.28666667 C10.4533333,2.38 10.5466667,2.42666667 10.5933333,2.42666667 C11.0133333,2.56666667 11.34,2.8 11.5733333,3.17333333 C11.62,3.22 11.7133333,3.26666667 11.76,3.26666667 L12.46,3.26666667 C12.46,3.26666667 12.5066667,3.26666667 12.5066667,3.26666667 L12.6,3.26666667 C12.6,3.26666667 12.6,3.26666667 12.6,3.26666667 C12.6466667,3.26666667 12.6933333,3.26666667 12.74,3.22 C12.7866667,3.17333333 12.8333333,3.12666667 12.8333333,3.03333333 L12.8333333,0.84 C12.8333333,0.373333333 12.46,0 11.9933333,0 L2.00666667,0 C1.54,0 1.16666667,0.373333333 1.16666667,0.84 L1.16666667,3.08 C1.16666667,3.12666667 1.21333333,3.22 1.26,3.26666667 C1.30666667,3.26666667 1.35333333,3.26666667 1.4,3.26666667 Z" id="Shape"></path>
                    <circle id="Oval" cx="2.8" cy="10.5" r="1"></circle>
                    <rect id="Rectangle-path" x="3.96666667" y="8.4" width="6.06666667" height="1.86666667"></rect>
                    <circle id="Oval" cx="11.2" cy="10.5" r="1"></circle>
                    <path d="M10.08,10.7333333 L3.92,10.7333333 C3.82666667,11.2466667 3.36,11.6666667 2.8,11.6666667 L11.2,11.6666667 C10.64,11.6666667 10.1733333,11.2466667 10.08,10.7333333 Z" id="Shape"></path>
                    <path d="M13.5333333,4.66666667 L13.3,4.66666667 L13.3,4.57333333 C13.3,4.10666667 12.9266667,3.73333333 12.46,3.73333333 L11.34,3.73333333 C11.1533333,3.17333333 10.64,2.8 9.98666667,2.8 L9.98666667,2.8 C10.0333333,2.70666667 10.0333333,2.66 10.0333333,2.56666667 C10.0333333,2.19333333 9.70666667,1.86666667 9.33333333,1.86666667 C8.96,1.86666667 8.63333333,2.19333333 8.63333333,2.56666667 C8.63333333,2.66 8.63333333,2.70666667 8.68,2.8 L5.32,2.8 C5.36666667,2.70666667 5.36666667,2.66 5.36666667,2.56666667 C5.36666667,2.19333333 5.04,1.86666667 4.66666667,1.86666667 C4.29333333,1.86666667 3.96666667,2.19333333 3.96666667,2.56666667 C3.96666667,2.66 3.96666667,2.70666667 4.01333333,2.8 L4.01333333,2.8 C3.36,2.8 2.84666667,3.17333333 2.66,3.73333333 L1.54,3.73333333 C1.07333333,3.73333333 0.7,4.10666667 0.7,4.57333333 L0.7,4.66666667 L0.466666667,4.66666667 C0.326666667,4.66666667 0.233333333,4.76 0.233333333,4.9 L0.233333333,7.23333333 C0.233333333,7.37333333 0.326666667,7.46666667 0.466666667,7.46666667 L1.16666667,7.46666667 L1.16666667,11.2 L0.933333333,11.2 C0.793333333,11.2 0.7,11.2933333 0.7,11.4333333 L0.7,11.6666667 L2.8,11.6666667 C2.14666667,11.6666667 1.63333333,11.1533333 1.63333333,10.5 C1.63333333,10.1266667 1.82,9.8 2.1,9.56666667 L2.1,9.56666667 L2.1,4.2 L2.56666667,4.2 C2.56666667,4.2 2.56666667,4.2 2.56666667,4.2 L2.56666667,9.33333333 C2.66,9.33333333 2.70666667,9.33333333 2.8,9.33333333 C3.08,9.33333333 3.31333333,9.42666667 3.5,9.56666667 L3.5,8.16666667 C3.5,8.02666667 3.59333333,7.93333333 3.73333333,7.93333333 L10.2666667,7.93333333 C10.4066667,7.93333333 10.5,8.02666667 10.5,8.16666667 L10.5,9.56666667 C10.6866667,9.42666667 10.92,9.33333333 11.2,9.33333333 C11.2933333,9.33333333 11.34,9.33333333 11.4333333,9.38 L11.4333333,4.2 C11.4333333,4.2 11.4333333,4.2 11.4333333,4.2 L11.9,4.2 L11.9,9.56666667 L11.9,9.56666667 C12.18,9.8 12.3666667,10.1266667 12.3666667,10.5 C12.3666667,11.1533333 11.8533333,11.6666667 11.2,11.6666667 L13.3,11.6666667 L13.3,11.4333333 C13.3,11.2933333 13.2066667,11.2 13.0666667,11.2 L12.8333333,11.2 L12.8333333,7.46666667 L13.5333333,7.46666667 C13.6733333,7.46666667 13.7666667,7.37333333 13.7666667,7.23333333 L13.7666667,4.9 C13.7666667,4.76 13.6733333,4.66666667 13.5333333,4.66666667 Z M3.5,6.76666667 L3.5,5.36666667 C3.5,4.71333333 4.01333333,4.2 4.66666667,4.2 L6.76666667,4.2 L6.76666667,7 L3.73333333,7 C3.59333333,7 3.5,6.90666667 3.5,6.76666667 Z M10.5,6.76666667 C10.5,6.90666667 10.4066667,7 10.2666667,7 L7.23333333,7 L7.23333333,4.2 L9.33333333,4.2 C9.98666667,4.2 10.5,4.71333333 10.5,5.36666667 L10.5,6.76666667 Z" id="Shape"></path>
                    <path d="M0.7,12.8333333 C0.7,12.9733333 0.793333333,13.0666667 0.933333333,13.0666667 L1.16666667,13.0666667 L1.16666667,13.7666667 C1.16666667,13.9066667 1.26,14 1.4,14 L3.73333333,14 C3.87333333,14 3.96666667,13.9066667 3.96666667,13.7666667 L3.96666667,13.0666667 L10.0333333,13.0666667 L10.0333333,13.7666667 C10.0333333,13.9066667 10.1266667,14 10.2666667,14 L12.6,14 C12.74,14 12.8333333,13.9066667 12.8333333,13.7666667 L12.8333333,13.0666667 L13.0666667,13.0666667 C13.2066667,13.0666667 13.3,12.9733333 13.3,12.8333333 L13.3,12.1333333 L0.7,12.1333333 L0.7,12.8333333 Z" id="Shape"></path>
                </g>
            </g>
        </g>
    </g>
</svg>