<?xml version="1.0" encoding="UTF-8"?>
<svg width="71px" height="29px" viewBox="0 0 71 29" version="1.1" xmlns="http://www.w3.org/2000/svg" xmlns:xlink="http://www.w3.org/1999/xlink">
    <!-- Generator: Sketch 46.2 (44496) - http://www.bohemiancoding.com/sketch -->
    <title>@1xmvr_icon</title>
    <desc>Created with Sketch.</desc>
    <defs></defs>
    <g id="Symbols" stroke="none" stroke-width="1" fill="none" fill-rule="evenodd">
        <g id="mvr_icon">
            <circle id="Oval" stroke="#F1F2F3" cx="54.5" cy="24.5" r="3"></circle>
            <circle id="Oval" stroke="#F1F2F3" cx="62.5" cy="24.5" r="3"></circle>
            <g id="truck.1" transform="translate(15.500000, 16.500000) scale(-1, 1) translate(-15.500000, -16.500000) translate(0.000000, 4.000000)" fill-rule="nonzero" fill="#F1F2F3">
                <path d="M29.7414214,7 C29.9414214,6.9 30.0414214,6.8 30.0414214,6.6 L30.0414214,4.5 C30.0414214,4.4 29.9414214,4.2 29.9414214,4.1 C29.4414214,3.6 28.7414214,3.3 28.0414214,3.2 L25.6414214,0.8 C25.2414214,0.2 23.6414214,0 23.3414214,0 L15.6414214,0 C15.2414214,0.1 15.0414214,0.3 15.0414214,0.6 L15.0414214,15.1 L6.54142136,15.1 C6.84142136,15.1 7.04142136,14.9 7.04142136,14.6 C7.04142136,14.3 6.84142136,14.1 6.54142136,14.1 L4.54142136,14.1 C4.24142136,14.1 4.04142136,14.3 4.04142136,14.6 C4.04142136,14.9 4.24142136,15.1 4.54142136,15.1 L2.54142136,15.1 C2.34142136,15.1 2.14142136,15.2 2.04142136,15.4 L0.0414213562,21.4 C-0.0585786438,21.6 0.0414213562,21.7 0.141421356,21.9 C0.241421356,22 0.341421356,22.1 0.541421356,22.1 L3.24142136,22.1 C3.64142136,23.3 4.74142136,24.1 6.04142136,24.1 C7.34142136,24.1 8.44142136,23.3 8.84142136,22.1 L21.1414214,22.1 C21.5414214,23.3 22.6414214,24.1 23.9414214,24.1 C25.2414214,24.1 26.3414214,23.2 26.7414214,22.1 L27.0414214,22.1 C28.7414214,22.1 30.0414214,20.7 30.0414214,19 L30.0414214,12.7 C30.0414214,12.5 29.9414214,12.4 29.8414214,12.3 L29.0414214,11.8 L29.0414214,7.4 L29.7414214,7 Z M20.0414214,14.6 C20.0414214,14.3 20.2414214,14.1 20.5414214,14.1 L21.5414214,14.1 C21.8414214,14.1 22.0414214,14.3 22.0414214,14.6 C22.0414214,14.9 21.8414214,15.1 21.5414214,15.1 L20.5414214,15.1 C20.2414214,15.1 20.0414214,14.9 20.0414214,14.6 Z M25.5414214,12.1 C25.8414214,12.1 26.0414214,12.3 26.0414214,12.6 C26.0414214,12.9 25.8414214,13.1 25.5414214,13.1 L20.5414214,13.1 C20.2414214,13.1 20.0414214,12.9 20.0414214,12.6 L20.0414214,6.6 C20.0414214,6.3 20.2414214,6.1 20.5414214,6.1 C20.8414214,6.1 21.0414214,6.3 21.0414214,6.6 L21.0414214,12.1 L25.5414214,12.1 Z M18.5414214,4.1 L24.5414214,4.1 C24.8414214,4.1 25.0414214,4.3 25.0414214,4.6 C25.0414214,4.9 24.8414214,5.1 24.5414214,5.1 L18.5414214,5.1 C18.2414214,5.1 18.0414214,4.9 18.0414214,4.6 C18.0414214,4.3 18.2414214,4.1 18.5414214,4.1 Z M6.04142136,23.1 C5.04142136,23.1 4.34142136,22.5 4.04142136,21.6 C4.04142136,21.6 4.04142136,21.6 4.04142136,21.6 C4.04142136,21.5 4.04142136,21.5 4.04142136,21.4 C4.04142136,21.3 4.04142136,21.2 4.04142136,21.1 L4.04142136,21.1 C4.04142136,20 4.94142136,19.1 6.04142136,19.1 C7.14142136,19.1 8.04142136,20 8.04142136,21.1 C8.04142136,21.2 8.04142136,21.4 8.04142136,21.5 C8.04142136,21.5 8.04142136,21.5 8.04142136,21.5 C7.84142136,22.4 6.94142136,23.1 6.04142136,23.1 Z M24.0414214,23.1 C23.1414214,23.1 22.3414214,22.4 22.0414214,21.6 C22.0414214,21.6 22.0414214,21.6 22.0414214,21.6 C22.0414214,21.5 22.0414214,21.5 22.0414214,21.4 C22.0414214,21.3 22.0414214,21.2 22.0414214,21.1 C22.0414214,21.1 22.0414214,21.1 22.0414214,21.1 C22.0414214,20 22.9414214,19.1 24.0414214,19.1 C24.1414214,19.1 24.3414214,19.1 24.4414214,19.1 C25.3414214,19.3 26.0414214,20.1 26.0414214,21.1 C26.0414214,21.2 26.0414214,21.4 26.0414214,21.5 L26.0414214,21.5 C25.8414214,22.4 25.0414214,23.1 24.0414214,23.1 Z" id="Shape"></path>
            </g>
            <path d="M19,0 L71,0 L71,18 L19,18 L19,0 Z M26.6312997,1.98654242 L24,1.98654242 L24,16.5056451 L26.0371353,16.5056451 L26.0371353,10.8515714 L25.8355438,4.77867755 L30.8965517,16.5056451 L32.4562334,16.5056451 L37.5278515,4.74876181 L37.33687,10.8515714 L37.33687,16.5056451 L39.3740053,16.5056451 L39.3740053,1.98654242 L36.7320955,1.98654242 L31.6816976,13.8331729 L26.6312997,1.98654242 Z M48.0848806,13.9628077 L43.6923077,1.98654242 L41.4748011,1.98654242 L47.193634,16.5056451 L48.9973475,16.5056451 L54.7267905,1.98654242 L52.4986737,1.98654242 L48.0848806,13.9628077 Z M62.4615385,10.6321894 L65.8143236,16.5056451 L68,16.5056451 L68,16.3859821 L64.3713528,10.223341 C65.297971,9.89094234 66.0212176,9.38902783 66.5411141,8.71758246 C67.0610106,8.04613708 67.3209549,7.25836398 67.3209549,6.35423951 C67.3209549,4.93157307 66.8523477,3.84796956 65.9151194,3.10339647 C64.977891,2.35882338 63.639266,1.98654242 61.8992042,1.98654242 L56.7851459,1.98654242 L56.7851459,16.5056451 L58.8328912,16.5056451 L58.8328912,10.6321894 L62.4615385,10.6321894 Z" id="Combined-Shape" fill="#009688"></path>
            <path d="M58.8328912,9.06659935 L61.9628647,9.06659935 C62.974364,9.06659935 63.7789537,8.820628 64.3766578,8.32867792 C64.974362,7.83672784 65.2732095,7.17858829 65.2732095,6.35423951 C65.2732095,5.45676302 64.9885086,4.76870803 64.4190981,4.2900539 C63.8496877,3.81139977 63.0274147,3.56875236 61.9522546,3.56210438 L58.8328912,3.56210438 L58.8328912,9.06659935 Z" id="Path" fill="#009688"></path>
        </g>
    </g>
</svg>