<?xml version="1.0" encoding="UTF-8"?>
<svg width="23px" height="28px" viewBox="0 0 23 28" version="1.1" xmlns="http://www.w3.org/2000/svg" xmlns:xlink="http://www.w3.org/1999/xlink">
    <!-- Generator: Sketch 46.2 (44496) - http://www.bohemiancoding.com/sketch -->
    <title>@1xNavigation_Button_Pay_icon</title>
    <desc>Created with Sketch.</desc>
    <defs></defs>
    <g id="Symbols" stroke="none" stroke-width="1" fill="none" fill-rule="evenodd">
        <g id="Navigation_Button_Pay_icon" fill-rule="nonzero">
            <g transform="translate(0.857143, 0.000000)" id="Shape">
                <path d="M10.8571429,27.4285714 C4.87085714,27.4285714 0,23.584 0,18.8571429 C0,15.5817143 7.32457143,7.89714286 8.16,7.032 C8.26742857,6.92 8.416,6.85714286 8.57142857,6.85714286 L13.1428571,6.85714286 C13.2982857,6.85714286 13.4468571,6.92 13.5542857,7.032 C14.3897143,7.89714286 21.7142857,15.5817143 21.7142857,18.8571429 C21.7142857,23.584 16.8434286,27.4285714 10.8571429,27.4285714 Z M8.81485714,8 C6.52571429,10.3977143 1.14285714,16.5302857 1.14285714,18.8571429 C1.14285714,22.9531429 5.50057143,26.2857143 10.8571429,26.2857143 C16.2137143,26.2857143 20.5714286,22.9531429 20.5714286,18.8571429 C20.5714286,16.5302857 15.1885714,10.3977143 12.8994286,8 L8.81485714,8 Z" fill="#F1F2F3"></path>
                <path d="M15.4285714,8 L6.28571429,8 C5.97028571,8 5.71428571,7.744 5.71428571,7.42857143 C5.71428571,7.11314286 5.97028571,6.85714286 6.28571429,6.85714286 L15.4285714,6.85714286 C15.744,6.85714286 16,7.11314286 16,7.42857143 C16,7.744 15.744,8 15.4285714,8 Z" fill="#F1F2F3"></path>
                <path d="M13.1428571,8 L8.57142857,8 C8.44228571,8 8.31542857,7.95542857 8.21485714,7.87542857 C7.72457143,7.48342857 3.416,3.98514286 3.232,1.86971429 C3.19428571,1.44 3.312,1.05828571 3.57142857,0.764571429 C3.73257143,0.581714286 4.03542857,0.363428571 4.56228571,0.363428571 C5.71085714,0.363428571 7.53714286,1.47428571 8.41942857,2.05942857 C9.07085714,1.13371429 10.0365714,0 10.8571429,0 C11.6777143,0 12.6434286,1.13371429 13.2948571,2.05942857 C14.1771429,1.47428571 16.0034286,0.363428571 17.152,0.363428571 C17.6777143,0.363428571 17.9817143,0.581714286 18.1428571,0.764571429 C18.4022857,1.05828571 18.52,1.44 18.4822857,1.86857143 C18.2982857,3.98514286 13.9897143,7.48342857 13.4994286,7.87428571 C13.3988571,7.95542857 13.272,8 13.1428571,8 Z M8.77257143,6.85714286 L12.9405714,6.85714286 C14.6525714,5.464 17.2388571,2.96228571 17.3428571,1.77028571 C17.3577143,1.60342857 17.3062857,1.54628571 17.2845714,1.52114286 L17.2845714,1.52114286 C17.2811429,1.52114286 17.2365714,1.50628571 17.1508571,1.50628571 C16.3177143,1.50628571 14.4537143,2.61942857 13.4742857,3.32114286 C13.3462857,3.41257143 13.1897143,3.44571429 13.0342857,3.41828571 C12.8811429,3.38971429 12.7462857,3.29828571 12.6605714,3.16685714 C12.0114286,2.16342857 11.1428571,1.19771429 10.84,1.14171429 C10.5657143,1.19771429 9.69714286,2.16342857 9.04914286,3.16685714 C8.96457143,3.29828571 8.82971429,3.38857143 8.67542857,3.41828571 C8.52342857,3.44685714 8.36571429,3.41257143 8.23771429,3.32114286 C7.25942857,2.61942857 5.39542857,1.50628571 4.56228571,1.50628571 C4.47428571,1.50628571 4.43085714,1.52114286 4.42171429,1.52685714 C4.40685714,1.54628571 4.35657143,1.60342857 4.37028571,1.77028571 C4.47428571,2.96228571 7.06171429,5.464 8.77257143,6.85714286 Z" fill="#F1F2F3"></path>
                <path d="M10.856,22.8571429 C9.33142857,22.8571429 8.104,21.9417143 8.00228571,20.7291429 C7.976,20.4148571 8.20914286,20.1382857 8.52342857,20.112 C8.84228571,20.0811429 9.11428571,20.3188571 9.14057143,20.6331429 C9.19085714,21.2297143 9.96,21.7142857 10.8548571,21.7142857 C11.7851429,21.7142857 12.5702857,21.1908571 12.5702857,20.5714286 C12.5702857,20.0137143 12.0285714,19.6548571 10.8662857,19.44 L10.7428571,19.4171429 C8.888,19.0754286 8,18.3165714 8,17.1428571 C8,15.8822857 9.28228571,14.8571429 10.8582857,14.8571429 C12.3828571,14.8571429 13.6091429,15.7714286 13.712,16.9851429 C13.7382857,17.2994286 13.5051429,17.576 13.1908571,17.6022857 C12.8857143,17.6422857 12.6,17.3954286 12.5737143,17.0811429 C12.5234286,16.4845714 11.7542857,16 10.8582857,16 C9.928,16 9.14285714,16.5234286 9.14285714,17.1428571 C9.14285714,17.7005714 9.68571429,18.0594286 10.8491429,18.2742857 L10.9748571,18.2982857 C12.8262857,18.64 13.7142857,19.3977143 13.7142857,20.5714286 C13.7142857,21.832 12.432,22.8571429 10.856,22.8571429 Z" fill-opacity="0.8" fill="#8075F2"></path>
                <path d="M10.8571429,24 C10.5417143,24 10.2857143,23.744 10.2857143,23.4285714 L10.2857143,14.2857143 C10.2857143,13.9702857 10.5417143,13.7142857 10.8571429,13.7142857 C11.1725714,13.7142857 11.4285714,13.9702857 11.4285714,14.2857143 L11.4285714,23.4285714 C11.4285714,23.744 11.1725714,24 10.8571429,24 Z" fill-opacity="0.8" fill="#8075F2"></path>
            </g>
        </g>
    </g>
</svg>