<?xml version="1.0" encoding="UTF-8"?>
<svg width="35px" height="28px" viewBox="0 0 35 28" version="1.1" xmlns="http://www.w3.org/2000/svg" xmlns:xlink="http://www.w3.org/1999/xlink">
    <!-- Generator: Sketch 46.2 (44496) - http://www.bohemiancoding.com/sketch -->
    <title>@1xnavigation_off_duty_icon</title>
    <desc>Created with Sketch.</desc>
    <defs></defs>
    <g id="Symbols" stroke="none" stroke-width="1" fill="none" fill-rule="evenodd" opacity="0.8">
        <g id="navigation_off_duty_icon">
            <g id="Shape">
                <path d="M22.1083333,24.9666667 C21.7583333,24.5583333 21.525,23.975 21.175,23.3333333 L16.3916667,22.6333333 C16.625,23.3333333 16.7416667,23.975 16.9166667,24.6166667 C-17.325,27.5333333 59.0916667,29.9833333 26.8333333,25.6083333 C26.8333333,25.55 26.8333333,25.4333333 26.8333333,25.375 L26.5416667,25.55 C26.25,25.55 26.075,25.4333333 25.7833333,25.4333333 L26.8333333,24.9666667 L24.7916667,24.0333333 C24.675,24.5 24.6166667,24.85 24.5,25.3166667 C23.8,25.2 22.9833333,25.1416667 22.1083333,24.9666667 L22.1083333,24.9666667 Z" fill="#F1F2F3"></path>
                <path d="M25.7833333,17.3833333 C25.7833333,17.4416667 25.7833333,17.5 25.7833333,17.6166667 C25.9583333,17.9666667 26.25,18.2 26.5416667,18.2583333 C26.6583333,18.6083333 26.7166667,19.075 26.8916667,19.4833333 C26.8916667,19.4833333 27.1833333,18.9 27.7083333,18.4333333 C27.7083333,18.4916667 27.7083333,18.55 27.7083333,18.55 C27.825,19.0166667 28.2916667,19.25 28.7,19.075 C28.9333333,19.0166667 29.1083333,18.7833333 29.1083333,18.4916667 C29.2833333,18.55 29.4,18.55 29.5166667,18.4916667 C29.575,18.4916667 29.575,18.4916667 29.6916667,18.4916667 C30.7416667,19.4833333 32.0833333,21.0583333 32.55,22.4 C32.7833333,18.55 31.9083333,17.0333333 30.7416667,15.925 C31.7916667,15.75 32.7833333,16.5666667 34.475,18.2583333 C34.475,18.2583333 33.4833333,14.4083333 31.325,13.7083333 C31.675,13.2416667 31.675,11.375 31.9666667,10.7916667 C31.9666667,10.7916667 30.975,12.25 29.8083333,13.1833333 C29.05,11.7833333 27.5916667,11.025 27.5916667,11.025 C27.825,11.7833333 28.2333333,13.0083333 28.1166667,13.825 C27.0083333,13.0083333 24.3833333,11.7833333 21.875,15.4 C24.0333333,14.6416667 24.0333333,14.6416667 25.4333333,15.4 C24.3833333,15.75 22.6333333,17.5583333 22.6333333,21.1166667 C22.575,19.075 24.2666667,17.9083333 25.7833333,17.3833333 L25.7833333,17.3833333 Z" fill="#8075F2"></path>
                <path d="M24.9666667,23.6833333 C24.9666667,23.3916667 25.0833333,23.2166667 25.1416667,22.8666667 L27.125,22.225 C27.0666667,22.9833333 26.95,23.8 26.8916667,24.5583333 L24.9666667,23.6833333 Z" fill="#F1F2F3"></path>
                <path d="M25.3166667,22.4583333 C25.4916667,21.8166667 25.6083333,21.1166667 25.7833333,20.5333333 L27.3,21.4666667 C27.3,21.6416667 27.2416667,21.7 27.2416667,21.8166667 L25.3166667,22.4583333 Z" fill="#F1F2F3"></path>
                <path d="M25.9,20.1833333 C25.9583333,19.95 26.075,19.7166667 26.1333333,19.4833333 C26.1333333,19.4833333 27.7083333,19.8333333 27.7666667,19.7166667 C27.5916667,20.0666667 27.475,20.5333333 27.4166667,21.0583333 L25.9,20.1833333 Z" fill="#F1F2F3"></path>
                <path d="M13.9416667,9.15833333 C13.9416667,9.33333333 13.9416667,9.50833333 13.9416667,9.56666667 C13.9416667,10.15 13.5916667,10.7333333 13.0666667,11.0833333 C13.2416667,11.6666667 13.4166667,12.3083333 13.4166667,13.2416667 C13.4166667,13.2416667 12.6,12.425 11.4916667,11.9 C11.6083333,11.9583333 11.6083333,12.075 11.6083333,12.1333333 C11.6083333,12.8916667 11.025,13.3583333 10.325,13.3583333 C9.91666667,13.3583333 9.45,13.125 9.275,12.775 C9.1,12.95 8.86666667,13.0666667 8.575,13.0666667 C8.51666667,13.0666667 8.45833333,13.0666667 8.34166667,13.0666667 C7.11666667,15.1666667 5.89166667,18.4916667 5.89166667,20.825 C3.38333333,14.7583333 4.08333333,11.8416667 5.30833333,9.50833333 C3.675,9.74166667 2.33333333,11.725 0.583333333,15.1083333 C0.583333333,15.1083333 0.175,8.51666667 3.26666667,6.06666667 C2.50833333,5.65833333 1.4,2.74166667 0.583333333,1.80833333 C0.583333333,1.80833333 3.03333333,3.73333333 5.425,4.43333333 C5.775,1.86666667 7.75833333,0 7.75833333,0 C7.75833333,1.225 7.75833333,3.44166667 8.34166667,4.725 C9.68333333,2.85833333 13.3,-0.583333333 19.1333333,3.73333333 C15.4,3.73333333 15.4,3.73333333 13.4166667,5.6 C15.3416667,5.6 19.1333333,7.525 21,13.2416667 C20.0083333,10.15 16.625,9.275 13.9416667,9.15833333 L13.9416667,9.15833333 Z" fill="#8075F2"></path>
                <path d="M20.7666667,22.575 C20.3,21.5833333 19.6,20.5916667 18.9583333,19.425 L16.2166667,21.9333333 L20.7666667,22.575 Z" fill="#F1F2F3"></path>
                <path d="M18.6083333,18.8416667 C18.375,18.4916667 18.2,18.0833333 17.9666667,17.675 L14.4083333,17.675 C14.9916667,18.9 15.4583333,20.0666667 15.9833333,21.2916667 L18.6083333,18.8416667 Z" fill="#F1F2F3"></path>
                <path d="M17.4416667,17.0333333 C16.8,16.0416667 16.2166667,15.1666667 15.6333333,14.2916667 L13.7083333,16.5666667 C13.825,16.7416667 13.8833333,16.9166667 14.0583333,17.0333333 L17.4416667,17.0333333 Z" fill="#F1F2F3"></path>
                <path d="M15.225,13.7083333 C14.9916667,13.3583333 14.8166667,13.125 14.5833333,12.8916667 C14.5833333,12.8916667 12.3083333,14.1166667 12.1333333,13.9416667 C12.6,14.525 13.0666667,15.225 13.4166667,15.8666667 L15.225,13.7083333 Z" fill="#F1F2F3"></path>
            </g>
        </g>
    </g>
</svg>