<?xml version="1.0" encoding="UTF-8"?>
<svg width="334px" height="136px" viewBox="0 0 334 136" version="1.1" xmlns="http://www.w3.org/2000/svg" xmlns:xlink="http://www.w3.org/1999/xlink">
    <!-- Generator: Sketch 46.2 (44496) - http://www.bohemiancoding.com/sketch -->
    <title>@1xNavigation-lg Sleeping</title>
    <desc>Created with Sketch.</desc>
    <defs>
        <rect id="path-1" x="0" y="0" width="60" height="60" rx="6"></rect>
        <filter x="-13.3%" y="-11.7%" width="136.7%" height="136.7%" filterUnits="objectBoundingBox" id="filter-2">
            <feOffset dx="3" dy="4" in="SourceAlpha" result="shadowOffsetOuter1"></feOffset>
            <feGaussianBlur stdDeviation="3" in="shadowOffsetOuter1" result="shadowBlurOuter1"></feGaussianBlur>
            <feComposite in="shadowBlurOuter1" in2="SourceAlpha" operator="out" result="shadowBlurOuter1"></feComposite>
            <feColorMatrix values="0 0 0 0 0.501960784   0 0 0 0 0.819607843   0 0 0 0 0.956862745  0 0 0 0.5 0" type="matrix" in="shadowBlurOuter1"></feColorMatrix>
        </filter>
        <rect id="path-3" x="0" y="0" width="60" height="60" rx="6"></rect>
        <filter x="-13.3%" y="-11.7%" width="136.7%" height="136.7%" filterUnits="objectBoundingBox" id="filter-4">
            <feOffset dx="3" dy="4" in="SourceAlpha" result="shadowOffsetOuter1"></feOffset>
            <feGaussianBlur stdDeviation="3" in="shadowOffsetOuter1" result="shadowBlurOuter1"></feGaussianBlur>
            <feComposite in="shadowBlurOuter1" in2="SourceAlpha" operator="out" result="shadowBlurOuter1"></feComposite>
            <feColorMatrix values="0 0 0 0 0.501960784   0 0 0 0 0.819607843   0 0 0 0 0.956862745  0 0 0 0.5 0" type="matrix" in="shadowBlurOuter1"></feColorMatrix>
        </filter>
        <rect id="path-5" x="0" y="0" width="60" height="60" rx="6"></rect>
        <filter x="-13.3%" y="-11.7%" width="136.7%" height="136.7%" filterUnits="objectBoundingBox" id="filter-6">
            <feOffset dx="3" dy="4" in="SourceAlpha" result="shadowOffsetOuter1"></feOffset>
            <feGaussianBlur stdDeviation="3" in="shadowOffsetOuter1" result="shadowBlurOuter1"></feGaussianBlur>
            <feComposite in="shadowBlurOuter1" in2="SourceAlpha" operator="out" result="shadowBlurOuter1"></feComposite>
            <feColorMatrix values="0 0 0 0 0.501960784   0 0 0 0 0.819607843   0 0 0 0 0.956862745  0 0 0 0.5 0" type="matrix" in="shadowBlurOuter1"></feColorMatrix>
        </filter>
        <polygon id="path-7" points="9.12771012 9.12771012 18.1910093 9.12771012 18.1910093 18.1910093 9.12771012 18.1910093"></polygon>
        <polygon id="path-8" points="16.3783495 1.87707073 25.4416487 1.87707073 25.4416487 10.94037 16.3783495 10.94037"></polygon>
        <polygon id="path-9" points="30.8796283 16.3783495 39.9429275 16.3783495 39.9429275 25.4416487 30.8796283 25.4416487"></polygon>
        <polygon id="path-10" points="23.6289889 9.12771012 32.6922881 9.12771012 32.6922881 18.1910093 23.6289889 18.1910093"></polygon>
        <polygon id="path-11" points="1.87707073 16.3783495 10.94037 16.3783495 10.94037 25.4416487 1.87707073 25.4416487"></polygon>
        <polygon id="path-12" points="16.3783495 16.3783495 25.4416487 16.3783495 25.4416487 25.4416487 16.3783495 25.4416487"></polygon>
        <rect id="path-13" x="0" y="0" width="60" height="60" rx="6"></rect>
        <filter x="-13.3%" y="-11.7%" width="136.7%" height="136.7%" filterUnits="objectBoundingBox" id="filter-14">
            <feOffset dx="3" dy="4" in="SourceAlpha" result="shadowOffsetOuter1"></feOffset>
            <feGaussianBlur stdDeviation="3" in="shadowOffsetOuter1" result="shadowBlurOuter1"></feGaussianBlur>
            <feComposite in="shadowBlurOuter1" in2="SourceAlpha" operator="out" result="shadowBlurOuter1"></feComposite>
            <feColorMatrix values="0 0 0 0 0.501960784   0 0 0 0 0.819607843   0 0 0 0 0.956862745  0 0 0 0.5 0" type="matrix" in="shadowBlurOuter1"></feColorMatrix>
        </filter>
        <rect id="path-15" x="0" y="0" width="60" height="60" rx="6"></rect>
        <filter x="-13.3%" y="-11.7%" width="136.7%" height="136.7%" filterUnits="objectBoundingBox" id="filter-16">
            <feOffset dx="3" dy="4" in="SourceAlpha" result="shadowOffsetOuter1"></feOffset>
            <feGaussianBlur stdDeviation="3" in="shadowOffsetOuter1" result="shadowBlurOuter1"></feGaussianBlur>
            <feComposite in="shadowBlurOuter1" in2="SourceAlpha" operator="out" result="shadowBlurOuter1"></feComposite>
            <feColorMatrix values="0 0 0 0 0.501960784   0 0 0 0 0.819607843   0 0 0 0 0.956862745  0 0 0 0.5 0" type="matrix" in="shadowBlurOuter1"></feColorMatrix>
        </filter>
        <rect id="path-17" x="0" y="0" width="60" height="60" rx="6"></rect>
        <filter x="-13.3%" y="-11.7%" width="136.7%" height="136.7%" filterUnits="objectBoundingBox" id="filter-18">
            <feOffset dx="3" dy="4" in="SourceAlpha" result="shadowOffsetOuter1"></feOffset>
            <feGaussianBlur stdDeviation="3" in="shadowOffsetOuter1" result="shadowBlurOuter1"></feGaussianBlur>
            <feComposite in="shadowBlurOuter1" in2="SourceAlpha" operator="out" result="shadowBlurOuter1"></feComposite>
            <feColorMatrix values="0 0 0 0 0.501960784   0 0 0 0 0.819607843   0 0 0 0 0.956862745  0 0 0 0.5 0" type="matrix" in="shadowBlurOuter1"></feColorMatrix>
        </filter>
        <rect id="path-19" x="0" y="0" width="60" height="60" rx="6"></rect>
        <filter x="-13.3%" y="-11.7%" width="136.7%" height="136.7%" filterUnits="objectBoundingBox" id="filter-20">
            <feOffset dx="3" dy="4" in="SourceAlpha" result="shadowOffsetOuter1"></feOffset>
            <feGaussianBlur stdDeviation="3" in="shadowOffsetOuter1" result="shadowBlurOuter1"></feGaussianBlur>
            <feComposite in="shadowBlurOuter1" in2="SourceAlpha" operator="out" result="shadowBlurOuter1"></feComposite>
            <feColorMatrix values="0 0 0 0 0.501960784   0 0 0 0 0.819607843   0 0 0 0 0.956862745  0 0 0 0.5 0" type="matrix" in="shadowBlurOuter1"></feColorMatrix>
        </filter>
        <rect id="path-21" x="0" y="0" width="60" height="60" rx="6"></rect>
        <filter x="-13.3%" y="-11.7%" width="136.7%" height="136.7%" filterUnits="objectBoundingBox" id="filter-22">
            <feOffset dx="3" dy="4" in="SourceAlpha" result="shadowOffsetOuter1"></feOffset>
            <feGaussianBlur stdDeviation="3" in="shadowOffsetOuter1" result="shadowBlurOuter1"></feGaussianBlur>
            <feComposite in="shadowBlurOuter1" in2="SourceAlpha" operator="out" result="shadowBlurOuter1"></feComposite>
            <feColorMatrix values="0 0 0 0 0.501960784   0 0 0 0 0.819607843   0 0 0 0 0.956862745  0 0 0 0.5 0" type="matrix" in="shadowBlurOuter1"></feColorMatrix>
        </filter>
    </defs>
    <g id="Symbols" stroke="none" stroke-width="1" fill="none" fill-rule="evenodd">
        <g id="Navigation-lg-Sleeping">
            <g id="Status" transform="translate(274.000000, 75.000000)">
                <g id="Rectangle">
                    <use fill="black" fill-opacity="1" filter="url(#filter-2)" xlink:href="#path-1"></use>
                    <use fill-opacity="0.2" fill="#80D1F4" fill-rule="evenodd" xlink:href="#path-1"></use>
                </g>
                <text id="Driving" font-family="Roboto-Regular, Roboto" font-size="10" font-weight="normal" fill="#80D1F4">
                    <tspan x="11.4399414" y="54">Sleeping</tspan>
                </text>
                <g id="navigation_sleep_icon" transform="translate(16.000000, 10.000000)">
                    <g>
                        <g id="Group" fill-opacity="0.8" fill-rule="nonzero" fill="#8075F2">
                            <path d="M10.8266667,10.2666667 C10.7333333,10.2666667 10.64,10.2666667 10.5466667,10.1733333 C10.36,10.08 10.36,9.89333333 10.36,9.70666667 L10.92,6.44 L8.77333333,4.29333333 C8.68,4.2 8.58666667,4.01333333 8.68,3.82666667 C8.77333333,3.64 8.86666667,3.54666667 9.05333333,3.54666667 L12.32,2.98666667 L13.3466667,0.28 C13.5333333,-0.0933333333 14.0933333,-0.0933333333 14.1866667,0.28 L15.2133333,2.98666667 L18.48,3.54666667 C18.6666667,3.54666667 18.76,3.73333333 18.8533333,3.82666667 C18.9466667,4.01333333 18.8533333,4.2 18.76,4.29333333 L16.52,6.44 L17.1733333,9.70666667 C17.1733333,9.89333333 17.1733333,10.08 16.9866667,10.1733333 C16.8,10.2666667 16.6133333,10.2666667 16.52,10.1733333 L13.8133333,8.58666667 L11.1066667,10.1733333 C11.0133333,10.2666667 10.92,10.2666667 10.8266667,10.2666667 Z M10.08,4.29333333 L11.76,5.97333333 C11.8533333,6.06666667 11.9466667,6.25333333 11.8533333,6.34666667 L11.48,8.86666667 L13.5333333,7.65333333 C13.72,7.56 13.9066667,7.56 14,7.65333333 L16.0533333,8.86666667 L15.5866667,6.34666667 C15.5866667,6.16 15.5866667,6.06666667 15.68,5.88 L17.4533333,4.2 L14.84,3.73333333 C14.6533333,3.73333333 14.56,3.64 14.4666667,3.45333333 L13.72,1.58666667 L12.9733333,3.45333333 C12.88,3.64 12.7866667,3.73333333 12.6,3.73333333 L10.08,4.29333333 Z" id="Shape"></path>
                            <path d="M25.48,10.2666667 C25.3866667,10.2666667 25.2933333,10.2666667 25.2,10.1733333 L23.1466667,8.58666667 L21.0933333,10.1733333 C20.9066667,10.2666667 20.72,10.2666667 20.5333333,10.1733333 C20.3466667,10.08 20.2533333,9.89333333 20.3466667,9.70666667 L20.9066667,7 L19.32,5.41333333 C19.2266667,5.32 19.1333333,5.04 19.2266667,4.94666667 C19.2266667,4.76 19.4133333,4.66666667 19.6,4.66666667 L21.6533333,4.66666667 L22.68,2.61333333 C22.8666667,2.33333333 23.3333333,2.33333333 23.52,2.61333333 L24.5466667,4.66666667 L26.6,4.66666667 C26.7866667,4.66666667 26.9733333,4.76 27.0666667,4.94666667 C27.16,5.13333333 27.0666667,5.32 26.9733333,5.41333333 L25.3866667,7 L25.9466667,9.70666667 C25.9466667,9.89333333 25.9466667,10.08 25.76,10.1733333 C25.5733333,10.2666667 25.48,10.2666667 25.48,10.2666667 Z M23.1466667,7.56 C23.24,7.56 23.3333333,7.56 23.4266667,7.65333333 L24.8266667,8.68 L24.4533333,7 C24.4533333,6.81333333 24.4533333,6.72 24.5466667,6.53333333 L25.48,5.6 L24.2666667,5.6 C24.08,5.6 23.8933333,5.50666667 23.8933333,5.32 L23.1466667,3.82666667 L22.4,5.32 C22.3066667,5.50666667 22.12,5.6 21.9333333,5.6 L20.72,5.6 L21.6533333,6.53333333 C21.7466667,6.62666667 21.84,6.81333333 21.7466667,7 L21.4666667,8.68 L22.8666667,7.65333333 C22.8666667,7.56 22.96,7.56 23.1466667,7.56 Z" id="Shape"></path>
                            <path d="M6.81333333,10.2666667 C6.62666667,10.2666667 6.53333333,10.2666667 6.53333333,10.1733333 L4.48,8.58666667 L2.42666667,10.1733333 C2.24,10.2666667 2.05333333,10.2666667 1.86666667,10.1733333 C1.68,10.08 1.58666667,9.89333333 1.68,9.70666667 L2.24,7 L0.56,5.41333333 C0.466666667,5.32 0.466666667,5.13333333 0.466666667,4.94666667 C0.56,4.76 0.746666667,4.66666667 0.933333333,4.66666667 L2.98666667,4.66666667 L4.01333333,2.61333333 C4.2,2.33333333 4.66666667,2.33333333 4.85333333,2.61333333 L5.88,4.66666667 L7.93333333,4.66666667 C8.12,4.66666667 8.30666667,4.76 8.4,4.94666667 C8.4,5.13333333 8.4,5.32 8.30666667,5.41333333 L6.72,7 L7.28,9.70666667 C7.28,9.89333333 7.28,10.08 7.09333333,10.1733333 C6.90666667,10.2666667 6.81333333,10.2666667 6.81333333,10.2666667 Z M4.48,7.56 C4.57333333,7.56 4.66666667,7.56 4.76,7.65333333 L6.16,8.68 L5.69333333,7 C5.69333333,6.81333333 5.69333333,6.72 5.78666667,6.53333333 L6.72,5.6 L5.6,5.6 C5.41333333,5.6 5.22666667,5.50666667 5.22666667,5.32 L4.48,3.82666667 L3.64,5.32 C3.64,5.50666667 3.45333333,5.6 3.26666667,5.6 L2.05333333,5.6 L2.98666667,6.53333333 C3.08,6.62666667 3.17333333,6.81333333 3.08,7 L2.8,8.68 L4.2,7.65333333 C4.2,7.56 4.29333333,7.56 4.48,7.56 Z" id="Shape"></path>
                        </g>
                        <path d="M27.0666667,28 L24.2666667,28 C23.9866667,28 23.8,27.8133333 23.8,27.5333333 L23.8,24.2666667 L4.2,24.2666667 L4.2,27.5333333 C4.2,27.8133333 4.01333333,28 3.73333333,28 L0.933333333,28 C0.653333333,28 0.466666667,27.8133333 0.466666667,27.5333333 L0.466666667,13.0666667 C0.466666667,12.04 1.30666667,11.2 2.33333333,11.2 C3.36,11.2 4.2,12.04 4.2,13.0666667 L4.2,20.5333333 L23.8,20.5333333 L23.8,15.8666667 C23.8,14.84 24.64,14 25.6666667,14 C26.6933333,14 27.5333333,14.84 27.5333333,15.8666667 L27.5333333,27.5333333 C27.5333333,27.8133333 27.3466667,28 27.0666667,28 Z M24.7333333,27.0666667 L26.6,27.0666667 L26.6,15.8666667 C26.6,15.3066667 26.2266667,14.9333333 25.6666667,14.9333333 C25.1066667,14.9333333 24.7333333,15.3066667 24.7333333,15.8666667 L24.7333333,21 C24.7333333,21.28 24.5466667,21.4666667 24.2666667,21.4666667 L3.73333333,21.4666667 C3.45333333,21.4666667 3.26666667,21.28 3.26666667,21 L3.26666667,13.0666667 C3.26666667,12.5066667 2.89333333,12.1333333 2.33333333,12.1333333 C1.77333333,12.1333333 1.4,12.5066667 1.4,13.0666667 L1.4,27.0666667 L3.26666667,27.0666667 L3.26666667,23.8 C3.26666667,23.52 3.45333333,23.3333333 3.73333333,23.3333333 L24.2666667,23.3333333 C24.5466667,23.3333333 24.7333333,23.52 24.7333333,23.8 L24.7333333,27.0666667 Z" id="Shape" fill="#F1F2F3" fill-rule="nonzero"></path>
                        <path d="M7.93333333,19.6 L5.6,19.6 C5.32,19.6 5.13333333,19.4133333 5.13333333,19.1333333 C5.13333333,18.8533333 5.32,18.6666667 5.6,18.6666667 L7.93333333,18.6666667 C8.96,18.6666667 9.8,17.8266667 9.8,16.8 L9.8,15.4 C9.8,15.12 9.98666667,14.9333333 10.2666667,14.9333333 C10.5466667,14.9333333 10.7333333,15.12 10.7333333,15.4 L10.7333333,16.8 C10.7333333,18.2933333 9.52,19.6 7.93333333,19.6 Z" id="Shape" fill="#F1F2F3" fill-rule="nonzero"></path>
                        <path d="M22.4,19.6 L12.1333333,19.6 C11.8533333,19.6 11.6666667,19.4133333 11.6666667,19.1333333 L11.6666667,15.4 C11.6666667,15.12 11.8533333,14.9333333 12.1333333,14.9333333 L20.0666667,14.9333333 C21.6533333,14.9333333 22.8666667,16.1466667 22.8666667,17.7333333 L22.8666667,19.1333333 C22.8666667,19.4133333 22.68,19.6 22.4,19.6 Z M12.6,18.6666667 L21.9333333,18.6666667 L21.9333333,17.7333333 C21.9333333,16.7066667 21.0933333,15.8666667 20.0666667,15.8666667 L12.6,15.8666667 L12.6,18.6666667 Z" id="Shape" fill="#F1F2F3" fill-rule="nonzero"></path>
                        <path d="M7,17.7333333 C5.97333333,17.7333333 5.13333333,16.8933333 5.13333333,15.8666667 C5.13333333,14.84 5.97333333,14 7,14 C8.02666667,14 8.86666667,14.84 8.86666667,15.8666667 C8.86666667,16.8933333 8.02666667,17.7333333 7,17.7333333 Z M7,14.9333333 C6.44,14.9333333 6.06666667,15.3066667 6.06666667,15.8666667 C6.06666667,16.4266667 6.44,16.8 7,16.8 C7.56,16.8 7.93333333,16.4266667 7.93333333,15.8666667 C7.93333333,15.3066667 7.56,14.9333333 7,14.9333333 Z" id="Shape" fill="#F1F2F3" fill-rule="nonzero"></path>
                    </g>
                </g>
            </g>
            <g id="Maintenance" transform="translate(0.000000, 75.000000)">
                <g id="Rectangle">
                    <use fill="black" fill-opacity="1" filter="url(#filter-4)" xlink:href="#path-3"></use>
                    <use fill-opacity="0.2" fill="#80D1F4" fill-rule="evenodd" xlink:href="#path-3"></use>
                </g>
                <text id="Maintence" font-family="Roboto-Regular, Roboto" font-size="10" font-weight="normal" fill="#80D1F4">
                    <tspan x="7.13574219" y="54">Maintence</tspan>
                </text>
                <g id="Navigation_Button_Maintenance_icon" transform="translate(16.000000, 10.000000)" fill-rule="nonzero">
                    <g id="Group">
                        <path d="M3.30001294,27.1085401 C2.44247946,27.1085401 1.63916306,26.7760086 1.03464261,26.1714882 L0.930726542,26.063054 C0.332531425,25.4648589 0,24.6615425 0,23.8085271 C0,22.9509936 0.332531425,22.1485808 0.93614825,21.5440604 L8.79220316,14.4560808 C8.87533601,14.3810805 8.98286656,14.3395141 9.09491519,14.3395141 L9.09491519,14.3395141 C9.09581881,14.3395141 9.09581881,14.3395141 9.09672242,14.3395141 C9.58286891,14.3395141 10.0410032,14.1497543 10.3861853,13.8045722 C10.5623908,13.6283667 10.8488377,13.6283667 11.0250432,13.8045722 C11.2012487,13.9807777 11.2012487,14.2672246 11.0250432,14.4434301 C10.552451,14.916926 9.93618355,15.1952403 9.27473517,15.2368067 L1.55783744,22.1982798 C1.14849848,22.609426 0.903618002,23.2003922 0.903618002,23.804009 C0.903618002,24.4211801 1.14217315,24.9967848 1.57500618,25.4305214 L1.67892225,25.5389556 C2.53284126,26.391971 4.06537739,26.3901637 4.92200726,25.5335339 C10.2407028,19.7919451 11.6114913,18.313626 11.9693241,17.9277812 C12.0126977,17.26814 12.2901084,16.6536798 12.7627007,16.1810876 C12.9389062,16.004882 13.2253531,16.004882 13.4015586,16.1810876 C13.5777641,16.3572931 13.5777641,16.64374 13.4015586,16.8199455 C13.0563765,17.1651276 12.8666167,17.6241655 12.8666167,18.1121192 C12.8666167,18.233204 12.8178214,18.3488671 12.7319776,18.4338072 C12.6181218,18.554892 5.57351583,26.1597412 5.57351583,26.1597412 C4.96628454,26.7669724 4.14218492,27.1085401 3.30001294,27.1085401 Z" id="Shape" fill-opacity="0.8" fill="#8075F2"></path>
                        <path d="M16.1178343,13.1512564 C16.0021712,13.1512564 15.8865081,13.1069791 15.7979535,13.0193282 C15.621748,12.8431227 15.621748,12.5566758 15.7979535,12.3804702 L22.349184,5.82923973 C22.4341241,5.74429964 22.5488836,5.6973115 22.6690648,5.6973115 L24.0994921,5.6973115 L26.1073313,1.68072948 L25.4287142,1.00211236 L21.4121322,3.00995156 L21.4121322,4.44037886 C21.4121322,4.56056005 21.3642404,4.67531954 21.2802039,4.76025963 L14.7289734,11.3114901 C14.5527679,11.4876957 14.266321,11.4876957 14.0901155,11.3114901 C13.91391,11.1352846 13.91391,10.8488377 14.0901155,10.6726322 L20.5094178,4.25332993 L20.5094178,2.72982998 C20.5094178,2.55904618 20.6061049,2.40272027 20.7588164,2.32591274 L25.3166656,0.0478917541 C25.4910638,-0.0388555741 25.7007032,-0.00542170801 25.8380531,0.132831846 L26.9775154,1.27229415 C27.1148654,1.40964408 27.1482992,1.62018708 27.0624555,1.79368173 L24.7844346,6.35062732 C24.707627,6.50333876 24.5513011,6.60002588 24.3805173,6.60002588 L22.857921,6.60002588 L16.4386187,13.0193282 C16.3491605,13.1069791 16.2334974,13.1512564 16.1178343,13.1512564 Z" id="Shape" fill="#F1F2F3"></path>
                    </g>
                    <path d="M24.9470858,27.1085401 C24.1808177,27.1085401 23.4615378,26.8103461 22.9202706,26.2690789 L8.49400922,11.4389003 C8.03226042,10.9654045 7.35183606,10.7774519 6.71297814,10.9491393 C6.18255437,11.091911 5.8229144,11.1578751 5.57803392,11.1578751 C4.04820865,11.1578751 2.56808236,10.5190172 1.51807824,9.40575978 C0.454519855,8.27533366 -0.0813256202,6.79701461 0.010843416,5.24279165 C0.019879596,5.09098382 0.104819688,4.95363389 0.235844298,4.87772997 C0.377712325,4.79640435 0.576508285,4.78465732 0.716569075,4.86959741 L3.8900755,6.77261692 L3.90905148,6.76267713 C4.93646514,6.2494221 5.60152799,5.25182783 5.6873717,4.12049809 L2.14247828,1.99338131 C2.01506814,1.9174774 1.93464614,1.78464555 1.92380273,1.63735582 C1.91386293,1.48916247 1.97621257,1.34639082 2.09006844,1.25422179 C3.07320482,0.460845181 4.23796843,0.0280121581 5.45965997,0.000903618002 C6.82321953,-0.012650652 8.17412844,0.542170801 9.24220492,1.60844004 C10.6301622,2.99549368 11.1687185,4.74670536 10.8416088,6.81418335 C10.7476325,7.41057123 10.942814,8.0114772 11.3666108,8.42262339 L26.2645608,22.9148489 C26.8103461,23.4597306 27.1085401,24.1799141 27.1085401,24.9461822 C27.1085401,26.1389579 26.1389579,27.1085401 24.9470858,27.1085401 Z M7.18557035,9.98226807 C7.91207922,9.98226807 8.62141935,10.2732331 9.14190332,10.8090785 L23.5636466,25.6347391 C23.9296119,26.0007044 24.4229874,26.2049221 24.9470858,26.2049221 C25.6410644,26.2049221 26.2049221,25.6410644 26.2049221,24.9479894 C26.2049221,24.4220837 25.9998008,23.9287083 25.6293174,23.5582249 L10.7358855,9.0705175 C10.1024493,8.45515364 9.80877341,7.55876458 9.94793058,6.67321894 C10.2280522,4.90754937 9.77533954,3.4183869 8.60334699,2.24729797 C7.71237965,1.35723424 6.64249593,0.867473282 5.47863594,0.90452162 C4.67441592,0.921690362 3.89911168,1.15120933 3.20151858,1.57500618 L6.38044671,3.48254378 C6.51689303,3.5638694 6.60002588,3.71115913 6.60002588,3.8701959 C6.60002588,5.44791293 5.72261281,6.86568958 4.3120651,7.57231885 L4.0707991,7.69250005 C3.93254554,7.75936778 3.76808707,7.75394607 3.63706246,7.67533131 L0.926208452,6.04972252 C1.02651005,7.07171448 1.45753584,8.02412786 2.17591215,8.78587783 C3.06868673,9.7328695 4.276824,10.2542571 5.57893754,10.2542571 C5.66839573,10.2542571 5.90333641,10.2316666 6.47894107,10.0762443 C6.71207452,10.0129911 6.94972605,9.98226807 7.18557035,9.98226807 Z" id="Shape" fill="#F1F2F3"></path>
                </g>
            </g>
            <g id="Hazmat" transform="translate(91.000000, 75.000000)">
                <g id="Rectangle">
                    <use fill="black" fill-opacity="1" filter="url(#filter-6)" xlink:href="#path-5"></use>
                    <use fill-opacity="0.2" fill="#80D1F4" fill-rule="evenodd" xlink:href="#path-5"></use>
                </g>
                <text font-family="Roboto-Regular, Roboto" font-size="10" font-weight="normal" fill="#80D1F4">
                    <tspan x="13.0024414" y="54">Hazmat</tspan>
                </text>
                <g id="Hazard-Navigation-Icon" opacity="0.8" transform="translate(9.000000, 10.000000)">
                    <g id="Hazard">
                        <g id="Shape" fill-rule="nonzero" transform="translate(13.659360, 13.659360) rotate(45.000000) translate(-13.659360, -13.659360) ">
                            <use fill="#F1F2F3" fill-rule="evenodd" xlink:href="#path-7"></use>
                            <path stroke-opacity="0.8" stroke="#8075F2" stroke-width="1" d="M9.62771012,9.62771012 L9.62771012,17.6910093 L17.6910093,17.6910093 L17.6910093,9.62771012 L9.62771012,9.62771012 Z"></path>
                        </g>
                        <g id="Shape" fill-rule="nonzero" transform="translate(20.909999, 6.408720) rotate(45.000000) translate(-20.909999, -6.408720) ">
                            <use fill="#F1F2F3" fill-rule="evenodd" xlink:href="#path-8"></use>
                            <path stroke-opacity="0.8" stroke="#8075F2" stroke-width="1" d="M16.8783495,2.37707073 L16.8783495,10.44037 L24.9416487,10.44037 L24.9416487,2.37707073 L16.8783495,2.37707073 Z"></path>
                        </g>
                        <g id="Shape" fill-rule="nonzero" transform="translate(35.411278, 20.909999) rotate(45.000000) translate(-35.411278, -20.909999) ">
                            <use fill="#F1F2F3" fill-rule="evenodd" xlink:href="#path-9"></use>
                            <path stroke-opacity="0.8" stroke="#8075F2" stroke-width="1" d="M31.3796283,16.8783495 L31.3796283,24.9416487 L39.4429275,24.9416487 L39.4429275,16.8783495 L31.3796283,16.8783495 Z"></path>
                        </g>
                        <g id="Shape" fill-rule="nonzero" transform="translate(28.160639, 13.659360) rotate(45.000000) translate(-28.160639, -13.659360) ">
                            <use fill="#F1F2F3" fill-rule="evenodd" xlink:href="#path-10"></use>
                            <path stroke-opacity="0.8" stroke="#8075F2" stroke-width="1" d="M24.1289889,9.62771012 L24.1289889,17.6910093 L32.1922881,17.6910093 L32.1922881,9.62771012 L24.1289889,9.62771012 Z"></path>
                        </g>
                        <g id="Shape" fill-rule="nonzero" transform="translate(6.408720, 20.909999) rotate(45.000000) translate(-6.408720, -20.909999) ">
                            <use fill="#F1F2F3" fill-rule="evenodd" xlink:href="#path-11"></use>
                            <path stroke-opacity="0.8" stroke="#8075F2" stroke-width="1" d="M2.37707073,16.8783495 L2.37707073,24.9416487 L10.44037,24.9416487 L10.44037,16.8783495 L2.37707073,16.8783495 Z"></path>
                        </g>
                        <g id="Shape" fill-rule="nonzero" transform="translate(20.909999, 20.909999) rotate(45.000000) translate(-20.909999, -20.909999) ">
                            <use fill="#F1F2F3" fill-rule="evenodd" xlink:href="#path-12"></use>
                            <path stroke-opacity="0.8" stroke="#8075F2" stroke-width="1" d="M16.8783495,16.8783495 L16.8783495,24.9416487 L24.9416487,24.9416487 L24.9416487,16.8783495 L16.8783495,16.8783495 Z"></path>
                        </g>
                    </g>
                </g>
            </g>
            <g id="Log">
                <g id="Rectangle">
                    <use fill="black" fill-opacity="1" filter="url(#filter-14)" xlink:href="#path-13"></use>
                    <use fill-opacity="0.2" fill="#80D1F4" fill-rule="evenodd" xlink:href="#path-13"></use>
                </g>
                <text id="eLog" font-family="Roboto-Regular, Roboto" font-size="10" font-weight="normal" fill="#80D1F4">
                    <tspan x="19.0039062" y="54">eLog</tspan>
                </text>
                <g id="Navigation_Button_eLog_icon" transform="translate(18.000000, 10.000000)">
                    <path d="M17.0769231,21.6 C17.3316923,21.6 17.5384615,21.3984 17.5384615,21.15 C17.5384615,20.9016 17.3316923,20.7 17.0769231,20.7 L11.5384615,20.7 C11.2836923,20.7 11.0769231,20.9016 11.0769231,21.15 C11.0769231,21.3984 11.2836923,21.6 11.5384615,21.6 L17.0769231,21.6 Z M18.9230769,23.4 L9.69230769,23.4 C9.43753846,23.4 9.23076923,23.6016 9.23076923,23.85 C9.23076923,24.0984 9.43753846,24.3 9.69230769,24.3 L18.9230769,24.3 C19.1778462,24.3 19.3846154,24.0984 19.3846154,23.85 C19.3846154,23.6016 19.1778462,23.4 18.9230769,23.4 Z M18.9230769,18 L9.69230769,18 C9.43753846,18 9.23076923,18.2016 9.23076923,18.45 C9.23076923,18.6984 9.43753846,18.9 9.69230769,18.9 L18.9230769,18.9 C19.1778462,18.9 19.3846154,18.6984 19.3846154,18.45 C19.3846154,18.2016 19.1778462,18 18.9230769,18 Z M22.6153846,0 L3.23076923,0 C2.46738462,0 1.84615385,0.6057 1.84615385,1.35 L1.84615385,4.5 L0.461538462,4.5 C0.206769231,4.5 0,4.7016 0,4.95 C0,5.1984 0.206769231,5.4 0.461538462,5.4 L1.84615385,5.4 L1.84615385,9.9 L0.461538462,9.9 C0.206769231,9.9 0,10.1016 0,10.35 C0,10.5984 0.206769231,10.8 0.461538462,10.8 L1.84615385,10.8 L1.84615385,16.2 L0.461538462,16.2 C0.206769231,16.2 0,16.4016 0,16.65 C0,16.8984 0.206769231,17.1 0.461538462,17.1 L1.84615385,17.1 L1.84615385,21.6 L0.461538462,21.6 C0.206769231,21.6 0,21.8016 0,22.05 C0,22.2984 0.206769231,22.5 0.461538462,22.5 L1.84615385,22.5 L1.84615385,25.65 C1.84615385,26.3943 2.46738462,27 3.23076923,27 L22.6153846,27 C23.3787692,27 24,26.3943 24,25.65 L24,1.35 C24,0.6057 23.3787692,0 22.6153846,0 Z M23.0769231,25.65 C23.0769231,25.8984 22.8692308,26.1 22.6153846,26.1 L3.23076923,26.1 C2.97692308,26.1 2.76923077,25.8984 2.76923077,25.65 L2.76923077,22.5 L3.77723077,22.5 C3.96830769,23.0229 4.476,23.4 5.07692308,23.4 C5.84030769,23.4 6.46153846,22.7943 6.46153846,22.05 C6.46153846,21.3057 5.84030769,20.7 5.07692308,20.7 C4.476,20.7 3.96830769,21.0771 3.77723077,21.6 L2.76923077,21.6 L2.76923077,17.1 L3.77723077,17.1 C3.96830769,17.6229 4.476,18 5.07692308,18 C5.84030769,18 6.46153846,17.3943 6.46153846,16.65 C6.46153846,15.9057 5.84030769,15.3 5.07692308,15.3 C4.476,15.3 3.96830769,15.6771 3.77723077,16.2 L2.76923077,16.2 L2.76923077,10.8 L3.77723077,10.8 C3.96830769,11.3229 4.476,11.7 5.07692308,11.7 C5.84030769,11.7 6.46153846,11.0943 6.46153846,10.35 C6.46153846,9.6057 5.84030769,9 5.07692308,9 C4.476,9 3.96830769,9.3771 3.77723077,9.9 L2.76923077,9.9 L2.76923077,5.4 L3.77723077,5.4 C3.96830769,5.9229 4.476,6.3 5.07692308,6.3 C5.84030769,6.3 6.46153846,5.6943 6.46153846,4.95 C6.46153846,4.2057 5.84030769,3.6 5.07692308,3.6 C4.476,3.6 3.96830769,3.9771 3.77723077,4.5 L2.76923077,4.5 L2.76923077,1.35 C2.76923077,1.1016 2.97692308,0.9 3.23076923,0.9 L22.6153846,0.9 C22.8692308,0.9 23.0769231,1.1016 23.0769231,1.35 L23.0769231,25.65 Z M4.61538462,22.05 C4.61538462,21.8016 4.82307692,21.6 5.07692308,21.6 C5.33076923,21.6 5.53846154,21.8016 5.53846154,22.05 C5.53846154,22.2984 5.33076923,22.5 5.07692308,22.5 C4.82307692,22.5 4.61538462,22.2984 4.61538462,22.05 Z M4.61538462,16.65 C4.61538462,16.4016 4.82307692,16.2 5.07692308,16.2 C5.33076923,16.2 5.53846154,16.4016 5.53846154,16.65 C5.53846154,16.8984 5.33076923,17.1 5.07692308,17.1 C4.82307692,17.1 4.61538462,16.8984 4.61538462,16.65 Z M4.61538462,10.35 C4.61538462,10.1016 4.82307692,9.9 5.07692308,9.9 C5.33076923,9.9 5.53846154,10.1016 5.53846154,10.35 C5.53846154,10.5984 5.33076923,10.8 5.07692308,10.8 C4.82307692,10.8 4.61538462,10.5984 4.61538462,10.35 Z M4.61538462,4.95 C4.61538462,4.7016 4.82307692,4.5 5.07692308,4.5 C5.33076923,4.5 5.53846154,4.7016 5.53846154,4.95 C5.53846154,5.1984 5.33076923,5.4 5.07692308,5.4 C4.82307692,5.4 4.61538462,5.1984 4.61538462,4.95 Z" id="Shape" fill="#F1F2F3" fill-rule="nonzero"></path>
                    <path d="M17.7825987,12.6981538 C19.0879298,13.0249231 20,14.1926154 20,15.5375385 C20,15.7923077 19.7932149,15.9990769 19.538426,15.9990769 L8.46157397,16 C8.33879529,16 8.2215555,15.9510769 8.1347796,15.8652308 C8.04800369,15.7793846 8,15.6612308 8,15.5384615 C8,14.1926154 8.91207016,13.024 10.2174013,12.6972308 L11.9335333,12.268 L12.0396954,11.8415385 C11.6178168,11.3707692 11.3205631,10.768 11.201477,10.1467692 C10.8672975,10.0193846 10.6420494,9.73692308 10.5995846,9.39353846 L10.4786522,8.43076923 C10.4454189,8.16123077 10.5294253,7.89169231 10.708516,7.68861538 C10.7805216,7.60738462 10.8663743,7.53907692 10.9586891,7.48738462 C10.926379,7.19384615 10.889453,6.81815385 10.889453,6.62707692 C10.889453,5.65969231 11.1756289,4.55015385 13.3717978,4.48276923 C14.1306254,4 14.9199169,4 15.2670205,4 C16.4237249,4 16.9979229,4.50584615 17.2767136,4.93138462 C17.8536811,5.81384615 17.4927302,6.42030769 17.2268636,6.70369231 L17.1013155,6.82923077 L17.0680822,7.50584615 C17.1530118,7.55569231 17.2305562,7.62030769 17.2960997,7.696 C17.4714978,7.89723077 17.553658,8.16492308 17.5213478,8.43076923 L17.4004154,9.39446154 C17.3588738,9.72769231 17.1465497,10.0027692 16.8557581,10.1356923 C16.7348258,10.7827692 16.4200323,11.4067692 15.9713824,11.8876923 L16.0664667,12.2689231 L17.7825987,12.6981538 Z M8.97669051,15.076 L19.0242326,15.0769231 C18.8543734,14.3587692 18.2995615,13.7781538 17.5591969,13.5926154 L15.5744288,13.096 C15.4082622,13.0553846 15.2799446,12.9252308 15.238403,12.76 L15.0122317,11.8553846 C14.9706901,11.6892308 15.0251558,11.5138462 15.151627,11.4003077 C15.6150473,10.9849231 15.9326102,10.3424615 15.981537,9.72307692 C16.0009231,9.48307692 16.2003231,9.29846154 16.4412647,9.29846154 L16.605585,8.31723077 C16.4800369,8.31538462 16.3507962,8.25261538 16.2649435,8.16123077 C16.1790907,8.06984615 16.1237018,7.93692308 16.1301639,7.81230769 L16.1883222,6.60676923 C16.1938611,6.49230769 16.2418648,6.38338462 16.3231018,6.30215385 L16.5649665,6.06123077 C16.6397415,5.98092308 16.7699054,5.84246154 16.5040388,5.43630769 C16.2778675,5.09107692 15.8726056,4.92307692 15.2670205,4.92307692 C14.9660743,4.92307692 14.3392569,4.92307692 13.7872144,5.31815385 C13.7105931,5.37353846 13.6173552,5.404 13.5231941,5.40492308 C11.812601,5.42153846 11.812601,6.03538462 11.812601,6.62892308 C11.812601,6.82830769 11.8799908,7.43753846 11.9224556,7.77538462 C11.9390722,7.90738462 11.8984537,8.03938462 11.8107547,8.13815385 C11.7230556,8.23784615 11.5975075,8.29415385 11.4645742,8.29415385 L11.5153473,9.28 L11.613201,9.29753846 C11.8541426,9.29753846 12.0544657,9.48215385 12.0729287,9.72215385 C12.1218555,10.3332308 12.418186,10.948 12.8649896,11.368 C12.9877683,11.4824615 13.0385414,11.6541538 12.9979229,11.8166154 L12.761597,12.7609231 C12.7200554,12.9261538 12.5908147,13.0553846 12.4255712,13.0969231 L10.4408031,13.5935385 C9.70136164,13.7781538 9.14562659,14.3587692 8.97669051,15.076 Z" id="Combined-Shape" fill-opacity="0.8" fill="#8075F2"></path>
                </g>
            </g>
            <g id="Report" transform="translate(274.000000, 0.000000)">
                <g id="Rectangle">
                    <use fill="black" fill-opacity="1" filter="url(#filter-16)" xlink:href="#path-15"></use>
                    <use fill-opacity="0.2" fill="#80D1F4" fill-rule="evenodd" xlink:href="#path-15"></use>
                </g>
                <g id="Navigation_Button_Scorecard_icon" transform="translate(18.000000, 10.000000)" fill-rule="nonzero">
                    <g id="Group" fill="#F1F2F3">
                        <path d="M21.7142857,27.4285714 L1.14285714,27.4285714 C0.827428571,27.4285714 0.571428571,27.1725714 0.571428571,26.8571429 L0.571428571,7.42857143 C0.571428571,7.27657143 0.632,7.13142857 0.738285714,7.024 L7.59542857,0.166857143 C7.70285714,0.0605714286 7.848,0 8,0 L21.7142857,0 C22.0297143,0 22.2857143,0.256 22.2857143,0.571428571 L22.2857143,26.8571429 C22.2857143,27.1725714 22.0297143,27.4285714 21.7142857,27.4285714 Z M1.71428571,26.2857143 L21.1428571,26.2857143 L21.1428571,1.14285714 L8.23657143,1.14285714 L1.71428571,7.66514286 L1.71428571,26.2857143 Z" id="Shape"></path>
                        <path d="M8,8 L1.14285714,8 C0.827428571,8 0.571428571,7.744 0.571428571,7.42857143 C0.571428571,7.11314286 0.827428571,6.85714286 1.14285714,6.85714286 L7.42857143,6.85714286 L7.42857143,0.571428571 C7.42857143,0.256 7.68457143,0 8,0 C8.31542857,0 8.57142857,0.256 8.57142857,0.571428571 L8.57142857,7.42857143 C8.57142857,7.744 8.31542857,8 8,8 Z" id="Shape"></path>
                    </g>
                    <g id="Group" transform="translate(9.142857, 2.285714)" fill-opacity="0.8" fill="#8075F2">
                        <path d="M10.2857143,5.71428571 L5.71428571,5.71428571 C5.39885714,5.71428571 5.14285714,5.45828571 5.14285714,5.14285714 L5.14285714,0.571428571 C5.14285714,0.256 5.39885714,0 5.71428571,0 C8.54971429,0 10.8571429,2.30742857 10.8571429,5.14285714 C10.8571429,5.45828571 10.6011429,5.71428571 10.2857143,5.71428571 Z M6.28571429,4.57142857 L9.67314286,4.57142857 C9.42171429,2.82171429 8.03428571,1.43428571 6.28571429,1.184 L6.28571429,4.57142857 L6.28571429,4.57142857 Z" id="Shape"></path>
                        <path d="M5.14285714,10.2857143 C2.62171429,10.2857143 0.571428571,8.23542857 0.571428571,5.71428571 C0.571428571,3.19314286 2.62171429,1.14285714 5.14285714,1.14285714 C5.45828571,1.14285714 5.71428571,1.39885714 5.71428571,1.71428571 C5.71428571,2.02971429 5.45828571,2.28571429 5.14285714,2.28571429 C3.25257143,2.28571429 1.71428571,3.824 1.71428571,5.71428571 C1.71428571,7.60457143 3.25257143,9.14285714 5.14285714,9.14285714 C7.03314286,9.14285714 8.57142857,7.60457143 8.57142857,5.71428571 C8.57142857,5.39885714 8.82742857,5.14285714 9.14285714,5.14285714 C9.45828571,5.14285714 9.71428571,5.39885714 9.71428571,5.71428571 C9.71428571,8.23542857 7.664,10.2857143 5.14285714,10.2857143 Z" id="Shape"></path>
                    </g>
                    <path d="M4.57142857,24 C4.256,24 4,23.744 4,23.4285714 L4,21.1428571 C4,20.8274286 4.256,20.5714286 4.57142857,20.5714286 C4.88685714,20.5714286 5.14285714,20.8274286 5.14285714,21.1428571 L5.14285714,23.4285714 C5.14285714,23.744 4.88685714,24 4.57142857,24 Z" id="Shape" fill-opacity="0.8" fill="#8075F2"></path>
                    <path d="M6.85714286,24 C6.54171429,24 6.28571429,23.744 6.28571429,23.4285714 L6.28571429,17.7142857 C6.28571429,17.3988571 6.54171429,17.1428571 6.85714286,17.1428571 C7.17257143,17.1428571 7.42857143,17.3988571 7.42857143,17.7142857 L7.42857143,23.4285714 C7.42857143,23.744 7.17257143,24 6.85714286,24 Z" id="Shape" fill-opacity="0.8" fill="#8075F2"></path>
                    <path d="M9.14285714,24 C8.82742857,24 8.57142857,23.744 8.57142857,23.4285714 L8.57142857,14.2857143 C8.57142857,13.9702857 8.82742857,13.7142857 9.14285714,13.7142857 C9.45828571,13.7142857 9.71428571,13.9702857 9.71428571,14.2857143 L9.71428571,23.4285714 C9.71428571,23.744 9.45828571,24 9.14285714,24 Z" id="Shape" fill-opacity="0.8" fill="#8075F2"></path>
                    <path d="M18.2857143,17.1428571 L11.4285714,17.1428571 C11.1131429,17.1428571 10.8571429,16.8868571 10.8571429,16.5714286 C10.8571429,16.256 11.1131429,16 11.4285714,16 L18.2857143,16 C18.6011429,16 18.8571429,16.256 18.8571429,16.5714286 C18.8571429,16.8868571 18.6011429,17.1428571 18.2857143,17.1428571 Z" id="Shape" fill-opacity="0.8" fill="#8075F2"></path>
                    <path d="M18.2857143,20.5714286 L11.4285714,20.5714286 C11.1131429,20.5714286 10.8571429,20.3154286 10.8571429,20 C10.8571429,19.6845714 11.1131429,19.4285714 11.4285714,19.4285714 L18.2857143,19.4285714 C18.6011429,19.4285714 18.8571429,19.6845714 18.8571429,20 C18.8571429,20.3154286 18.6011429,20.5714286 18.2857143,20.5714286 Z" id="Shape" fill-opacity="0.8" fill="#8075F2"></path>
                    <path d="M18.2857143,24 L11.4285714,24 C11.1131429,24 10.8571429,23.744 10.8571429,23.4285714 C10.8571429,23.1131429 11.1131429,22.8571429 11.4285714,22.8571429 L18.2857143,22.8571429 C18.6011429,22.8571429 18.8571429,23.1131429 18.8571429,23.4285714 C18.8571429,23.744 18.6011429,24 18.2857143,24 Z" id="Shape" fill-opacity="0.8" fill="#8075F2"></path>
                </g>
            </g>
            <text id="Scorecard" font-family="Roboto-Regular, Roboto" font-size="10" font-weight="normal" fill="#80D1F4">
                <tspan x="281.468262" y="54">Scorecard</tspan>
            </text>
            <g id="DriverFitness" transform="translate(183.000000, 75.000000)">
                <g id="Rectangle">
                    <use fill="black" fill-opacity="1" filter="url(#filter-18)" xlink:href="#path-17"></use>
                    <use fill-opacity="0.2" fill="#80D1F4" fill-rule="evenodd" xlink:href="#path-17"></use>
                </g>
                <text id="Scan-Doc" font-family="Roboto-Regular, Roboto" font-size="10" font-weight="normal" fill="#80D1F4">
                    <tspan x="9.45263672" y="54">Scan Doc</tspan>
                </text>
                <g id="Navigation_Button_Scandoc_icon" transform="translate(18.000000, 10.000000)">
                    <path d="M24.1371429,7.61998629 L24.1371429,22.4914286 C24.1371429,23.4003315 23.4003315,24.1371429 22.4914286,24.1371429 L20.8457143,24.1371429 L20.8457143,25.7828571 C20.8447468,26.691359 20.1085018,27.4276039 19.2,27.4285714 L1.64571429,27.4285714 C0.737212445,27.4276039 0.000967521419,26.691359 0,25.7828571 L0,4.93714286 C0.000967521419,4.02864102 0.737212445,3.29239609 1.64571429,3.29142857 L3.29142857,3.29142857 L3.29142857,1.64571429 C3.29142857,0.736811383 4.02823995,1.66962755e-16 4.93714286,0 L16.5209966,0 C16.9575668,6.11803054e-05 17.3762406,0.173505589 17.6849554,0.482194286 L23.6550583,6.45536914 C23.9638681,6.76426319 24.1372854,7.18320374 24.1371429,7.61998629 Z M17.5294903,1.87819886 L17.5500069,6.03637029 C17.551575,6.33833027 17.7966144,6.58238958 18.0985783,6.58274743 L22.231296,6.58274743 L17.5294903,1.87819886 Z M19.7485714,24.1371429 L4.93714286,24.1371429 C4.02823995,24.1371429 3.29142857,23.4003315 3.29142857,22.4914286 L3.29142857,4.38857143 L1.64571429,4.38857143 C1.34274665,4.38857143 1.09714286,4.63417522 1.09714286,4.93714286 L1.09714286,25.7828571 C1.09714286,26.0858248 1.34274665,26.3314286 1.64571429,26.3314286 L19.2,26.3314286 C19.5029676,26.3314286 19.7485714,26.0858248 19.7485714,25.7828571 L19.7485714,24.1371429 Z M23.04,7.68 L18.0985783,7.68 C17.1928424,7.67844726 16.4579863,6.94648163 16.452864,6.04075886 L16.4292754,1.09714286 L4.93714286,1.09714286 C4.63417522,1.09714286 4.38857143,1.34274665 4.38857143,1.64571429 L4.38857143,22.4914286 C4.38857143,22.7943962 4.63417522,23.04 4.93714286,23.04 L22.4914286,23.04 C22.7943962,23.04 23.04,22.7943962 23.04,22.4914286 L23.04,7.68 Z" id="Shape" fill="#F1F2F3" fill-rule="nonzero"></path>
                    <path d="M21.4308036,10.85625 C21.4308036,11.122037 21.2163223,11.3375 20.9517463,11.3375 L15.2030593,11.3375 C14.9384833,11.3375 14.7240021,11.122037 14.7240021,10.85625 C14.7240021,10.590463 14.9384833,10.375 15.2030593,10.375 L20.9517463,10.375 C21.2163223,10.375 21.4308036,10.590463 21.4308036,10.85625 Z" id="Path" fill-opacity="0.8" fill="#8075F2"></path>
                    <path d="M21.4308036,13.74375 C21.4308036,14.009537 21.2163223,14.225 20.9517463,14.225 L5.62191439,14.225 C5.35733838,14.225 5.14285714,14.009537 5.14285714,13.74375 C5.14285714,13.477963 5.35733838,13.2625 5.62191439,13.2625 L20.9517463,13.2625 C21.2163223,13.2625 21.4308036,13.477963 21.4308036,13.74375 Z" id="Path" fill-opacity="0.8" fill="#8075F2"></path>
                    <path d="M21.4308036,16.63125 C21.4308036,16.897037 21.2163223,17.1125 20.9517463,17.1125 L5.62191439,17.1125 C5.35733838,17.1125 5.14285714,16.897037 5.14285714,16.63125 C5.14285714,16.365463 5.35733838,16.15 5.62191439,16.15 L20.9517463,16.15 C21.2163223,16.15 21.4308036,16.365463 21.4308036,16.63125 Z" id="Path" fill-opacity="0.8" fill="#8075F2"></path>
                    <path d="M21.4308036,19.51875 C21.4308036,19.784537 21.2163223,20 20.9517463,20 L5.62191439,20 C5.35733838,20 5.14285714,19.784537 5.14285714,19.51875 C5.14285714,19.252963 5.35733838,19.0375 5.62191439,19.0375 L20.9517463,19.0375 C21.2163223,19.0375 21.4308036,19.252963 21.4308036,19.51875 Z" id="Path" fill-opacity="0.8" fill="#8075F2"></path>
                    <g id="user-b" transform="translate(5.714286, 2.857143)" stroke-opacity="0.8" stroke="#8075F2" fill-rule="nonzero">
                        <path d="M6.5963102,5.08682449 C6.11007347,4.83180408 5.06886531,4.29449796 4.47924898,4.0491102 C4.97155923,3.46513052 5.23622876,2.7229008 5.2244898,1.95918367 C5.2244898,0.606661224 4.42044082,0 3.42857143,0 C2.43670204,0 1.63265306,0.606661224 1.63265306,1.95918367 C1.62100763,2.72187328 1.88492605,3.46315907 2.37593469,4.0468898 C1.78334694,4.29106939 0.744228571,4.83036735 0.259591837,5.08643265 C0.0994553434,5.17109862 -0.000520318752,5.33758639 1.55570306e-16,5.51872653 L1.55570306e-16,5.7525551 C-0.000861495607,6.012693 0.190484865,6.23351588 0.448097959,6.26968163 C1.43543508,6.41653966 2.43073564,6.50367493 3.42857143,6.53061224 C4.42640722,6.50367493 5.42170777,6.41653966 6.4090449,6.26968163 C6.66665799,6.23351588 6.85800435,6.012693 6.85714286,5.7525551 L6.85714286,5.51977143 C6.85766437,5.33812761 6.7571356,5.17126346 6.5963102,5.08682449 Z M1.95918367,1.95918367 C1.95918367,0.921632653 2.49469388,0.326530612 3.42857143,0.326530612 C4.36244898,0.326530612 4.89795918,0.921632653 4.89795918,1.95918367 C4.89795918,3.15546122 4.19761633,4.24489796 3.42857143,4.24489796 C2.65952653,4.24489796 1.95918367,3.15546122 1.95918367,1.95918367 Z M6.53061224,5.7525551 C6.53186468,5.84987469 6.46048604,5.93291184 6.36408163,5.94628571 C5.39165715,6.09120879 4.41137083,6.17729734 3.42857143,6.20408163 C2.44576873,6.17724325 1.46548238,6.09110018 0.493061224,5.94612245 C0.396719238,5.93275619 0.325361091,5.84981284 0.326530612,5.7525551 L0.326530612,5.51872653 C0.326111867,5.45864396 0.359081816,5.40329571 0.412114286,5.37505306 C1.59291429,4.75118367 2.33776327,4.40166531 2.64078367,4.28806531 C2.86541217,4.4659734 3.14208582,4.56549151 3.42857143,4.57142857 C3.7129878,4.56565181 3.98780384,4.46749831 4.21152653,4.29178776 C4.52780408,4.41080816 5.27046531,4.76013061 6.44457143,5.37586939 C6.49777352,5.40399181 6.53092271,5.45936632 6.53057959,5.51954286 L6.53061224,5.7525551 Z" id="Shape"></path>
                    </g>
                </g>
            </g>
            <g id="parking" transform="translate(183.000000, 0.000000)">
                <g id="Rectangle">
                    <use fill="black" fill-opacity="1" filter="url(#filter-20)" xlink:href="#path-19"></use>
                    <use fill-opacity="0.2" fill="#80D1F4" fill-rule="evenodd" xlink:href="#path-19"></use>
                </g>
                <text id="Parking" font-family="Roboto-Regular, Roboto" font-size="10" font-weight="normal" fill="#80D1F4">
                    <tspan x="13.1494141" y="54">Parking</tspan>
                </text>
                <g id="local-truck_parking_icon" transform="translate(17.000000, 10.000000)">
                    <g id="Navigation_Button_Parking_icon">
                        <path d="M13,28 C12.8761905,28 12.752381,28 12.6285714,27.9066667 C12.1333333,27.5333333 0,19.32 0,9.8 C0,4.38666667 5.81904762,0 13,0 C20.1809524,0 26,4.38666667 26,9.8 C26,19.32 13.8666667,27.5333333 13.3714286,27.9066667 C13.247619,28 13.1238095,28 13,28 Z M13,0.933333333 C6.56190476,0.933333333 1.23809524,4.94666667 1.23809524,9.8 C1.23809524,17.92 10.8952381,25.3866667 13,26.88 C15.1047619,25.3866667 24.7619048,17.92 24.7619048,9.8 C24.7619048,4.94666667 19.4380952,0.933333333 13,0.933333333 Z" id="Shape" fill="#F1F2F3" fill-rule="nonzero"></path>
                        <g id="truck.2" opacity="0.8" transform="translate(5.416667, 4.000000)" fill-rule="nonzero" fill="#8075F2">
                            <path d="M1.51666667,3.26666667 L1.56722222,3.26666667 C1.56722222,3.26666667 1.61777778,3.26666667 1.61777778,3.26666667 L2.37611111,3.26666667 C2.47722222,3.26666667 2.52777778,3.22 2.57833333,3.17333333 C2.83111111,2.84666667 3.185,2.56666667 3.64,2.42666667 C3.74111111,2.42666667 3.79166667,2.33333333 3.84222222,2.28666667 C3.99388889,1.77333333 4.49944444,1.4 5.05555556,1.4 C5.56111111,1.4 6.06666667,1.72666667 6.21833333,2.19333333 C6.26888889,2.28666667 6.37,2.33333333 6.47111111,2.33333333 L8.69555556,2.33333333 C8.79666667,2.33333333 8.89777778,2.28666667 8.94833333,2.19333333 C9.1,1.72666667 9.60555556,1.4 10.1111111,1.4 C10.6672222,1.4 11.1727778,1.77333333 11.3244444,2.28666667 C11.3244444,2.38 11.4255556,2.42666667 11.4761111,2.42666667 C11.9311111,2.56666667 12.285,2.8 12.5377778,3.17333333 C12.5883333,3.22 12.6894444,3.26666667 12.74,3.26666667 L13.4983333,3.26666667 C13.4983333,3.26666667 13.5488889,3.26666667 13.5488889,3.26666667 L13.65,3.26666667 C13.65,3.26666667 13.65,3.26666667 13.65,3.26666667 C13.7005556,3.26666667 13.7511111,3.26666667 13.8016667,3.22 C13.8522222,3.17333333 13.9027778,3.12666667 13.9027778,3.03333333 L13.9027778,0.84 C13.9027778,0.373333333 13.4983333,0 12.9927778,0 L2.17388889,0 C1.66833333,0 1.26388889,0.373333333 1.26388889,0.84 L1.26388889,3.08 C1.26388889,3.12666667 1.31444444,3.22 1.365,3.26666667 C1.41555556,3.26666667 1.46611111,3.26666667 1.51666667,3.26666667 Z" id="Shape"></path>
                            <ellipse id="Oval" cx="3.03333333" cy="10.5" rx="1" ry="1"></ellipse>
                            <rect id="Rectangle-path" x="4.29722222" y="8.4" width="6.57222222" height="1.86666667"></rect>
                            <ellipse id="Oval" cx="12.1333333" cy="10.5" rx="1" ry="1"></ellipse>
                            <path d="M10.92,10.7333333 L4.24666667,10.7333333 C4.14555556,11.2466667 3.64,11.6666667 3.03333333,11.6666667 L12.1333333,11.6666667 C11.5266667,11.6666667 11.0211111,11.2466667 10.92,10.7333333 Z" id="Shape"></path>
                            <path d="M14.6611111,4.66666667 L14.4083333,4.66666667 L14.4083333,4.57333333 C14.4083333,4.10666667 14.0038889,3.73333333 13.4983333,3.73333333 L12.285,3.73333333 C12.0827778,3.17333333 11.5266667,2.8 10.8188889,2.8 L10.8188889,2.8 C10.8694444,2.70666667 10.8694444,2.66 10.8694444,2.56666667 C10.8694444,2.19333333 10.5155556,1.86666667 10.1111111,1.86666667 C9.70666667,1.86666667 9.35277778,2.19333333 9.35277778,2.56666667 C9.35277778,2.66 9.35277778,2.70666667 9.40333333,2.8 L5.76333333,2.8 C5.81388889,2.70666667 5.81388889,2.66 5.81388889,2.56666667 C5.81388889,2.19333333 5.46,1.86666667 5.05555556,1.86666667 C4.65111111,1.86666667 4.29722222,2.19333333 4.29722222,2.56666667 C4.29722222,2.66 4.29722222,2.70666667 4.34777778,2.8 L4.34777778,2.8 C3.64,2.8 3.08388889,3.17333333 2.88166667,3.73333333 L1.66833333,3.73333333 C1.16277778,3.73333333 0.758333333,4.10666667 0.758333333,4.57333333 L0.758333333,4.66666667 L0.505555556,4.66666667 C0.353888889,4.66666667 0.252777778,4.76 0.252777778,4.9 L0.252777778,7.23333333 C0.252777778,7.37333333 0.353888889,7.46666667 0.505555556,7.46666667 L1.26388889,7.46666667 L1.26388889,11.2 L1.01111111,11.2 C0.859444444,11.2 0.758333333,11.2933333 0.758333333,11.4333333 L0.758333333,11.6666667 L3.03333333,11.6666667 C2.32555556,11.6666667 1.76944444,11.1533333 1.76944444,10.5 C1.76944444,10.1266667 1.97166667,9.8 2.275,9.56666667 L2.275,9.56666667 L2.275,4.2 L2.78055556,4.2 C2.78055556,4.2 2.78055556,4.2 2.78055556,4.2 L2.78055556,9.33333333 C2.88166667,9.33333333 2.93222222,9.33333333 3.03333333,9.33333333 C3.33666667,9.33333333 3.58944444,9.42666667 3.79166667,9.56666667 L3.79166667,8.16666667 C3.79166667,8.02666667 3.89277778,7.93333333 4.04444444,7.93333333 L11.1222222,7.93333333 C11.2738889,7.93333333 11.375,8.02666667 11.375,8.16666667 L11.375,9.56666667 C11.5772222,9.42666667 11.83,9.33333333 12.1333333,9.33333333 C12.2344444,9.33333333 12.285,9.33333333 12.3861111,9.38 L12.3861111,4.2 C12.3861111,4.2 12.3861111,4.2 12.3861111,4.2 L12.8916667,4.2 L12.8916667,9.56666667 L12.8916667,9.56666667 C13.195,9.8 13.3972222,10.1266667 13.3972222,10.5 C13.3972222,11.1533333 12.8411111,11.6666667 12.1333333,11.6666667 L14.4083333,11.6666667 L14.4083333,11.4333333 C14.4083333,11.2933333 14.3072222,11.2 14.1555556,11.2 L13.9027778,11.2 L13.9027778,7.46666667 L14.6611111,7.46666667 C14.8127778,7.46666667 14.9138889,7.37333333 14.9138889,7.23333333 L14.9138889,4.9 C14.9138889,4.76 14.8127778,4.66666667 14.6611111,4.66666667 Z M3.79166667,6.76666667 L3.79166667,5.36666667 C3.79166667,4.71333333 4.34777778,4.2 5.05555556,4.2 L7.33055556,4.2 L7.33055556,7 L4.04444444,7 C3.89277778,7 3.79166667,6.90666667 3.79166667,6.76666667 Z M11.375,6.76666667 C11.375,6.90666667 11.2738889,7 11.1222222,7 L7.83611111,7 L7.83611111,4.2 L10.1111111,4.2 C10.8188889,4.2 11.375,4.71333333 11.375,5.36666667 L11.375,6.76666667 Z" id="Shape"></path>
                            <path d="M0.758333333,12.8333333 C0.758333333,12.9733333 0.859444444,13.0666667 1.01111111,13.0666667 L1.26388889,13.0666667 L1.26388889,13.7666667 C1.26388889,13.9066667 1.365,14 1.51666667,14 L4.04444444,14 C4.19611111,14 4.29722222,13.9066667 4.29722222,13.7666667 L4.29722222,13.0666667 L10.8694444,13.0666667 L10.8694444,13.7666667 C10.8694444,13.9066667 10.9705556,14 11.1222222,14 L13.65,14 C13.8016667,14 13.9027778,13.9066667 13.9027778,13.7666667 L13.9027778,13.0666667 L14.1555556,13.0666667 C14.3072222,13.0666667 14.4083333,12.9733333 14.4083333,12.8333333 L14.4083333,12.1333333 L0.758333333,12.1333333 L0.758333333,12.8333333 Z" id="Shape"></path>
                        </g>
                    </g>
                </g>
            </g>
            <g id="Trips" transform="translate(91.000000, 0.000000)">
                <g id="Rectangle">
                    <use fill="black" fill-opacity="1" filter="url(#filter-22)" xlink:href="#path-21"></use>
                    <use fill-opacity="0.2" fill="#80D1F4" fill-rule="evenodd" xlink:href="#path-21"></use>
                </g>
                <text id="Trip-Plan" font-family="Roboto-Regular, Roboto" font-size="10" font-weight="normal" fill="#80D1F4">
                    <tspan x="10.4052734" y="54">Trip Plan</tspan>
                </text>
                <g id="Navigation_Button_TripPlan_icon" transform="translate(16.000000, 9.000000)" fill-rule="nonzero">
                    <path d="M27.8504023,27.0242299 L14.5374196,0.0188782605 C14.5337709,0.0106190215 14.5228247,0.00825923897 14.5179598,0 C14.564177,0.0825923897 14.5957993,0.173444018 14.5957993,0.273734777 L14.5957993,3.81340862 C14.5957993,4.13905862 14.3233611,4.40335426 13.9876784,4.40335426 C13.6519956,4.40335426 13.3795575,4.13905862 13.3795575,3.81340862 L13.3795575,0.273734777 C13.3795575,0.173444018 13.412396,0.0825923897 13.4573969,9.8245685e-17 C13.452532,0.00825923897 13.442802,0.0106190215 13.4379371,0.0188782605 L0.0592774059,27.1563777 C-0.0307244864,27.3392609 -0.0173458267,27.5540011 0.093332176,27.7250853 C0.204010179,27.8973495 0.398608865,28 0.607802452,28 L6.7096875,28 C7.04537024,28 7.3178084,27.7357044 7.3178084,27.4100544 C7.3178084,27.1445788 7.35307941,26.9357381 7.4284864,26.7528549 L12.2934536,14.9539421 C12.5719729,14.2778644 13.2372572,13.8413046 13.9876784,13.8413046 C14.7380995,13.8413046 15.4033838,14.2778644 15.6819032,14.9539421 L20.5468703,26.7528549 C20.6222773,26.9357381 20.6575483,27.1445788 20.6575483,27.4100544 C20.6575483,27.7357044 20.9299865,28 21.2656692,28 L27.3675543,28 C27.376068,28 27.3833654,28 27.3918791,28 C27.7275618,28 28,27.7357044 28,27.4100544 C27.9987838,27.2625679 27.9428366,27.1280603 27.8504023,27.0242299 Z M14.5957993,12.0726476 C14.5957993,12.3982976 14.3233611,12.6625932 13.9876784,12.6625932 C13.6519956,12.6625932 13.3795575,12.3982976 13.3795575,12.0726476 L13.3795575,9.71286503 C13.3795575,9.38721504 13.6519956,9.12291939 13.9876784,9.12291939 C14.3233611,9.12291939 14.5957993,9.38721504 14.5957993,9.71286503 L14.5957993,12.0726476 Z M14.5957993,7.35308247 C14.5957993,7.67873246 14.3233611,7.94302811 13.9876784,7.94302811 C13.6519956,7.94302811 13.3795575,7.67873246 13.3795575,7.35308247 L13.3795575,6.17319118 C13.3795575,5.84754119 13.6519956,5.58324554 13.9876784,5.58324554 C14.3233611,5.58324554 14.5957993,5.84754119 14.5957993,6.17319118 L14.5957993,7.35308247 Z" id="Shape" fill="#FFFFFF"></path>
                    <path d="M19.4342861,27.1871297 L14.5651744,15.3377085 C14.3801482,14.8874305 13.6205668,14.8874305 13.4343233,15.3377085 L8.56521165,27.1871297 C8.47148125,27.4146386 8.53234515,27.6765108 8.71858867,27.8435876 C8.90483219,28.0094795 9.17871971,28.0473977 9.40269885,27.9371981 L13.9991402,25.7000273 L18.5955816,27.9371981 C18.6820083,27.979856 18.7745214,28 18.8682518,28 C19.017977,28 19.1652676,27.9466776 19.2796918,27.8435876 C19.4671526,27.6776957 19.5292337,27.4158235 19.4342861,27.1871297 Z" id="Shape" fill-opacity="0.8" fill="#8075F2"></path>
                </g>
            </g>
        </g>
    </g>
</svg>