<?xml version="1.0" encoding="UTF-8"?>
<svg width="28px" height="28px" viewBox="0 0 28 28" version="1.1" xmlns="http://www.w3.org/2000/svg" xmlns:xlink="http://www.w3.org/1999/xlink">
    <!-- Generator: Sketch 46.2 (44496) - http://www.bohemiancoding.com/sketch -->
    <title>@1xNavigation_Button_Food_icon</title>
    <desc>Created with Sketch.</desc>
    <defs></defs>
    <g id="Symbols" stroke="none" stroke-width="1" fill="none" fill-rule="evenodd">
        <g id="Navigation_Button_Food_icon" fill-rule="nonzero">
            <g>
                <path d="M13.7142857,0 C6.152,0 0,6.152 0,13.7142857 C0,21.2765714 6.152,27.4285714 13.7142857,27.4285714 C21.2765714,27.4285714 27.4285714,21.2765714 27.4285714,13.7142857 C27.4285714,6.152 21.2765714,0 13.7142857,0 Z M13.7142857,26.2857143 C6.78285714,26.2857143 1.14285714,20.6457143 1.14285714,13.7142857 C1.14285714,6.78285714 6.78285714,1.14285714 13.7142857,1.14285714 C20.6457143,1.14285714 26.2857143,6.78285714 26.2857143,13.7142857 C26.2857143,20.6457143 20.6457143,26.2857143 13.7142857,26.2857143 Z M13.7142857,2.28571429 C7.41257143,2.28571429 2.28571429,7.41257143 2.28571429,13.7142857 C2.28571429,20.016 7.41257143,25.1428571 13.7142857,25.1428571 C20.016,25.1428571 25.1428571,20.016 25.1428571,13.7142857 C25.1428571,7.41257143 20.016,2.28571429 13.7142857,2.28571429 Z M13.7142857,24 C8.04342857,24 3.42857143,19.3851429 3.42857143,13.7142857 C3.42857143,8.04342857 8.04342857,3.42857143 13.7142857,3.42857143 C19.3851429,3.42857143 24,8.04342857 24,13.7142857 C24,19.3851429 19.3851429,24 13.7142857,24 Z" id="Shape" fill="#F1F2F3"></path>
                <path d="M20.7049802,9.84049014 C20.4982157,9.62448384 20.1568389,9.61902913 19.943613,9.82958073 L17.3267497,12.4074742 C16.857222,12.4271111 16.4070784,12.5318414 15.9709346,12.6747547 C16.1109314,12.2536515 16.2143136,11.819457 16.2358516,11.3667165 L18.8473304,8.79427779 C19.0605563,8.58481713 19.0648639,8.23898885 18.8580993,8.02298255 C18.6513348,7.80697624 18.309958,7.80152154 18.0967321,8.01207314 L15.3280262,10.7394255 C15.2246439,10.8419739 15.1654145,10.9827053 15.1654145,11.1299823 C15.1654145,12.1543759 14.7594238,13.1176767 14.0228252,13.8431524 L13.8569829,14.0057026 L12.4947063,12.6649362 C12.7940841,12.2121957 12.9577727,11.6841803 12.9577727,11.1299823 C12.9577727,10.3739603 12.6594718,9.66375771 12.1188688,9.13137853 C11.0473548,8.07752959 8.61787185,7.34223541 7.45159081,8.48881432 C7.06283046,8.87173459 6.85714286,9.42811447 6.85714286,10.0968613 C6.85714286,11.1408917 7.38159241,12.4162017 8.10419128,13.1274952 C8.65771709,13.6729656 9.38462355,13.9457009 10.11153,13.9457009 C10.6812093,13.9457009 11.2487348,13.7722413 11.734416,13.4373224 L13.0848467,14.7671794 L8.86663539,18.9214825 C8.6534095,19.1309431 8.6491019,19.4767714 8.85586641,19.6927777 C8.96140246,19.8018718 9.10139926,19.8575098 9.24139606,19.8575098 C9.37708526,19.8575098 9.51277447,19.8062356 9.61723362,19.7036871 L13.8569829,15.5275652 L18.0967321,19.7025962 C18.2022682,19.8062356 18.3379574,19.8575098 18.4725697,19.8575098 C18.6125665,19.8575098 18.7525633,19.8018718 18.8580993,19.6916868 C19.0648639,19.4756805 19.0605563,19.1298522 18.8473304,18.9203915 L14.630196,14.7671794 L14.7734235,14.6253571 C15.5035606,13.906427 16.5158452,13.4940513 17.5496677,13.4940513 C17.6907414,13.4940513 17.8253537,13.4384133 17.9255053,13.3391377 L20.6942112,10.6117854 C20.9074371,10.4023247 20.9117447,10.0564964 20.7049802,9.84049014 Z M11.6434286,12.56 C10.9074286,13.2742857 9.712,13.2742857 8.97714286,12.56 C8.42857143,12.0262857 8,10.9908571 8,10.2034286 C8,9.93485714 8.05028571,9.568 8.28571429,9.33828571 C8.48914286,9.14057143 8.81714286,9.05371429 9.19657143,9.05371429 C10.0148571,9.05371429 11.0731429,9.456 11.6434286,10.0114286 C11.9942857,10.3531429 12.1874286,10.8045714 12.1874286,11.2857143 C12.1874286,11.7668571 11.9942857,12.2194286 11.6434286,12.56 Z" id="Shape-Copy" fill="#8075F2"></path>
            </g>
        </g>
    </g>
</svg>