<?xml version="1.0" encoding="UTF-8"?>
<svg width="28px" height="28px" viewBox="0 0 28 28" version="1.1" xmlns="http://www.w3.org/2000/svg" xmlns:xlink="http://www.w3.org/1999/xlink">
    <!-- Generator: Sketch 46.2 (44496) - http://www.bohemiancoding.com/sketch -->
    <title>@1xnavigation_on_duty_icon</title>
    <desc>Created with Sketch.</desc>
    <defs></defs>
    <g id="Symbols" stroke="none" stroke-width="1" fill="none" fill-rule="evenodd" opacity="0.8">
        <g id="navigation_on_duty_icon" fill-rule="nonzero">
            <g id="Shape">
                <path d="M15.9961667,26.6921667 L15.9121667,26.6011667 C15.8596667,26.544 15.806,26.488 15.757,26.4296667 C15.7056667,26.3666667 15.6566667,26.3013333 15.6088333,26.2348333 L15.4606667,26.0388333 C15.4116667,25.9746667 15.3615,25.9105 15.3148333,25.8405 C15.2705,25.7751667 15.2296667,25.7075 15.1293333,25.5406667 L15.0605,25.4333333 C15.015,25.361 14.9695,25.2886667 14.9275,25.2128333 C14.8948333,25.1521667 14.8645,25.0891667 14.8341667,25.025 L14.777,24.9048333 C14.777,24.9036667 14.7245,24.7998333 14.7245,24.7986667 C14.6825,24.7146667 14.6405,24.6306667 14.6043333,24.5478333 C14.5786667,24.486 14.5553333,24.4218333 14.5331667,24.3576667 L14.4865,24.2316667 C14.4865,24.2305 14.4445,24.122 14.4445,24.1208333 C14.4095,24.0298333 14.3733333,23.94 14.3453333,23.8478333 C14.3231667,23.7766667 14.3056667,23.7031667 14.287,23.6296667 L14.217,23.3601667 C14.1948333,23.2808333 14.1726667,23.2003333 14.1551667,23.1186667 C14.133,23.0136667 14.119,22.9051667 14.105,22.7978333 L14.0396667,22.3626667 C14.014,22.1071667 14,21.847 14,21.5833333 C14,20.3081667 14.3231667,19.047 14.9356667,17.9351667 C15.0803333,17.6726667 15.0033333,17.3448333 14.7571667,17.1745 C14.5775,17.0508333 14.448,16.9318333 14.35,16.8011667 C13.7713333,16.0288333 13.9288333,14.9298333 14.7,14.35 L17.0333333,12.6 C17.374,12.3445 17.7998333,12.2255 18.2373333,12.2651667 C18.5045,12.2861667 18.7553333,12.1251667 18.8416667,11.8685 C19.1123333,11.053 19.25,10.3961667 19.25,9.91666667 C19.25,9.86883333 19.2441667,9.821 19.2325,9.7755 C19.1683333,9.52 18.9898333,9.1455 18.6666667,8.92616667 L18.6666667,5.83333333 C18.6666667,3.95383333 18.0926667,3.18266667 17.4883333,2.73583333 C17.3728333,1.8305 16.4033333,0 12.8333333,0 C9.219,0 7,3.39733333 7,5.83333333 L7,8.92616667 C6.67683333,9.1455 6.49833333,9.52 6.43416667,9.7755 C6.4225,9.821 6.41666667,9.86883333 6.41666667,9.91666667 C6.41666667,10.8768333 6.97783333,12.3071667 7.042,12.467 C7.112,12.6408333 7.21466667,12.7563333 7.39666667,12.8018333 C7.46083333,12.8333333 7.58333333,13.0036667 7.58333333,13.4166667 C7.58333333,14.525 8.41516667,15.757 9.30766667,16.576 C9.18516667,17.3401667 8.61583333,19.355 7.399,19.8636667 L2.22133333,21.5891667 C0.799166667,22.0628333 0.322,23.2551667 0.0175,24.472 C0.00583333333,24.5186667 0,24.5665 0,24.6143333 L0,27.4166667 C0,27.7386667 0.261333333,28 0.583333333,28 L15.8725,28 C16.1093333,28 16.3076667,27.8401667 16.3975,27.6208333 C16.4873333,27.4015 16.4208333,27.1343333 16.2516667,26.9675 C16.1886667,26.9068333 16.1303333,26.8403333 15.9961667,26.6921667 Z" fill="#F1F2F3"></path>
                <path d="M27.0666667,16.2166667 C27.1716667,16.2948333 27.2941667,16.3333333 27.4155,16.3333333 C27.5928333,16.3333333 27.7678333,16.2528333 27.8821667,16.1 C28.0758333,15.8421667 28.0233333,15.477 27.7655,15.2833333 L25.4321667,13.5333333 C25.1755,13.3396667 24.8091667,13.3921667 24.6155,13.65 C24.4218333,13.9078333 24.4743333,14.273 24.7321667,14.4666667 L27.0666667,16.2166667 Z" fill="#8075F2"></path>
                <path d="M17.7333333,13.5333333 L15.4,15.2833333 C15.1421667,15.477 15.0896667,15.8421667 15.2833333,16.1 C15.3976667,16.2528333 15.5726667,16.3333333 15.75,16.3333333 C15.8713333,16.3333333 15.9938333,16.2948333 16.0988333,16.2166667 L18.4321667,14.4666667 C18.69,14.273 18.7425,13.9078333 18.5488333,13.65 C18.3563333,13.3921667 17.9911667,13.3396667 17.7333333,13.5333333 Z" fill="#8075F2"></path>
                <path d="M21.5833333,15.1666667 C18.0448333,15.1666667 15.1666667,18.0448333 15.1666667,21.5833333 C15.1666667,25.1218333 18.0448333,28 21.5833333,28 C25.1218333,28 28,25.1218333 28,21.5833333 C28,18.0448333 25.1218333,15.1666667 21.5833333,15.1666667 Z M24.3285,24.3296667 C24.2153333,24.4428333 24.066,24.5 23.9166667,24.5 C23.7673333,24.5 23.618,24.4428333 23.5036667,24.3296667 L21.1703333,21.9963333 C21.0618333,21.8866667 21,21.7385 21,21.5833333 L21,18.0833333 C21,17.7613333 21.2613333,17.5 21.5833333,17.5 C21.9053333,17.5 22.1666667,17.7613333 22.1666667,18.0833333 L22.1666667,21.3418333 L24.3296667,23.5048333 C24.5571667,23.7323333 24.5571667,24.101 24.3285,24.3296667 Z" fill="#8075F2"></path>
            </g>
        </g>
    </g>
</svg>