<?xml version="1.0" encoding="UTF-8"?>
<svg width="28px" height="28px" viewBox="0 0 28 28" version="1.1" xmlns="http://www.w3.org/2000/svg" xmlns:xlink="http://www.w3.org/1999/xlink">
    <!-- Generator: Sketch 46.2 (44496) - http://www.bohemiancoding.com/sketch -->
    <title>@1xnavigation_sleep_icon</title>
    <desc>Created with Sketch.</desc>
    <defs></defs>
    <g id="Symbols" stroke="none" stroke-width="1" fill="none" fill-rule="evenodd">
        <g id="navigation_sleep_icon" fill-rule="nonzero">
            <g>
                <g id="Group" fill-opacity="0.8" fill="#8075F2">
                    <path d="M10.8266667,10.2666667 C10.7333333,10.2666667 10.64,10.2666667 10.5466667,10.1733333 C10.36,10.08 10.36,9.89333333 10.36,9.70666667 L10.92,6.44 L8.77333333,4.29333333 C8.68,4.2 8.58666667,4.01333333 8.68,3.82666667 C8.77333333,3.64 8.86666667,3.54666667 9.05333333,3.54666667 L12.32,2.98666667 L13.3466667,0.28 C13.5333333,-0.0933333333 14.0933333,-0.0933333333 14.1866667,0.28 L15.2133333,2.98666667 L18.48,3.54666667 C18.6666667,3.54666667 18.76,3.73333333 18.8533333,3.82666667 C18.9466667,4.01333333 18.8533333,4.2 18.76,4.29333333 L16.52,6.44 L17.1733333,9.70666667 C17.1733333,9.89333333 17.1733333,10.08 16.9866667,10.1733333 C16.8,10.2666667 16.6133333,10.2666667 16.52,10.1733333 L13.8133333,8.58666667 L11.1066667,10.1733333 C11.0133333,10.2666667 10.92,10.2666667 10.8266667,10.2666667 Z M10.08,4.29333333 L11.76,5.97333333 C11.8533333,6.06666667 11.9466667,6.25333333 11.8533333,6.34666667 L11.48,8.86666667 L13.5333333,7.65333333 C13.72,7.56 13.9066667,7.56 14,7.65333333 L16.0533333,8.86666667 L15.5866667,6.34666667 C15.5866667,6.16 15.5866667,6.06666667 15.68,5.88 L17.4533333,4.2 L14.84,3.73333333 C14.6533333,3.73333333 14.56,3.64 14.4666667,3.45333333 L13.72,1.58666667 L12.9733333,3.45333333 C12.88,3.64 12.7866667,3.73333333 12.6,3.73333333 L10.08,4.29333333 Z" id="Shape"></path>
                    <path d="M25.48,10.2666667 C25.3866667,10.2666667 25.2933333,10.2666667 25.2,10.1733333 L23.1466667,8.58666667 L21.0933333,10.1733333 C20.9066667,10.2666667 20.72,10.2666667 20.5333333,10.1733333 C20.3466667,10.08 20.2533333,9.89333333 20.3466667,9.70666667 L20.9066667,7 L19.32,5.41333333 C19.2266667,5.32 19.1333333,5.04 19.2266667,4.94666667 C19.2266667,4.76 19.4133333,4.66666667 19.6,4.66666667 L21.6533333,4.66666667 L22.68,2.61333333 C22.8666667,2.33333333 23.3333333,2.33333333 23.52,2.61333333 L24.5466667,4.66666667 L26.6,4.66666667 C26.7866667,4.66666667 26.9733333,4.76 27.0666667,4.94666667 C27.16,5.13333333 27.0666667,5.32 26.9733333,5.41333333 L25.3866667,7 L25.9466667,9.70666667 C25.9466667,9.89333333 25.9466667,10.08 25.76,10.1733333 C25.5733333,10.2666667 25.48,10.2666667 25.48,10.2666667 Z M23.1466667,7.56 C23.24,7.56 23.3333333,7.56 23.4266667,7.65333333 L24.8266667,8.68 L24.4533333,7 C24.4533333,6.81333333 24.4533333,6.72 24.5466667,6.53333333 L25.48,5.6 L24.2666667,5.6 C24.08,5.6 23.8933333,5.50666667 23.8933333,5.32 L23.1466667,3.82666667 L22.4,5.32 C22.3066667,5.50666667 22.12,5.6 21.9333333,5.6 L20.72,5.6 L21.6533333,6.53333333 C21.7466667,6.62666667 21.84,6.81333333 21.7466667,7 L21.4666667,8.68 L22.8666667,7.65333333 C22.8666667,7.56 22.96,7.56 23.1466667,7.56 Z" id="Shape"></path>
                    <path d="M6.81333333,10.2666667 C6.62666667,10.2666667 6.53333333,10.2666667 6.53333333,10.1733333 L4.48,8.58666667 L2.42666667,10.1733333 C2.24,10.2666667 2.05333333,10.2666667 1.86666667,10.1733333 C1.68,10.08 1.58666667,9.89333333 1.68,9.70666667 L2.24,7 L0.56,5.41333333 C0.466666667,5.32 0.466666667,5.13333333 0.466666667,4.94666667 C0.56,4.76 0.746666667,4.66666667 0.933333333,4.66666667 L2.98666667,4.66666667 L4.01333333,2.61333333 C4.2,2.33333333 4.66666667,2.33333333 4.85333333,2.61333333 L5.88,4.66666667 L7.93333333,4.66666667 C8.12,4.66666667 8.30666667,4.76 8.4,4.94666667 C8.4,5.13333333 8.4,5.32 8.30666667,5.41333333 L6.72,7 L7.28,9.70666667 C7.28,9.89333333 7.28,10.08 7.09333333,10.1733333 C6.90666667,10.2666667 6.81333333,10.2666667 6.81333333,10.2666667 Z M4.48,7.56 C4.57333333,7.56 4.66666667,7.56 4.76,7.65333333 L6.16,8.68 L5.69333333,7 C5.69333333,6.81333333 5.69333333,6.72 5.78666667,6.53333333 L6.72,5.6 L5.6,5.6 C5.41333333,5.6 5.22666667,5.50666667 5.22666667,5.32 L4.48,3.82666667 L3.64,5.32 C3.64,5.50666667 3.45333333,5.6 3.26666667,5.6 L2.05333333,5.6 L2.98666667,6.53333333 C3.08,6.62666667 3.17333333,6.81333333 3.08,7 L2.8,8.68 L4.2,7.65333333 C4.2,7.56 4.29333333,7.56 4.48,7.56 Z" id="Shape"></path>
                </g>
                <path d="M27.0666667,28 L24.2666667,28 C23.9866667,28 23.8,27.8133333 23.8,27.5333333 L23.8,24.2666667 L4.2,24.2666667 L4.2,27.5333333 C4.2,27.8133333 4.01333333,28 3.73333333,28 L0.933333333,28 C0.653333333,28 0.466666667,27.8133333 0.466666667,27.5333333 L0.466666667,13.0666667 C0.466666667,12.04 1.30666667,11.2 2.33333333,11.2 C3.36,11.2 4.2,12.04 4.2,13.0666667 L4.2,20.5333333 L23.8,20.5333333 L23.8,15.8666667 C23.8,14.84 24.64,14 25.6666667,14 C26.6933333,14 27.5333333,14.84 27.5333333,15.8666667 L27.5333333,27.5333333 C27.5333333,27.8133333 27.3466667,28 27.0666667,28 Z M24.7333333,27.0666667 L26.6,27.0666667 L26.6,15.8666667 C26.6,15.3066667 26.2266667,14.9333333 25.6666667,14.9333333 C25.1066667,14.9333333 24.7333333,15.3066667 24.7333333,15.8666667 L24.7333333,21 C24.7333333,21.28 24.5466667,21.4666667 24.2666667,21.4666667 L3.73333333,21.4666667 C3.45333333,21.4666667 3.26666667,21.28 3.26666667,21 L3.26666667,13.0666667 C3.26666667,12.5066667 2.89333333,12.1333333 2.33333333,12.1333333 C1.77333333,12.1333333 1.4,12.5066667 1.4,13.0666667 L1.4,27.0666667 L3.26666667,27.0666667 L3.26666667,23.8 C3.26666667,23.52 3.45333333,23.3333333 3.73333333,23.3333333 L24.2666667,23.3333333 C24.5466667,23.3333333 24.7333333,23.52 24.7333333,23.8 L24.7333333,27.0666667 Z" id="Shape" fill="#F1F2F3"></path>
                <path d="M7.93333333,19.6 L5.6,19.6 C5.32,19.6 5.13333333,19.4133333 5.13333333,19.1333333 C5.13333333,18.8533333 5.32,18.6666667 5.6,18.6666667 L7.93333333,18.6666667 C8.96,18.6666667 9.8,17.8266667 9.8,16.8 L9.8,15.4 C9.8,15.12 9.98666667,14.9333333 10.2666667,14.9333333 C10.5466667,14.9333333 10.7333333,15.12 10.7333333,15.4 L10.7333333,16.8 C10.7333333,18.2933333 9.52,19.6 7.93333333,19.6 Z" id="Shape" fill="#F1F2F3"></path>
                <path d="M22.4,19.6 L12.1333333,19.6 C11.8533333,19.6 11.6666667,19.4133333 11.6666667,19.1333333 L11.6666667,15.4 C11.6666667,15.12 11.8533333,14.9333333 12.1333333,14.9333333 L20.0666667,14.9333333 C21.6533333,14.9333333 22.8666667,16.1466667 22.8666667,17.7333333 L22.8666667,19.1333333 C22.8666667,19.4133333 22.68,19.6 22.4,19.6 Z M12.6,18.6666667 L21.9333333,18.6666667 L21.9333333,17.7333333 C21.9333333,16.7066667 21.0933333,15.8666667 20.0666667,15.8666667 L12.6,15.8666667 L12.6,18.6666667 Z" id="Shape" fill="#F1F2F3"></path>
                <path d="M7,17.7333333 C5.97333333,17.7333333 5.13333333,16.8933333 5.13333333,15.8666667 C5.13333333,14.84 5.97333333,14 7,14 C8.02666667,14 8.86666667,14.84 8.86666667,15.8666667 C8.86666667,16.8933333 8.02666667,17.7333333 7,17.7333333 Z M7,14.9333333 C6.44,14.9333333 6.06666667,15.3066667 6.06666667,15.8666667 C6.06666667,16.4266667 6.44,16.8 7,16.8 C7.56,16.8 7.93333333,16.4266667 7.93333333,15.8666667 C7.93333333,15.3066667 7.56,14.9333333 7,14.9333333 Z" id="Shape" fill="#F1F2F3"></path>
            </g>
        </g>
    </g>
</svg>