<?xml version="1.0" encoding="UTF-8"?>
<svg width="39px" height="28px" viewBox="0 0 39 28" version="1.1" xmlns="http://www.w3.org/2000/svg" xmlns:xlink="http://www.w3.org/1999/xlink">
    <!-- Generator: Sketch 46.2 (44496) - http://www.bohemiancoding.com/sketch -->
    <title>@1xnavigation_button_status_driving_icon</title>
    <desc>Created with Sketch.</desc>
    <defs></defs>
    <g id="Symbols" stroke="none" stroke-width="1" fill="none" fill-rule="evenodd">
        <g id="navigation_button_status_driving_icon" fill-rule="nonzero">
            <g id="Shape">
                <path d="M29.0833333,17.5 L27.9166667,17.5 C27.5666667,17.5 27.3333333,17.2666667 27.3333333,16.9166667 C27.3333333,16.5666667 27.5666667,16.3333333 27.9166667,16.3333333 L29.0833333,16.3333333 C29.4333333,16.3333333 29.6666667,16.5666667 29.6666667,16.9166667 C29.6666667,17.2666667 29.4333333,17.5 29.0833333,17.5 Z" fill="#F1F2F3"></path>
                <path d="M29.0833333,25.6666667 L13.9166667,25.6666667 C13.5666667,25.6666667 13.3333333,25.4333333 13.3333333,25.0833333 C13.3333333,24.7333333 13.5666667,24.5 13.9166667,24.5 L29.0833333,24.5 C29.4333333,24.5 29.6666667,24.7333333 29.6666667,25.0833333 C29.6666667,25.4333333 29.4333333,25.6666667 29.0833333,25.6666667 Z" fill="#F1F2F3"></path>
                <path d="M33.75,15.1666667 L27.9166667,15.1666667 C27.5666667,15.1666667 27.3333333,14.9333333 27.3333333,14.5833333 L27.3333333,7.58333333 C27.3333333,7.23333333 27.5666667,7 27.9166667,7 C28.2666667,7 28.5,7.23333333 28.5,7.58333333 L28.5,14 L33.75,14 C34.1,14 34.3333333,14.2333333 34.3333333,14.5833333 C34.3333333,14.9333333 34.1,15.1666667 33.75,15.1666667 Z" fill="#F1F2F3"></path>
                <path d="M35.5,25.6666667 C35.15,25.6666667 34.9166667,25.4333333 34.9166667,25.0833333 C34.9166667,24.7333333 35.15,24.5 35.5,24.5 C36.7833333,24.5 37.8333333,23.45 37.8333333,22.05 L37.8333333,15.05 L36.9,14.4666667 C36.7833333,14.35 36.6666667,14.2333333 36.6666667,14 L36.6666667,8.16666667 C36.6666667,7.93333333 36.7833333,7.7 37.0166667,7.7 L37.8333333,7.23333333 L37.8333333,5.36666667 C37.3666667,5.01666667 36.9,4.78333333 36.3166667,4.78333333 C36.2,4.78333333 35.9666667,4.66666667 35.9666667,4.66666667 L32.9333333,1.63333333 C32.5833333,1.51666667 31.4166667,1.16666667 31.0666667,1.16666667 L22.6666667,1.16666667 L22.6666667,18.0833333 C22.6666667,18.4333333 22.4333333,18.6666667 22.0833333,18.6666667 L7.38333333,18.6666667 L5.4,24.5 L7.5,24.5 C7.85,24.5 8.08333333,24.7333333 8.08333333,25.0833333 C8.08333333,25.4333333 7.85,25.6666667 7.5,25.6666667 L4.58333333,25.6666667 C4.35,25.6666667 4.23333333,25.55 4.11666667,25.4333333 C4,25.2 4,25.0833333 4,24.85 L6.33333333,17.85 C6.45,17.6166667 6.68333333,17.5 6.91666667,17.5 L21.5,17.5 L21.5,0.583333333 C21.5,0.233333333 21.7333333,0 22.0833333,0 L31.0666667,0 C31.4166667,0 33.2833333,0.35 33.75,0.933333333 L36.55,3.73333333 C37.3666667,3.85 38.1833333,4.2 38.7666667,4.78333333 C38.8833333,4.9 39,5.01666667 39,5.13333333 L39,7.58333333 C39,7.81666667 38.8833333,8.05 38.65,8.05 L37.8333333,8.51666667 L37.8333333,13.65 L38.7666667,14.2333333 C38.8833333,14.35 39,14.5833333 39,14.7 L39,22.05 C39,24.0333333 37.3666667,25.6666667 35.5,25.6666667 Z" fill="#F1F2F3"></path>
                <path d="M11.5833333,17.5 L9.25,17.5 C8.9,17.5 8.66666667,17.2666667 8.66666667,16.9166667 C8.66666667,16.5666667 8.9,16.3333333 9.25,16.3333333 L11.5833333,16.3333333 C11.9333333,16.3333333 12.1666667,16.5666667 12.1666667,16.9166667 C12.1666667,17.2666667 11.9333333,17.5 11.5833333,17.5 Z" fill="#F1F2F3"></path>
                <path d="M32.5833333,5.83333333 L25.5833333,5.83333333 C25.2333333,5.83333333 25,5.6 25,5.25 C25,4.9 25.2333333,4.66666667 25.5833333,4.66666667 L32.5833333,4.66666667 C32.9333333,4.66666667 33.1666667,4.9 33.1666667,5.25 C33.1666667,5.6 32.9333333,5.83333333 32.5833333,5.83333333 Z" fill="#F1F2F3"></path>
                <path d="M32,28 C30.0166667,28 28.5,26.3666667 28.5,24.5 C28.5,22.5166667 30.1333333,21 32,21 C33.9833333,21 35.5,22.6333333 35.5,24.5 C35.5,26.4833333 33.8666667,28 32,28 Z M32,22.1666667 C30.7166667,22.1666667 29.6666667,23.2166667 29.6666667,24.5 C29.6666667,25.7833333 30.7166667,26.8333333 32,26.8333333 C33.2833333,26.8333333 34.3333333,25.7833333 34.3333333,24.5 C34.3333333,23.2166667 33.2833333,22.1666667 32,22.1666667 Z" fill="#F1F2F3"></path>
                <path d="M11,28 C9.01666667,28 7.5,26.4833333 7.5,24.5 C7.5,22.5166667 9.01666667,21 11,21 C12.9833333,21 14.5,22.5166667 14.5,24.5 C14.5,26.4833333 12.8666667,28 11,28 Z M11,22.1666667 C9.71666667,22.1666667 8.66666667,23.2166667 8.66666667,24.5 C8.66666667,25.7833333 9.71666667,26.8333333 11,26.8333333 C12.2833333,26.8333333 13.3333333,25.7833333 13.3333333,24.5 C13.3333333,23.2166667 12.2833333,22.1666667 11,22.1666667 Z" fill="#F1F2F3"></path>
                <path d="M16.2857143,5.14285714 L9.42857143,5.14285714 C9.11314286,5.14285714 8.85714286,4.88685714 8.85714286,4.57142857 C8.85714286,4.256 9.11314286,4 9.42857143,4 L16.2857143,4 C16.6011429,4 16.8571429,4.256 16.8571429,4.57142857 C16.8571429,4.88685714 16.6011429,5.14285714 16.2857143,5.14285714 Z" fill="#8075F2"></path>
                <path d="M12.2857143,8.57142857 L5.42857143,8.57142857 C5.11314286,8.57142857 4.85714286,8.31542857 4.85714286,8 C4.85714286,7.68457143 5.11314286,7.42857143 5.42857143,7.42857143 L12.2857143,7.42857143 C12.6011429,7.42857143 12.8571429,7.68457143 12.8571429,8 C12.8571429,8.31542857 12.6011429,8.57142857 12.2857143,8.57142857 Z" fill="#8075F2"></path>
                <path d="M8.28571429,12 L1.42857143,12 C1.11314286,12 0.857142857,11.744 0.857142857,11.4285714 C0.857142857,11.1131429 1.11314286,10.8571429 1.42857143,10.8571429 L8.28571429,10.8571429 C8.60114286,10.8571429 8.85714286,11.1131429 8.85714286,11.4285714 C8.85714286,11.744 8.60114286,12 8.28571429,12 Z" fill="#8075F2"></path>
            </g>
        </g>
    </g>
</svg>