<?xml version="1.0" encoding="UTF-8"?>
<svg width="23px" height="27px" viewBox="0 0 23 27" version="1.1" xmlns="http://www.w3.org/2000/svg" xmlns:xlink="http://www.w3.org/1999/xlink">
    <!-- Generator: Sketch 46.2 (44496) - http://www.bohemiancoding.com/sketch -->
    <title>@1xperson-pin</title>
    <desc>Created with Sketch.</desc>
    <defs>
        <filter x="-8.7%" y="-7.4%" width="134.8%" height="129.6%" filterUnits="objectBoundingBox" id="filter-1">
            <feOffset dx="2" dy="2" in="SourceAlpha" result="shadowOffsetOuter1"></feOffset>
            <feGaussianBlur stdDeviation="1" in="shadowOffsetOuter1" result="shadowBlurOuter1"></feGaussianBlur>
            <feColorMatrix values="0 0 0 0 0   0 0 0 0 0   0 0 0 0 0  0 0 0 0.3 0" type="matrix" in="shadowBlurOuter1" result="shadowMatrixOuter1"></feColorMatrix>
            <feMerge>
                <feMergeNode in="shadowMatrixOuter1"></feMergeNode>
                <feMergeNode in="SourceGraphic"></feMergeNode>
            </feMerge>
        </filter>
    </defs>
    <g id="Symbols" stroke="none" stroke-width="1" fill="none" fill-rule="evenodd">
        <g id="person-pin">
            <g id="ic-person-pin-48px" filter="url(#filter-1)">
                <rect id="Rectangle-2" fill="#F1F2F3" x="3" y="4" width="18" height="17"></rect>
                <path d="M20.3859649,0.98245614 L3.19298246,0.98245614 C1.83596491,0.98245614 0.736842105,2.08157895 0.736842105,3.43859649 L0.736842105,20.6315789 C0.736842105,21.9885965 1.83596491,23.0877193 3.19298246,23.0877193 L8.10526316,23.0877193 L11.7894737,26.7719298 L15.4736842,23.0877193 L20.3859649,23.0877193 C21.7429825,23.0877193 22.8421053,21.9885965 22.8421053,20.6315789 L22.8421053,3.43859649 C22.8421053,2.08157895 21.7429825,0.98245614 20.3859649,0.98245614 Z M11.7894737,5.03508772 C13.6192982,5.03508772 15.1052632,6.52105263 15.1052632,8.35087719 C15.1052632,10.1807018 13.6192982,11.6666667 11.7894737,11.6666667 C9.95964912,11.6666667 8.47368421,10.1807018 8.47368421,8.35087719 C8.47368421,6.52105263 9.95964912,5.03508772 11.7894737,5.03508772 Z M19.1578947,18.1754386 L4.42105263,18.1754386 L4.42105263,17.0701754 C4.42105263,14.6140351 9.33333333,13.2631579 11.7894737,13.2631579 C14.245614,13.2631579 19.1578947,14.6140351 19.1578947,17.0701754 L19.1578947,18.1754386 Z" id="Shape" fill="#0B7853" fill-rule="nonzero"></path>
            </g>
        </g>
    </g>
</svg>