<?xml version="1.0" encoding="UTF-8"?>
<svg width="100px" height="26px" viewBox="0 0 100 26" version="1.1" xmlns="http://www.w3.org/2000/svg" xmlns:xlink="http://www.w3.org/1999/xlink">
    <!-- Generator: Sketch 46.2 (44496) - http://www.bohemiancoding.com/sketch -->
    <title>@1xpreview_button</title>
    <desc>Created with Sketch.</desc>
    <defs>
        <rect id="path-1" x="0" y="0" width="100" height="26" rx="2"></rect>
        <filter x="-6.0%" y="-15.4%" width="112.0%" height="146.2%" filterUnits="objectBoundingBox" id="filter-2">
            <feOffset dx="0" dy="2" in="SourceAlpha" result="shadowOffsetOuter1"></feOffset>
            <feGaussianBlur stdDeviation="1" in="shadowOffsetOuter1" result="shadowBlurOuter1"></feGaussianBlur>
            <feColorMatrix values="0 0 0 0 0   0 0 0 0 0   0 0 0 0 0  0 0 0 0.24 0" type="matrix" in="shadowBlurOuter1" result="shadowMatrixOuter1"></feColorMatrix>
            <feOffset dx="0" dy="0" in="SourceAlpha" result="shadowOffsetOuter2"></feOffset>
            <feGaussianBlur stdDeviation="1" in="shadowOffsetOuter2" result="shadowBlurOuter2"></feGaussianBlur>
            <feColorMatrix values="0 0 0 0 0   0 0 0 0 0   0 0 0 0 0  0 0 0 0.12 0" type="matrix" in="shadowBlurOuter2" result="shadowMatrixOuter2"></feColorMatrix>
            <feMerge>
                <feMergeNode in="shadowMatrixOuter1"></feMergeNode>
                <feMergeNode in="shadowMatrixOuter2"></feMergeNode>
            </feMerge>
        </filter>
    </defs>
    <g id="Symbols" stroke="none" stroke-width="1" fill="none" fill-rule="evenodd">
        <g id="preview_button">
            <g>
                <g id="button-bg">
                    <use fill="black" fill-opacity="1" filter="url(#filter-2)" xlink:href="#path-1"></use>
                    <use fill="#1F83FF" fill-rule="evenodd" xlink:href="#path-1"></use>
                </g>
                <text id="PREVIEW" font-family="Roboto-Medium, Roboto" font-size="14" font-weight="400" letter-spacing="0.5" fill="#FFFFFF">
                    <tspan x="29.4578382" y="19">PREVIEW</tspan>
                </text>
                <g id="right.9" transform="translate(9.000000, 8.000000)" fill-rule="nonzero" fill="#F1F2F3">
                    <path d="M4.16666667,9.79166667 C4.11333333,9.79166667 4.06,9.77125 4.01916667,9.73083333 C3.93791667,9.64958333 3.93791667,9.5175 4.01916667,9.43625 L8.45541667,5 L4.01916667,0.564166667 C3.93791667,0.482916667 3.93791667,0.350833333 4.01916667,0.269583333 C4.10041667,0.188333333 4.2325,0.188333333 4.31375,0.269583333 L8.89708333,4.85291667 C8.97833333,4.93416667 8.97833333,5.06625 8.89708333,5.1475 L4.31375,9.73083333 C4.27333333,9.77125 4.22,9.79166667 4.16666667,9.79166667 Z" id="Shape"></path>
                    <path d="M0.416666667,9.79166667 C0.363333333,9.79166667 0.31,9.77125 0.269166667,9.73083333 C0.187916667,9.64958333 0.187916667,9.5175 0.269166667,9.43625 L4.70541667,5 L0.269166667,0.564166667 C0.187916667,0.482916667 0.187916667,0.350833333 0.269166667,0.269583333 C0.350416667,0.188333333 0.4825,0.188333333 0.56375,0.269583333 L5.14708333,4.85291667 C5.22833333,4.93416667 5.22833333,5.06625 5.14708333,5.1475 L0.56375,9.73083333 C0.523333333,9.77125 0.47,9.79166667 0.416666667,9.79166667 Z" id="Shape"></path>
                </g>
            </g>
        </g>
    </g>
</svg>