<?xml version="1.0" encoding="UTF-8"?>
<svg width="28px" height="28px" viewBox="0 0 28 28" version="1.1" xmlns="http://www.w3.org/2000/svg" xmlns:xlink="http://www.w3.org/1999/xlink">
    <!-- Generator: Sketch 46.2 (44496) - http://www.bohemiancoding.com/sketch -->
    <title>@1xRadio button active</title>
    <desc>Created with Sketch.</desc>
    <defs>
        <rect id="path-1" x="0" y="0" width="28" height="28" rx="14"></rect>
        <filter x="-33.9%" y="-19.6%" width="167.9%" height="167.9%" filterUnits="objectBoundingBox" id="filter-2">
            <feOffset dx="0" dy="4" in="SourceAlpha" result="shadowOffsetOuter1"></feOffset>
            <feGaussianBlur stdDeviation="2.5" in="shadowOffsetOuter1" result="shadowBlurOuter1"></feGaussianBlur>
            <feColorMatrix values="0 0 0 0 0   0 0 0 0 0   0 0 0 0 0  0 0 0 0.1 0" type="matrix" in="shadowBlurOuter1"></feColorMatrix>
        </filter>
        <filter x="-19.6%" y="-5.4%" width="139.3%" height="139.3%" filterUnits="objectBoundingBox" id="filter-3">
            <feOffset dx="0" dy="1" in="SourceAlpha" result="shadowOffsetInner1"></feOffset>
            <feComposite in="shadowOffsetInner1" in2="SourceAlpha" operator="arithmetic" k2="-1" k3="1" result="shadowInnerInner1"></feComposite>
            <feColorMatrix values="0 0 0 0 1   0 0 0 0 1   0 0 0 0 1  0 0 0 0.13 0" type="matrix" in="shadowInnerInner1"></feColorMatrix>
        </filter>
    </defs>
    <g id="Symbols" stroke="none" stroke-width="1" fill="none" fill-rule="evenodd">
        <g id="Radio-button-active">
            <g>
                <g id="Oval">
                    <use fill="black" fill-opacity="1" filter="url(#filter-2)" xlink:href="#path-1"></use>
                    <use fill="#16FEAF" fill-rule="evenodd" xlink:href="#path-1"></use>
                    <use fill="black" fill-opacity="1" filter="url(#filter-3)" xlink:href="#path-1"></use>
                </g>
                <path d="M13.5622702,20.0005775 C13.3392702,20.0005775 13.1262702,19.9015775 12.9832702,19.7275775 L9.17027017,15.0995775 C8.90827017,14.7795775 8.95327017,14.3065775 9.27327017,14.0425775 C9.59227017,13.7805775 10.0652702,13.8255775 10.3292702,14.1455775 L13.4032702,17.8775775 L17.5772702,9.41857752 C17.7602702,9.04657752 18.2082702,8.89357752 18.5822702,9.07857752 C18.9532702,9.26157752 19.1052702,9.71057752 18.9222702,10.0825775 L14.2352702,19.5825775 C14.1222702,19.8105775 13.9012702,19.9665775 13.6482702,19.9955775 C13.6202702,19.9995775 13.5902702,20.0005775 13.5622702,20.0005775" id="Icon" fill="#FEFEFE"></path>
            </g>
        </g>
    </g>
</svg>