<?xml version="1.0" encoding="UTF-8"?>
<svg width="360px" height="75px" viewBox="0 0 360 75" version="1.1" xmlns="http://www.w3.org/2000/svg" xmlns:xlink="http://www.w3.org/1999/xlink">
    <!-- Generator: Sketch 46.2 (44496) - http://www.bohemiancoding.com/sketch -->
    <title>@1xscreen_white_header</title>
    <desc>Created with Sketch.</desc>
    <defs>
        <linearGradient x1="100%" y1="0%" x2="0%" y2="100%" id="linearGradient-1">
            <stop stop-color="#002139" offset="0%"></stop>
            <stop stop-color="#000725" offset="100%"></stop>
        </linearGradient>
    </defs>
    <g id="Symbols" stroke="none" stroke-width="1" fill="none" fill-rule="evenodd">
        <g id="screen_white_header">
            <g>
                <rect id="Rectangle-2-Copy" fill="#000000" opacity="0.902400362" x="0" y="0" width="360" height="75"></rect>
                <rect id="Rectangle-2" fill="url(#linearGradient-1)" opacity="0.902400362" x="0" y="0" width="360" height="75"></rect>
                <g id="more" transform="translate(338.000000, 53.000000) scale(1, -1) translate(-338.000000, -53.000000) translate(332.000000, 41.000000)">
                    <path d="M6,16 C7.1,16 8,16.9 8,18 C8,19.1 7.1,20 6,20 C4.9,20 4,19.1 4,18 C4,16.9 4.9,16 6,16 L6,16 Z M6,14 C4.9,14 4,13.1 4,12 C4,10.9 4.9,10 6,10 C7.1,10 8,10.9 8,12 C8,13.1 7.1,14 6,14 L6,14 Z M6,8 C4.9,8 4,7.1 4,6 C4,4.9 4.9,4 6,4 C7.1,4 8,4.9 8,6 C8,7.1 7.1,8 6,8 L6,8 Z" id="Shape" fill="#D1D1D1"></path>
                    <polygon id="bounds" points="12 0 0 0 0 24 12 24"></polygon>
                </g>
                <g id="Material/Android/Status-bar-content" transform="translate(242.000000, 1.000000)">
                    <rect id="bounds" x="0" y="0" width="118" height="24"></rect>
                    <g id="time" opacity="0.9" stroke-width="1" fill-rule="evenodd" transform="translate(74.000000, 4.000000)" font-size="14" font-family="Roboto-Medium, Roboto" fill="#FFFFFF" font-weight="400">
                        <text id="7:30">
                            <tspan x="8.41699219" y="13">7:30</tspan>
                        </text>
                    </g>
                    <g id="battery" stroke-width="1" fill-rule="evenodd" transform="translate(55.000000, 4.000000)">
                        <polygon id="bounds" points="0 0 16 0 16 16 0 16"></polygon>
                        <polygon id="Shape" fill="#FFFFFF" points="9 1.875 9 1 6 1 6 1.875 3 1.875 3 15 12 15 12 1.875"></polygon>
                    </g>
                    <g id="cellular" stroke-width="1" fill-rule="evenodd" transform="translate(35.000000, 4.000000)">
                        <polygon id="bounds" points="0 0 16 0 16 16 0 16"></polygon>
                        <polygon id="Shape" fill="#FFFFFF" points="0 15 14 15 14 1"></polygon>
                    </g>
                    <g id="wifi" stroke-width="1" fill-rule="evenodd" transform="translate(14.000000, 4.000000)">
                        <polygon id="bounds" points="2 0 18 0 18 16 2 16"></polygon>
                        <path d="M0.977372085,4.01593123 C3.48821908,2.12256382 6.61301513,1 10,1 C13.3869849,1 16.5117809,2.12256382 19.0226279,4.01593123 L10,15 L0.977372085,4.01593123 Z" id="Shape" fill="#FFFFFF"></path>
                    </g>
                </g>
                <g id="Header" transform="translate(68.000000, 37.000000)" fill="#D1D1D1">
                    <text id="Wed-06/27/2017" font-family="Roboto-Regular, Roboto" font-size="20" font-weight="normal" line-spacing="30">
                        <tspan x="37.7265625" y="19">Wed  06/27/2017</tspan>
                    </text>
                    <g id="Group-10" transform="translate(0.000000, 5.000000)" fill-rule="nonzero">
                        <g id="Navigation_Chevron_Left_icon">
                            <path d="M9.8535,19.1465 C9.98347829,19.2720372 10.0356063,19.4579389 9.98984858,19.6327537 C9.94409086,19.8075684 9.80756838,19.9440909 9.63275366,19.9898486 C9.45793895,20.0356063 9.27203724,19.9834783 9.1465,19.8535 L0.1465,10.8535 C-0.0486909692,10.6582501 -0.0486909692,10.3417499 0.1465,10.1465 L9.1465,1.1465 C9.27203724,1.01652171 9.45793895,0.964393701 9.63275366,1.01015142 C9.80756838,1.05590914 9.94409086,1.19243162 9.98984858,1.36724634 C10.0356063,1.54206105 9.98347829,1.72796276 9.8535,1.8535 L1.207,10.5 L9.8535,19.1465 Z" id="Shape"></path>
                        </g>
                        <g id="Navigation_Chevron-Right_icon" transform="translate(224.500000, 10.500000) rotate(180.000000) translate(-224.500000, -10.500000) translate(219.000000, 0.000000)">
                            <path d="M9.8535,19.1465 C9.98347829,19.2720372 10.0356063,19.4579389 9.98984858,19.6327537 C9.94409086,19.8075684 9.80756838,19.9440909 9.63275366,19.9898486 C9.45793895,20.0356063 9.27203724,19.9834783 9.1465,19.8535 L0.1465,10.8535 C-0.0486909692,10.6582501 -0.0486909692,10.3417499 0.1465,10.1465 L9.1465,1.1465 C9.27203724,1.01652171 9.45793895,0.964393701 9.63275366,1.01015142 C9.80756838,1.05590914 9.94409086,1.19243162 9.98984858,1.36724634 C10.0356063,1.54206105 9.98347829,1.72796276 9.8535,1.8535 L1.207,10.5 L9.8535,19.1465 Z" id="Shape"></path>
                        </g>
                    </g>
                </g>
                <g id="Navigation_Home-icon" transform="translate(13.000000, 39.000000)" fill-rule="nonzero" fill="#D1D1D1">
                    <path d="M23.8444715,11.1311019 L12.3244715,0.131101919 C12.1407699,-0.0437006398 11.8594051,-0.0437006398 11.6757035,0.131101919 L0.15570352,11.1311019 C0.0292657895,11.251822 -0.0257402493,11.4336362 0.0114056474,11.6080569 C0.0485515442,11.7824776 0.172206031,11.9230062 0.335789656,11.9767069 C0.499373282,12.0304076 0.6780338,11.989122 0.80447152,11.8684019 L2.88008752,9.88650192 L2.88008752,20.5000019 C2.88008752,21.328429 3.52479748,22.0000019 4.32008752,22.0000019 L19.6800875,22.0000019 C20.4753776,22.0000019 21.1200875,21.328429 21.1200875,20.5000019 L21.1200875,9.88700192 L23.1956075,11.8684019 C23.3220452,11.989122 23.5007058,12.0304076 23.6642894,11.9767069 C23.827873,11.9230062 23.9515275,11.7824776 23.9886734,11.6080569 C24.0258193,11.4336362 23.9708132,11.251822 23.8443755,11.1311019 L23.8444715,11.1311019 Z M15.3600875,21.0000019 L8.64008752,21.0000019 L8.64008752,14.5000019 C8.64008752,13.6715748 9.28479748,13.0000019 10.0800875,13.0000019 L13.9200875,13.0000019 C14.7153776,13.0000019 15.3600875,13.6715748 15.3600875,14.5000019 L15.3600875,21.0000019 Z" id="Shape"></path>
                </g>
            </g>
        </g>
    </g>
</svg>