<?xml version="1.0" encoding="UTF-8"?>
<svg width="360px" height="75px" viewBox="0 0 360 75" version="1.1" xmlns="http://www.w3.org/2000/svg" xmlns:xlink="http://www.w3.org/1999/xlink">
    <!-- Generator: Sketch 46.2 (44496) - http://www.bohemiancoding.com/sketch -->
    <title>@1xscreen_white_header_back</title>
    <desc>Created with Sketch.</desc>
    <defs>
        <linearGradient x1="100%" y1="0%" x2="0%" y2="100%" id="linearGradient-1">
            <stop stop-color="#002139" offset="0%"></stop>
            <stop stop-color="#000725" offset="100%"></stop>
        </linearGradient>
    </defs>
    <g id="Symbols" stroke="none" stroke-width="1" fill="none" fill-rule="evenodd">
        <g id="screen_white_header_back">
            <g id="screen_white_header">
                <rect id="Rectangle-2-Copy" fill="#000000" x="0" y="0" width="360" height="75"></rect>
                <rect id="Rectangle-2" fill="url(#linearGradient-1)" opacity="0.902400362" x="0" y="0" width="360" height="75"></rect>
                <g id="more" transform="translate(338.000000, 53.000000) scale(1, -1) translate(-338.000000, -53.000000) translate(332.000000, 41.000000)">
                    <path d="M6,16 C7.1,16 8,16.9 8,18 C8,19.1 7.1,20 6,20 C4.9,20 4,19.1 4,18 C4,16.9 4.9,16 6,16 L6,16 Z M6,14 C4.9,14 4,13.1 4,12 C4,10.9 4.9,10 6,10 C7.1,10 8,10.9 8,12 C8,13.1 7.1,14 6,14 L6,14 Z M6,8 C4.9,8 4,7.1 4,6 C4,4.9 4.9,4 6,4 C7.1,4 8,4.9 8,6 C8,7.1 7.1,8 6,8 L6,8 Z" id="Shape" fill="#D1D1D1"></path>
                    <polygon id="bounds" points="12 0 0 0 0 24 12 24"></polygon>
                </g>
                <g id="Material/Android/Status-bar-content" transform="translate(242.000000, 1.000000)">
                    <rect id="bounds" x="0" y="0" width="118" height="24"></rect>
                    <g id="time" opacity="0.9" stroke-width="1" fill-rule="evenodd" transform="translate(74.000000, 4.000000)" font-size="14" font-family="Roboto-Medium, Roboto" fill="#FFFFFF" font-weight="400">
                        <text id="7:30">
                            <tspan x="8.41699219" y="13">7:30</tspan>
                        </text>
                    </g>
                    <g id="battery" stroke-width="1" fill-rule="evenodd" transform="translate(55.000000, 4.000000)">
                        <polygon id="bounds" points="0 0 16 0 16 16 0 16"></polygon>
                        <polygon id="Shape" fill="#FFFFFF" points="9 1.875 9 1 6 1 6 1.875 3 1.875 3 15 12 15 12 1.875"></polygon>
                    </g>
                    <g id="cellular" stroke-width="1" fill-rule="evenodd" transform="translate(35.000000, 4.000000)">
                        <polygon id="bounds" points="0 0 16 0 16 16 0 16"></polygon>
                        <polygon id="Shape" fill="#FFFFFF" points="0 15 14 15 14 1"></polygon>
                    </g>
                    <g id="wifi" stroke-width="1" fill-rule="evenodd" transform="translate(14.000000, 4.000000)">
                        <polygon id="bounds" points="2 0 18 0 18 16 2 16"></polygon>
                        <path d="M0.977372085,4.01593123 C3.48821908,2.12256382 6.61301513,1 10,1 C13.3869849,1 16.5117809,2.12256382 19.0226279,4.01593123 L10,15 L0.977372085,4.01593123 Z" id="Shape" fill="#FFFFFF"></path>
                    </g>
                </g>
            </g>
            <text id="Register" font-family="Roboto-Medium, Roboto" font-size="20" font-weight="400" line-spacing="28" fill="#D1D1D1">
                <tspan x="72.0217" y="60">Register</tspan>
            </text>
            <g id="back" opacity="0.87" transform="translate(16.000000, 40.000000)">
                <rect id="bounds" x="0" y="0" width="24" height="24"></rect>
                <polygon id="Shape" fill="#D1D1D1" points="19.7 11 7.5 11 13.1 5.4 11.7 4 3.7 12 11.7 20 13.1 18.6 7.5 13 19.7 13"></polygon>
            </g>
        </g>
    </g>
</svg>