<?xml version="1.0" encoding="UTF-8"?>
<svg width="360px" height="75px" viewBox="0 0 360 75" version="1.1" xmlns="http://www.w3.org/2000/svg" xmlns:xlink="http://www.w3.org/1999/xlink">
    <!-- Generator: Sketch 46.2 (44496) - http://www.bohemiancoding.com/sketch -->
    <title>@1xscreen_white_header_home</title>
    <desc>Created with Sketch.</desc>
    <defs>
        <linearGradient x1="100%" y1="0%" x2="0%" y2="100%" id="linearGradient-1">
            <stop stop-color="#084385" offset="0%"></stop>
            <stop stop-color="#01033E" offset="100%"></stop>
        </linearGradient>
        <rect id="path-2" x="0" y="0" width="360" height="75"></rect>
        <filter x="-1.9%" y="-6.7%" width="103.9%" height="118.7%" filterUnits="objectBoundingBox" id="filter-3">
            <feOffset dx="0" dy="2" in="SourceAlpha" result="shadowOffsetOuter1"></feOffset>
            <feGaussianBlur stdDeviation="2" in="shadowOffsetOuter1" result="shadowBlurOuter1"></feGaussianBlur>
            <feComposite in="shadowBlurOuter1" in2="SourceAlpha" operator="out" result="shadowBlurOuter1"></feComposite>
            <feColorMatrix values="0 0 0 0 0   0 0 0 0 0   0 0 0 0 0  0 0 0 0.3 0" type="matrix" in="shadowBlurOuter1"></feColorMatrix>
        </filter>
    </defs>
    <g id="Symbols" stroke="none" stroke-width="1" fill="none" fill-rule="evenodd">
        <g id="screen_white_header_home">
            <g id="screen_white_header">
                <rect id="Rectangle-2-Copy" fill="#000000" opacity="0.902400362" x="0" y="0" width="360" height="75"></rect>
                <rect id="Rectangle-2" fill="url(#linearGradient-1)" opacity="0.902400362" x="0" y="0" width="360" height="75"></rect>
                <g id="Rectangle-5">
                    <use fill="black" fill-opacity="1" filter="url(#filter-3)" xlink:href="#path-2"></use>
                    <use fill-opacity="0.4" fill="#000000" fill-rule="evenodd" xlink:href="#path-2"></use>
                </g>
                <g id="more" transform="translate(338.000000, 53.000000) scale(1, -1) translate(-338.000000, -53.000000) translate(332.000000, 41.000000)">
                    <path d="M6,16 C7.1,16 8,16.9 8,18 C8,19.1 7.1,20 6,20 C4.9,20 4,19.1 4,18 C4,16.9 4.9,16 6,16 L6,16 Z M6,14 C4.9,14 4,13.1 4,12 C4,10.9 4.9,10 6,10 C7.1,10 8,10.9 8,12 C8,13.1 7.1,14 6,14 L6,14 Z M6,8 C4.9,8 4,7.1 4,6 C4,4.9 4.9,4 6,4 C7.1,4 8,4.9 8,6 C8,7.1 7.1,8 6,8 L6,8 Z" id="Shape" fill="#D1D1D1"></path>
                    <polygon id="bounds" points="12 0 0 0 0 24 12 24"></polygon>
                </g>
            </g>
            <g id="home" transform="translate(12.000000, 41.000000)" fill-rule="nonzero" fill="#D1D1D1">
                <path d="M22.8679499,10.1322247 L11.8679499,0.129411397 C11.6789499,-0.0431371323 11.3209499,-0.0431371323 11.1319499,0.129411397 L0.131949941,10.1322247 C-0.00305005881,10.2539256 -0.0370500588,10.430642 0.0419499412,10.5815177 C0.121949941,10.7332271 0.301949941,10.8307545 0.499949941,10.8307545 L2.99994994,10.8307545 L2.99994994,19.5832161 C2.99994994,19.8132808 3.22394994,20 3.49994994,20 L8.49994994,20 C8.77594994,20 8.99994994,19.8132808 8.99994994,19.5832161 L8.99994994,13.3314578 L13.9999499,13.3314578 L13.9999499,19.5832161 C13.9999499,19.8132808 14.2239499,20 14.4999499,20 L19.4999499,20 C19.7759499,20 19.9999499,19.8132808 19.9999499,19.5832161 L19.9999499,10.8307545 L22.4999499,10.8307545 C22.6979499,10.8307545 22.8779499,10.7332271 22.9579499,10.5815177 C23.0369499,10.430642 23.0029499,10.2539256 22.8679499,10.1322247 Z" id="Shape"></path>
            </g>
            <text id="Register" font-family="Roboto-Medium, Roboto" font-size="20" font-weight="400" line-spacing="28" fill="#D1D1D1">
                <tspan x="72.0217" y="60">Register</tspan>
            </text>
        </g>
    </g>
</svg>