<?xml version="1.0" encoding="UTF-8"?>
<svg width="48px" height="62px" viewBox="0 0 48 62" version="1.1" xmlns="http://www.w3.org/2000/svg" xmlns:xlink="http://www.w3.org/1999/xlink">
    <!-- Generator: Sketch 46.2 (44496) - http://www.bohemiancoding.com/sketch -->
    <title>@1xTruck</title>
    <desc>Created with Sketch.</desc>
    <defs></defs>
    <g id="Symbols" stroke="none" stroke-width="1" fill="none" fill-rule="evenodd">
        <g id="Truck" fill="#FFFFFF">
            <g>
                <path d="M28.8,46.6590909 C28.8,47.2239276 28.3701934,47.6818182 27.84,47.6818182 L20.16,47.6818182 C19.6298066,47.6818182 19.2,47.2239276 19.2,46.6590909 C19.2,46.0942542 19.6298066,45.6363636 20.16,45.6363636 L27.84,45.6363636 C28.3701934,45.6363636 28.8,46.0942542 28.8,46.6590909 Z M27.84,49.7272727 L20.16,49.7272727 C19.6298066,49.7272727 19.2,50.1851633 19.2,50.75 C19.2,51.3148367 19.6298066,51.7727273 20.16,51.7727273 L27.84,51.7727273 C28.3701934,51.7727273 28.8,51.3148367 28.8,50.75 C28.8,50.1851633 28.3701934,49.7272727 27.84,49.7272727 Z M42.24,48.7045455 C42.24,51.5287288 40.0909668,53.8181818 37.44,53.8181818 C34.7890332,53.8181818 32.64,51.5287288 32.64,48.7045455 C32.64,45.8803621 34.7890332,43.5909091 37.44,43.5909091 C40.0909668,43.5909091 42.24,45.8803621 42.24,48.7045455 Z M40.32,48.7045455 C40.32,47.0100354 39.0305801,45.6363636 37.44,45.6363636 C35.8494199,45.6363636 34.56,47.0100354 34.56,48.7045455 C34.56,50.3990555 35.8494199,51.7727273 37.44,51.7727273 C39.0298344,51.770811 40.3182012,50.3982611 40.32,48.7045455 Z M15.36,48.7045455 C15.36,51.5287288 13.2109668,53.8181818 10.56,53.8181818 C7.9090332,53.8181818 5.76,51.5287288 5.76,48.7045455 C5.76,45.8803621 7.9090332,43.5909091 10.56,43.5909091 C13.2109668,43.5909091 15.36,45.8803621 15.36,48.7045455 Z M13.44,48.7045455 C13.44,47.0100354 12.1505801,45.6363636 10.56,45.6363636 C8.96941992,45.6363636 7.68,47.0100354 7.68,48.7045455 C7.68,50.3990555 8.96941992,51.7727273 10.56,51.7727273 C12.1498344,51.770811 13.4382012,50.3982611 13.44,48.7045455 Z M47.04,37.4545455 L45.497856,37.4545455 C46.8020016,39.9924307 47.650549,42.7671153 48,45.6363636 L48,59.9545455 C48,61.0842188 47.1403867,62 46.08,62 L42.24,62 C41.1796133,62 40.32,61.0842188 40.32,59.9545455 L40.32,57.9090909 L7.68,57.9090909 L7.68,59.9545455 C7.68,61.0842188 6.82038672,62 5.76,62 L1.92,62 C0.85961328,62 1.2985992e-16,61.0842188 0,59.9545455 L0,45.6363636 C0.349318261,42.7671393 1.19773578,39.9924536 2.50176,37.4545455 L0.96,37.4545455 C0.42980664,37.4545455 6.49299601e-17,36.9966549 0,36.4318182 L0,32.3409091 C1.94855516e-15,31.7760724 0.42980664,31.3181818 0.96,31.3181818 L5.1264,31.3181818 L9.140352,21.3386136 C10.198726,18.705245 12.6294289,16.998235 15.318336,17 L32.680896,17 C35.3698729,16.998153 37.8006706,18.7051766 38.859072,21.3386136 L42.8736,31.3181818 L47.04,31.3181818 C47.5701934,31.3181818 48,31.7760724 48,32.3409091 L48,36.4318182 C48,36.9966549 47.5701934,37.4545455 47.04,37.4545455 Z M6.505728,32.9531136 L7.62624,35.4090909 L7.68,35.4090909 L10.39488,38.3019773 C11.1150405,39.0690999 12.0917455,39.5000395 13.110144,39.5 L34.889088,39.5 C35.9074865,39.5000395 36.8841915,39.0690999 37.604352,38.3019773 L40.32,35.4090909 L40.373376,35.4090909 L41.504448,32.9302045 C41.457408,32.86475 41.389248,32.8234318 41.356992,32.7444773 L37.092864,22.1455455 C36.3386219,20.2632973 34.6019559,19.0430204 32.680896,19.0454545 L15.318336,19.0454545 C13.3969971,19.0426921 11.6599514,20.2630233 10.9056,22.1455455 L6.6432,32.7444773 C6.60619464,32.8201651 6.55997124,32.8903167 6.505728,32.9531136 Z M3.84,35.4090909 L5.4912,35.4090909 L4.55808,33.3636364 L1.92,33.3636364 L1.92,35.4090909 L3.84,35.4090909 Z M43.264896,37.4545455 L41.114496,37.4545455 L38.9616,39.7481136 C37.8837891,40.9024534 36.4173944,41.5496243 34.889088,41.5454545 L13.110144,41.5454545 C11.5818543,41.5498413 10.1153927,40.9028924 9.03744,39.7487273 L6.884352,37.4545455 L4.733952,37.4545455 C3.29447208,39.9552706 2.33781382,42.7368404 1.92,45.6363636 L1.92,59.9545455 L5.76,59.9545455 L5.76,57.9090909 C5.76,56.7794176 6.61961328,55.8636364 7.68,55.8636364 L40.32,55.8636364 C41.3803867,55.8636364 42.24,56.7794176 42.24,57.9090909 L42.24,59.9545455 L46.08,59.9545455 L46.08,45.6363636 C45.6617142,42.736722 44.7045313,39.955145 43.264512,37.4545455 L43.264896,37.4545455 Z M46.08,33.3636364 L43.441152,33.3636364 L42.5088,35.4090909 L46.08,35.4090909 L46.08,33.3636364 Z M20.16,23.1363636 L27.84,23.1363636 C28.3701934,23.1363636 28.8,22.678473 28.8,22.1136364 C28.8,21.5487997 28.3701934,21.0909091 27.84,21.0909091 L20.16,21.0909091 C19.6298066,21.0909091 19.2,21.5487997 19.2,22.1136364 C19.2,22.678473 19.6298066,23.1363636 20.16,23.1363636 Z" id="Shape" fill-rule="nonzero"></path>
                <path d="M48,29.1079547 L48,0 L0,0 L0,29.1079547 L2.7672,29.1079547 L7.282896,17.8809405 C8.4735667,14.9184008 11.2081075,12.9980145 14.233128,13.0000002 L33.766008,13.0000002 C36.791107,12.9979223 39.5257545,14.9183239 40.716456,17.8809405 L45.2328,29.1079547 L48,29.1079547 Z" id="Combined-Shape"></path>
            </g>
        </g>
    </g>
</svg>